<?xml version="1.0" encoding="UTF-8"?> <svg xmlns:xlink="http://www.w3.org/1999/xlink" xmlns="http://www.w3.org/2000/svg" preserveAspectRatio="xMidYMid meet" data-bbox="20 59.686 160 80.627" width="524" height="265" viewBox="20 59.686 160 80.627" data-type="color" role="img" aria-labelledby="svgcid--rios7hdq72qj"><defs><style>#comp-k9pefu0m svg [data-color="1"] {fill: #003862;}</style></defs><title id="svgcid--rios7hdq72qj"></title><g><path fill="#003862" d="M133.76 129.925a.847.847 0 10.002 1.694.847.847 0 00-.002-1.694zm0 1.176a.33.33 0 110-.66.33.33 0 010 .66z" data-color="1"></path><path fill="#003862" d="M128.886 130.771a.847.847 0 10.002 1.694.847.847 0 00-.002-1.694zm0 1.177a.33.33 0 110-.66.33.33 0 010 .66z" data-color="1"></path><path fill="#003862" d="M73.588 137.152a.847.847 0 10.002 1.694.847.847 0 00-.002-1.694zm0 1.176a.33.33 0 110-.66.33.33 0 010 .66z" data-color="1"></path><path fill="#003862" d="M69.34 75.439a.847.847 0 10-.002-1.694.847.847 0 00.002 1.694zm0-1.177a.33.33 0 110 .66.33.33 0 010-.66z" data-color="1"></path><path fill="#003862" d="M138.9 90.977a.847.847 0 10-.002-1.694.847.847 0 00.002 1.694zm0-1.176a.33.33 0 110 .66.33.33 0 010-.66z" data-color="1"></path><path fill="#003862" d="M106.001 68.817a.846.846 0 100-1.693.846.846 0 000 1.693zm0-1.175z" data-color="1"></path><path fill="#003862" d="M30.03 99.623a.846.846 0 100-1.693.846.846 0 000 1.693zm0-1.175z" data-color="1"></path><path fill="#003862" d="M118.456 62.146h.055c.437.014.733.202.907.573.147.315.149.637.149.64a.415.415 0 00.831 0c0-.003.003-.325.15-.639.173-.371.47-.559.9-.573h.062a.416.416 0 000-.832h-.056c-.437-.014-.734-.202-.907-.573a1.72 1.72 0 01-.15-.64.417.417 0 00-.415-.416.417.417 0 00-.416.415c0 .004-.003.326-.149.64-.173.371-.47.558-.9.573h-.062a.416.416 0 00-.416.415v.001a.418.418 0 00.417.416zm.069-.42c.59-.019 1.028-.3 1.267-.81.186-.398.188-.798.195-.814 0 .017.002.416.188.815.238.511.677.791 1.273.81l.062.008h-.069c-.59.019-1.028.299-1.267.81-.186.399-.188.797-.195.814 0-.017-.002-.417-.188-.815-.239-.511-.677-.791-1.274-.81h-.062a.004.004 0 01-.004-.004l.074-.004z" data-color="1"></path><path fill="#003862" d="M133.698 86.411h.062a.415.415 0 000-.832h-.056c-.437-.014-.734-.202-.907-.573a1.72 1.72 0 01-.15-.64.417.417 0 00-.415-.416.417.417 0 00-.416.415c0 .003-.003.326-.149.64-.173.371-.47.558-.9.573h-.062a.416.416 0 00-.416.415v.001c0 .229.186.416.416.416h.056c.437.014.733.202.907.573.147.315.149.637.149.64a.416.416 0 00.831.001c0-.003.003-.325.15-.639.173-.372.47-.56.9-.574zm-1.274.398c-.186.399-.188.797-.195.814 0-.017-.002-.417-.188-.815-.239-.511-.677-.791-1.274-.81h-.062a.004.004 0 01-.004-.004l.073-.005c.59-.019 1.028-.3 1.267-.81.186-.398.188-.798.195-.814 0 .017.002.416.188.815.238.511.677.791 1.273.81l.062.008h-.069c-.589.02-1.027.3-1.266.811z" data-color="1"></path><path fill="#003862" d="M69.345 81.858a.522.522 0 00-.521.521v.002c0 .287.234.521.521.521h.07c.547.018.919.253 1.136.717.184.395.187.799.187.803a.522.522 0 001.042.001c0-.004.004-.408.188-.802.217-.465.589-.7 1.128-.718h.078a.522.522 0 000-1.044h-.07c-.547-.018-.919-.253-1.136-.718a2.158 2.158 0 01-.188-.802.522.522 0 00-1.042-.001c0 .004-.003.408-.187.801-.217.465-.589.7-1.128.718l-.078.001zm1.673-.499c.233-.499.236-1 .245-1.02 0 .021.003.522.236 1.021.299.64.848.991 1.596 1.015l.078.011h-.087c-.74.024-1.289.376-1.587 1.015-.233.5-.236 1-.245 1.02 0-.021-.003-.522-.236-1.021-.299-.64-.848-.991-1.596-1.016h-.078a.004.004 0 01-.004-.004l.091-.006c.74-.024 1.288-.375 1.587-1.015z" data-color="1"></path><path fill="#003862" d="M69.793 134.069h-.056c-.442-.014-.742-.204-.917-.579a1.744 1.744 0 01-.151-.647.42.42 0 00-.841-.001c0 .003-.003.33-.151.647-.176.375-.476.565-.911.58h-.063a.42.42 0 00-.42.42v.001c0 .232.189.42.42.42h.056c.442.014.742.204.917.579.149.319.151.645.151.648a.42.42 0 00.841 0c0-.003.003-.33.151-.647.175-.375.475-.565.91-.579h.063a.42.42 0 00.001-.842zm-.07.426c-.597.019-1.04.303-1.281.819-.188.403-.19.807-.198.823 0-.017-.002-.422-.19-.824-.241-.516-.684-.8-1.288-.819h-.063c-.002 0-.004-.002-.004-.003l.074-.005c.597-.02 1.04-.303 1.281-.82.188-.403.19-.807.198-.823 0 .017.002.421.19.824.241.516.684.8 1.288.819l.063.009h-.07z" data-color="1"></path><path fill="#003862" d="M24.35 104.608h-.07c-.547-.018-.919-.253-1.136-.718a2.158 2.158 0 01-.188-.802.522.522 0 00-1.042-.001c0 .004-.003.408-.187.801-.218.465-.589.7-1.128.718h-.078a.522.522 0 00-.521.521v.002c0 .287.234.521.521.521h.07c.547.018.919.253 1.136.717.184.395.187.799.187.803a.522.522 0 001.042.001c0-.004.004-.408.188-.802.217-.465.589-.7 1.128-.718h.078a.522.522 0 000-1.043zm-.087.527c-.74.024-1.289.376-1.587 1.015-.233.5-.236 1-.245 1.02 0-.021-.003-.522-.236-1.021-.299-.64-.848-.991-1.596-1.016h-.078a.004.004 0 01-.004-.004l.091-.006c.74-.024 1.288-.376 1.587-1.016.233-.499.236-.999.245-1.02 0 .021.003.522.236 1.021.299.64.848.991 1.596 1.016l.078.011h-.087z" data-color="1"></path><path fill="#003862" d="M76.504 76.355h.048c.376.012.632.174.782.493.127.272.129.549.129.552a.359.359 0 00.717 0c0-.003.003-.281.129-.552.149-.32.405-.482.776-.494h.054a.358.358 0 000-.718h-.049c-.377-.012-.632-.174-.782-.494a1.47 1.47 0 01-.129-.552.358.358 0 00-.717 0c0 .003-.002.281-.129.551-.15.32-.405.482-.776.494h-.054a.358.358 0 00-.358.358v.001a.36.36 0 00.359.361zm.06-.363c.509-.017.886-.258 1.092-.699.161-.343.162-.688.168-.701 0 .015.002.359.162.702.206.44.583.682 1.098.699l.054.007h-.06c-.509.016-.887.258-1.092.698-.161.344-.162.688-.168.702 0-.015-.002-.359-.162-.703-.206-.44-.583-.682-1.098-.699h-.054c-.002 0-.003-.001-.003-.003l.063-.003z" data-color="1"></path><path fill="#003862" d="M179.642 122.248h-.048c-.377-.012-.632-.174-.782-.494a1.47 1.47 0 01-.129-.552.358.358 0 00-.717 0c0 .003-.002.281-.129.551-.15.32-.405.482-.776.494h-.054a.358.358 0 00-.358.358v.001c0 .198.161.358.358.358h.048c.377.012.632.174.782.493.127.272.129.549.129.552a.359.359 0 00.717 0c0-.003.003-.281.129-.552.149-.32.405-.482.776-.494h.054a.358.358 0 00.358-.359.359.359 0 00-.358-.356zm-.06.363c-.509.016-.887.258-1.092.698-.161.344-.162.688-.168.702 0-.015-.002-.359-.162-.703-.206-.44-.583-.682-1.098-.699h-.054c-.002 0-.003-.001-.003-.003l.063-.004c.509-.017.886-.258 1.092-.699.161-.343.162-.688.168-.701 0 .015.002.359.162.702.206.44.583.682 1.098.699l.054.007-.06.001z" data-color="1"></path><path fill="#003862" d="M62.563 118.163h-3.035c-.26 0-.389-.129-.389-.389v-12.216c0-.674-.338-1.011-1.012-1.011h-3.501c-.675 0-1.011.338-1.011 1.011v12.216c0 .26-.13.389-.389.389H35.797c-.105 0-.182-.051-.233-.156a.33.33 0 010-.311l15.25-32.835c.156-.362.168-.648.039-.856-.13-.207-.402-.311-.817-.311h-3.579c-.571 0-.986.26-1.245.778l-15.717 33.925c-.208.519-.311.934-.311 1.245v2.49c0 .675.337 1.012 1.011 1.012h23.031c.259 0 .389.13.389.389v13.617c0 .675.337 1.011 1.011 1.011h3.501c.674 0 1.012-.337 1.012-1.011v-13.617c0-.259.129-.389.389-.389h3.035c.674 0 1.012-.337 1.012-1.012v-2.957c0-.674-.338-1.012-1.012-1.012z" data-color="1"></path><path fill="#003862" d="M168.403 118.163h-3.035c-.26 0-.389-.129-.389-.389v-12.216c0-.674-.338-1.012-1.012-1.012h-3.501c-.675 0-1.011.338-1.011 1.012v12.216c0 .26-.13.389-.389.389h-17.429c-.105 0-.182-.051-.233-.156a.33.33 0 010-.311l15.25-32.835c.156-.362.168-.648.039-.856-.13-.206-.402-.311-.817-.311h-3.579c-.571 0-.986.26-1.245.778l-15.717 33.925c-.208.519-.311.934-.311 1.245v2.49c0 .675.337 1.011 1.011 1.011h23.031c.259 0 .389.13.389.389v13.617c0 .675.337 1.012 1.011 1.012h3.501c.674 0 1.012-.337 1.012-1.012v-13.617c0-.259.129-.389.389-.389h3.035c.674 0 1.012-.336 1.012-1.011v-2.957c0-.674-.338-1.012-1.012-1.012z" data-color="1"></path><path fill="#B5BCF0" d="M74.876 115.973c-1.397.21-2.207.232-3.617.326.32 1.767 1.366 3.647 1.727 4.545a53.928 53.928 0 003.095-.367 54.312 54.312 0 002.654-.474 25.67 25.67 0 01-2.298-4.318c-.52.095-1.035.209-1.561.288z" data-color="2"></path><path fill="#B5BCF0" d="M127.92 105.042c-.293-1.956-.512-4.396-1.177-6.198a57.25 57.25 0 01-1.052 2.211c.284 1.535.44 3.114.44 4.731 0 13.439-10.263 24.477-23.379 25.712a8.29 8.29 0 01-6.183 2.752 8.309 8.309 0 01-6.897-3.668 57.113 57.113 0 01-7.606 1.434c4.135 3.166 8.838 5.516 14.191 6.088.138.15 9.265.318 10.036.093 6.532-1.609 12.729-5.787 16.778-11.265.88-1.192 1.618-2.577 2.296-3.863 1.297-2.276 2.967-4.886 3.519-8.623.059-.158-.556-6.676-.966-9.404z" data-color="2"></path><path fill="#B5BCF0" d="M76.04 92.136c-2.263 3.062-3.313 7.302-4.225 10.883a42.092 42.092 0 002.883-.627c1.284-9.779 8.034-17.832 17.085-20.993-6.301 1.684-11.81 5.415-15.743 10.737z" data-color="2"></path><path fill="#B5BCF0" d="M90.662 129.752c-.104-.042-.209-.08-.312-.123a6.427 6.427 0 002.598 2.826 6.477 6.477 0 01-2.286-2.703z" data-color="2"></path><path fill="#B5BCF0" d="M80.455 131.301c.469-.04.938-.084 1.406-.134a54.67 54.67 0 007.426-1.343 9.127 9.127 0 01-.23-.776 25.937 25.937 0 01-9.593-7.997 55.896 55.896 0 01-3.358.613 57.54 57.54 0 01-2.519.314c1.578 3.211 4.285 6.918 6.868 9.323z" data-color="2"></path><path fill="#B5BCF0" d="M100.178 132.419a6.862 6.862 0 001.107-.827c-.043.002-.087.002-.13.003a6.363 6.363 0 01-.977.824z" data-color="2"></path><path fill="#B5BCF0" d="M126.188 97.626c-1.558-3.207-4.242-6.915-6.804-9.324l-.024.052a25.761 25.761 0 016.006 11.187c.286-.632.561-1.27.822-1.915z" data-color="2"></path><path fill="#B5BCF0" d="M70.989 115.237a49.218 49.218 0 004.418-.45c.212-.032.419-.082.63-.116a25.769 25.769 0 01-1.568-8.884c0-.751.039-1.492.102-2.227-1.24.311-2.495.573-3.767.776a28.984 28.984 0 00-.109 9.29c.081.543.183 1.078.294 1.611z" data-color="2"></path><path fill="#FFFFFF" d="M89.058 129.048a8.084 8.084 0 01-.212-1.122 8.28 8.28 0 011.788-6.126 8.282 8.282 0 015.597-3.068 8.313 8.313 0 018.37 4.577 54.523 54.523 0 0020.766-23.769 25.782 25.782 0 00-6.006-11.187c-7.219 16.686-22.199 28.917-39.896 32.696a25.915 25.915 0 009.593 7.999z" data-color="3"></path><path fill="#FFFFFF" d="M103.504 125.748c-.382-3.513-3.331-5.856-6.858-5.856a6.868 6.868 0 00-5.396 2.583 6.854 6.854 0 00-1.481 5.075 6.57 6.57 0 00.582 2.079c.103.043.208.081.312.123a6.47 6.47 0 002.286 2.703 6.425 6.425 0 003.59 1.091 6.43 6.43 0 004.618-1.949l.13-.003a6.907 6.907 0 002.217-5.846z" data-color="3"></path><path fill="#FFFFFF" d="M76.437 115.685a25.854 25.854 0 002.298 4.318c17.538-3.543 32.381-15.681 39.304-32.279-.774-.628-2.966-2.888-3.801-3.434-6.26 16.405-20.555 28.252-37.801 31.395z" data-color="3"></path><path fill="#FFFFFF" d="M88.802 90.868a4.895 4.895 0 00-3.987 2.051 5.103 5.103 0 00-.914 3.755c.36 2.454 2.46 4.306 4.885 4.306.246 0 .495-.019.741-.057 2.697-.414 4.564-2.992 4.159-5.75-.36-2.454-2.461-4.305-4.884-4.305z" data-color="3"></path><path fill="#FFFFFF" d="M76.037 114.671a47.944 47.944 0 0037.256-30.621 28.685 28.685 0 00-10.19-3.4 43.841 43.841 0 01-9.035 12.187c.239.517.411 1.073.499 1.656a6.188 6.188 0 01-6.117 7.095 6.158 6.158 0 01-4.227-1.701 43.594 43.594 0 01-9.654 3.672 26.032 26.032 0 00-.102 2.227 25.85 25.85 0 001.57 8.885z" data-color="3"></path><path fill="#FFFFFF" d="M74.698 102.393a41.513 41.513 0 008.833-3.325 6.06 6.06 0 01-.627-1.907 6.138 6.138 0 011.141-4.59 6.137 6.137 0 014.053-2.437c.305-.045.616-.069.924-.069 1.714 0 3.298.726 4.431 1.898a41.778 41.778 0 008.019-10.685c-.521-.028-1.6-.881-2.126-.881-1.439 0-2.895.109-4.33.324a29.333 29.333 0 00-3.233.679c-9.052 3.161-15.801 11.214-17.085 20.993z" data-color="3"></path><path fill="#FFFFFF" d="M126.131 105.786a25.96 25.96 0 00-.44-4.731c-4.701 9.416-11.987 17.626-20.958 23.12a8.315 8.315 0 01-1.982 7.324c13.117-1.236 23.38-12.274 23.38-25.713z" data-color="3"></path><path fill="#003862" d="M129.942 104.737a30.624 30.624 0 00-2.355-8.005l.009-.022-.023-.009c-4.903-10.867-15.895-18.348-28.227-18.348-1.54 0-3.098.117-4.633.346-8.183 1.228-15.397 5.568-20.315 12.222-4.918 6.653-6.95 14.824-5.722 23.007 2.256 15.042 15.409 26.385 30.595 26.385 1.54 0 3.099-.117 4.633-.348 8.183-1.227 15.398-5.567 20.316-12.221 4.918-6.654 6.949-14.825 5.722-23.007zM76.04 92.136c3.933-5.321 9.442-9.052 15.742-10.736a29.402 29.402 0 013.234-.68 29.302 29.302 0 014.33-.324c.527 0 2.126-.027 2.647.001-2.09 3.98-5.302 8.443-8.54 11.565a6.176 6.176 0 00-4.431-1.898c-.307 0-.619.024-.924.069a6.137 6.137 0 00-4.053 2.437 6.142 6.142 0 00-1.141 4.59c.102.681.321 1.321.627 1.907a41.587 41.587 0 01-8.833 3.325c-.951.24-1.911.453-2.883.627.913-3.581 1.962-7.822 4.225-10.883zm13.486 8.786a4.998 4.998 0 01-.741.057c-2.425 0-4.524-1.852-4.885-4.306a5.103 5.103 0 01.914-3.755 4.897 4.897 0 013.987-2.051c2.423 0 4.524 1.851 4.884 4.305.405 2.758-1.462 5.336-4.159 5.75zm-18.83 12.705a28.933 28.933 0 01.107-9.291 44.652 44.652 0 003.767-.776 43.644 43.644 0 009.654-3.672 6.162 6.162 0 005.15 1.633 6.188 6.188 0 005.194-7.027 6.103 6.103 0 00-.499-1.656 43.841 43.841 0 009.035-12.187 28.692 28.692 0 0110.19 3.4 47.946 47.946 0 01-37.256 30.621c-.212.035-.418.085-.63.116a49.218 49.218 0 01-4.418.45 28.558 28.558 0 01-.294-1.611zm.564 2.672c1.41-.093 2.22-.115 3.617-.326.526-.079 1.04-.193 1.561-.288 17.246-3.143 31.541-14.99 37.802-31.395.833.546 3.026 2.806 3.8 3.434-6.923 16.598-21.767 28.736-39.304 32.279a53.14 53.14 0 01-2.654.474 55.885 55.885 0 01-3.095.367c-.361-.899-1.408-2.778-1.727-4.545zm9.197 15.005c-2.583-2.405-5.29-6.112-6.867-9.324.839-.09 1.68-.191 2.517-.316a54.976 54.976 0 003.358-.613c17.697-3.779 32.677-16.01 39.896-32.696l.024-.052c2.561 2.409 5.246 6.116 6.804 9.324a54.523 54.523 0 01-21.587 25.685 8.313 8.313 0 00-8.37-4.577 8.276 8.276 0 00-5.597 3.068 8.279 8.279 0 00-1.788 6.126c.042.385.119.757.212 1.122.067.263.14.523.23.776a54.824 54.824 0 01-7.426 1.343c-.469.05-.937.094-1.406.134zm20.828.289a6.92 6.92 0 01-1.107.827 6.422 6.422 0 01-3.641 1.126 6.42 6.42 0 01-3.59-1.091 6.422 6.422 0 01-2.598-2.826 6.543 6.543 0 01-.582-2.079 6.854 6.854 0 011.481-5.075 6.868 6.868 0 015.396-2.583c3.527 0 6.476 2.343 6.858 5.856a6.892 6.892 0 01-2.217 5.845zm21.291-5.063c-4.594 6.216-11.333 10.269-18.976 11.415-.132.02-.265.035-.397.052 2.49-.95 8.973-3.454 12.769-6.693 7.521-6.418 9.696-11.341 11.391-13.814-1.174 3.082-3.233 6.936-4.787 9.04zm5.417-13.375c-.504 1.238-4.264 11.91-13.245 18.146s-17.321 6.63-18.49 6.802c-5.353-.571-10.055-2.922-14.191-6.088a56.953 56.953 0 007.606-1.434 8.307 8.307 0 007.811 3.619 8.298 8.298 0 005.269-2.703 8.315 8.315 0 001.982-7.324c8.971-5.494 16.257-13.704 20.958-23.12.365-.731.719-1.467 1.052-2.211.665 1.802.884 4.242 1.177 6.198.408 2.729.422 5.455.071 8.115z" data-color="1"></path></g></svg> 