<svg width="40" height="40" viewBox="0 0 40 40" fill="none" xmlns="http://www.w3.org/2000/svg">
<path d="M5.10938 35.0003V36.9363C5.10938 37.2475 5.36164 37.4997 5.67273 37.4997H30.1095V3.06336C30.1095 2.75219 29.8573 2.5 29.5462 2.5H27.6095L5.10938 35.0003Z" fill="#DFDACE"/>
<path d="M26.8045 35.0009H3.17273C2.86156 35.0009 2.60938 34.7486 2.60938 34.4375V5.00008L5.91398 3.30516L7.60938 0H25.1948L26.8045 0.804844V35.0009Z" fill="white"/>
<path d="M25.1973 0V35.0009H27.6118V0.563359C27.6118 0.252187 27.3595 0 27.0484 0L25.1973 0Z" fill="#EBE5D7"/>
<path d="M2.60938 5.00008H7.04602C7.35719 5.00008 7.60937 4.74781 7.60937 4.43672V0L2.60938 5.00008Z" fill="#EBE5D7"/>
<path d="M22.6115 8.10375H7.61148C7.27805 8.10375 7.00781 7.83352 7.00781 7.50008C7.00781 7.16664 7.27805 6.89648 7.61148 6.89648H22.6115C22.9449 6.89648 23.2151 7.16672 23.2151 7.50008C23.2151 7.83352 22.9448 8.10375 22.6115 8.10375Z" fill="#F5BF36"/>
<path d="M22.6115 10.6057H7.61148C7.27805 10.6057 7.00781 10.3355 7.00781 10.0021C7.00781 9.66867 7.27805 9.39844 7.61148 9.39844H22.6115C22.9449 9.39844 23.2151 9.66867 23.2151 10.0021C23.2151 10.3355 22.9448 10.6057 22.6115 10.6057Z" fill="#F5BF36"/>
<path d="M15.1114 13.0998H7.61148C7.27805 13.0998 7.00781 12.8296 7.00781 12.4962C7.00781 12.1627 7.27805 11.8926 7.61148 11.8926H15.1114C15.4448 11.8926 15.7151 12.1628 15.7151 12.4962C15.7151 12.8295 15.4448 13.0998 15.1114 13.0998Z" fill="#F5BF36"/>
<path d="M33.0546 22.4983C33.0546 19.658 30.5803 17.6123 28.6218 17.6647C28.3025 17.6732 27.9912 17.5637 27.6899 17.6364C25.5812 18.1457 23.9788 20.0059 23.8659 22.2387C23.7787 23.9647 24.5672 25.5113 25.8262 26.4734C27.2731 27.5792 27.5782 29.6534 26.4741 31.1016C26.4368 31.1505 26.3986 31.1994 26.3595 31.2483L28.9449 32.0532H30.5546C30.5156 32.0044 29.6726 31.1506 29.6353 31.1018C28.524 29.6441 29.6625 27.5766 31.1122 26.4548C32.2938 25.5403 33.0546 24.1082 33.0546 22.4983Z" fill="#005A9E"/>
<path d="M28.6224 17.5055C28.2905 17.5209 27.9668 17.5692 27.6543 17.6471C29.8317 18.1878 31.4455 20.1554 31.4455 22.5C31.4455 24.11 30.6847 25.5421 29.503 26.4566C28.0534 27.5784 27.7196 29.646 28.8309 31.1036C28.8682 31.1525 28.9063 31.2013 28.9454 31.2502L30.1099 32.055L31.3599 31.2502C31.3209 31.2013 31.2827 31.1525 31.2455 31.1036C30.1341 29.646 30.4678 27.5784 31.9175 26.4566C33.0992 25.5421 33.8601 24.1099 33.8601 22.5C33.8601 19.6598 31.492 17.3727 28.6224 17.5055Z" fill="#003862"/>
<path d="M15.1095 27.5003C17.871 27.5003 20.1097 25.2617 20.1097 22.5002C20.1097 19.7386 17.871 17.5 15.1095 17.5C12.348 17.5 10.1094 19.7386 10.1094 22.5002C10.1094 25.2617 12.348 27.5003 15.1095 27.5003Z" fill="#F5BF36"/>
<path d="M14.4862 24.3519C14.3318 24.3519 14.1772 24.2929 14.0594 24.1751L12.8097 22.9254C12.5739 22.6897 12.5739 22.3074 12.8096 22.0717C13.0454 21.8359 13.4276 21.836 13.6633 22.0716L14.4862 22.8945L16.5594 20.8213C16.7952 20.5856 17.1774 20.5856 17.4132 20.8213C17.6489 21.057 17.6489 21.4392 17.4132 21.675L14.9132 24.175C14.7952 24.293 14.6407 24.3519 14.4862 24.3519Z" fill="#F2FBFF"/>
<path d="M35.5546 39.1938L33.9449 39.9986H21.9227C21.6116 39.9986 21.3594 39.7463 21.3594 39.4352V36.6934H35.5546V39.1938Z" fill="#F5BF36"/>
<path d="M33.9453 37.4982V39.9986H35.7964C36.1076 39.9986 36.3598 39.7463 36.3598 39.4352V37.4982L35.1952 36.6934L33.9453 37.4982Z" fill="#BD8A09"/>
<path d="M33.0546 34.5542H23.8594V31.8134C23.8594 31.5022 24.1116 31.25 24.4227 31.25H31.4449L33.0546 32.0548V34.5542Z" fill="#F5BF36"/>
<path d="M31.4473 31.25V33.7495L32.6545 34.5543L33.8618 33.7495V31.8134C33.8618 31.5023 33.6095 31.2501 33.2984 31.2501H31.4473V31.25Z" fill="#BD8A09"/>
<path d="M36.3584 36.6851L35.194 37.5002H20.89C20.5054 37.5002 20.2339 37.1235 20.3555 36.7587L21.23 34.1352C21.3067 33.9052 21.5219 33.75 21.7644 33.75H33.944L35.5537 34.5548L36.3584 36.6851Z" fill="#005A9E"/>
<path d="M35.9538 33.75H33.9453L35.1953 37.5002H36.8282C37.2127 37.5002 37.4843 37.1235 37.3627 36.7587L36.4882 34.1352C36.4115 33.9052 36.1963 33.75 35.9538 33.75Z" fill="#003862"/>
</svg>
