<svg width="41" height="40" viewBox="0 0 41 40" fill="none" xmlns="http://www.w3.org/2000/svg">
<g clip-path="url(#clip0_2570_4390)">
<path fill-rule="evenodd" clip-rule="evenodd" d="M35.6635 9.71438C54.1143 29.479 14.2004 29.4676 32.649 9.71438C32.9109 7.34883 30.8276 8.25727 31.3035 4.80117C31.3717 4.2957 33.0384 6.36758 33.43 5.5525C33.6643 5.06031 33.8944 4.70328 34.1565 4.125C34.4184 4.70312 34.6487 5.0607 34.8851 5.5525C35.2745 6.36758 36.9407 4.2957 37.0089 4.80117C37.4847 8.25727 35.4015 7.34883 35.6633 9.71438H35.6635Z" fill="#45BF64"/>
<path fill-rule="evenodd" clip-rule="evenodd" d="M31.7887 8.59766H36.5198C36.7481 8.59817 36.9669 8.68893 37.1286 8.85015C37.2902 9.01137 37.3816 9.22997 37.3827 9.45828C37.3821 9.68696 37.291 9.90609 37.1293 10.0678C36.9676 10.2295 36.7484 10.3206 36.5198 10.3213H31.7887C31.56 10.3206 31.3409 10.2295 31.1792 10.0678C31.0175 9.90606 30.9264 9.68695 30.9258 9.45828C30.9269 9.22998 31.0182 9.01138 31.1799 8.85016C31.3415 8.68893 31.5604 8.59817 31.7887 8.59766Z" fill="#389B51"/>
<path fill-rule="evenodd" clip-rule="evenodd" d="M14.0764 11.7074H26.2821V7.30442C26.2806 6.86184 26.1371 6.43141 25.8727 6.07647C25.6083 5.72154 25.237 5.46083 24.8134 5.3327C24.0962 5.11645 24.8498 4.00536 25.0911 3.47716C25.3098 3.00138 14.0762 2.14528 14.0762 7.30442L14.0764 11.7074Z" fill="#6182A6"/>
<path fill-rule="evenodd" clip-rule="evenodd" d="M20.1767 20.416H18.3166C12.2559 24.6691 9.53734 23.2233 9.10938 36.1621H31.2463C30.8183 23.2233 28.0998 24.6691 22.0391 20.416H20.1767Z" fill="#D3DDE6"/>
<path d="M17.7988 16.6641H22.5595V22.9638H17.7988V16.6641Z" fill="#E2AA73"/>
<path fill-rule="evenodd" clip-rule="evenodd" d="M17.9863 36.163L19.3934 25.123H20.9666L22.3737 36.163H17.9863Z" fill="#E64C3C"/>
<path fill-rule="evenodd" clip-rule="evenodd" d="M21.1972 26.924C20.8654 27.0222 20.521 27.0712 20.1749 27.0697C19.833 27.0708 19.4926 27.0232 19.1641 26.9285L19.394 25.123H20.9673L21.1972 26.924Z" fill="#CF4436"/>
<path fill-rule="evenodd" clip-rule="evenodd" d="M21.9971 22.9629L21.708 25.9545C21.6034 26.863 18.7369 26.8652 18.6504 25.9545L18.3613 22.9629H21.9971Z" fill="#BA3D31"/>
<path fill-rule="evenodd" clip-rule="evenodd" d="M17.8219 20.7598L20.1806 22.9637L22.858 25.4659L25.0665 22.3174C24.3038 21.8731 23.4634 21.3791 22.5415 20.7598L20.1805 22.9637L17.503 25.4659L15.2969 22.3174C16.0596 21.8734 16.8997 21.3794 17.8218 20.7601L17.8219 20.7598Z" fill="#ABB3BA"/>
<path fill-rule="evenodd" clip-rule="evenodd" d="M15.9425 9.94971C16.2427 10.1197 16.4857 10.3749 16.6407 10.683C16.7958 10.9911 16.856 11.3383 16.8137 11.6807C16.7714 12.023 16.6285 12.3451 16.4031 12.6062C16.1777 12.8673 15.8799 13.0557 15.5474 13.1475C15.2149 13.2393 14.8626 13.2304 14.5351 13.1219C14.2077 13.0135 13.9198 12.8103 13.7078 12.5382C13.4959 12.266 13.3694 11.9371 13.3444 11.5931C13.3194 11.249 13.3971 10.9053 13.5675 10.6054C13.7956 10.2036 14.1739 9.90885 14.6193 9.78589C15.0646 9.66294 15.5406 9.72186 15.9425 9.94971ZM26.1356 9.94971C26.4355 10.1199 26.6781 10.3752 26.8329 10.6834C26.9877 10.9915 27.0476 11.3386 27.0052 11.6809C26.9627 12.0231 26.8197 12.345 26.5942 12.6059C26.3688 12.8668 26.071 13.055 25.7386 13.1467C25.4062 13.2384 25.054 13.2295 24.7267 13.1211C24.3993 13.0126 24.1115 12.8096 23.8996 12.5376C23.6876 12.2655 23.5611 11.9368 23.536 11.5929C23.5109 11.2489 23.5884 10.9053 23.7586 10.6054C23.9869 10.2033 24.3656 9.90841 24.8113 9.78546C25.2571 9.6625 25.7334 9.72158 26.1356 9.94971Z" fill="#E2AA73"/>
<path fill-rule="evenodd" clip-rule="evenodd" d="M22.5602 19.5966C21.8316 20.0953 21.0234 20.4091 20.1852 20.4162H20.1738C19.336 20.4095 18.5277 20.0953 17.7988 19.5966V16.6641H22.5595L22.5602 19.5966Z" fill="#CB9968"/>
<path fill-rule="evenodd" clip-rule="evenodd" d="M24.7798 8.80523C25.5197 12.2773 25.333 13.6228 25.0298 14.982C24.5381 17.1859 22.3842 19.8088 20.1782 19.8293C17.9743 19.8088 15.8205 17.1859 15.3287 14.982C15.0259 13.6227 14.8392 12.2773 15.5792 8.80523C17.9743 9.18312 20.1573 8.86211 21.6877 7.08398C22.6826 8.31836 23.4727 8.55477 24.7795 8.80523H24.7798Z" fill="#FBBD80"/>
<path fill-rule="evenodd" clip-rule="evenodd" d="M34.1571 22.2367C34.9713 22.2368 35.7672 21.9954 36.4442 21.5431C37.1211 21.0908 37.6488 20.448 37.9604 19.6958C38.272 18.9436 38.3536 18.1159 38.1948 17.3174C38.036 16.5189 37.6439 15.7854 37.0682 15.2097C36.4926 14.6339 35.7591 14.2419 34.9606 14.083C34.162 13.9242 33.3344 14.0057 32.5822 14.3172C31.83 14.6288 31.1871 15.1564 30.7347 15.8334C30.2824 16.5103 30.041 17.3062 30.041 18.1204C30.0433 19.2114 30.4777 20.2571 31.2492 21.0285C32.0207 21.8 33.0663 22.2344 34.1573 22.2367H34.1571Z" fill="#389B51"/>
<path d="M34.7189 20.408V20.6492C34.7189 20.7984 34.6596 20.9415 34.5542 21.047C34.4487 21.1525 34.3056 21.2117 34.1564 21.2117C34.0072 21.2117 33.8642 21.1525 33.7587 21.047C33.6532 20.9415 33.5939 20.7984 33.5939 20.6492V20.4056C33.4922 20.3637 33.3953 20.311 33.3048 20.2485C33.0556 20.0719 32.8665 19.8232 32.763 19.5359C32.7382 19.4663 32.7273 19.3926 32.731 19.3189C32.7346 19.2452 32.7528 19.1729 32.7844 19.1062C32.816 19.0395 32.8604 18.9797 32.9152 18.9302C32.9699 18.8807 33.0338 18.8424 33.1034 18.8176C33.1729 18.7928 33.2466 18.7819 33.3203 18.7856C33.394 18.7892 33.4663 18.8074 33.533 18.839C33.5997 18.8706 33.6595 18.9151 33.709 18.9698C33.7586 19.0245 33.7968 19.0885 33.8216 19.158C33.8461 19.227 33.8914 19.2867 33.9514 19.3288C34.0114 19.3708 34.0831 19.393 34.1563 19.3923C34.2508 19.3929 34.3416 19.3561 34.4091 19.2899C34.4423 19.2567 34.4686 19.2173 34.4866 19.174C34.5046 19.1306 34.5138 19.0841 34.5138 19.0372C34.5138 18.9902 34.5046 18.9438 34.4866 18.9004C34.4686 18.857 34.4423 18.8176 34.4091 18.7845C34.3416 18.7183 34.2508 18.6815 34.1563 18.682C33.8134 18.682 33.4811 18.5629 33.2162 18.3451C32.9513 18.1273 32.7702 17.8244 32.7038 17.4879C32.6374 17.1515 32.6898 16.8024 32.8522 16.5003C33.0145 16.1983 33.2766 15.9619 33.5938 15.8316V15.5879C33.5938 15.4387 33.6531 15.2956 33.7586 15.1901C33.8641 15.0847 34.0071 15.0254 34.1563 15.0254C34.3055 15.0254 34.4486 15.0847 34.5541 15.1901C34.6596 15.2956 34.7188 15.4387 34.7188 15.5879V15.8316C34.9107 15.9111 35.0839 16.0298 35.2274 16.18C35.3709 16.3301 35.4815 16.5086 35.5522 16.7039C35.6012 16.844 35.5928 16.9979 35.5288 17.1318C35.4648 17.2658 35.3504 17.369 35.2106 17.4189C35.0707 17.4688 34.9168 17.4613 34.7825 17.3981C34.6482 17.3349 34.5443 17.2212 34.4935 17.0816C34.4685 17.0123 34.4233 16.952 34.3637 16.9086C34.3028 16.8665 34.2305 16.8443 34.1565 16.8448C34.0861 16.845 34.0174 16.8661 33.9591 16.9053C33.9007 16.9446 33.8552 17.0002 33.8285 17.0653C33.8017 17.1304 33.7949 17.2019 33.8087 17.2708C33.8226 17.3398 33.8566 17.4031 33.9065 17.4527C33.9727 17.5194 34.0626 17.5571 34.1565 17.5575C34.4495 17.557 34.7361 17.6435 34.9799 17.806C35.2237 17.9686 35.4137 18.1999 35.5259 18.4706C35.6381 18.7413 35.6674 19.0392 35.61 19.3266C35.5527 19.6139 35.4113 19.8778 35.2038 20.0847C35.0649 20.2232 34.9002 20.333 34.7189 20.408Z" fill="#45BF64"/>
<path fill-rule="evenodd" clip-rule="evenodd" d="M15.293 22.3184C11.3292 24.627 9.45773 25.6152 9.10938 36.1633L10.8238 36.1405V36.1428C11.1584 26.8423 12.718 25.1301 15.9097 23.1995L15.2925 22.3184H15.293Z" fill="#BEC7CF"/>
<path fill-rule="evenodd" clip-rule="evenodd" d="M6.4475 25.8407C7.55142 25.8409 8.63061 25.5138 9.54861 24.9007C10.4666 24.2876 11.1822 23.416 11.6048 22.3962C12.0275 21.3764 12.1383 20.2542 11.9231 19.1714C11.708 18.0887 11.1766 17.0941 10.3962 16.3133C9.61575 15.5326 8.62133 15.0008 7.53867 14.7852C6.45601 14.5696 5.33373 14.6799 4.31376 15.1022C3.29379 15.5244 2.42194 16.2396 1.80845 17.1574C1.19497 18.0751 0.867404 19.1542 0.867188 20.2581C0.869665 21.7376 1.45831 23.1557 2.50422 24.2021C3.55013 25.2484 4.96806 25.8376 6.4475 25.8407Z" fill="#FFD23B"/>
<path fill-rule="evenodd" clip-rule="evenodd" d="M2.04609 31.3652H10.8503C11.2162 31.3661 11.5669 31.5116 11.8258 31.7701C12.0847 32.0286 12.2308 32.3791 12.2323 32.7449C12.2313 33.1112 12.0854 33.4621 11.8265 33.7211C11.5675 33.9801 11.2165 34.126 10.8503 34.127H2.04609C1.67985 34.126 1.32887 33.9801 1.0699 33.7211C0.810922 33.4621 0.665011 33.1112 0.664062 32.7449C0.665506 32.379 0.81165 32.0286 1.07059 31.7701C1.32952 31.5116 1.68021 31.3661 2.04609 31.3652Z" fill="#FEA832"/>
<path fill-rule="evenodd" clip-rule="evenodd" d="M2.04609 28.6055H10.8503C11.2162 28.6063 11.5669 28.7519 11.8258 29.0104C12.0847 29.2689 12.2308 29.6193 12.2323 29.9852C12.2313 30.3514 12.0854 30.7024 11.8265 30.9613C11.5675 31.2203 11.2165 31.3662 10.8503 31.3672H2.04609C1.67985 31.3662 1.32887 31.2203 1.0699 30.9614C0.810922 30.7024 0.665011 30.3514 0.664062 29.9852C0.665506 29.6193 0.81165 29.2688 1.07059 29.0103C1.32952 28.7518 1.68021 28.6063 2.04609 28.6055Z" fill="#FFD23B"/>
<path fill-rule="evenodd" clip-rule="evenodd" d="M2.04609 25.8438H10.8503C11.2165 25.8447 11.5675 25.9906 11.8264 26.2496C12.0854 26.5085 12.2313 26.8595 12.2323 27.2257C12.2308 27.5916 12.0847 27.942 11.8258 28.2005C11.5669 28.4591 11.2162 28.6046 10.8503 28.6055H2.04609C1.6802 28.6046 1.3295 28.4591 1.07056 28.2006C0.811621 27.9421 0.665486 27.5916 0.664062 27.2257C0.665032 26.8595 0.810952 26.5085 1.06993 26.2496C1.3289 25.9906 1.67986 25.8447 2.04609 25.8438Z" fill="#FEA832"/>
<path fill-rule="evenodd" clip-rule="evenodd" d="M6.44789 24.2223C7.23165 24.2226 7.99788 23.9904 8.64967 23.5551C9.30147 23.1199 9.80957 22.5012 10.1097 21.7771C10.4099 21.0531 10.4886 20.2564 10.3359 19.4876C10.1832 18.7189 9.80598 18.0127 9.25194 17.4583C8.6979 16.904 7.99191 16.5264 7.22326 16.3732C6.4546 16.2201 5.6578 16.2984 4.93362 16.5981C4.20944 16.8978 3.5904 17.4056 3.15478 18.0571C2.71917 18.7087 2.48654 19.4748 2.48633 20.2585C2.48829 21.3088 2.90622 22.3155 3.64867 23.0584C4.39112 23.8013 5.39761 24.2198 6.44789 24.2223Z" fill="#FEA832"/>
<path d="M7.01075 22.635V22.906C7.01163 22.9803 6.99776 23.0539 6.96995 23.1228C6.94214 23.1917 6.90094 23.2543 6.84874 23.3071C6.79654 23.36 6.73437 23.4019 6.66585 23.4305C6.59733 23.4591 6.5238 23.4739 6.44954 23.4739C6.37528 23.4739 6.30176 23.4591 6.23323 23.4305C6.16471 23.4019 6.10254 23.36 6.05034 23.3071C5.99814 23.2543 5.95694 23.1917 5.92913 23.1228C5.90132 23.0539 5.88745 22.9803 5.88833 22.906V22.635C5.77757 22.5899 5.67218 22.5327 5.57411 22.4643C5.31661 22.2837 5.12167 22.0275 5.0163 21.7312C4.96732 21.591 4.97576 21.4372 5.03976 21.3033C5.10377 21.1694 5.21815 21.0662 5.35794 21.0163C5.49773 20.9664 5.65159 20.9738 5.78594 21.0369C5.92028 21.1 6.02421 21.2137 6.07505 21.3532C6.10242 21.4312 6.15333 21.4988 6.22075 21.5467C6.29778 21.5996 6.39085 21.624 6.48393 21.6157C6.57702 21.6074 6.6643 21.567 6.73075 21.5012L6.75138 21.4833C6.81355 21.4094 6.84744 21.3158 6.847 21.2192C6.84653 21.1137 6.8044 21.0126 6.72978 20.938C6.65516 20.8634 6.55409 20.8212 6.44856 20.8208C6.14763 20.8206 5.8535 20.7313 5.60335 20.564C5.35321 20.3967 5.1583 20.159 5.04327 19.8809C4.92824 19.6028 4.89826 19.2969 4.95712 19.0018C5.01599 18.7067 5.16104 18.4356 5.37395 18.223C5.51997 18.0753 5.69523 17.9597 5.88849 17.8837V17.6128C5.88761 17.5385 5.90148 17.4648 5.92929 17.396C5.9571 17.3271 5.9983 17.2645 6.0505 17.2117C6.1027 17.1588 6.16486 17.1169 6.23339 17.0883C6.30191 17.0597 6.37543 17.0449 6.4497 17.0449C6.52396 17.0449 6.59748 17.0597 6.66601 17.0883C6.73453 17.1169 6.79669 17.1588 6.84889 17.2117C6.90109 17.2645 6.94229 17.3271 6.9701 17.396C6.99791 17.4648 7.01178 17.5385 7.01091 17.6128V17.8837C7.12167 17.9288 7.22706 17.9861 7.32513 18.0545C7.58267 18.2351 7.77762 18.4913 7.88294 18.7876C7.93141 18.9276 7.92265 19.0811 7.85856 19.2147C7.79447 19.3483 7.68025 19.4511 7.54072 19.5009C7.40119 19.5507 7.24763 19.5434 7.11346 19.4806C6.97928 19.4178 6.87532 19.3046 6.82419 19.1655C6.79684 19.0875 6.74593 19.0199 6.67849 18.972C6.61107 18.9251 6.53067 18.9006 6.44856 18.9017C6.3432 18.9017 6.24216 18.9436 6.16765 19.0181C6.09315 19.0926 6.0513 19.1936 6.0513 19.299C6.0513 19.4043 6.09315 19.5054 6.16765 19.5799C6.24216 19.6544 6.3432 19.6962 6.44856 19.6962C6.74509 19.6963 7.03515 19.7829 7.28312 19.9456C7.53109 20.1082 7.72617 20.3397 7.8444 20.6116C7.96263 20.8835 7.99886 21.1841 7.94865 21.4763C7.89845 21.7686 7.76398 22.0398 7.56177 22.2567C7.55081 22.2708 7.5386 22.2839 7.52528 22.2958C7.37928 22.4435 7.20403 22.559 7.01075 22.635Z" fill="#FFD23B"/>
<path d="M2.47461 30.3765C2.47461 30.2273 2.53387 30.0842 2.63936 29.9787C2.74485 29.8732 2.88793 29.814 3.03711 29.814C3.18629 29.814 3.32937 29.8732 3.43486 29.9787C3.54035 30.0842 3.59961 30.2273 3.59961 30.3765V31.3669H2.47461V30.3765ZM10.4228 31.3669H9.29781V30.3765C9.29781 30.2273 9.35708 30.0842 9.46257 29.9787C9.56805 29.8732 9.71113 29.814 9.86031 29.814C10.0095 29.814 10.1526 29.8732 10.2581 29.9787C10.3635 30.0842 10.4228 30.2273 10.4228 30.3765V31.3669ZM8.7175 31.3669H7.5925V30.3765C7.5925 30.2273 7.65176 30.0842 7.75725 29.9787C7.86274 29.8732 8.00582 29.814 8.155 29.814C8.30418 29.814 8.44726 29.8732 8.55275 29.9787C8.65824 30.0842 8.7175 30.2273 8.7175 30.3765V31.3669ZM7.00992 31.3669H5.8875V30.3765C5.88662 30.3022 5.90049 30.2285 5.9283 30.1597C5.95611 30.0908 5.99731 30.0281 6.04951 29.9753C6.10171 29.9225 6.16388 29.8806 6.2324 29.852C6.30093 29.8233 6.37445 29.8086 6.44871 29.8086C6.52297 29.8086 6.5965 29.8233 6.66502 29.852C6.73355 29.8806 6.79571 29.9225 6.84791 29.9753C6.90011 30.0281 6.94131 30.0908 6.96912 30.1597C6.99693 30.2285 7.0108 30.3022 7.00992 30.3765V31.3669ZM5.30461 31.3669H4.18023V30.3765C4.18023 30.2273 4.2395 30.0842 4.34499 29.9787C4.45048 29.8732 4.59355 29.814 4.74273 29.814C4.89192 29.814 5.03499 29.8732 5.14048 29.9787C5.24597 30.0842 5.30523 30.2273 5.30523 30.3765L5.30461 31.3669Z" fill="#E6BD35"/>
<path d="M2.47461 27.6128C2.47461 27.4636 2.53387 27.3205 2.63936 27.215C2.74485 27.1096 2.88793 27.0503 3.03711 27.0503C3.18629 27.0503 3.32937 27.1096 3.43486 27.215C3.54035 27.3205 3.59961 27.4636 3.59961 27.6128V28.6032H2.47461V27.6128ZM10.4228 28.6032H9.29781V27.6128C9.29781 27.4636 9.35708 27.3205 9.46257 27.215C9.56805 27.1096 9.71113 27.0503 9.86031 27.0503C10.0095 27.0503 10.1526 27.1096 10.2581 27.215C10.3635 27.3205 10.4228 27.4636 10.4228 27.6128V28.6032ZM8.7175 28.6032H7.5925V27.6128C7.5925 27.4636 7.65176 27.3205 7.75725 27.215C7.86274 27.1096 8.00582 27.0503 8.155 27.0503C8.30418 27.0503 8.44726 27.1096 8.55275 27.215C8.65824 27.3205 8.7175 27.4636 8.7175 27.6128V28.6032ZM7.00992 28.6032H5.8875V27.6128C5.88662 27.5385 5.90049 27.4648 5.9283 27.396C5.95611 27.3271 5.99731 27.2645 6.04951 27.2117C6.10171 27.1588 6.16388 27.1169 6.2324 27.0883C6.30093 27.0597 6.37445 27.0449 6.44871 27.0449C6.52297 27.0449 6.5965 27.0597 6.66502 27.0883C6.73355 27.1169 6.79571 27.1588 6.84791 27.2117C6.90011 27.2645 6.94131 27.3271 6.96912 27.396C6.99693 27.4648 7.0108 27.5385 7.00992 27.6128V28.6032ZM5.30461 28.6032H4.18023V27.6128C4.18023 27.4636 4.2395 27.3205 4.34499 27.215C4.45048 27.1096 4.59355 27.0503 4.74273 27.0503C4.89192 27.0503 5.03499 27.1096 5.14048 27.215C5.24597 27.3205 5.30523 27.4636 5.30523 27.6128L5.30461 28.6032Z" fill="#E5972D"/>
<path fill-rule="evenodd" clip-rule="evenodd" d="M2.04609 34.127H10.8503C11.2162 34.1278 11.5669 34.2734 11.8258 34.5318C12.0847 34.7903 12.2308 35.1408 12.2323 35.5066C12.2313 35.8729 12.0854 36.2238 11.8265 36.4828C11.5675 36.7418 11.2165 36.8877 10.8503 36.8887H2.04609C1.67985 36.8877 1.32887 36.7418 1.0699 36.4828C0.810922 36.2239 0.665011 35.8729 0.664062 35.5066C0.665506 35.1408 0.81165 34.7903 1.07059 34.5318C1.32952 34.2733 1.68021 34.1278 2.04609 34.127Z" fill="#FFD23B"/>
<path d="M2.47461 35.8979C2.47461 35.7488 2.53387 35.6057 2.63936 35.5002C2.74485 35.3947 2.88793 35.3354 3.03711 35.3354C3.18629 35.3354 3.32937 35.3947 3.43486 35.5002C3.54035 35.6057 3.59961 35.7488 3.59961 35.8979V36.8907H2.47461V35.8979ZM10.4228 36.8907H9.29781V35.8979C9.29781 35.7488 9.35708 35.6057 9.46257 35.5002C9.56805 35.3947 9.71113 35.3354 9.86031 35.3354C10.0095 35.3354 10.1526 35.3947 10.2581 35.5002C10.3635 35.6057 10.4228 35.7488 10.4228 35.8979V36.8907ZM8.7175 36.8907H7.5925V35.8979C7.5925 35.7488 7.65176 35.6057 7.75725 35.5002C7.86274 35.3947 8.00582 35.3354 8.155 35.3354C8.30418 35.3354 8.44726 35.3947 8.55275 35.5002C8.65824 35.6057 8.7175 35.7488 8.7175 35.8979V36.8907ZM7.00992 36.8907H5.8875V35.8979C5.88662 35.8237 5.90049 35.75 5.9283 35.6811C5.95611 35.6123 5.99731 35.5496 6.04951 35.4968C6.10171 35.444 6.16388 35.4021 6.2324 35.3734C6.30093 35.3448 6.37445 35.3301 6.44871 35.3301C6.52297 35.3301 6.5965 35.3448 6.66502 35.3734C6.73355 35.4021 6.79571 35.444 6.84791 35.4968C6.90011 35.5496 6.94131 35.6123 6.96912 35.6811C6.99693 35.75 7.0108 35.8237 7.00992 35.8979V36.8907ZM5.30461 36.8907H4.18023V35.8979C4.18023 35.7488 4.2395 35.6057 4.34499 35.5002C4.45048 35.3947 4.59355 35.3354 4.74273 35.3354C4.89192 35.3354 5.03499 35.3947 5.14048 35.5002C5.24597 35.6057 5.30523 35.7488 5.30523 35.8979L5.30461 36.8907Z" fill="#E6BD35"/>
<path d="M2.47461 33.1362C2.47461 32.987 2.53387 32.844 2.63936 32.7385C2.74485 32.633 2.88793 32.5737 3.03711 32.5737C3.18629 32.5737 3.32937 32.633 3.43486 32.7385C3.54035 32.844 3.59961 32.987 3.59961 33.1362V34.129H2.47461V33.1362ZM10.4228 34.129H9.29781V33.1362C9.29781 32.987 9.35708 32.844 9.46257 32.7385C9.56805 32.633 9.71113 32.5737 9.86031 32.5737C10.0095 32.5737 10.1526 32.633 10.2581 32.7385C10.3635 32.844 10.4228 32.987 10.4228 33.1362V34.129ZM8.7175 34.129H7.5925V33.1362C7.5925 32.987 7.65176 32.844 7.75725 32.7385C7.86274 32.633 8.00582 32.5737 8.155 32.5737C8.30418 32.5737 8.44726 32.633 8.55275 32.7385C8.65824 32.844 8.7175 32.987 8.7175 33.1362V34.129ZM7.00992 34.129H5.8875V33.1362C5.88662 33.062 5.90049 32.9883 5.9283 32.9194C5.95611 32.8506 5.99731 32.7879 6.04951 32.7351C6.10171 32.6823 6.16388 32.6403 6.2324 32.6117C6.30093 32.5831 6.37445 32.5684 6.44871 32.5684C6.52297 32.5684 6.5965 32.5831 6.66502 32.6117C6.73355 32.6403 6.79571 32.6823 6.84791 32.7351C6.90011 32.7879 6.94131 32.8506 6.96912 32.9194C6.99693 32.9883 7.0108 33.062 7.00992 33.1362V34.129ZM5.30461 34.129H4.18023V33.1362C4.18023 32.987 4.2395 32.844 4.34499 32.7385C4.45048 32.633 4.59355 32.5737 4.74273 32.5737C4.89192 32.5737 5.03499 32.633 5.14048 32.7385C5.24597 32.844 5.30523 32.987 5.30523 33.1362L5.30461 34.129Z" fill="#E5972D"/>
<path fill-rule="evenodd" clip-rule="evenodd" d="M1.80703 20.2601C1.80737 18.8612 2.33278 17.5134 3.2793 16.4834C4.22583 15.4534 5.52451 14.8162 6.91836 14.698C6.76125 14.6866 6.60414 14.6797 6.44477 14.6797C4.96446 14.6797 3.54479 15.2677 2.49806 16.3145C1.45133 17.3612 0.863281 18.7809 0.863281 20.2612C0.863281 21.7415 1.45133 23.1611 2.49806 24.2079C3.54479 25.2546 4.96446 25.8427 6.44477 25.8427C6.60414 25.8427 6.76125 25.8359 6.91836 25.8245C5.52433 25.7056 4.22567 25.0679 3.2792 24.0375C2.33273 23.0072 1.80737 21.6592 1.80703 20.2601Z" fill="#E6BD35"/>
<path fill-rule="evenodd" clip-rule="evenodd" d="M6.03906 16.3173C7.01453 16.418 7.91804 16.8768 8.5749 17.6049C9.23177 18.3331 9.59535 19.2789 9.59535 20.2595C9.59535 21.2402 9.23177 22.186 8.5749 22.9142C7.91804 23.6423 7.01453 24.101 6.03906 24.2017C6.59051 24.258 7.14763 24.1979 7.67441 24.0254C8.2012 23.853 8.68594 23.5719 9.09731 23.2003C9.50868 22.8288 9.83752 22.3751 10.0626 21.8685C10.2877 21.362 10.404 20.8138 10.404 20.2595C10.404 19.7052 10.2877 19.1571 10.0626 18.6505C9.83752 18.144 9.50868 17.6903 9.09731 17.3187C8.68594 16.9472 8.2012 16.6661 7.67441 16.4936C7.14763 16.3211 6.59051 16.2611 6.03906 16.3173Z" fill="#E5972D"/>
<path fill-rule="evenodd" clip-rule="evenodd" d="M1.47148 35.5066C1.47293 35.1408 1.61906 34.7903 1.87798 34.5318C2.1369 34.2734 2.48757 34.1278 2.85344 34.127H2.04297C1.67674 34.127 1.32552 34.2724 1.06655 34.5314C0.807592 34.7904 0.662109 35.1416 0.662109 35.5078C0.662109 35.874 0.807592 36.2253 1.06655 36.4842C1.32552 36.7432 1.67674 36.8887 2.04297 36.8887H2.47094V36.834C2.1832 36.7506 1.93025 36.5762 1.75005 36.3368C1.56984 36.0975 1.4721 35.8062 1.47148 35.5066Z" fill="#E6BD35"/>
<path fill-rule="evenodd" clip-rule="evenodd" d="M1.47148 32.7449C1.47293 32.3791 1.61906 32.0286 1.87798 31.7701C2.1369 31.5116 2.48757 31.3661 2.85344 31.3652H2.04297C1.67674 31.3652 1.32552 31.5107 1.06655 31.7697C0.807592 32.0286 0.662109 32.3799 0.662109 32.7461C0.662109 33.1123 0.807592 33.4635 1.06655 33.7225C1.32552 33.9815 1.67674 34.127 2.04297 34.127H2.47094V34.0723C2.1832 33.9889 1.93025 33.8144 1.75005 33.5751C1.56984 33.3358 1.4721 33.0445 1.47148 32.7449Z" fill="#E5972D"/>
<path fill-rule="evenodd" clip-rule="evenodd" d="M1.47148 29.9832C1.47293 29.6173 1.61906 29.2669 1.87798 29.0084C2.1369 28.7499 2.48757 28.6044 2.85344 28.6035H2.04297C1.67674 28.6035 1.32552 28.749 1.06655 29.008C0.807592 29.2669 0.662109 29.6181 0.662109 29.9844C0.662109 30.3506 0.807592 30.7018 1.06655 30.9608C1.32552 31.2198 1.67674 31.3652 2.04297 31.3652H2.47094V31.3105C2.1832 31.2272 1.93025 31.0527 1.75005 30.8134C1.56984 30.5741 1.4721 30.2828 1.47148 29.9832Z" fill="#E6BD35"/>
<path fill-rule="evenodd" clip-rule="evenodd" d="M1.47148 27.2237C1.47245 26.8575 1.61836 26.5066 1.87732 26.2476C2.13628 25.9887 2.48722 25.8428 2.85344 25.8418H2.04297C1.67674 25.8418 1.32552 25.9873 1.06655 26.2462C0.807592 26.5052 0.662109 26.8564 0.662109 27.2227C0.662109 27.5889 0.807592 27.9401 1.06655 28.1991C1.32552 28.458 1.67674 28.6035 2.04297 28.6035H2.47094V28.5488C2.18351 28.4656 1.93077 28.2915 1.75059 28.0526C1.57041 27.8137 1.47249 27.523 1.47148 27.2237Z" fill="#E5972D"/>
<path fill-rule="evenodd" clip-rule="evenodd" d="M15.8751 8.72052C15.8751 5.11645 21.3552 4.44708 24.586 4.53356C24.7135 4.1602 24.9662 3.74356 25.0891 3.47716C25.3079 3.00138 14.0742 2.14528 14.0742 7.30442V10.0433C14.2631 9.91033 14.4763 9.81592 14.7018 9.76552C14.9272 9.71513 15.1604 9.70974 15.3879 9.74966C15.4426 9.45364 15.5062 9.1395 15.5769 8.80481C15.677 8.82044 15.7749 8.83442 15.8751 8.84802V8.72052Z" fill="#577595"/>
<path fill-rule="evenodd" clip-rule="evenodd" d="M32.5489 8.59477H33.5143C33.1409 7.59985 32.0344 7.54298 32.212 5.26844C31.7498 4.92243 31.3332 4.55126 31.299 4.79969C30.9233 7.5386 32.1528 7.53634 32.549 8.59501L32.5489 8.59477Z" fill="#3EAC5A"/>
<path fill-rule="evenodd" clip-rule="evenodd" d="M33.5137 8.59375H31.7856C31.5571 8.59375 31.3379 8.68455 31.1762 8.84616C31.0146 9.00778 30.9238 9.22698 30.9238 9.45555C30.9238 9.68411 31.0146 9.90331 31.1762 10.0649C31.3379 10.2265 31.5571 10.3173 31.7856 10.3173H33.0585C33.2361 10.117 33.4205 9.91656 33.6095 9.71164C33.6642 9.21992 33.6186 8.87156 33.5139 8.59375H33.5137Z" fill="#328C49"/>
<path fill-rule="evenodd" clip-rule="evenodd" d="M33.0607 10.3184H32.0952C23.3843 20.0834 29.2358 24.8167 34.6383 24.5184C29.5566 24.2362 24.8664 19.5028 33.0602 10.3184H33.0607Z" fill="#3EAC5A"/>
<path fill-rule="evenodd" clip-rule="evenodd" d="M30.793 18.122C30.7928 17.0954 31.1761 16.1059 31.8677 15.3473C32.5593 14.5888 33.5093 14.1159 34.5314 14.0215C34.4064 14.0101 34.2787 14.0059 34.1512 14.0059C33.0626 14.0106 32.0202 14.4464 31.2521 15.2178C30.484 15.9893 30.0527 17.0336 30.0527 18.1222C30.0527 19.2109 30.484 20.2552 31.2521 21.0266C32.0202 21.7981 33.0626 22.2339 34.1512 22.2386C34.2787 22.2386 34.4062 22.2318 34.5314 22.2204C33.5096 22.1261 32.5598 21.6536 31.8682 20.8955C31.1766 20.1373 30.7932 19.1482 30.793 18.122Z" fill="#328C49"/>
<path fill-rule="evenodd" clip-rule="evenodd" d="M18.8385 36.1623L19.9948 27.0644C19.7125 27.0528 19.4327 27.007 19.1615 26.9277L17.9844 36.1621L18.8385 36.1623Z" fill="#CF4436"/>
</g>
<defs>
<clipPath id="clip0_2570_4390">
<rect width="40" height="40" fill="white" transform="translate(0.666016)"/>
</clipPath>
</defs>
</svg>
