<svg width="41" height="40" viewBox="0 0 41 40" fill="none" xmlns="http://www.w3.org/2000/svg">
<path d="M13.7324 3.97461H38.9472C39.4646 3.97461 39.8847 4.39469 39.8847 4.91211V38.2615C39.8847 38.7789 39.4646 39.199 38.9472 39.199H12.7949V4.91211C12.7949 4.39469 13.215 3.97461 13.7324 3.97461Z" fill="#906F65"/>
<path d="M38.9473 3.97461H13.7324C13.2147 3.97461 12.7949 4.39434 12.7949 4.91211V38.2616C12.7949 38.7793 13.2147 39.1991 13.7324 39.1991H38.9473C39.465 39.1991 39.8848 38.7793 39.8848 38.2616V4.91211C39.8848 4.39434 39.465 3.97461 38.9473 3.97461Z" fill="#906F65"/>
<path d="M12.7949 6.89062V38.261C12.7949 38.7787 13.2147 39.1985 13.7324 39.1985H20.8115C20.9156 38.9051 20.9728 38.5896 20.9728 38.261V37.1851C21.5826 36.6688 21.9705 35.8979 21.9705 35.0381V33.6903C21.9705 32.8305 21.5826 32.0596 20.9728 31.5433V30.7394C21.5826 30.2231 21.9705 29.4522 21.9705 28.5924V27.2446C21.9705 25.772 20.8327 24.561 19.3902 24.4424C20.9976 22.5699 21.9705 20.1374 21.9705 17.4818C21.9705 12.0993 17.9754 7.63301 12.7949 6.89062Z" fill="#75544C"/>
<path d="M37.4283 32.1632V7.21289C37.4283 6.69512 37.0086 6.27539 36.4908 6.27539H16.1875C15.6697 6.27539 15.25 6.69512 15.25 7.21289V36.8953H32.6962L37.4283 32.1632Z" fill="#EBF7FF"/>
<path d="M15.25 7.54883V36.8952H21.2659C21.7034 36.3993 21.9698 35.7489 21.9698 35.0371V33.6893C21.9698 32.8295 21.582 32.0586 20.9721 31.5423V30.7384C21.582 30.2221 21.9698 29.4512 21.9698 28.5914V27.2436C21.9698 25.771 20.832 24.56 19.3895 24.4414C20.997 22.5689 21.9698 20.1364 21.9698 17.4808C21.9698 12.9867 19.1847 9.13141 15.25 7.54883Z" fill="#CCE6F2"/>
<path d="M29.4298 23.1597V20.1927C29.4298 19.877 29.1738 19.6211 28.8581 19.6211H25.8787L25.8912 21.2904V23.1597C25.3849 23.1597 25.1285 23.7692 25.4825 24.1311L27.2518 25.9399C27.476 26.1692 27.8449 26.1692 28.0691 25.9399L29.8384 24.1311C30.1924 23.7692 29.936 23.1597 29.4298 23.1597Z" fill="#FE5358"/>
<path d="M24.6092 14.9708L22.8399 16.7796C22.4859 17.1415 22.7423 17.751 23.2486 17.751V20.7179C23.2486 21.0336 23.5045 21.2896 23.8202 21.2896H26.7872V17.751C27.2934 17.751 27.5499 17.1415 27.1959 16.7796L25.4265 14.9708C25.2023 14.7415 24.8334 14.7415 24.6092 14.9708Z" fill="#91CD00"/>
<path d="M37.4294 32.1641H32.6973V36.8962L37.4294 32.1641Z" fill="#CCE6F2"/>
<path d="M28.8341 2.82345C28.8341 1.70744 27.9294 0.802734 26.8134 0.802734C25.6974 0.802734 24.7927 1.70744 24.7927 2.82345H23.3216C22.0006 2.82345 20.9297 3.89435 20.9297 5.21538V6.64393C20.9297 7.1617 21.3494 7.58143 21.8672 7.58143H31.7595C32.2773 7.58143 32.697 7.1617 32.697 6.64393V5.21538C32.697 3.89435 31.6261 2.82345 30.3051 2.82345H28.8341Z" fill="#F9BD46"/>
<path d="M19.1584 26.3066H3.38281C2.86505 26.3066 2.44531 26.7264 2.44531 27.2441V28.592C2.44531 29.1097 2.86505 29.5295 3.38281 29.5295H19.1584C19.6761 29.5295 20.0959 29.1097 20.0959 28.592V27.2441C20.0959 26.7264 19.6761 26.3066 19.1584 26.3066Z" fill="#FFD300"/>
<path d="M19.1582 27.2441V28.592H3.38266V27.2441H19.1582Z" fill="#FFEE93"/>
<path d="M19.1584 32.752H3.38281C2.86505 32.752 2.44531 33.1717 2.44531 33.6895V35.0373C2.44531 35.555 2.86505 35.9748 3.38281 35.9748H19.1584C19.6761 35.9748 20.0959 35.555 20.0959 35.0373V33.6895C20.0959 33.1717 19.6761 32.752 19.1584 32.752Z" fill="#FFD300"/>
<path d="M19.1582 33.6895V35.0373H3.38266V33.6895H19.1582Z" fill="#FFEE93"/>
<path d="M18.1603 29.5293H2.38477C1.867 29.5293 1.44727 29.949 1.44727 30.4668V31.8146C1.44727 32.3324 1.867 32.7521 2.38477 32.7521H18.1603C18.6781 32.7521 19.0978 32.3324 19.0978 31.8146V30.4668C19.0978 29.949 18.6781 29.5293 18.1603 29.5293Z" fill="#FFA400"/>
<path d="M18.1602 30.4668V31.8146H2.38461V30.4668H18.1602Z" fill="#FFD300"/>
<path d="M18.1603 35.9746H2.38477C1.867 35.9746 1.44727 36.3943 1.44727 36.9121V38.2599C1.44727 38.7777 1.867 39.1974 2.38477 39.1974H18.1603C18.6781 39.1974 19.0978 38.7777 19.0978 38.2599V36.9121C19.0978 36.3943 18.6781 35.9746 18.1603 35.9746Z" fill="#FFA400"/>
<path d="M18.1602 36.9121V38.2599H2.38461V36.9121H18.1602Z" fill="#FFD300"/>
<path d="M11.2706 26.3069C16.1447 26.3069 20.0959 22.3556 20.0959 17.4816C20.0959 12.6075 16.1447 8.65625 11.2706 8.65625C6.39654 8.65625 2.44531 12.6075 2.44531 17.4816C2.44531 22.3556 6.39654 26.3069 11.2706 26.3069Z" fill="#FFA400"/>
<path d="M16.1811 22.3943C18.8949 19.6805 18.8949 15.2805 16.1811 12.5666C13.4672 9.85274 9.06718 9.85274 6.35332 12.5666C3.63947 15.2805 3.63947 19.6805 6.35332 22.3943C9.06718 25.1082 13.4672 25.1082 16.1811 22.3943Z" fill="#FFD300"/>
<path d="M11.2698 17.0129C10.3817 17.0487 9.63064 16.3347 9.63282 15.4439C9.63281 14.691 10.2453 14.0786 10.9981 14.0786H11.5415C12.2943 14.0786 12.9068 14.691 12.9068 15.4439C12.9068 15.7027 13.1167 15.9126 13.3755 15.9126C13.6344 15.9126 13.8443 15.7027 13.8443 15.4439C13.8443 14.2405 12.9163 13.2504 11.7385 13.1501V12.4551C11.7385 12.1962 11.5286 11.9863 11.2698 11.9863C11.0109 11.9863 10.801 12.1962 10.801 12.4551V13.1501C7.68028 13.5742 8.21989 17.9634 11.2698 17.9504C12.1772 17.9499 12.9146 18.6937 12.9068 19.601C12.9068 20.3089 12.3309 20.8847 11.6231 20.8847H10.9165C10.2087 20.8847 9.63281 20.3089 9.63281 19.601C9.63281 19.3422 9.42293 19.1323 9.16406 19.1323C8.9052 19.1323 8.69531 19.3422 8.69531 19.601C8.69531 20.7871 9.62973 21.7589 10.801 21.8192V22.5082C10.801 22.7671 11.0109 22.977 11.2698 22.977C11.5286 22.977 11.7385 22.7671 11.7385 22.5082V21.8192C14.902 21.4604 14.2807 17.0511 11.2698 17.0129Z" fill="#FFEE93"/>
</svg>
