<svg width="40" height="40" viewBox="0 0 40 40" fill="none" xmlns="http://www.w3.org/2000/svg">
<path d="M35.625 13.125V19.375H15.625V13.125L25.625 5.625L35.625 13.125Z" fill="#E0E0E0"/>
<path d="M35.625 13.125V19.375H32.5V13.125L25.625 7.96875L15.625 15.4688V13.125L25.625 5.625L35.625 13.125Z" fill="#BDBDBD"/>
<path d="M1.875 13.125V35.625C1.875 37.0058 4.39344 38.125 7.5 38.125C10.6066 38.125 13.125 37.0058 13.125 35.625V13.125H1.875Z" fill="#FFD54F"/>
<path d="M13.125 13.125V35.625C13.125 36.6063 11.85 37.4563 10 37.8625V13.125H13.125Z" fill="#F5BF36"/>
<path d="M13.125 16.875V20.625C13.125 22.0062 10.6062 23.125 7.5 23.125C4.39375 23.125 1.875 22.0062 1.875 20.625V16.875C1.875 18.2563 4.39375 19.375 7.5 19.375C10.6062 19.375 13.125 18.2563 13.125 16.875Z" fill="#FDAB33"/>
<path d="M13.125 24.375V28.125C13.125 29.5062 10.6062 30.625 7.5 30.625C4.39375 30.625 1.875 29.5062 1.875 28.125V24.375C1.875 25.7563 4.39375 26.875 7.5 26.875C10.6062 26.875 13.125 25.7563 13.125 24.375Z" fill="#FDAB33"/>
<path d="M13.125 16.875V20.625C13.125 21.6062 11.85 22.4563 10 22.8625V19.1125C11.85 18.7062 13.125 17.8563 13.125 16.875Z" fill="#FFA726"/>
<path d="M13.125 24.375V28.125C13.125 29.1062 11.85 29.9563 10 30.3625V26.6125C11.85 26.2063 13.125 25.3563 13.125 24.375Z" fill="#FFA726"/>
<path d="M13.125 31.875V35.625C13.125 37.0062 10.6062 38.125 7.5 38.125C4.39375 38.125 1.875 37.0062 1.875 35.625V31.875C1.875 33.2563 4.39375 34.375 7.5 34.375C10.6062 34.375 13.125 33.2563 13.125 31.875Z" fill="#FDAB33"/>
<path d="M13.125 31.875V35.625C13.125 37.0062 10.6062 38.125 7.5 38.125C4.39375 38.125 1.875 37.0062 1.875 35.625V33.75C1.875 35.1312 4.39375 36.25 7.5 36.25C7.7625 36.25 8.02071 36.2421 8.27462 36.2263C8.74595 36.1913 9.18638 35.9786 9.50673 35.6311C9.82708 35.2836 10.0034 34.8274 10 34.3548V34.1125C11.85 33.7063 13.125 32.8563 13.125 31.875Z" fill="#FFA726"/>
<path d="M7.5 15.625C10.6066 15.625 13.125 14.5057 13.125 13.125C13.125 11.7443 10.6066 10.625 7.5 10.625C4.3934 10.625 1.875 11.7443 1.875 13.125C1.875 14.5057 4.3934 15.625 7.5 15.625Z" fill="#FDAB33"/>
<path d="M26.225 2.325C25.8694 2.05833 25.3806 2.05833 25.025 2.325L13.525 10.95C13.2732 11.1389 13.125 11.4352 13.125 11.75V13C13.125 13.824 14.0658 14.2944 14.725 13.8L25.025 6.075C25.3806 5.80833 25.8694 5.80833 26.225 6.075L36.525 13.8C37.1842 14.2944 38.125 13.824 38.125 13V11.75C38.125 11.4352 37.9768 11.1389 37.725 10.95L26.225 2.325Z" fill="#003862"/>
<path d="M35.625 21.875H13.125C11.7443 21.875 10.625 22.9943 10.625 24.375V35.625C10.625 37.0057 11.7443 38.125 13.125 38.125H35.625C37.0057 38.125 38.125 37.0057 38.125 35.625V24.375C38.125 22.9943 37.0057 21.875 35.625 21.875Z" fill="#15803D"/>
<path d="M35.625 19.375H13.125C11.7443 19.375 10.625 20.4943 10.625 21.875V33.125C10.625 34.5057 11.7443 35.625 13.125 35.625H35.625C37.0057 35.625 38.125 34.5057 38.125 33.125V21.875C38.125 20.4943 37.0057 19.375 35.625 19.375Z" fill="#22C55E"/>
<path d="M38.125 21.875V33.125C38.1251 33.4533 38.0605 33.7785 37.9349 34.0818C37.8093 34.3852 37.6251 34.6608 37.393 34.893C37.1608 35.1251 36.8852 35.3093 36.5818 35.4349C36.2785 35.5605 35.9533 35.6251 35.625 35.625H13.125C12.7967 35.6251 12.4715 35.5605 12.1682 35.4349C11.8648 35.3093 11.5892 35.1251 11.357 34.893C11.1249 34.6608 10.9407 34.3852 10.8151 34.0818C10.6895 33.7785 10.6249 33.4533 10.625 33.125V32.9C10.8589 33.1672 11.1471 33.3813 11.4705 33.5279C11.7939 33.6745 12.1449 33.7502 12.5 33.75H33.75C34.0783 33.7501 34.4035 33.6855 34.7068 33.5599C35.0102 33.4343 35.2858 33.2501 35.518 33.018C35.7501 32.7858 35.9343 32.5102 36.0599 32.2068C36.1855 31.9035 36.2501 31.5783 36.25 31.25V21.25C36.2502 20.8949 36.1745 20.5439 36.0279 20.2205C35.8813 19.8971 35.6672 19.6089 35.4 19.375H35.625C35.9533 19.3749 36.2785 19.4395 36.5818 19.5651C36.8852 19.6907 37.1608 19.8749 37.393 20.107C37.6251 20.3392 37.8093 20.6148 37.9349 20.9182C38.0605 21.2215 38.1251 21.5467 38.125 21.875Z" fill="#16A34A"/>
<path d="M35.625 24.375V30.625C35.2967 30.6249 34.9715 30.6895 34.6682 30.8151C34.3648 30.9407 34.0892 31.1249 33.857 31.357C33.6249 31.5892 33.4407 31.8648 33.3151 32.1682C33.1895 32.4715 33.1249 32.7967 33.125 33.125H15.625C15.6251 32.7967 15.5605 32.4715 15.4349 32.1682C15.3093 31.8648 15.1251 31.5892 14.893 31.357C14.6608 31.1249 14.3852 30.9407 14.0818 30.8151C13.7785 30.6895 13.4533 30.6249 13.125 30.625V24.375C13.4533 24.3751 13.7785 24.3105 14.0818 24.1849C14.3852 24.0593 14.6608 23.8751 14.893 23.643C15.1251 23.4108 15.3093 23.1352 15.4349 22.8318C15.5605 22.5285 15.6251 22.2033 15.625 21.875H33.125C33.1249 22.2033 33.1895 22.5285 33.3151 22.8318C33.4407 23.1352 33.6249 23.4108 33.857 23.643C34.0892 23.8751 34.3648 24.0593 34.6682 24.1849C34.9715 24.3105 35.2967 24.3751 35.625 24.375Z" fill="#86EFAC"/>
<path d="M20 19.375H28.75V38.125H20V19.375Z" fill="#EEEEEE"/>
<path d="M28.75 19.375V38.125H20V35.625H23.125C23.788 35.625 24.4239 35.3616 24.8928 34.8928C25.3616 34.4239 25.625 33.788 25.625 33.125V19.375H28.75Z" fill="#E0E0E0"/>
<path d="M24.6877 28.125H24.0627C23.814 28.125 23.5756 28.0262 23.3997 27.8504C23.2239 27.6746 23.1252 27.4361 23.1252 27.1875C23.1252 26.9389 23.2239 26.7004 23.3997 26.5246C23.5756 26.3488 23.814 26.25 24.0627 26.25H26.2502C26.4159 26.25 26.5749 26.1842 26.6921 26.0669C26.8093 25.9497 26.8752 25.7908 26.8752 25.625C26.8752 25.4592 26.8093 25.3003 26.6921 25.1831C26.5749 25.0658 26.4159 25 26.2502 25H25.0002V24.375C25.0002 24.2092 24.9343 24.0503 24.8171 23.9331C24.6999 23.8158 24.5409 23.75 24.3752 23.75C24.2094 23.75 24.0504 23.8158 23.9332 23.9331C23.816 24.0503 23.7502 24.2092 23.7502 24.375V25.0312C23.2026 25.1087 22.7049 25.391 22.3575 25.8212C22.0101 26.2514 21.839 26.7975 21.8787 27.349C21.9184 27.9005 22.1659 28.4165 22.5713 28.7925C22.9767 29.1686 23.5097 29.3768 24.0627 29.375H24.6877C24.9363 29.375 25.1748 29.4738 25.3506 29.6496C25.5264 29.8254 25.6252 30.0639 25.6252 30.3125C25.6252 30.5611 25.5264 30.7996 25.3506 30.9754C25.1748 31.1512 24.9363 31.25 24.6877 31.25H22.5002C22.3344 31.25 22.1754 31.3158 22.0582 31.4331C21.941 31.5503 21.8752 31.7092 21.8752 31.875C21.8752 32.0408 21.941 32.1997 22.0582 32.3169C22.1754 32.4342 22.3344 32.5 22.5002 32.5H23.7502V33.125C23.7502 33.2908 23.816 33.4497 23.9332 33.5669C24.0504 33.6842 24.2094 33.75 24.3752 33.75C24.5409 33.75 24.6999 33.6842 24.8171 33.5669C24.9343 33.4497 25.0002 33.2908 25.0002 33.125V32.4688C25.5477 32.3913 26.0454 32.109 26.3928 31.6788C26.7402 31.2486 26.9113 30.7025 26.8716 30.151C26.832 29.5995 26.5844 29.0835 26.179 28.7075C25.7736 28.3314 25.2406 28.1232 24.6877 28.125Z" fill="#F5BF36"/>
<path d="M26.875 30.3118C26.8738 29.8992 26.7557 29.4954 26.5345 29.1471C26.3133 28.7988 25.998 28.5202 25.625 28.3438V32.2707C25.9976 32.0962 26.3129 31.8194 26.5342 31.4726C26.7555 31.1258 26.8737 30.7232 26.875 30.3118Z" fill="#FFA726"/>
<path d="M26.25 25H25.625V26.25H26.25C26.4158 26.25 26.5747 26.1842 26.6919 26.0669C26.8092 25.9497 26.875 25.7908 26.875 25.625C26.875 25.4592 26.8092 25.3003 26.6919 25.1831C26.5747 25.0658 26.4158 25 26.25 25Z" fill="#FFA726"/>
<path d="M25.625 15.625C27.0057 15.625 28.125 14.5057 28.125 13.125C28.125 11.7443 27.0057 10.625 25.625 10.625C24.2443 10.625 23.125 11.7443 23.125 13.125C23.125 14.5057 24.2443 15.625 25.625 15.625Z" fill="#757575"/>
<path d="M24.6875 15.4376C24.9838 15.5637 25.3029 15.6275 25.625 15.6251C26.288 15.6251 26.9239 15.3617 27.3928 14.8928C27.8616 14.424 28.125 13.7881 28.125 13.1251C28.125 12.462 27.8616 11.8261 27.3928 11.3573C26.9239 10.8885 26.288 10.6251 25.625 10.6251C25.3029 10.6226 24.9838 10.6864 24.6875 10.8126C25.1489 10.9981 25.5443 11.3175 25.8228 11.7296C26.1012 12.1417 26.25 12.6277 26.25 13.1251C26.25 13.6224 26.1012 14.1084 25.8228 14.5205C25.5443 14.9326 25.1489 15.252 24.6875 15.4376Z" fill="#616161"/>
</svg>
