<svg width="41" height="40" viewBox="0 0 41 40" fill="none" xmlns="http://www.w3.org/2000/svg">
<g clip-path="url(#clip0_2570_4561)">
<path fill-rule="evenodd" clip-rule="evenodd" d="M6.65024 23.7832H10.3332L13.3647 27.7476C13.5744 28.0218 13.9753 28.0528 14.2247 27.814C15.5269 26.5672 16.5513 25.4033 18.4128 25.0086C19.0301 24.8776 19.6697 24.822 20.3296 24.8356C20.9895 24.822 21.629 24.8777 22.2465 25.0086C24.1079 25.4034 25.1324 26.5672 26.4346 27.814C26.6839 28.0528 27.0848 28.0218 27.2946 27.7476L30.3261 23.7832H34.0089C34.0412 24.1854 33.9916 24.5738 33.8698 24.9502C33.3596 26.5287 32.6231 26.2254 31.1152 26.4138L28.3773 31.2576C28.0044 31.9173 27.1653 32.1269 26.5261 31.7202L24.8017 30.6227V34.8844C24.8017 35.2901 24.4708 35.6209 24.0651 35.6209H16.594C16.1883 35.6209 15.8575 35.2901 15.8575 34.8844V30.6227L14.1331 31.7202C13.4938 32.127 12.6547 31.9174 12.2819 31.2576L9.54397 26.4138C8.03618 26.2253 7.29964 26.5287 6.78933 24.9502C6.66758 24.5738 6.61797 24.1854 6.65024 23.7832Z" fill="#CF8C48"/>
<path fill-rule="evenodd" clip-rule="evenodd" d="M6.72461 23.7832H10.3362L13.3677 27.7476C13.5774 28.0218 13.9784 28.0528 14.2278 27.814C15.5299 26.5672 16.5544 25.4033 18.4158 25.0086C19.0332 24.8776 19.6727 24.822 20.3327 24.8356C20.9925 24.822 21.6321 24.8777 22.2495 25.0086C24.111 25.4034 25.1355 26.5672 26.4376 27.814C26.687 28.0528 27.0878 28.0218 27.2976 27.7476L30.3291 23.7832H33.9407C33.9215 23.8645 33.8989 23.9452 33.8729 24.0255C33.3627 25.604 32.6261 25.3006 31.1182 25.489L28.3803 30.3329C28.0075 30.9925 27.1684 31.2021 26.5291 30.7954L24.8047 29.698V33.9596C24.8047 34.3653 24.4739 34.6962 24.0682 34.6962H16.5972C16.1915 34.6962 15.8606 34.3653 15.8606 33.9596V29.698L14.1362 30.7954C13.497 31.2022 12.6579 30.9926 12.285 30.3329L9.54713 25.489C8.03934 25.3005 7.30279 25.604 6.79248 24.0255C6.76651 23.9452 6.74389 23.8645 6.72461 23.7832Z" fill="#F0B16E"/>
<path d="M20.5679 24.0462C22.2353 23.9276 23.4909 22.4797 23.3723 20.8122C23.2536 19.1448 21.8058 17.8892 20.1383 18.0079C18.4709 18.1265 17.2153 19.5744 17.3339 21.2418C17.4526 22.9093 18.9005 24.1648 20.5679 24.0462Z" fill="#F0B16E"/>
<path fill-rule="evenodd" clip-rule="evenodd" d="M19.688 23.9782C18.3275 23.6823 17.3086 22.4714 17.3086 21.0223C17.3086 19.5733 18.3275 18.3623 19.688 18.0664C21.0484 18.3622 22.0673 19.5732 22.0673 21.0223C22.0673 22.4713 21.0484 23.6822 19.688 23.9782Z" fill="#FCD4A9"/>
<path fill-rule="evenodd" clip-rule="evenodd" d="M12.9267 8.82987V20.7501C12.9267 21.2222 12.5404 21.6086 12.0682 21.6086H3.49912C3.02696 21.6086 2.64062 21.2222 2.64062 20.7501V8.82987C2.64062 8.32707 2.84779 7.89437 3.2395 7.57906L6.77696 4.73189C7.37137 4.25343 8.19598 4.25343 8.79049 4.73189L12.3279 7.57906C12.7196 7.89437 12.9267 8.32707 12.9267 8.82987ZM7.78367 6.74836C7.09085 6.74836 6.52931 7.2538 6.52931 7.87733C6.52931 8.50086 7.09095 9.0063 7.78367 9.0063C8.4765 9.0063 9.03804 8.50086 9.03804 7.87733C9.03804 7.2539 8.4765 6.74836 7.78367 6.74836Z" fill="#E33F65"/>
<path fill-rule="evenodd" clip-rule="evenodd" d="M11.464 21.6087H3.49912C3.02696 21.6087 2.64062 21.2224 2.64062 20.7502V8.82995C2.64062 8.32715 2.84779 7.89445 3.2395 7.57914L6.77696 4.73196C6.9894 4.56091 7.23137 4.45114 7.48155 4.40234C7.73183 4.45114 7.9737 4.56091 8.18614 4.73196L11.7236 7.57914C12.1153 7.89435 12.3225 8.32715 12.3225 8.82995V20.7502C12.3225 21.2224 11.9361 21.6087 11.464 21.6087ZM7.17942 6.74844C6.4866 6.74844 5.92506 7.25388 5.92506 7.87741C5.92506 8.50094 6.4867 9.00637 7.17942 9.00637C7.28361 9.00637 7.38476 8.99481 7.48155 8.9733C7.57833 8.99481 7.67948 9.00637 7.78368 9.00637C8.4765 9.00637 9.03804 8.50094 9.03804 7.87741C9.03804 7.25388 8.4764 6.74844 7.78368 6.74844C7.67948 6.74844 7.57833 6.76001 7.48155 6.78151C7.38476 6.76001 7.28361 6.74844 7.17942 6.74844Z" fill="#FA6E85"/>
<path fill-rule="evenodd" clip-rule="evenodd" d="M10.0174 11.7695C10.3141 11.9448 10.4125 12.3274 10.2372 12.624C10.0619 12.9207 9.6793 13.0191 9.38265 12.8438C8.85956 12.5344 8.00685 12.3003 7.38595 12.4509C6.41667 12.6859 6.18577 13.5914 7.03381 14.0576C7.57658 14.356 8.38182 14.1131 9.18867 14.5942C11.0946 15.7305 10.4661 18.072 8.4088 18.5096V18.8964C8.4088 19.2415 8.12889 19.5214 7.78375 19.5214C7.43861 19.5214 7.1587 19.2415 7.1587 18.8964V18.5242C6.59746 18.4416 6.06149 18.2538 5.55006 17.9638C5.25078 17.7939 5.14577 17.4134 5.31571 17.1141C5.48564 16.8149 5.86609 16.7099 6.16538 16.8798C6.78901 17.2336 7.84594 17.5323 8.56362 17.1416C9.31072 16.7349 9.19121 15.9986 8.57336 15.6777C7.9548 15.3564 7.27842 15.6263 6.42702 15.1445C4.59093 14.1055 4.99806 11.7141 7.1587 11.2223V10.8321C7.1587 10.4869 7.43861 10.207 7.78375 10.207C8.12889 10.207 8.4088 10.4869 8.4088 10.8321V11.2075C8.98739 11.292 9.52174 11.4758 10.0174 11.7695Z" fill="white"/>
<path fill-rule="evenodd" clip-rule="evenodd" d="M15.2351 20.8965C15.2351 22.6531 13.7978 24.0904 12.0412 24.0904H3.52402C1.76736 24.0904 0.330078 22.6531 0.330078 20.8965H15.2351Z" fill="#14B5A2"/>
<path fill-rule="evenodd" clip-rule="evenodd" d="M10.5828 24.0904H3.52402C1.76736 24.0904 0.330078 22.6531 0.330078 20.8965H13.7767C13.7767 22.6531 12.3395 24.0904 10.5828 24.0904Z" fill="#19CFBA"/>
<path fill-rule="evenodd" clip-rule="evenodd" d="M38.0243 8.82987V20.7501C38.0243 21.2222 37.6379 21.6086 37.1658 21.6086H28.5968C28.1246 21.6086 27.7383 21.2222 27.7383 20.7501V8.82987C27.7383 8.32707 27.9454 7.89437 28.3372 7.57906L31.8746 4.73189C32.469 4.25343 33.2936 4.25343 33.8881 4.73189L37.4256 7.57906C37.8171 7.89437 38.0243 8.32707 38.0243 8.82987ZM32.8812 6.74836C32.1884 6.74836 31.6269 7.2538 31.6269 7.87733C31.6269 8.50086 32.1885 9.0063 32.8812 9.0063C33.574 9.0063 34.1356 8.50086 34.1356 7.87733C34.1356 7.2539 33.5739 6.74836 32.8812 6.74836Z" fill="#FFBF31"/>
<path fill-rule="evenodd" clip-rule="evenodd" d="M36.5616 21.6087H28.5968C28.1246 21.6087 27.7383 21.2224 27.7383 20.7502V8.82995C27.7383 8.32715 27.9454 7.89445 28.3372 7.57914L31.8746 4.73196C32.0872 4.56091 32.329 4.45114 32.5792 4.40234C32.8295 4.45114 33.0714 4.56091 33.2838 4.73196L36.8213 7.57914C37.213 7.89435 37.4201 8.32715 37.4201 8.82995V20.7502C37.4201 21.2224 37.0338 21.6087 36.5616 21.6087ZM32.2771 6.74844C31.5843 6.74844 31.0227 7.25388 31.0227 7.87741C31.0227 8.50094 31.5844 9.00637 32.2771 9.00637C32.3813 9.00637 32.4824 8.99481 32.5792 8.9733C32.676 8.99481 32.7771 9.00637 32.8813 9.00637C33.5742 9.00637 34.1357 8.50094 34.1357 7.87741C34.1357 7.25388 33.5741 6.74844 32.8813 6.74844C32.7771 6.74844 32.676 6.76001 32.5792 6.78151C32.4824 6.76001 32.3813 6.74844 32.2771 6.74844Z" fill="#FFE177"/>
<path fill-rule="evenodd" clip-rule="evenodd" d="M35.1171 11.7695C35.4138 11.9448 35.5122 12.3274 35.3369 12.624C35.1616 12.9207 34.779 13.0191 34.4824 12.8438C33.9593 12.5344 33.1066 12.3003 32.4856 12.4509C31.5163 12.6859 31.2855 13.5914 32.1334 14.0576C32.6762 14.356 33.4814 14.1131 34.2883 14.5942C36.1943 15.7306 35.5656 18.072 33.5084 18.5096V18.8964C33.5084 19.2415 33.2285 19.5214 32.8834 19.5214C32.5382 19.5214 32.2583 19.2415 32.2583 18.8964V18.5242C31.6971 18.4416 31.1611 18.2538 30.6497 17.9638C30.3504 17.7939 30.2454 17.4134 30.4153 17.1141C30.5853 16.8149 30.9656 16.7099 31.265 16.8798C31.8886 17.2336 32.9456 17.5323 33.6632 17.1416C34.4103 16.7349 34.2908 15.9986 33.673 15.6777C33.0545 15.3564 32.3781 15.6263 31.5266 15.1445C29.6905 14.1055 30.0977 11.7141 32.2583 11.2223V10.8321C32.2583 10.4869 32.5382 10.207 32.8834 10.207C33.2285 10.207 33.5084 10.4869 33.5084 10.8321V11.2075C34.0871 11.292 34.6215 11.4758 35.1171 11.7695Z" fill="#41678A"/>
<path fill-rule="evenodd" clip-rule="evenodd" d="M40.3328 20.8965C40.3328 22.6531 38.8955 24.0904 37.1388 24.0904H28.6217C26.865 24.0904 25.4277 22.6531 25.4277 20.8965H40.3328Z" fill="#14B5A2"/>
<path fill-rule="evenodd" clip-rule="evenodd" d="M36.243 24.0904H28.6217C26.865 24.0904 25.4277 22.6531 25.4277 20.8965H39.4369C39.4369 22.6531 37.9997 24.0904 36.243 24.0904Z" fill="#19CFBA"/>
</g>
<defs>
<clipPath id="clip0_2570_4561">
<rect width="40" height="40" fill="white" transform="translate(0.333984)"/>
</clipPath>
</defs>
</svg>
