<svg width="41" height="40" viewBox="0 0 41 40" fill="none" xmlns="http://www.w3.org/2000/svg">
<path fill-rule="evenodd" clip-rule="evenodd" d="M30.2307 16.3366V24.5903C30.2307 25.5617 29.3637 26.354 28.3008 26.354H14.2053C13.1424 26.354 12.2754 25.5617 12.2754 24.5903V16.3366L20.4064 8.90558C20.8727 8.47939 21.6333 8.47939 22.0996 8.90558L30.2307 16.3366Z" fill="#CCCCCC"/>
<path fill-rule="evenodd" clip-rule="evenodd" d="M26.1931 26.354H14.2053C13.1424 26.354 12.2754 25.5617 12.2754 24.5903V16.3366L20.2924 9.00977L23.1413 9.99654L28.1228 16.3367V24.5904C28.1229 25.5617 27.256 26.354 26.1931 26.354Z" fill="#E6E6E6"/>
<path fill-rule="evenodd" clip-rule="evenodd" d="M9.80066 18.8942C9.22791 18.3214 9.22791 17.3843 9.80066 16.8115L18.5835 8.02874C20.0475 6.56468 22.4347 6.56314 23.9007 8.02529L32.7097 16.8115C33.2825 17.3843 33.2825 18.3214 32.7097 18.8942C32.137 19.4669 31.1998 19.4669 30.6271 18.8942L22.029 10.2961C21.6028 9.86988 20.9077 9.86988 20.4815 10.2961L11.8834 18.8942C11.3105 19.4669 10.3734 19.4669 9.80066 18.8942Z" fill="#003862"/>
<path fill-rule="evenodd" clip-rule="evenodd" d="M18.8983 23.0137H23.6132V34.319H26.2654L21.2558 39.7037L16.2461 34.319H18.8983V23.0137Z" fill="#49AAFD"/>
<path d="M27.4687 26.6955C28.0903 23.2595 25.8087 19.9703 22.3727 19.3487C18.9367 18.7271 15.6473 21.0087 15.0258 24.4446C14.4043 27.8806 16.6858 31.1699 20.1218 31.7914C23.5579 32.413 26.8472 30.1315 27.4687 26.6955Z" fill="#F5BF36"/>
<path fill-rule="evenodd" clip-rule="evenodd" d="M23.5245 23.3626C22.5882 22.9563 21.1165 22.7011 20.0113 23.1288C19.3663 23.3727 19.0307 23.7446 19.0027 24.2437C19.0194 24.7101 19.3554 25.0818 20.0113 25.3586C20.9699 25.7446 21.537 25.4191 22.5272 25.809C23.1722 26.0728 23.503 26.4463 23.5358 26.9239C23.4976 27.4111 23.1673 27.7851 22.5272 28.0388C21.4595 28.4563 20.0184 28.2405 18.9688 27.805L23.5245 23.3626ZM23.5245 23.3626L18.9688 27.8049C20.0184 28.2403 21.4595 28.4563 22.5272 28.0388C23.1673 27.7851 23.4975 27.4112 23.5358 26.9239C23.503 26.4463 23.1723 26.0727 22.5272 25.8089C21.537 25.419 20.9699 25.7445 20.0113 25.3586C19.3554 25.0818 19.0195 24.71 19.0027 24.2436C19.0307 23.7445 19.3663 23.3726 20.0113 23.1287C21.1164 22.7011 22.5882 22.9563 23.5245 23.3626ZM21.2522 28.2637V29.0855L21.2749 28.2637H21.2522Z" fill="#FFE177"/>
<path fill-rule="evenodd" clip-rule="evenodd" d="M23.7655 22.8072C24.0716 22.9393 24.2126 23.2945 24.0805 23.6006C23.9484 23.9067 23.5932 24.0478 23.287 23.9156C22.5901 23.6141 21.5295 23.4128 20.7131 23.5577C20.4009 23.6132 19.9275 23.7706 19.7252 23.9943C19.3952 24.3593 19.8805 24.643 20.2282 24.7926L20.2287 24.7914C21.1498 25.1447 21.573 24.8003 22.7421 25.2418C23.4945 25.5258 24.088 26.0903 24.1416 26.8825C24.1436 26.9121 24.1433 26.9413 24.1411 26.9701H24.1416C24.079 27.7676 23.5098 28.3085 22.7468 28.6008L22.747 28.6012C22.469 28.7084 22.1729 28.7833 21.8657 28.8253L21.8605 29.0843C21.8605 29.4192 21.589 29.6906 21.2541 29.6906C20.9192 29.6906 20.6478 29.4192 20.6478 29.0843V28.8359C19.9906 28.7747 19.3557 28.6189 18.7385 28.3627C18.4298 28.2345 18.2835 27.8804 18.4117 27.5717C18.5399 27.263 18.894 27.1167 19.2027 27.2449C19.861 27.5181 20.571 27.6563 21.2768 27.6563V27.6585C21.6149 27.6632 22.0049 27.592 22.3112 27.474L22.3113 27.4744C22.5385 27.3838 22.7039 27.2797 22.8091 27.1628C22.8738 27.0908 22.9134 27.0094 22.9285 26.9189C22.9142 26.8363 22.8759 26.76 22.813 26.6901C22.4804 26.3205 21.7523 26.1874 21.2712 26.1866C20.7655 26.1858 20.2553 26.099 19.7978 25.9236L19.7984 25.922C19.0364 25.6177 18.4605 25.0926 18.4023 24.2976C18.3742 23.913 18.5678 23.4745 18.8301 23.1844C19.2583 22.7108 19.9994 22.4316 20.648 22.3415V22.0809C20.648 21.7461 20.9194 21.4746 21.2543 21.4746C21.5892 21.4746 21.8606 21.7461 21.8606 22.0809V22.3328C22.5403 22.3972 23.1674 22.5477 23.7655 22.8072Z" fill="white"/>
<path fill-rule="evenodd" clip-rule="evenodd" d="M36.6438 22.6597C36.5496 22.9802 36.2134 23.1637 35.893 23.0695C35.5725 22.9754 35.389 22.6391 35.4832 22.3187C36.4576 19.0427 36.2563 15.5857 35.0303 12.5122C32.8637 7.08083 27.6979 3.39355 21.8411 3.12555L23.0628 4.08692C23.3257 4.29357 23.3713 4.67428 23.1646 4.9372C22.958 5.20012 22.5773 5.24567 22.3143 5.03903L19.7432 3.01574L19.7433 3.01555C19.4017 2.74683 19.4354 2.19876 19.8642 1.98975L23.0251 0.362245C23.3221 0.209233 23.6868 0.325852 23.8398 0.622802C23.9929 0.919752 23.8762 1.2845 23.5793 1.43751L22.5636 1.96053C28.639 2.49099 33.9035 6.42821 36.1529 12.0671C37.4778 15.3883 37.6957 19.1225 36.6438 22.6597ZM3.39694 21.1445C3.14582 20.9234 3.12141 20.5406 3.34249 20.2895C3.56357 20.0384 3.94637 20.0139 4.19749 20.235L5.28873 21.1965C4.13559 15.3757 6.27287 9.35315 10.8898 5.5674C12.4119 4.31934 14.1341 3.37376 15.9602 2.75618C16.2768 2.6489 16.6204 2.81862 16.7277 3.13517C16.8349 3.45172 16.6652 3.79532 16.3487 3.90259C11.0235 5.70517 7.14076 10.3444 6.33967 15.9368C6.09726 17.6292 6.15035 19.3363 6.47889 20.9839L6.8518 19.7508C6.94854 19.4304 7.28688 19.2491 7.60733 19.3458C7.92779 19.4426 8.10911 19.7809 8.01237 20.1013L7.06534 23.2331L7.06516 23.233C6.94037 23.6471 6.41953 23.8073 6.08483 23.5125L3.39694 21.1445Z" fill="#22C55E"/>
<path fill-rule="evenodd" clip-rule="evenodd" d="M6.91083 26.2578H10.2488V29.7555H12.1264L8.57981 33.5677L5.0332 29.7555H6.91083V26.2578ZM32.2624 26.2578H35.6004V29.7555H37.478L33.9314 33.5677L30.3848 29.7555H32.2624V26.2578Z" fill="#49AAFD"/>
</svg>
