<svg width="40" height="40" viewBox="0 0 40 40" fill="none" xmlns="http://www.w3.org/2000/svg">
<g clip-path="url(#clip0_2570_4615)">
<path fill-rule="evenodd" clip-rule="evenodd" d="M14.2891 30.7362C14.9427 31.0919 15.6445 31.3802 16.3749 31.6108C22.7863 33.6103 29.6106 30.0344 31.6099 23.6234L28.9377 22.8161L35.1855 19.8457L38.6361 25.8437L36.0409 24.9693C33.2727 33.8412 23.8818 38.8005 15.0003 36.0324C14.7601 35.9559 14.5198 35.8786 14.2891 35.7923V30.7362Z" fill="#22C55E"/>
<path fill-rule="evenodd" clip-rule="evenodd" d="M29.1494 5.90856C27.8902 5.10121 26.5063 4.4377 25.0067 3.9666C16.1541 1.20832 6.73438 6.13894 3.97578 14.9916L1.36133 14.1556L4.81211 20.1534L11.0695 17.1831L8.38781 16.3758C10.3966 9.96465 17.2115 6.38887 23.6226 8.38809C25.843 9.08012 27.7269 10.349 29.1495 11.9829L29.1494 5.90856Z" fill="#22C55E"/>
<path fill-rule="evenodd" clip-rule="evenodd" d="M16.4324 27.9102V39.531H3.6582V27.9102L10.0405 23.8926L16.4324 27.9102Z" fill="#D7DFE2"/>
<path fill-rule="evenodd" clip-rule="evenodd" d="M10.0411 24.9604L2.17856 29.9107C1.80371 30.1506 1.30387 30.045 1.06363 29.6703L0.60215 28.9877C0.477306 28.7957 0.438712 28.5843 0.486837 28.3631C0.534884 28.142 0.659884 27.9689 0.852072 27.844L3.65871 26.0849V23.4031C3.65871 23.2207 3.80293 23.0764 3.98551 23.0764H5.38895C5.5716 23.0764 5.72535 23.2207 5.72535 23.4031V24.7775L9.69512 22.2784C9.91613 22.1442 10.1757 22.1442 10.3872 22.2784L19.23 27.844C19.4222 27.9689 19.5473 28.1419 19.5954 28.3631C19.6434 28.5843 19.605 28.7957 19.48 28.9877L19.0282 29.6703C18.7784 30.045 18.2882 30.1506 17.9133 29.9107L10.0411 24.9604Z" fill="#003862"/>
<path fill-rule="evenodd" clip-rule="evenodd" d="M5.26367 33.1211H9.48328V39.532H5.26367V33.1211Z" fill="#003862"/>
<path fill-rule="evenodd" clip-rule="evenodd" d="M10.042 30.8437C10.888 30.8437 11.5702 30.1612 11.5702 29.3155C11.5702 28.4794 10.888 27.7969 10.042 27.7969C9.2057 27.7969 8.51367 28.4793 8.51367 29.3155C8.51367 30.1612 9.2057 30.8437 10.042 30.8437Z" fill="#003862"/>
<path fill-rule="evenodd" clip-rule="evenodd" d="M27.2757 18.1356C28.4483 18.5394 29.996 18.7409 31.5435 18.7409C33.091 18.7409 34.6385 18.5394 35.8111 18.1356C42.0493 20.5095 38.4832 16.5018 38.8196 14.3291C39.3386 10.9075 37.1281 6.93766 34.7249 5.01523C34.7058 3.92906 34.9076 2.1607 35.4845 1.09375C34.2058 0.680234 32.8795 0.46875 31.5435 0.46875C30.217 0.46875 28.8906 0.680234 27.6122 1.09375C28.189 2.1607 28.3907 3.92906 28.3619 5.01523C25.959 6.93758 23.7578 10.9075 24.2768 14.3291C24.6037 16.5018 21.0378 20.5095 27.2757 18.1356Z" fill="#F5BF36"/>
<path fill-rule="evenodd" clip-rule="evenodd" d="M26.2469 18.4911C26.5545 18.3952 26.9005 18.2796 27.2753 18.1355C26.862 17.982 26.5064 17.7991 26.2276 17.5879C26.0546 17.4625 25.824 17.5011 25.6991 17.6647C25.5739 17.8374 25.6126 18.068 25.7757 18.1931C25.92 18.2991 26.0738 18.4043 26.2469 18.4911Z" fill="#E6BC54"/>
<path fill-rule="evenodd" clip-rule="evenodd" d="M35.8105 18.1355C36.1854 18.2795 36.5218 18.3952 36.839 18.5008C37.0121 18.4044 37.1754 18.2991 37.3197 18.1931C37.4831 18.068 37.5215 17.8374 37.3965 17.6648C37.2714 17.5011 37.0311 17.4626 36.8678 17.5879C36.5892 17.7991 36.2241 17.9819 35.8105 18.1355Z" fill="#E6BC54"/>
<path fill-rule="evenodd" clip-rule="evenodd" d="M35.5414 6.90886C35.724 7.13019 35.6952 7.45698 35.474 7.63948C35.253 7.82206 34.9264 7.79347 34.7436 7.57253C34.4456 7.21691 34.2727 6.77464 34.1861 6.34198C34.1284 6.10175 34.0998 5.85206 34.0901 5.63081C33.2441 5.82292 32.3791 5.92862 31.514 5.92862C30.4374 5.92862 29.3704 5.77519 28.3325 5.46722C28.0537 5.39042 27.8998 5.1023 27.9768 4.82355C28.0633 4.55433 28.3517 4.39089 28.6208 4.47745C29.5533 4.74683 30.5336 4.89081 31.514 4.89081C32.4944 4.89081 33.4652 4.74683 34.3975 4.47745C34.4169 4.46808 34.4265 4.46808 34.4456 4.46808C34.5321 4.42941 34.6283 4.41941 34.7243 4.42941C35.4644 4.51589 36.1181 4.70831 36.6659 4.94831C37.3677 5.24636 37.9059 5.61167 38.2137 5.93855C38.4059 6.15019 38.3964 6.47667 38.1848 6.66894C37.9829 6.87066 37.6562 6.85151 37.4543 6.64987C37.2331 6.40948 36.8295 6.13089 36.2624 5.90019C35.9355 5.7562 35.5511 5.63097 35.1281 5.54456C35.1281 5.72698 35.1474 5.91941 35.1954 6.13089C35.253 6.41878 35.3683 6.69777 35.5414 6.90886Z" fill="#DC7500"/>
<path fill-rule="evenodd" clip-rule="evenodd" d="M32.0245 16.8959C32.0245 17.1457 31.8225 17.3569 31.5632 17.3569C31.3131 17.3569 31.1113 17.1457 31.1113 16.8959V16.511C30.9095 16.492 30.7076 16.463 30.5153 16.4152C29.9002 16.2514 29.3524 15.9251 28.9775 15.4634C28.814 15.2618 28.8526 14.9734 29.0449 14.8197C29.237 14.6561 29.5253 14.6945 29.6888 14.8868C29.9388 15.1945 30.3137 15.4152 30.7461 15.5309C31.1884 15.6462 31.688 15.6462 32.1495 15.5018C32.4283 15.425 32.6589 15.3096 32.8416 15.1752C33.0915 14.9923 33.2548 14.7713 33.3317 14.5409C33.4087 14.3099 33.4181 14.0699 33.351 13.8488C33.3028 13.7042 33.2356 13.5699 33.1491 13.4355C32.7166 12.849 32.0535 12.7625 31.4191 12.6858C30.4963 12.5606 29.612 12.4549 29.0449 11.3208C28.987 11.2055 28.9391 11.0901 28.9006 10.9748C28.7756 10.5227 28.7949 10.0425 28.9967 9.60008C29.1987 9.16758 29.5543 8.7832 30.0926 8.51398C30.2558 8.43719 30.4384 8.36031 30.6309 8.30281C30.7941 8.26438 30.948 8.22563 31.1113 8.20648V7.7932C31.1113 7.53383 31.3131 7.33203 31.5633 7.33203C31.8225 7.33203 32.0245 7.53383 32.0245 7.7932V8.1968C32.1592 8.21609 32.3034 8.24523 32.438 8.27383C33.0242 8.42781 33.5434 8.74461 33.8989 9.18703C34.0624 9.37891 34.0238 9.66742 33.8317 9.83063C33.6298 9.98461 33.3511 9.95578 33.1877 9.75383C32.957 9.47539 32.6111 9.26375 32.2072 9.15805C31.7939 9.05242 31.3228 9.05242 30.8904 9.17734C30.7462 9.22531 30.6117 9.27336 30.4964 9.33125C30.1599 9.50437 29.9485 9.73461 29.8331 9.97508C29.7177 10.2153 29.7081 10.475 29.7851 10.7152C29.8044 10.7824 29.8235 10.8501 29.8524 10.9076C30.208 11.609 30.8616 11.6956 31.5345 11.7822C32.361 11.8877 33.2165 11.9938 33.8799 12.907C34.0333 13.1182 34.1489 13.3486 34.2259 13.5891C34.3411 13.993 34.3411 14.4348 34.1969 14.8387C34.0624 15.2424 33.7932 15.6173 33.3799 15.915C33.1107 16.1074 32.7937 16.2707 32.4091 16.3862C32.2842 16.415 32.1496 16.4532 32.0247 16.4725V16.8959H32.0245Z" fill="#FFF6B5"/>
</g>
<defs>
<clipPath id="clip0_2570_4615">
<rect width="40" height="40" fill="white"/>
</clipPath>
</defs>
</svg>
