<svg width="41" height="40" viewBox="0 0 41 40" fill="none" xmlns="http://www.w3.org/2000/svg">
<path d="M33.7891 31.25V11.9644L23.1641 4.375L12.5391 11.965V26.25H18.1641L21.6134 30.2738C21.8076 30.5004 21.9142 30.7891 21.9141 31.0875V31.25H33.7891Z" fill="#E5E5E5"/>
<path d="M28.166 31.25V18.75H18.166V26.25L21.6154 30.2738C21.8095 30.5004 21.9162 30.7891 21.916 31.0875V31.25H28.166Z" fill="#003862"/>
<path d="M18.166 26.25L21.6148 30.2738C21.8091 30.5003 21.916 30.789 21.916 31.0875V31.25H26.8535V20H18.166V26.25Z" fill="#005A9E"/>
<path d="M10.666 36.25H15.666L19.416 38.75L39.416 34.375V33.75C39.416 33.087 39.1526 32.4511 38.6838 31.9822C38.2149 31.5134 37.5791 31.25 36.916 31.25H21.916V31.0875C21.9159 30.7895 21.8092 30.5013 21.6154 30.275L18.166 26.25H10.666V36.25Z" fill="#FBE1CA"/>
<path d="M1.91406 25H6.91406V38.75H1.91406V25Z" fill="#003862"/>
<path d="M6.91602 25H10.666V37.5H6.91602V25Z" fill="#CCCCCC"/>
<path d="M6.91602 26.25H9.41602V37.5H6.91602V26.25Z" fill="#DBDBDB"/>
<path d="M20.0415 33.7505H19.3096C19.0632 33.7513 18.8191 33.7031 18.5914 33.6088C18.3637 33.5145 18.157 33.3759 17.9834 33.2011L15.2246 30.4423L16.1084 29.5586L18.8671 32.3173C18.9252 32.3755 18.9942 32.4215 19.0701 32.453C19.1461 32.4844 19.2274 32.5005 19.3096 32.5005H20.0415C20.2072 32.5005 20.3662 32.4346 20.4834 32.3174C20.6006 32.2002 20.6665 32.0412 20.6665 31.8755V31.2505H21.9165V31.8755C21.9165 32.3728 21.7189 32.8497 21.3673 33.2013C21.0157 33.5529 20.5388 33.7505 20.0415 33.7505Z" fill="#F2B9A1"/>
<path d="M37.5391 11.25L23.1641 1.25L8.78906 11.25L10.0391 13.75L23.1641 4.375L36.2891 13.75L37.5391 11.25Z" fill="#003862"/>
<path d="M35.041 18.75C34.213 18.7498 33.4018 18.9847 32.702 19.4272C32.0021 19.8698 31.4421 20.5018 31.0873 21.25H26.916L25.666 22.5L24.416 21.25H22.541L20.666 23.125V25H31.0873C31.4228 25.7074 31.942 26.3117 32.5907 26.75C33.2394 27.1884 33.9938 27.4446 34.7753 27.492C35.5568 27.5394 36.3366 27.3762 37.0335 27.0195C37.7305 26.6627 38.3189 26.1255 38.7374 25.4639C39.156 24.8023 39.3893 24.0405 39.4131 23.2579C39.4369 22.4754 39.2502 21.7008 38.8727 21.015C38.4951 20.3291 37.9404 19.7572 37.2664 19.3588C36.5924 18.9604 35.8239 18.7502 35.041 18.75ZM36.291 24.375C36.0438 24.375 35.8021 24.3017 35.5966 24.1643C35.391 24.027 35.2308 23.8318 35.1362 23.6034C35.0416 23.3749 35.0168 23.1236 35.065 22.8811C35.1133 22.6387 35.2323 22.4159 35.4071 22.2411C35.5819 22.0663 35.8047 21.9472 36.0472 21.899C36.2896 21.8508 36.541 21.8755 36.7694 21.9702C36.9978 22.0648 37.193 22.225 37.3304 22.4305C37.4677 22.6361 37.541 22.8778 37.541 23.125C37.541 23.4565 37.4093 23.7745 37.1749 24.0089C36.9405 24.2433 36.6225 24.375 36.291 24.375Z" fill="#FBC634"/>
<path d="M12.0957 2.31641L12.9796 1.43252L15.4797 3.93259L14.5958 4.81647L12.0957 2.31641Z" fill="#003862"/>
<path d="M8.78906 5.62305H12.5391V6.87305H8.78906V5.62305Z" fill="#003862"/>
<path d="M30.8438 3.93164L33.3438 1.43158L34.2277 2.31546L31.7276 4.81552L30.8438 3.93164Z" fill="#003862"/>
<path d="M33.7891 5.62305H37.5391V6.87305H33.7891V5.62305Z" fill="#003862"/>
<path d="M23.166 19.375C26.2726 19.375 28.791 16.8566 28.791 13.75C28.791 10.6434 26.2726 8.125 23.166 8.125C20.0594 8.125 17.541 10.6434 17.541 13.75C17.541 16.8566 20.0594 19.375 23.166 19.375Z" fill="#F0AE42"/>
<path d="M22.1014 19.2775C22.9525 19.4408 23.8299 19.4048 24.6649 19.1723C25.4998 18.9398 26.2696 18.5172 26.9139 17.9375V11.25C26.9139 10.9185 26.7822 10.6005 26.5477 10.3661C26.3133 10.1317 25.9954 10 25.6639 10H18.9795C18.313 10.7405 17.8554 11.6449 17.6536 12.6205C17.4518 13.5961 17.513 14.6078 17.831 15.5519C18.1491 16.496 18.7124 17.3386 19.4633 17.9933C20.2143 18.648 21.1258 19.0912 22.1045 19.2775H22.1014Z" fill="#F0C346"/>
<path d="M25.666 12.5V11.875C25.666 11.3777 25.4685 10.9008 25.1168 10.5492C24.7652 10.1975 24.2883 10 23.791 10V9.375H22.541V10C22.0437 10 21.5668 10.1975 21.2152 10.5492C20.8636 10.9008 20.666 11.3777 20.666 11.875V12.5C20.666 12.9973 20.8636 13.4742 21.2152 13.8258C21.5668 14.1775 22.0437 14.375 22.541 14.375V16.25C22.3753 16.25 22.2163 16.1842 22.0991 16.0669C21.9819 15.9497 21.916 15.7908 21.916 15.625V15H20.666V15.625C20.666 16.1223 20.8636 16.5992 21.2152 16.9508C21.5668 17.3025 22.0437 17.5 22.541 17.5V18.125H23.791V17.5C24.2883 17.5 24.7652 17.3025 25.1168 16.9508C25.4685 16.5992 25.666 16.1223 25.666 15.625V15C25.666 14.5027 25.4685 14.0258 25.1168 13.6742C24.7652 13.3225 24.2883 13.125 23.791 13.125V11.25C23.9568 11.25 24.1157 11.3158 24.233 11.4331C24.3502 11.5503 24.416 11.7092 24.416 11.875V12.5H25.666ZM24.416 15V15.625C24.416 15.7908 24.3502 15.9497 24.233 16.0669C24.1157 16.1842 23.9568 16.25 23.791 16.25V14.375C23.9568 14.375 24.1157 14.4408 24.233 14.5581C24.3502 14.6753 24.416 14.8342 24.416 15ZM22.541 13.125C22.3753 13.125 22.2163 13.0592 22.0991 12.9419C21.9819 12.8247 21.916 12.6658 21.916 12.5V11.875C21.916 11.7092 21.9819 11.5503 22.0991 11.4331C22.2163 11.3158 22.3753 11.25 22.541 11.25V13.125Z" fill="#FCE797"/>
</svg>
