<svg width="40" height="40" viewBox="0 0 40 40" fill="none" xmlns="http://www.w3.org/2000/svg">
<g clip-path="url(#clip0_2570_4520)">
<path d="M29.8074 6.83552L20.2607 0.0829368C20.1006 -0.0302498 19.8845 -0.0302498 19.7244 0.0829368L10.1813 6.83552C9.9778 6.97942 9.93348 7.25581 10.0818 7.45322L10.78 8.3789C10.9283 8.57544 11.2123 8.61843 11.4158 8.47454L12.9822 7.36636V15.271C12.9822 15.5149 13.1857 15.7123 13.4371 15.7123H26.5498C26.8012 15.7123 27.0047 15.5149 27.0047 15.271V7.36724L28.5711 8.47541C28.7737 8.61931 29.0586 8.57632 29.2069 8.37978L29.9051 7.4541C30.0552 7.25581 30.0109 6.97942 29.8074 6.83552Z" fill="#E1EFFB"/>
<path d="M39.9568 25.3194L34.6428 14.0311C34.5506 13.835 34.3162 13.7506 34.1201 13.8428L30.7342 15.4319C30.5373 15.5241 30.4529 15.7584 30.5459 15.9553L30.8748 16.6538C29.842 17.0491 28.7998 17.3959 27.7248 17.4991C25.2584 17.7381 20.8865 16.2467 18.7537 17.5038L17.5162 18.2295C15.3623 16.3545 13.5037 17.917 10.3881 17.4553C9.87479 17.3795 9.38495 17.2483 8.90839 17.092L9.44276 15.9545C9.53495 15.7577 9.45057 15.5233 9.25448 15.4311L5.87089 13.842C5.67479 13.7498 5.44042 13.8342 5.34823 14.0303L0.0318251 25.3194C-0.0611437 25.5163 0.0240126 25.7506 0.220106 25.8428L3.60604 27.4319C3.80214 27.5241 4.03651 27.4397 4.1287 27.2436L4.58183 26.2811L6.36151 27.5577C7.21932 28.4584 7.25682 30.4069 8.11698 31.4936L7.53729 32.4819C7.07479 33.2702 7.34432 34.2952 8.13339 34.7569C8.92479 35.2186 9.95136 34.9498 10.4139 34.1616C9.95136 34.9498 10.2209 35.9748 11.01 36.4366C11.8014 36.8983 12.8256 36.6295 13.2881 35.8413C12.8279 36.6295 13.0975 37.6545 13.8865 38.1163C14.6756 38.578 15.7021 38.3092 16.1646 37.5209L16.6849 36.6334L16.6889 36.6358C16.2935 37.4108 16.5709 38.3795 17.331 38.8241C18.0818 39.2623 19.0412 39.042 19.5342 38.3436L19.535 38.3444L21.8818 39.7366C22.7584 40.2561 23.9045 39.9639 24.4264 39.0866C24.9443 38.2131 24.6498 37.0647 23.7756 36.5452L25.1357 37.3514C26.0123 37.8709 27.1584 37.5788 27.6779 36.7014C28.1982 35.828 27.9037 34.6795 27.0287 34.1623L27.4662 34.4194C28.3451 34.9413 29.4912 34.6491 30.0107 33.7717C30.531 32.8983 30.2365 31.7498 29.3615 31.2303L29.6373 31.3936C30.5139 31.9155 31.6599 31.6233 32.1795 30.7459C32.6529 29.9506 32.4506 28.9272 31.7506 28.3584C33.2295 28.0639 34.5451 27.5428 35.5568 26.5983L35.8615 27.2452C35.9537 27.4413 36.1881 27.5256 36.3842 27.4334L39.7678 25.8444C39.9646 25.7506 40.049 25.5163 39.9568 25.3194Z" fill="#FBE1CA"/>
<path d="M19.7242 0.0830256L10.1813 6.84268C9.9778 6.98673 9.93348 7.2634 10.0818 7.46103L10.78 8.38767C10.9283 8.58441 11.2123 8.62745 11.4157 8.48341L19.9928 2.40973L28.5725 8.48428C28.7751 8.62833 29.06 8.58529 29.2083 8.38855L29.9065 7.4619C30.0548 7.26428 30.0105 6.9876 29.807 6.84356L20.2605 0.0830256C20.1013 -0.0302794 19.8843 -0.0302794 19.7242 0.0830256Z" fill="#005A9E"/>
<path d="M29.807 6.85113L29.6777 6.76018L29.2074 7.38114C29.0591 7.57705 28.7752 7.61991 28.5717 7.47647L19.9932 1.42773L11.4166 7.47647C11.214 7.61991 10.9292 7.57705 10.7808 7.38114L10.3106 6.76018L10.1813 6.85113C9.9778 6.99457 9.93349 7.27007 10.0818 7.46685L10.7799 8.38956C10.9282 8.58547 11.2122 8.62832 11.4157 8.48489L19.9932 2.43702L28.5726 8.48576C28.7752 8.6292 29.06 8.58634 29.2083 8.39043L29.9065 7.46773C30.0548 7.27007 30.0105 6.99457 29.807 6.85113Z" fill="#003862"/>
<path d="M17.1367 15.7112H22.851V9.00139C22.851 8.76206 22.6118 8.56836 22.3163 8.56836H17.6725C17.377 8.56836 17.1378 8.76206 17.1378 9.00139V15.7112H17.1367Z" fill="#F1BA84"/>
<path d="M22.3749 8.56836H19.9941C20.2574 8.56836 20.4705 8.76206 20.4705 9.00139V15.7112H22.8513V9.00139C22.8513 8.76206 22.6373 8.56836 22.3749 8.56836Z" fill="#DE9252"/>
<path d="M9.80312 18.5949C12.6266 19.0137 14.418 17.7691 16.332 18.9277L17.518 18.2293C15.3641 16.3543 13.5055 17.9168 10.3898 17.4551C9.87656 17.3793 9.38672 17.248 8.91016 17.0918L8.36719 18.2449C8.82891 18.3957 9.30547 18.5215 9.80312 18.5949Z" fill="#F8D9BE"/>
<path d="M9.2166 29.6166L7.53691 32.4822C7.07441 33.2705 7.34394 34.2955 8.133 34.7572C8.92441 35.2189 9.95097 34.9502 10.4135 34.1619L12.0908 31.2963C12.5533 30.5056 12.2838 29.4806 11.4947 29.0189C10.7033 28.5572 9.6791 28.826 9.2166 29.6166Z" fill="#FFD8B5"/>
<path d="M12.0893 31.2963L10.4119 34.1619C9.94941 34.9502 10.2189 35.9752 11.008 36.4369C11.7994 36.8986 12.8236 36.6299 13.2861 35.8416L14.9658 32.976C15.4283 32.1877 15.1588 31.1603 14.3697 30.6986C13.5775 30.2369 12.5518 30.5056 12.0893 31.2963Z" fill="#FFD8B5"/>
<path d="M14.9669 32.976L13.2872 35.8416C12.8271 36.6299 13.0966 37.6549 13.8857 38.1166C14.6747 38.5783 15.7013 38.3096 16.1638 37.5213L17.8435 34.6556C18.3036 33.8674 18.0364 32.84 17.245 32.3783C16.4552 31.9166 15.4294 32.1853 14.9669 32.976Z" fill="#FFD8B5"/>
<path d="M17.8465 34.6553L16.7333 36.5444C16.2684 37.3327 16.5403 38.36 17.3294 38.8217C18.1208 39.2835 19.145 39.0147 19.6098 38.2241L20.7231 36.335C21.188 35.5467 20.9161 34.5194 20.127 34.06C19.3356 33.5983 18.3114 33.8671 17.8465 34.6553Z" fill="#FFD8B5"/>
<path d="M11.4949 29.0164C11.2855 28.8945 11.0605 28.825 10.8332 28.8008C11.3863 29.3195 11.5324 30.1742 11.134 30.8562L9.45664 33.7219C9.11602 34.3016 8.4707 34.5992 7.83789 34.5328C7.92617 34.6156 8.02461 34.6914 8.1332 34.7547C8.92461 35.2164 9.95117 34.9477 10.4137 34.1594L12.091 31.2938C12.5535 30.5031 12.284 29.4781 11.4949 29.0164Z" fill="#EDC498"/>
<path d="M14.3699 30.6961C14.1605 30.5742 13.9355 30.5047 13.7082 30.4805C14.2613 31 14.4074 31.8562 14.009 32.5359L12.3293 35.4016C11.9887 35.9813 11.3449 36.2789 10.7129 36.2125C10.8012 36.2953 10.8996 36.3711 11.0082 36.4344C11.7996 36.8961 12.8238 36.6273 13.2863 35.8391L14.966 32.9734C15.4285 32.1852 15.159 31.1578 14.3699 30.6961Z" fill="#EDC498"/>
<path d="M17.2445 32.3777C17.0359 32.2559 16.8102 32.1863 16.5836 32.1621C17.1383 32.6816 17.2828 33.5379 16.8859 34.2176L15.2063 37.0832C14.8664 37.6629 14.2211 37.9598 13.5898 37.8941C13.6781 37.977 13.7758 38.052 13.8852 38.116C14.6742 38.5777 15.7008 38.309 16.1633 37.5207L17.843 34.6551C18.3023 33.8668 18.0359 32.8395 17.2445 32.3777Z" fill="#EDC498"/>
<path d="M20.1262 34.0613C19.9176 33.9395 19.6918 33.8699 19.4652 33.8457C20.0184 34.3637 20.1652 35.2191 19.7652 35.8988L18.652 37.7879C18.3098 38.3691 17.6652 38.6676 17.0332 38.6012C17.1215 38.684 17.2199 38.7598 17.3285 38.823C18.1199 39.2848 19.1441 39.016 19.609 38.2254L20.7223 36.3363C21.1863 35.548 20.9152 34.5207 20.1262 34.0613Z" fill="#EDC498"/>
<path d="M30.8754 16.6523L35.5574 26.5953C34.5449 27.5398 33.2293 28.0617 31.7496 28.3555C31.6832 28.2977 31.609 28.2477 31.5308 28.2016L27.5848 25.8625C24.373 26.1016 21.3379 25.6469 18.6019 22.1672L15.2176 24.1594C14.0949 24.8211 12.6707 24.5547 11.8512 23.5961C11.5519 23.2492 11.4371 22.8313 11.5129 22.3805C11.5863 21.9297 11.8324 21.5719 12.2285 21.3422L18.7535 17.5023C20.8863 16.2453 25.2582 17.7367 27.7246 17.4977C28.8004 17.3945 29.8426 17.0477 30.8754 16.6523Z" fill="#FFD8B5"/>
<path d="M12.6949 23.1035C12.3957 22.7566 12.2808 22.3387 12.3566 21.8879C12.4301 21.4371 12.6746 21.0754 13.0699 20.8457L12.2285 21.341C11.8324 21.5707 11.5863 21.9293 11.5129 22.3793C11.4371 22.8301 11.5519 23.248 11.8512 23.5949C12.6699 24.5535 14.0941 24.8199 15.2176 24.1582L15.9316 23.7379C14.8308 24.3066 13.4832 24.0254 12.6949 23.1035Z" fill="#EDC498"/>
<path d="M32.9023 27.799C32.7227 27.8396 32.5359 27.8053 32.3773 27.7115C32.3766 27.7107 32.3758 27.7107 32.375 27.71L28.9211 25.6623C28.6117 25.4787 28.2555 25.3865 27.8953 25.4037C25.1109 25.5389 22.4664 25.0467 20.043 22.3826C19.6766 21.9795 19.0742 21.8943 18.6055 22.1709C21.3406 25.6467 24.3742 26.1014 27.5852 25.8623L31.5312 28.2014C31.6094 28.2475 31.6828 28.2982 31.75 28.3553C32.9273 28.1209 34.0008 27.742 34.9008 27.1209C34.2875 27.4209 33.6156 27.6389 32.9023 27.799Z" fill="#EDC498"/>
<path d="M30.0613 30.3284L27.123 28.5886C26.8543 28.43 26.5082 28.5183 26.3488 28.7862C26.1894 29.055 26.2777 29.4018 26.5473 29.5612L29.6379 31.3917C30.5144 31.9136 31.6605 31.6214 32.1801 30.744C32.3332 30.4862 32.4152 30.205 32.4332 29.9229C31.8605 30.6081 30.8512 30.7987 30.0613 30.3284Z" fill="#F8D9BE"/>
<path d="M27.8891 33.3546L25.2266 31.778C24.9578 31.6194 24.6117 31.7077 24.4524 31.9757C24.293 32.2444 24.3813 32.5921 24.65 32.7507L27.4649 34.4179C28.3438 34.9397 29.4899 34.6475 30.0094 33.7702C30.1625 33.5124 30.2446 33.2311 30.2625 32.9491C29.6914 33.6335 28.6821 33.8249 27.8891 33.3546Z" fill="#F8D9BE"/>
<path d="M25.5571 36.2873L23.3321 34.9678C23.0633 34.8084 22.7172 34.8975 22.5578 35.1655C22.3985 35.4342 22.4867 35.7811 22.7555 35.9405L25.1336 37.3498C26.0102 37.8694 27.1563 37.5772 27.6758 36.6998C27.8289 36.442 27.911 36.1608 27.9289 35.8788C27.3563 36.5647 26.3477 36.7561 25.5571 36.2873Z" fill="#F8D9BE"/>
<path d="M22.3039 38.6742L20.1117 37.375L19.6086 38.2281C19.5844 38.2687 19.5578 38.3078 19.5312 38.3461L21.8797 39.7383C22.7562 40.2578 23.9023 39.9656 24.4242 39.0883C24.5766 38.8312 24.6578 38.55 24.6758 38.268C24.1016 38.9516 23.0937 39.1422 22.3039 38.6742Z" fill="#F8D9BE"/>
<path d="M5.34745 14.0303L0.0318251 25.3186C-0.0611437 25.5155 0.0240126 25.7498 0.220106 25.842L3.60604 27.4311C3.80214 27.5233 4.03651 27.4389 4.1287 27.2428L9.44276 15.9545C9.53495 15.7577 9.45057 15.5233 9.25448 15.4311L5.87089 13.842C5.67401 13.7498 5.44042 13.8342 5.34745 14.0303Z" fill="#2D5871"/>
<path d="M9.25586 15.432L8.07852 14.8789C8.2043 14.9922 8.24805 15.1781 8.17227 15.3391L2.85898 26.6734C2.78633 26.8281 2.62695 26.9117 2.4668 26.8969L3.6082 27.4328C3.8043 27.525 4.03867 27.4406 4.13086 27.2445L9.44492 15.9562C9.53711 15.7586 9.45273 15.5242 9.25586 15.432Z" fill="#1D4859"/>
<path d="M34.6435 14.0303L39.9576 25.3186C40.0498 25.5155 39.9654 25.7498 39.7693 25.842L36.3857 27.4311C36.1896 27.5233 35.9553 27.4389 35.8631 27.2428L30.5475 15.9545C30.4545 15.7577 30.5396 15.5233 30.7357 15.4311L34.1217 13.842C34.3178 13.7498 34.5514 13.8342 34.6435 14.0303Z" fill="#2D5871"/>
<path d="M39.9563 25.3186L34.6422 14.0303C34.55 13.8342 34.3156 13.7498 34.1195 13.842L32.6641 14.5256C32.8586 14.4405 33.0875 14.5241 33.1781 14.7178L38.5031 26.0202C38.5797 26.1827 38.5336 26.3702 38.4047 26.4827L39.7672 25.8428C39.9641 25.7498 40.0484 25.5155 39.9563 25.3186Z" fill="#1D4859"/>
<path fill-rule="evenodd" clip-rule="evenodd" d="M2.91289 25.3109C3.26914 25.3109 3.56211 25.0188 3.56211 24.6633C3.56211 24.3047 3.26992 24.0156 2.91289 24.0156C2.5543 24.0156 2.26367 24.3055 2.26367 24.6633C2.26367 25.0195 2.55352 25.3109 2.91289 25.3109Z" fill="#1D4859"/>
<path d="M20.5229 2.85352L19.9941 3.2367L26.0786 7.64591V15.1342C26.0786 15.4521 25.8867 15.7107 25.6496 15.7107H26.708C26.9451 15.7107 27.137 15.4529 27.137 15.1342V7.64591L20.5229 2.85352Z" fill="#CCDFED"/>
<path fill-rule="evenodd" clip-rule="evenodd" d="M37.0805 25.3109C37.4367 25.3109 37.7297 25.0188 37.7297 24.6633C37.7297 24.3047 37.4375 24.0156 37.0805 24.0156C36.7219 24.0156 36.4297 24.3055 36.4297 24.6633C36.4297 25.0195 36.7219 25.3109 37.0805 25.3109Z" fill="#1D4859"/>
</g>
<defs>
<clipPath id="clip0_2570_4520">
<rect width="40" height="40" fill="white"/>
</clipPath>
</defs>
</svg>
