<svg width="575" height="368" viewBox="0 0 575 368" fill="none" xmlns="http://www.w3.org/2000/svg">
<g clip-path="url(#clip0_36_19081)">
<path d="M556.517 359.179C558.897 359.458 558.81 362.598 556.418 362.751C515.878 365.338 413.45 371 293.5 371C138.032 371 12 371.145 12 361.489C12 351.832 138.032 344 293.5 344C413.548 344 516.045 354.427 556.517 359.179Z" fill="#E4EEF5"/>
<path d="M361.754 364.633C361.754 364.633 360.947 361.792 360.053 360.62L351.259 349.097C351.259 349.097 350.151 341.642 349.852 339.394C349.714 338.347 348.851 337.565 347.821 337.547L342.574 337.458C341.42 337.438 340.469 338.385 340.454 339.57L339.855 355.802C340.876 358.907 342.068 361.616 343.417 364.586L361.756 364.633H361.754Z" fill="#B3B3B3"/>
<path d="M360.927 359.916L354.978 352.12L354.157 349.65C350.127 348.698 344.372 350.366 344.372 350.366L343.615 353.873C343.367 353.829 343.122 353.772 342.881 353.695C339.137 352.473 340.337 346.056 340.005 346.056C339.831 346.056 338.647 349.74 338.647 349.74C338.028 354.107 338.126 364.632 338.126 364.632L362.879 364.971C362.893 364.868 362.904 364.766 362.909 364.663C363.027 362.667 361.762 361.01 360.926 359.914L360.927 359.916Z" fill="#2B2927"/>
<path d="M322.162 348.405L316.22 330.38L306.82 333.604L311.987 354.104C311.987 354.104 322.83 352.901 322.162 348.406V348.405Z" fill="#B3B3B3"/>
<path d="M325.65 356.817C325.192 355.185 322.553 348.422 321.084 344.928C321.211 346.11 320.576 348.036 319.963 348.802C318.499 350.45 315.966 351.271 313.952 350.173C312.532 349.464 313.505 347.447 310.806 347.995C308.108 348.544 308.921 351.907 308.921 351.907L308.441 354.678C308.441 354.678 303.874 355.918 302.346 357.849C299.763 361.112 301.989 364.974 301.989 364.974H318.13L325.65 356.817Z" fill="#2B2927"/>
<path d="M253.739 59.2452C253.196 58.6423 252.632 58.0581 252.048 57.4941C251.399 56.8663 250.721 56.2619 249.965 55.7696C249.577 55.5172 249.024 55.3069 248.693 55.6294C248.495 55.821 248.471 56.1419 248.562 56.4021C248.652 56.6622 248.836 56.8788 249.015 57.0891C251.938 60.5398 254.419 64.3612 256.384 68.435C252.076 65.7259 249.082 61.1473 244.58 58.7389C244.161 58.5145 243.706 58.3058 243.234 58.3447C242.76 58.3837 242.285 58.7607 242.302 59.2343C242.316 59.6019 242.601 59.8932 242.869 60.1456C246.487 63.5651 250.106 66.9846 253.723 70.4041C253.139 70.6487 252.389 70.4914 251.754 70.2873C248.414 69.2124 245.257 67.4193 241.766 67.061C241.318 67.0142 240.732 67.0828 240.618 67.519C240.498 67.9739 241.015 68.3197 241.447 68.5051C245.312 70.1658 249.177 71.828 253.042 73.4887C249.657 72.54 246.27 71.5912 242.885 70.6425C242.561 70.5521 242.224 70.4602 241.894 70.5241C241.564 70.588 241.248 70.8575 241.252 71.194C241.257 71.6053 241.692 71.8592 242.072 72.0212C245.219 73.3532 248.649 74.1368 251.45 76.0935C252.938 77.1326 254.195 78.4692 255.647 79.5581C257.099 80.6471 258.851 81.5039 260.66 81.3481C262.445 81.1939 264.1 79.9772 264.778 78.3181C265.455 76.659 265.327 71.9823 265.253 69.7966C265.259 69.7249 265.265 69.6548 265.27 69.5831C265.396 67.9007 265.379 66.1745 265.941 64.584C266.391 63.3081 267.202 62.174 268.188 61.247C268.365 61.0788 268.555 60.9121 268.663 60.6924C268.77 60.4728 268.778 60.183 268.61 60.0038C268.51 59.8979 268.365 59.8481 268.224 59.8091C266.599 59.3714 264.72 60.2531 264.019 61.7829C263.623 62.646 263.584 63.6212 263.411 64.5544C263.238 65.4875 262.871 66.469 262.061 66.9644C261.48 67.3196 260.75 67.3648 260.082 67.2323C259.696 67.156 259.325 67.0251 258.964 66.8709C257.571 64.1119 255.809 61.5399 253.742 59.2436L253.739 59.2452Z" fill="#F0B297"/>
<path d="M260.412 76.3459C259.852 74.9547 259.325 73.5308 259.249 72.0384C259.182 70.7142 259.535 69.3059 260.383 68.3167C259.433 71.0227 259.496 74.0761 260.571 76.7385C260.518 76.6076 260.465 76.4783 260.412 76.3474V76.3459Z" fill="#BA7C66"/>
<path d="M255.485 73.9732C256.144 73.2893 256.714 72.5213 257.178 71.6925C257.27 71.5305 257.013 71.3981 256.921 71.5601C256.468 72.3671 255.912 73.1117 255.27 73.78C255.141 73.914 255.356 74.1072 255.485 73.9732Z" fill="#BA7C66"/>
<path d="M265.242 75.5186C265.242 75.5186 266.507 77.6622 266.585 79.4397C266.669 81.3637 258.185 84.5729 257.202 82.9947C256.454 81.7936 256.217 79.3338 256.217 79.3338L265.242 75.5186Z" fill="#F0B297"/>
<path d="M323.89 106.133L322.31 127.751L340.485 129.08L342.065 107.461L323.89 106.133Z" fill="#F0B297"/>
<path d="M342.054 107.455L341.568 114.104C336.781 117.431 330.491 119.455 322.906 119.425L323.877 106.128L342.052 107.455H342.054Z" fill="#B36650"/>
<path d="M349.492 195.603C354.27 224.929 350.136 278.971 348.897 286.924C347.645 294.967 331.035 281.686 330.499 273.576C330.306 270.661 331.072 267.761 331.078 264.84C331.083 262.26 330.496 259.713 329.912 257.19C326.681 243.249 319.856 229.308 316.623 215.366V195.603H349.494H349.492Z" fill="#393734"/>
<path d="M302.741 194.829C298.84 224.291 288.166 262.336 289.446 274.922C290.27 283.024 307.929 286.277 309.875 278.385C310.574 275.548 311.545 267.151 312.046 264.274C312.489 261.732 320.965 243.801 321.99 241.419C327.659 228.261 328.106 227.074 333.763 216.835L337.189 197.372L302.74 194.829H302.741Z" fill="#393734"/>
<path d="M352.169 342.533C352.371 330.983 351.889 323.794 351.697 312.244C351.6 306.441 351.504 300.639 351.407 294.836C351.272 286.661 350.803 278.381 347.858 270.668C346.98 268.367 332.825 262.426 331.077 264.84C331.077 264.84 329.898 276.215 329.161 281.367C328.675 284.757 329.335 288.189 329.993 291.554C333.567 309.845 333.618 323.948 337.192 342.24L352.171 342.533H352.169Z" fill="#393734"/>
<path d="M312.923 206.086C312.386 206.047 312.024 206.019 311.881 206.007C309.176 205.775 301.292 202.847 300.259 200.941C304.392 185.65 303.249 176.169 302.144 166.998C301.523 161.838 300.935 156.965 301.275 151.178L301.289 150.947L301.196 150.735C300.259 148.62 300.118 133.311 301.501 127.103L322.048 120.178L331.077 123.616L332.939 123.752L342.373 121.662L361.697 131.499C362.163 137.842 359.798 152.969 358.564 154.926L358.441 155.122L358.421 155.353C357.897 161.349 356.341 166.11 354.694 171.15C351.907 179.679 349.025 188.5 350.921 204.078L350.929 204.148C350.264 205.01 345.612 207.004 343.4 207.189C336.299 207.783 313.873 206.158 312.923 206.089V206.086Z" fill="#F5E8D8"/>
<path d="M334.892 132.463L338.622 129.34L336.964 123.527L332.076 122.731L327.125 122.809L324.64 128.318L327.877 131.951L318.542 184.627L326.742 195.766L336.473 185.937L334.892 132.463Z" fill="#B13117"/>
<path d="M342.127 117.053L332.076 122.731L335.533 123.705L337.281 138.464L347.707 124.429L342.127 117.053Z" fill="white"/>
<path d="M322.958 115.652L332.076 122.731L328.516 123.192L324.642 137.54L316.365 122.139L322.958 115.652Z" fill="white"/>
<path d="M362.597 130.888L346.327 122.605L329.856 164.035L328.271 163.92L317.994 120.536L300.693 126.367C299.177 132.237 299.237 148.676 300.32 151.122C299.357 167.499 305.117 186.138 298.597 209.976C299.364 212.684 308.689 215.728 311.141 215.938C312.59 216.063 335.592 217.723 342.822 217.119C344.87 216.948 355.218 214.486 354.51 212.988C351.524 188.456 357.941 171.779 359.369 155.435C360.796 153.173 363.244 136.917 362.597 130.89V130.888Z" fill="#615F5D"/>
<path d="M343.138 104.679C343.893 104.951 344.75 104.85 345.49 104.549C346.23 104.249 346.872 103.764 347.479 103.26C349.083 101.926 350.609 100.209 350.651 98.1637C350.665 97.4798 350.486 96.7554 349.986 96.2678C349.391 95.6852 348.428 95.5497 347.621 95.7942C346.816 96.0373 346.154 96.6074 345.647 97.2571L343.138 104.68V104.679Z" fill="#F0B297"/>
<path d="M324.403 103.311C323.616 103.47 322.783 103.246 322.094 102.842C321.406 102.437 320.842 101.865 320.314 101.276C318.921 99.7248 317.66 97.8039 317.916 95.774C318.002 95.0948 318.284 94.4047 318.849 93.995C319.524 93.5058 320.494 93.512 321.258 93.8688C322.021 94.2255 322.593 94.886 322.998 95.6042L324.403 103.313V103.311Z" fill="#F0B297"/>
<path d="M346.129 105.889C347.188 99.5565 349.121 95.9609 350.417 92.3514C351.354 89.6454 352.441 84.9842 349.536 80.5926C346.68 76.0421 338.9 73.0074 331.463 74.5403C323.974 76.0717 319.589 80.066 320.122 85.0138C320.357 87.9706 320.483 92.0476 320.751 95.0994C320.974 97.6372 320.027 100.097 320.776 102.608C322.197 106.939 328.332 114.8 333.589 115.185C337.886 115.498 345.516 108.642 346.13 105.889H346.129Z" fill="#F0B297"/>
<g style="mix-blend-mode:soft-light">
<path d="M335.697 99.0081C335.644 99.1328 335.584 99.2402 335.515 99.3493C335.445 99.4552 335.372 99.5721 335.255 99.6235C335.143 99.6733 334.984 99.6204 334.872 99.4287C334.816 99.3337 334.78 99.2091 334.772 99.0689C334.767 98.9287 334.792 98.7744 334.856 98.628C334.922 98.4816 335.017 98.3601 335.121 98.2697C335.228 98.1809 335.344 98.1248 335.451 98.103C335.668 98.0594 335.813 98.1435 335.852 98.2603C335.894 98.3834 335.856 98.5158 335.827 98.6405C335.792 98.7651 335.757 98.8835 335.701 99.0066L335.697 99.0081Z" fill="#F2F2F2"/>
</g>
<path d="M334.331 99.3446C334.317 99.2558 334.307 99.1763 334.297 99.1046C334.289 99.033 334.283 98.9722 334.278 98.9099C334.275 98.846 334.275 98.7744 334.285 98.6918C334.292 98.6108 334.31 98.5204 334.328 98.4301C334.366 98.2478 334.408 98.0593 334.409 97.8989C334.412 97.7368 334.377 97.6013 334.291 97.5141C334.205 97.4268 334.116 97.4222 334.015 97.4814C333.914 97.5421 333.796 97.6667 333.671 97.8552C333.549 98.0422 333.414 98.3023 333.361 98.6217C333.334 98.7806 333.334 98.952 333.359 99.114C333.383 99.2776 333.431 99.4318 333.489 99.5814C333.546 99.7309 333.616 99.8633 333.691 99.9864C333.766 100.109 333.847 100.222 333.925 100.318C334.082 100.515 334.235 100.669 334.361 100.784C334.618 101.015 334.775 101.102 334.877 100.963C334.97 100.832 334.975 100.664 334.846 100.412C334.783 100.286 334.687 100.136 334.582 99.9584C334.531 99.8696 334.478 99.773 334.433 99.6702C334.389 99.5689 334.353 99.4583 334.333 99.343L334.331 99.3446Z" fill="#D1785E"/>
<path d="M339.023 93.188C339.745 93.0758 340.486 93.0992 341.203 93.2456C341.919 93.392 342.613 93.6647 343.239 94.0541C343.862 94.4467 343.527 95.0839 342.892 94.8798C342.259 94.6726 341.628 94.5044 340.989 94.3719C340.351 94.2395 339.706 94.146 339.044 94.0868C338.382 94.023 338.304 93.3048 339.023 93.188Z" fill="#1A1A1A"/>
<path d="M330.253 92.4885C329.55 92.2875 328.813 92.219 328.084 92.2751C327.355 92.3311 326.632 92.515 325.962 92.8234C325.294 93.135 325.548 93.8096 326.204 93.6865C326.858 93.5603 327.504 93.4715 328.156 93.4185C328.805 93.3671 329.458 93.3531 330.122 93.3765C330.787 93.3952 330.954 92.6926 330.254 92.4869L330.253 92.4885Z" fill="#1A1A1A"/>
<path d="M342.871 98.4271C343.262 97.8522 343.049 96.9424 342.658 96.4533C341.962 95.5793 340.321 95.1478 339.43 95.9049C339.055 96.2243 338.62 96.9191 338.729 97.4752C338.796 97.8195 339.062 97.9504 339.299 97.941C339.823 97.9208 340.354 97.4487 340.855 97.6279C341.485 97.8522 342.144 99.4973 342.871 98.4271Z" fill="#1A1A1A"/>
<path d="M325.702 97.173C325.398 96.5467 325.741 95.679 326.199 95.2506C327.015 94.4872 328.701 94.2987 329.472 95.1758C329.798 95.5466 330.126 96.2959 329.938 96.8318C329.821 97.1621 329.539 97.2524 329.307 97.2088C328.793 97.1122 328.335 96.5686 327.811 96.6729C327.156 96.8038 326.264 98.3352 325.702 97.1714V97.173Z" fill="#1A1A1A"/>
<path d="M346.24 90.6439C345.598 90.5567 344.964 90.3479 344.415 90.0472C342.932 89.234 341.281 88.6467 340.533 87.2431C339.531 85.3612 340.813 82.9418 339.217 82.3296C336.684 81.3575 331.36 83.3967 329.159 81.9043C328.693 81.588 328.315 81.1768 328.044 80.7141C327.436 81.4541 326.573 82.0881 325.744 82.6443C324.247 83.646 322.594 84.805 322.378 86.4766C322.244 87.5033 322.696 88.519 322.906 89.5394C323.305 91.4789 321.37 97.0529 321.37 97.0529C320.864 96.2397 319.482 93.2377 319.165 91.9852C318.799 90.5333 319.137 89.0175 318.893 87.5469C318.63 85.9672 317.706 84.5075 317.503 82.9216C317.273 81.1145 318.083 79.2528 319.564 78.0423C319.521 77.1684 319.553 76.296 319.715 75.4345C320.06 73.6009 321.063 71.8062 322.787 70.7827C324.316 69.8745 326.456 69.714 328.041 70.535C331.091 68.273 334.626 66.2727 338.45 66.941C341.893 67.5423 344.425 70.1549 347.526 71.6458C349.343 72.5197 351.357 73.0058 353.195 73.8392C355.034 74.6727 356.777 75.9828 357.288 77.765C357.545 78.6639 357.352 79.6688 356.836 80.4555C357.353 80.8839 357.732 81.4805 357.836 82.099C358.067 83.4637 357.355 84.7972 356.542 85.9532C355.728 87.1107 352.477 88.4987 352.131 89.8354C351.742 91.3449 348.455 99.0299 348.455 99.0299L347.21 90.6797C346.891 90.7 346.565 90.6875 346.24 90.6423V90.6439Z" fill="#2C120D"/>
<path d="M327.35 102.822C330.267 102.264 333.278 100.943 336.38 102.133C338.877 103.278 342.456 103.925 345.063 102.576C346.842 101.463 347.777 98.5937 348.91 96.6542C348.91 96.6542 348.313 99.4085 348.097 100.586C347.313 104.844 345.283 108.282 344.13 109.566C341.709 112.262 337.229 115.71 333.32 115.626C332.438 115.607 331.593 115.342 330.784 115.037C326.863 113.555 323.093 109.351 321.35 105.822C319.807 102.702 320.745 97.6294 321.085 93.6506C321.694 95.8924 321.381 98.7137 321.702 100.865C322.018 103.199 325.288 103.052 327.35 102.819V102.822Z" fill="#2C120D"/>
<path d="M329.994 104.253C332.555 104.415 335.137 104.242 337.653 103.739C337.654 104.814 337.274 105.886 336.604 106.727C335.134 106.891 333.124 106.79 332.178 106.638C331.233 106.487 330.301 104.822 329.994 104.253Z" fill="white"/>
<path d="M309.633 142.614C309.756 139.703 310.51 129.288 306.287 125.487C302.063 121.686 285.033 106.114 285.033 106.114C285.033 106.114 267.864 78.6951 266.983 76.9846C266.105 75.2741 257.417 79.9321 254.577 83.6788C254.577 83.6788 270.194 113.951 271.909 117.283C273.625 120.616 299.607 152.929 304.618 156.461C309.733 160.065 309.474 146.347 309.633 142.613V142.614Z" fill="#615F5D"/>
<path d="M413.536 63.47C414.194 62.9933 414.867 62.54 415.555 62.11C416.322 61.6318 417.11 61.1815 417.953 60.8559C418.384 60.6892 418.97 60.6004 419.227 60.9852C419.381 61.2142 419.336 61.5321 419.194 61.7688C419.051 62.0056 418.827 62.1786 418.609 62.3468C415.032 65.1136 411.807 68.3337 409.037 71.9074C413.815 70.1564 417.697 66.3007 422.601 64.883C423.058 64.7506 423.546 64.6415 424 64.7786C424.455 64.9157 424.842 65.3831 424.726 65.8427C424.636 66.1994 424.296 66.4253 423.982 66.6169C419.73 69.2076 415.48 71.7984 411.229 74.3891C411.749 74.749 412.516 74.7536 413.18 74.6851C416.671 74.3299 420.131 73.2347 423.62 73.6102C424.069 73.6585 424.627 73.847 424.649 74.2972C424.67 74.7677 424.094 74.9967 423.631 75.0886C419.504 75.908 415.379 76.7274 411.252 77.5469C414.761 77.3241 418.271 77.1013 421.779 76.8786C422.114 76.8568 422.463 76.8381 422.773 76.9689C423.083 77.0998 423.335 77.43 423.262 77.7572C423.172 78.1591 422.693 78.3165 422.288 78.3944C418.933 79.0424 415.415 79.0938 412.268 80.4243C410.597 81.1315 409.089 82.1769 407.442 82.9387C405.795 83.7004 403.902 84.174 402.165 83.6444C400.45 83.1225 399.087 81.5864 398.769 79.8229C398.451 78.0594 399.551 73.512 400.081 71.3902C400.09 71.3185 400.1 71.2484 400.109 71.1783C400.337 69.5068 400.712 67.8211 400.494 66.148C400.319 64.8051 399.763 63.5292 398.992 62.4154C398.852 62.2144 398.702 62.0119 398.643 61.7735C398.582 61.5367 398.637 61.2501 398.838 61.1114C398.958 61.0289 399.11 61.0102 399.255 61.0024C400.936 60.9136 402.589 62.1661 402.957 63.8081C403.164 64.735 402.999 65.6978 402.974 66.6465C402.947 67.5953 403.103 68.6312 403.792 69.2855C404.286 69.7545 404.99 69.9507 405.672 69.9601C406.065 69.9648 406.456 69.9149 406.842 69.8401C408.779 67.4317 411.037 65.2834 413.538 63.4685L413.536 63.47Z" fill="#F0B297"/>
<path d="M403.448 78.8057C404.286 77.5625 405.097 76.2788 405.484 74.8347C405.827 73.5526 405.774 72.1022 405.15 70.9572C405.516 73.8034 404.817 76.7758 403.212 79.1546C403.292 79.0378 403.37 78.921 403.449 78.8041L403.448 78.8057Z" fill="#BA7C66"/>
<path d="M408.762 77.511C408.26 76.704 407.863 75.8347 407.579 74.9281C407.523 74.7505 407.802 74.6741 407.858 74.8517C408.134 75.7366 408.522 76.5794 409.011 77.3661C409.109 77.5235 408.86 77.6684 408.762 77.511Z" fill="#BA7C66"/>
<path d="M398.897 76.9907C398.897 76.9907 397.215 78.8243 396.768 80.5457C396.285 82.4105 403.913 87.3162 405.205 85.978C406.186 84.9592 406.931 82.6021 406.931 82.6021L398.899 76.9891L398.897 76.9907Z" fill="#F0B297"/>
<path d="M351.452 143.279C351.415 140.365 350.949 131.909 355.282 128.234C359.616 124.559 377.114 107.517 377.114 107.517C377.114 107.517 395.082 80.6159 396.01 78.9319C396.939 77.2478 405.487 82.1597 408.215 85.989C408.215 85.989 391.714 115.789 389.902 119.07C388.09 122.351 362.992 153.678 357.879 157.06C352.66 160.513 351.499 147.017 351.451 143.279H351.452Z" fill="#615F5D"/>
<path d="M321.991 341.966C321.991 341.966 316.815 296.956 316.028 286.583C315.565 280.482 308.971 269.449 308.971 269.449C307.371 266.598 290.588 267.904 289.793 272.052C288.226 280.255 291.7 290.683 294.163 299.151C300.384 320.536 306.799 344.174 306.799 344.174L321.99 341.966H321.991Z" fill="#393734"/>
<path d="M153.54 86.2461C157.998 93.0119 161.092 108.056 165.73 123.573L162.109 124.146L152.976 88.5985L153.54 86.2461Z" fill="#2C120D"/>
<path d="M121.301 93.3126C122.047 108.682 126.333 125.017 129.401 141.578C141.756 141.513 154.099 139.531 165.855 135.729C163.002 121.161 159.142 106.791 154.312 92.7533C154.312 92.7533 148.385 82.1038 138.985 84.4063C129.584 86.7088 121.301 93.3111 121.301 93.3111V93.3126Z" fill="#2C120D"/>
<path d="M189.969 165.28C190.745 163.971 191.647 160.02 191.169 157.959C190.69 155.897 177.663 134.996 177.663 134.996C177.663 134.996 167.95 140.19 168.399 144.657C168.399 144.657 182.091 165.079 183.023 165.641C185.102 166.895 189.146 166.663 189.967 165.28H189.969Z" fill="#F8A588"/>
<path d="M164.739 119.871C166.881 120.39 170.759 121.7 171.538 122.99C172.317 124.28 182.329 139.542 186.81 147.046C185.26 152.339 180.042 154.077 174.978 156.272C169.849 151.179 167.008 145.448 163.487 139.137L158.514 121.117C158.514 121.117 162.479 119.324 164.739 119.871Z" fill="#F5918F"/>
<path d="M152.479 259.33C153.836 251.643 155.354 245.957 147.87 245.7C142.81 245.525 139.664 246.067 138.005 250.777C138.005 250.777 132.585 269.745 130.411 283.226C128.446 295.402 126.207 323.831 122.676 340.19L129.113 339.908C130.856 334.841 144.469 299.279 147.859 290.186C155.858 268.728 151.21 266.521 152.479 259.331V259.33Z" fill="#F8A588"/>
<path d="M137.245 256.962L142.311 206.144C142.311 206.144 152.473 203.743 157.657 202.362C174.104 197.979 152.197 250.358 150.932 254.816C148.98 261.697 137.67 263.05 137.245 256.962Z" fill="#F8A588"/>
<path d="M131.937 341.148C131.897 337.678 129.688 336.956 129.688 336.956L122.423 339.806C122.423 339.806 110.454 364.002 112.26 364.545L125.188 364.89C128.913 364.973 127.949 359.055 129.39 355.919L129.321 364.973H130.943L131.699 352.36C131.822 351.918 131.908 351.539 131.942 351.257C132.121 349.768 131.993 345.785 131.939 341.147L131.937 341.148Z" fill="#572C2C"/>
<path d="M123.607 336.269C122.973 338.047 120.256 344.914 119.557 347.096C119.043 348.701 117.916 352.194 117.119 354.663C116.678 356.026 117.665 357.431 119.097 357.481L124.634 357.674L130.384 338.458C130.452 337.893 130.494 334.976 129.275 334.249C128.055 333.521 124.244 334.492 123.609 336.269H123.607Z" fill="#F8A588"/>
<path d="M160.924 259.378C160.924 257.095 161.35 252.079 168.907 251.822C174.015 251.648 176.059 253.645 176.4 258.356C176.4 258.356 178.466 267.391 181.27 279.776C183.878 291.298 171.575 316.067 173.752 339.253L167.394 338.971C167.069 333.903 166.02 309.317 165.174 300.223C163.177 278.765 160.926 259.381 160.926 259.381L160.924 259.378Z" fill="#F8A588"/>
<path d="M174.725 336.752C174.725 336.752 179.142 353.804 179.759 356.612C180.376 359.419 179.369 363.209 178.399 364.262C177.428 365.315 168.019 365.04 166.022 364.454C164.024 363.87 167.352 337.772 167.352 337.772L174.725 336.75V336.752Z" fill="#572C2C"/>
<path d="M167.272 333.959C167.272 335.875 167.008 343.283 167.089 345.637C167.185 348.462 167.444 356.729 167.444 356.729C167.444 356.729 174.686 357.236 175.577 356.372C178.109 353.915 176.978 348.769 176.978 348.769L174.83 336.32C174.697 335.71 173.697 332.566 172.217 331.781C170.737 330.997 167.272 332.043 167.272 333.96V333.959Z" fill="#F8A588"/>
<path d="M161.354 262.472L160.926 210.839C160.926 210.839 170.686 210.076 175.648 209.526C191.39 207.778 173.898 255.625 174.088 260.079C174.325 265.622 162.423 268.832 161.354 262.472Z" fill="#F8A588"/>
<path d="M170.393 139.788C168.35 138.313 160.475 120.486 160.475 120.486L145.783 123.206L131.091 125.927C131.091 125.927 130.122 145.39 128.743 147.498C123.811 155.04 133.115 162.557 136.126 165.78C141.301 175.728 141.306 184.441 143.172 194.18C148.656 194.111 153.664 193.63 158.679 192.854C163.639 191.784 168.489 190.439 173.633 188.54C171.888 178.78 170.148 170.388 171.418 159.246C173.075 155.158 177.696 145.063 170.391 139.788H170.393Z" fill="#F5E8D8"/>
<path d="M182.092 261.953C184.102 243.91 183.326 211.494 182.647 205.334C181.968 199.174 175.978 191.819 172.898 185.498C161.214 185.518 154.105 185.462 142.867 188.663C140.566 193.927 135.938 201.031 133.635 206.293C131.834 225.44 130.304 241.693 128.503 260.839C142.286 263.347 177.828 264.623 182.091 261.951L182.092 261.953Z" fill="#F5E8D8"/>
<path d="M151.314 109.073L133.986 112.281L137.802 132.893L155.13 129.685L151.314 109.073Z" fill="#F8A588"/>
<path d="M151.315 109.072L152.488 115.411C148.824 119.697 143.435 123.13 136.333 124.959L133.985 112.281L151.313 109.072H151.315Z" fill="#B36650"/>
<path d="M137.054 126.743C137.054 126.743 135.302 130.521 135.637 132.496C135.88 133.92 148.076 144.951 149.72 144.647C151.363 144.343 158.734 128.536 158.805 127.586C158.907 126.244 157.922 125.01 156.724 124.4C155.526 123.789 154.144 123.671 152.804 123.563L137.056 126.744L137.054 126.743Z" fill="#F8A588"/>
<path d="M89.6579 134.372C90.3621 133.024 93.2488 130.179 95.2553 129.502C97.2619 128.824 121.889 128.919 121.889 128.919C121.889 128.919 122.576 139.911 118.541 141.879C118.541 141.879 95.2382 143.392 92.8438 141.331C89.9664 138.854 88.9148 135.796 89.6595 134.372H89.6579Z" fill="#F8A588"/>
<path d="M136.232 132.113C135.682 129.978 133.422 126.126 131.917 126.104C130.272 126.081 117.239 126.839 107.379 127.925C104.383 132.555 105.268 140.072 106.915 145.341C113.737 145.867 123.997 148.73 131.325 148.054C131.325 148.054 136.788 134.272 136.232 132.113Z" fill="#F5918F"/>
<path d="M150.849 110.248C151.63 110.318 152.415 110.011 153.041 109.544C153.666 109.077 154.153 108.46 154.602 107.832C155.788 106.174 156.805 104.174 156.339 102.23C156.183 101.579 155.834 100.94 155.241 100.602C154.533 100.198 153.591 100.309 152.888 100.739C152.186 101.169 151.701 101.87 151.385 102.611L150.849 110.248Z" fill="#F8A588"/>
<path d="M132.801 113.59C132.097 113.936 131.254 113.929 130.503 113.717C129.752 113.506 129.078 113.104 128.433 112.678C126.732 111.555 125.066 110.052 124.805 108.07C124.717 107.407 124.814 106.685 125.247 106.157C125.763 105.528 126.683 105.293 127.492 105.442C128.301 105.592 129.005 106.073 129.565 106.651L132.801 113.59Z" fill="#F8A588"/>
<path d="M153.745 109.407C153.226 103.415 154.192 99.6889 154.554 96.1043C154.789 93.4263 154.698 88.9412 150.897 85.6759C147.104 82.2549 139.019 81.4105 132.351 84.6166C125.635 87.8336 121.167 94.023 122.857 98.371C123.789 100.99 126.166 103.147 127.152 105.844C127.972 108.087 127.666 110.544 128.978 112.635C131.36 116.207 139.051 121.823 144.116 120.885C148.255 120.119 153.826 112.046 153.745 109.405V109.407Z" fill="#F8A588"/>
<path d="M143.851 100.1C144.465 99.8448 145.126 99.6952 145.791 99.6531C146.458 99.6111 147.131 99.6781 147.77 99.8557C148.407 100.036 149.019 100.32 149.521 100.756C148.86 100.702 148.251 100.638 147.643 100.614C147.037 100.588 146.442 100.593 145.849 100.628C145.255 100.664 144.663 100.734 144.065 100.834C143.465 100.932 143.239 100.359 143.85 100.1H143.851Z" fill="#1A1A1A"/>
<path d="M135.337 101.566C134.672 101.56 134.004 101.671 133.371 101.882C132.739 102.094 132.141 102.409 131.614 102.816C131.092 103.224 130.633 103.716 130.332 104.308C130.922 104.009 131.463 103.719 132.018 103.47C132.568 103.218 133.122 102.998 133.685 102.808C134.249 102.618 134.822 102.459 135.414 102.328C136.007 102.192 136 101.577 135.336 101.568L135.337 101.566Z" fill="#1A1A1A"/>
<g style="mix-blend-mode:soft-light">
<path d="M142.41 107.756C142.392 107.886 142.36 108.003 142.323 108.123C142.283 108.24 142.244 108.369 142.144 108.447C142.05 108.522 141.887 108.511 141.733 108.358C141.656 108.284 141.591 108.175 141.549 108.042C141.51 107.911 141.496 107.759 141.519 107.604C141.544 107.45 141.605 107.312 141.681 107.199C141.761 107.089 141.856 107.006 141.951 106.961C142.144 106.866 142.303 106.91 142.368 107.011C142.438 107.117 142.437 107.252 142.438 107.377C142.438 107.503 142.432 107.625 142.409 107.756H142.41Z" fill="#F2F2F2"/>
</g>
<path d="M141.201 108.411C141.166 108.33 141.136 108.259 141.109 108.193C141.084 108.128 141.063 108.072 141.044 108.013C141.025 107.953 141.008 107.885 140.996 107.805C140.983 107.726 140.977 107.639 140.971 107.547C140.961 107.365 140.955 107.178 140.916 107.023C140.879 106.869 140.812 106.751 140.711 106.69C140.608 106.629 140.524 106.646 140.441 106.727C140.36 106.81 140.279 106.958 140.207 107.165C140.139 107.371 140.075 107.651 140.105 107.967C140.119 108.125 140.162 108.287 140.225 108.433C140.287 108.581 140.371 108.717 140.461 108.843C140.553 108.969 140.653 109.078 140.753 109.176C140.854 109.274 140.958 109.36 141.056 109.432C141.254 109.578 141.435 109.686 141.585 109.765C141.884 109.919 142.055 109.963 142.116 109.807C142.172 109.661 142.134 109.5 141.949 109.293C141.859 109.189 141.731 109.072 141.588 108.93C141.518 108.859 141.443 108.781 141.374 108.695C141.309 108.611 141.247 108.514 141.2 108.41L141.201 108.411Z" fill="#D1785E"/>
<path d="M144.541 104.652C144.381 103.789 145.364 102.267 146.331 102.086C147.138 101.942 147.919 102.484 148.064 103.291L148.188 103.992C148.333 104.799 144.7 105.512 144.541 104.651V104.652Z" fill="#1A1A1A"/>
<path d="M145.998 102.2C145.998 102.2 147.014 101.781 148.05 102.248C149.084 102.716 149.659 102.247 149.659 102.247C149.659 102.247 149.034 103.118 148.034 102.851C147.034 102.587 146.626 102.858 146.626 102.858L145.998 102.199V102.2Z" fill="#1A1A1A"/>
<path d="M136.397 106.16C136.236 105.297 134.775 104.227 133.806 104.406C133 104.56 132.466 105.346 132.62 106.151L132.754 106.85C132.908 107.656 136.555 107.022 136.395 106.159L136.397 106.16Z" fill="#1A1A1A"/>
<path d="M134.16 104.392C134.16 104.392 133.061 104.366 132.262 105.173C131.463 105.98 130.759 105.748 130.759 105.748C130.759 105.748 131.653 106.336 132.493 105.73C133.331 105.124 133.811 105.232 133.811 105.232L134.161 104.392H134.16Z" fill="#1A1A1A"/>
<path d="M137.866 111.384C140.856 110.969 143.791 110.164 146.573 108.996C146.827 110.234 146.375 112.041 145.998 112.468C145.621 112.895 142.068 113.574 140.943 113.621C139.818 113.668 138.352 111.968 137.866 111.385V111.384Z" fill="white"/>
<path d="M152.025 92.5243C151.935 92.1676 151.862 91.9464 151.807 91.9012C151.309 91.479 152.164 97.7993 152.164 97.7993C145.428 98.3679 128.536 102.484 128.536 102.484L126.662 96.4797C125.768 98.0345 128.896 111.307 128.896 111.307C126.35 107.011 122.636 99.3088 121.443 94.6197C120.768 91.9697 122.58 89.7498 124.247 89.1017C124.471 84.5013 127.88 82.2378 132.117 80.1004C137.057 77.6109 143.287 78.1499 147.966 81.0148C152.645 83.8797 155.573 87.4924 155.512 92.9138C155.448 98.5735 156.699 102.895 154.61 107.935C154.61 107.935 152.775 95.4936 152.025 92.5212V92.5243Z" fill="#2C120D"/>
<path d="M99.2516 139.67C99.9558 139.165 100.334 132.589 99.4168 129.405C98.4992 126.221 85.8151 106.227 85.8151 106.227C85.8151 106.227 81.6042 106.238 80.2114 108.228C80.2114 108.228 88.5725 137.294 90.5292 139.6C94.4565 144.228 98.5459 140.173 99.2516 139.67Z" fill="#F8A588"/>
<path d="M76.7247 89.4725C76.2402 88.935 75.737 88.4131 75.2167 87.9099C74.6372 87.3507 74.0327 86.8116 73.3582 86.3708C73.0123 86.1449 72.5185 85.9579 72.2225 86.2461C72.0465 86.4175 72.0247 86.7026 72.1057 86.9363C72.1867 87.17 72.3503 87.3616 72.5092 87.5501C75.1155 90.6284 77.3292 94.0386 79.0818 97.6731C75.2385 95.2553 72.5699 91.1705 68.5537 89.0207C68.1799 88.8213 67.7748 88.6343 67.3526 88.6686C66.9304 88.7029 66.5051 89.0394 66.5207 89.4616C66.5332 89.7887 66.7887 90.0504 67.027 90.2748C70.2534 93.3251 73.4813 96.3769 76.7076 99.4272C76.1857 99.6453 75.5174 99.5051 74.9503 99.3228C71.9701 98.3632 69.1551 96.7633 66.0409 96.4424C65.6405 96.4018 65.1187 96.4626 65.0158 96.8505C64.9083 97.2571 65.3695 97.564 65.7558 97.7307C69.2034 99.2138 72.6509 100.697 76.0985 102.178C73.0778 101.331 70.0586 100.483 67.0379 99.6375C66.7497 99.5565 66.4475 99.4755 66.1546 99.5316C65.8618 99.5877 65.5782 99.8291 65.5813 100.128C65.586 100.496 65.9739 100.722 66.312 100.865C69.1192 102.054 72.1789 102.753 74.6777 104.5C76.005 105.427 77.1267 106.62 78.4212 107.592C79.7158 108.564 81.2799 109.327 82.8939 109.189C84.4876 109.052 85.9629 107.966 86.5673 106.486C87.1718 105.006 87.0596 100.834 86.9926 98.8851C86.9988 98.8212 87.0035 98.7573 87.0082 98.695C87.1204 97.1932 87.1063 95.6541 87.608 94.2349C88.0099 93.0961 88.7327 92.085 89.6129 91.2578C89.7718 91.1082 89.9401 90.9587 90.0367 90.7624C90.1333 90.5661 90.1395 90.3075 89.9899 90.1486C89.9011 90.0536 89.7718 90.0099 89.6457 89.9757C88.1953 89.5846 86.5206 90.3714 85.8943 91.736C85.5407 92.5056 85.5064 93.3765 85.3522 94.2084C85.198 95.0403 84.8692 95.9174 84.148 96.3582C83.6292 96.6745 82.978 96.715 82.3829 96.5966C82.0386 96.528 81.7083 96.4112 81.3843 96.2741C80.1427 93.8127 78.5708 91.5179 76.7278 89.4694L76.7247 89.4725Z" fill="#F8A588"/>
<path d="M82.6744 104.729C82.1743 103.489 81.7039 102.217 81.6369 100.885C81.5777 99.7029 81.8924 98.4473 82.6495 97.5656C81.8005 99.9802 81.8581 102.703 82.8162 105.078C82.7694 104.961 82.7212 104.845 82.6744 104.729Z" fill="#BA7C66"/>
<path d="M78.2795 102.611C78.8683 102.001 79.3762 101.317 79.7906 100.578C79.8716 100.434 79.6426 100.317 79.5616 100.46C79.1566 101.18 78.6611 101.845 78.0879 102.44C77.9726 102.56 78.1642 102.731 78.2795 102.613V102.611Z" fill="#BA7C66"/>
<path d="M181.639 163.921C181.585 164.786 186.431 169.57 189.477 170.874C192.522 172.178 216.031 175.008 216.031 175.008C216.031 175.008 218.687 171.74 218.028 169.405C218.028 169.405 190.229 157.486 187.205 157.542C181.136 157.654 181.694 163.057 181.638 163.921H181.639Z" fill="#F8A588"/>
<path d="M231.659 170.569C232.346 170.798 233.024 171.051 233.693 171.329C234.438 171.637 235.173 171.977 235.846 172.419C236.191 172.647 236.56 173.025 236.414 173.41C236.326 173.641 236.072 173.773 235.828 173.792C235.582 173.81 235.34 173.737 235.105 173.666C231.243 172.503 227.231 171.832 223.201 171.675C226.949 174.234 231.762 175.054 235.334 177.88C235.666 178.143 235.999 178.44 236.135 178.841C236.272 179.241 236.133 179.766 235.739 179.919C235.434 180.039 235.092 179.908 234.792 179.78C230.707 178.037 226.622 176.295 222.538 174.552C222.545 175.118 222.941 175.675 223.334 176.122C225.401 178.473 227.992 180.417 229.528 183.144C229.726 183.494 229.877 183.997 229.562 184.247C229.232 184.507 228.766 184.206 228.461 183.919C225.727 181.349 222.993 178.778 220.257 176.208C222.239 178.64 224.219 181.072 226.2 183.504C226.389 183.736 226.585 183.98 226.65 184.272C226.716 184.564 226.607 184.918 226.331 185.035C225.993 185.178 225.63 184.912 225.364 184.659C223.153 182.559 221.293 180.033 218.694 178.437C217.314 177.59 215.773 177.037 214.367 176.236C212.96 175.435 211.636 174.306 211.118 172.771C210.609 171.256 211.016 169.47 212.133 168.325C213.248 167.18 217.119 165.621 218.934 164.904C218.99 164.873 219.046 164.843 219.103 164.814C220.435 164.113 221.852 163.511 222.954 162.486C223.837 161.664 224.476 160.598 224.884 159.461C224.957 159.255 225.027 159.042 225.169 158.875C225.311 158.709 225.544 158.599 225.75 158.674C225.871 158.718 225.965 158.819 226.046 158.92C226.982 160.095 226.929 161.944 225.928 163.063C225.362 163.694 224.578 164.074 223.876 164.546C223.173 165.018 222.502 165.669 222.385 166.509C222.301 167.112 222.524 167.724 222.869 168.222C223.069 168.511 223.309 168.768 223.563 169.009C226.315 169.166 229.045 169.693 231.66 170.567L231.659 170.569Z" fill="#F8A588"/>
<path d="M215.295 171.195C216.632 171.157 217.985 171.083 219.233 170.614C220.341 170.198 221.368 169.406 221.874 168.361C219.998 170.103 217.478 171.136 214.918 171.204C215.043 171.201 215.169 171.198 215.295 171.195Z" fill="#BA7C66"/>
<path d="M218.989 174.381C219.315 173.599 219.74 172.859 220.251 172.184C220.351 172.052 220.55 172.215 220.45 172.346C219.952 173.005 219.539 173.723 219.223 174.487C219.159 174.639 218.925 174.533 218.989 174.381Z" fill="#BA7C66"/>
<path d="M127.059 127.146C127.059 127.146 129.45 146.101 128.513 147.534C126.272 150.958 126.5 155.429 129.19 160.824C131.466 165.392 134.833 166.92 135.905 168.073C135.905 168.073 137.022 179.55 138.139 186.076L133.647 202.1C133.647 202.1 150.2 202.109 150.62 202.1C146.888 178.715 141.773 146.754 136.18 124.118L127.061 127.145L127.059 127.146Z" fill="#F5918F"/>
<path d="M171.036 139.661C169.646 138.657 161.955 120.214 161.955 120.214L153.48 120.762C156.518 144.526 160.002 176.861 168.385 199.021C169.072 198.783 183.29 195.094 183.979 194.84C183.979 194.84 173.786 180.593 173.465 178.984C173.465 178.984 171.306 170.178 172.304 161.334C172.891 159.874 174.672 157.392 175.163 152.312C175.742 146.313 174.354 142.057 171.036 139.661Z" fill="#F5918F"/>
<path d="M153.367 120.15C153.367 120.15 155.024 120.052 155.538 120.63C156.052 121.206 168.73 136.853 168.73 136.853L159.907 134.967L157.973 154.498C157.973 154.498 152.396 123.928 153.368 120.15H153.367Z" fill="#F7A7A5"/>
<path d="M136.13 123.914C136.13 123.914 134.547 124.417 134.275 125.14C134.002 125.863 129.565 142.688 129.565 142.688L135.33 140.091L143.209 157.903C143.209 157.903 138.391 127.093 136.13 123.915V123.914Z" fill="#F7A7A5"/>
<path d="M190.972 106.163C191.838 105.612 192.714 97.8568 191.835 94.0307C190.956 90.2046 177.252 65.7243 177.252 65.7243C177.252 65.7243 172.268 65.4626 170.492 67.7262C170.492 67.7262 178.493 102.66 180.659 105.514C185.005 111.245 190.107 106.715 190.973 106.163H190.972Z" fill="#F0B297"/>
<path d="M167.587 45.3101C167.049 44.6418 166.489 43.9921 165.904 43.3643C165.255 42.6648 164.576 41.9872 163.806 41.4217C163.412 41.1319 162.84 40.8795 162.471 41.2005C162.251 41.3921 162.208 41.7286 162.289 42.009C162.37 42.2894 162.55 42.5278 162.726 42.7614C165.61 46.5735 168.006 50.7517 169.843 55.1651C165.454 52.0556 162.561 47.0471 157.95 44.2445C157.522 43.9844 157.053 43.7367 156.551 43.7507C156.049 43.7647 155.524 44.1339 155.517 44.6355C155.51 45.0235 155.794 45.349 156.062 45.631C159.681 49.4509 163.3 53.2708 166.919 57.0891C166.288 57.3134 165.506 57.1047 164.847 56.8508C161.383 55.5219 158.157 53.4468 154.493 52.8642C154.023 52.7894 153.401 52.8284 153.255 53.2817C153.102 53.7553 153.627 54.1494 154.072 54.3706C158.054 56.3491 162.038 58.3276 166.02 60.3061C162.502 59.1081 158.984 57.9085 155.465 56.7105C155.129 56.5968 154.778 56.48 154.426 56.5283C154.074 56.5766 153.725 56.843 153.709 57.1982C153.691 57.6328 154.135 57.9272 154.526 58.1189C157.769 59.7079 161.343 60.7345 164.186 62.9638C165.696 64.1478 166.945 65.6309 168.414 66.8647C169.883 68.0985 171.684 69.1049 173.6 69.0457C175.495 68.9865 177.31 67.7994 178.123 66.0873C178.934 64.3768 179.073 59.4337 179.12 57.1218C179.131 57.047 179.14 56.9723 179.151 56.8975C179.381 55.1293 179.466 53.3066 180.149 51.66C180.699 50.3389 181.62 49.1907 182.715 48.2685C182.913 48.1018 183.122 47.9367 183.25 47.7108C183.376 47.4849 183.401 47.1795 183.234 46.9817C183.134 46.8648 182.985 46.8025 182.838 46.7542C181.148 46.1981 179.115 47.0191 178.285 48.5925C177.816 49.4805 177.718 50.5071 177.482 51.4824C177.246 52.4576 176.8 53.4717 175.917 53.9469C175.283 54.2881 174.51 54.2927 173.812 54.1151C173.41 54.0123 173.025 53.8519 172.651 53.6696C171.343 50.6769 169.632 47.8603 167.585 45.3163L167.587 45.3101Z" fill="#F0B297"/>
<path d="M173.633 63.7475C173.122 62.2472 172.649 60.7127 172.656 59.1331C172.663 57.731 173.117 56.265 174.071 55.2711C172.909 58.0722 172.8 61.2985 173.78 64.1696C173.731 64.0294 173.683 63.8877 173.635 63.7475H173.633Z" fill="#BA7C66"/>
<path d="M168.571 60.9573C169.307 60.2734 169.953 59.4961 170.492 58.6501C170.598 58.4834 170.335 58.3292 170.229 58.4959C169.702 59.3216 169.073 60.0756 168.356 60.7423C168.213 60.8763 168.428 61.0929 168.571 60.9589V60.9573Z" fill="#BA7C66"/>
<path d="M243.103 109.787H225.19V131.094H243.103V109.787Z" fill="#F0B297"/>
<path d="M243.103 109.787V116.339C238.649 119.944 232.628 122.379 225.19 122.892V109.787H243.103Z" fill="#B36650"/>
<path d="M244.074 106.716C244.867 106.939 245.738 106.771 246.473 106.408C247.208 106.045 247.83 105.5 248.414 104.937C249.956 103.451 251.391 101.579 251.282 99.4802C251.246 98.7776 251.008 98.0501 250.459 97.5874C249.805 97.0359 248.81 96.9689 248.003 97.2789C247.196 97.5889 246.56 98.2214 246.091 98.9256L244.075 106.716H244.074Z" fill="#F0B297"/>
<path d="M224.781 106.716C223.988 106.939 223.117 106.771 222.382 106.408C221.647 106.045 221.025 105.5 220.441 104.937C218.898 103.451 217.464 101.579 217.573 99.4802C217.61 98.7776 217.847 98.0501 218.395 97.5874C219.05 97.0359 220.045 96.9689 220.852 97.2789C221.659 97.5889 222.295 98.2214 222.764 98.9256L224.779 106.716H224.781Z" fill="#F0B297"/>
<path d="M247.227 107.732C247.837 101.166 249.549 97.3381 250.607 93.5447C251.363 90.7032 252.128 85.8473 248.823 81.5663C245.558 77.1186 237.362 74.5917 229.858 76.7182C222.301 78.8478 218.109 83.2659 219.023 88.2963C219.486 91.3076 219.919 95.4733 220.422 98.5813C220.839 101.164 220.054 103.755 221.009 106.271C222.788 110.6 229.662 118.195 235.075 118.195C239.5 118.195 246.803 110.6 247.225 107.734L247.227 107.732Z" fill="#F0B297"/>
<g style="mix-blend-mode:soft-light">
<path d="M235.828 102.527C235.783 102.66 235.728 102.773 235.666 102.892C235.602 103.006 235.537 103.132 235.42 103.192C235.309 103.252 235.141 103.21 235.012 103.021C234.946 102.929 234.901 102.803 234.882 102.66C234.867 102.516 234.882 102.357 234.935 102.202C234.991 102.047 235.079 101.915 235.18 101.814C235.284 101.716 235.398 101.649 235.505 101.619C235.723 101.557 235.879 101.633 235.928 101.751C235.979 101.875 235.952 102.013 235.931 102.142C235.906 102.273 235.876 102.396 235.828 102.527Z" fill="#F2F2F2"/>
</g>
<path d="M234.452 102.973C234.432 102.883 234.413 102.802 234.399 102.73C234.387 102.658 234.374 102.594 234.365 102.53C234.357 102.465 234.352 102.392 234.356 102.308C234.359 102.224 234.368 102.132 234.381 102.037C234.405 101.847 234.435 101.652 234.424 101.487C234.415 101.322 234.37 101.184 234.275 101.102C234.181 101.019 234.089 101.021 233.989 101.089C233.89 101.158 233.779 101.297 233.664 101.498C233.553 101.697 233.433 101.974 233.404 102.306C233.388 102.471 233.402 102.647 233.44 102.811C233.475 102.976 233.536 103.132 233.606 103.28C233.676 103.428 233.759 103.559 233.845 103.68C233.93 103.802 234.022 103.909 234.109 104.003C234.285 104.193 234.452 104.338 234.591 104.448C234.871 104.665 235.039 104.743 235.131 104.593C235.219 104.453 235.209 104.28 235.058 104.029C234.985 103.905 234.874 103.76 234.754 103.585C234.695 103.498 234.633 103.403 234.578 103.302C234.527 103.202 234.48 103.09 234.452 102.974V102.973Z" fill="#D1785E"/>
<path d="M240.222 93.6787C241.029 93.5557 241.852 93.6008 242.64 93.8018C243.428 94.0028 245.131 96.1635 244.435 95.8925C243.742 95.6183 243.048 95.3924 242.346 95.2101C241.643 95.0294 240.931 94.8954 240.199 94.8051C239.465 94.7085 239.417 93.8065 240.221 93.6772L240.222 93.6787Z" fill="#2C120D"/>
<path d="M228.295 93.8002C227.481 93.8329 226.683 94.0355 225.948 94.3844C225.211 94.7318 223.941 97.1823 224.574 96.7835C225.203 96.3816 225.84 96.0264 226.496 95.7133C227.152 95.4017 227.826 95.1338 228.527 94.9048C229.228 94.6695 229.11 93.7722 228.297 93.7987L228.295 93.8002Z" fill="#2C120D"/>
<path d="M229.262 100.787L229.253 99.0425C229.248 98.2028 228.558 97.5189 227.719 97.5236C226.879 97.5283 226.195 98.2184 226.2 99.0581L226.209 100.803C226.211 101.195 227.019 100.144 227.731 100.164C228.54 100.188 229.266 101.233 229.262 100.786V100.787Z" fill="#2C120D"/>
<path d="M239.756 100.787L239.766 99.0425C239.77 98.2028 240.461 97.5189 241.302 97.5236C242.141 97.5283 242.825 98.2184 242.821 99.0581L242.811 100.803C242.81 101.222 242.05 100.138 241.289 100.135C240.523 100.131 239.755 101.208 239.758 100.786L239.756 100.787Z" fill="#2C120D"/>
<path d="M231.726 106.377C232.95 108.162 235.352 108.866 237.35 108.044C237.527 107.97 237.572 107.712 237.487 107.558C237.384 107.372 237.18 107.347 237.001 107.421C235.387 108.084 233.333 107.461 232.347 106.026C232.09 105.651 231.466 105.997 231.726 106.375V106.377Z" fill="#C2502F"/>
<path d="M183.083 96.2056C181.47 97.6232 179.705 100.85 180.296 103.78C180.886 106.71 200.898 140.994 200.898 140.994C200.898 140.994 214.816 134.059 214.365 127.738C214.365 127.738 193.421 99.2278 192.276 98.2027C191.118 97.1668 184.895 94.6134 183.083 96.2056Z" fill="#F0B297"/>
<path d="M213.023 153.954C210.632 153.301 206.312 151.701 205.479 150.226C204.645 148.751 191.785 129.128 186.988 120.544C188.903 114.641 196.575 110.789 202.344 108.485C207.946 114.38 218.392 129.659 218.392 129.659L219.937 152.742C219.937 152.742 215.547 154.643 213.023 153.954Z" fill="#88996D"/>
<path d="M274.026 101.117C273.074 100.731 270.817 93.2596 270.993 89.3385C271.169 85.4173 280.242 58.8682 280.242 58.8682C280.242 58.8682 285.096 57.7138 287.251 59.6207C287.251 59.6207 285.67 95.4235 284.056 98.6218C280.812 105.043 274.978 101.504 274.028 101.117H274.026Z" fill="#F0B297"/>
<path d="M286.074 37.0472C286.482 36.2932 286.918 35.5532 287.377 34.8304C287.89 34.025 288.437 33.2367 289.091 32.5419C289.426 32.1867 289.943 31.8346 290.364 32.0839C290.615 32.2319 290.717 32.5559 290.689 32.8457C290.661 33.1354 290.526 33.4034 290.393 33.6635C288.244 37.9321 286.639 42.4748 285.626 47.1453C289.384 43.2958 291.327 37.8495 295.358 34.2618C295.732 33.9284 296.15 33.6012 296.645 33.5249C297.141 33.4486 297.723 33.7181 297.823 34.2088C297.899 34.5905 297.678 34.9597 297.466 35.2853C294.593 39.694 291.722 44.1028 288.85 48.5115C289.51 48.6175 290.242 48.2716 290.845 47.904C294.012 45.9738 296.813 43.3503 300.311 42.1181C300.759 41.9592 301.378 41.8859 301.604 42.305C301.839 42.7428 301.394 43.2257 300.995 43.5233C297.433 46.1872 293.872 48.8496 290.311 51.5135C293.556 49.7017 296.801 47.8884 300.044 46.0766C300.354 45.9037 300.678 45.7261 301.034 45.7105C301.389 45.6949 301.78 45.8943 301.859 46.2402C301.956 46.6639 301.573 47.0331 301.222 47.2917C298.318 49.44 294.986 51.0929 292.592 53.7958C291.319 55.2322 290.358 56.9162 289.135 58.3946C287.912 59.873 286.323 61.1863 284.425 61.473C282.551 61.7565 280.552 60.9152 279.445 59.3776C278.339 57.84 277.312 53.0029 276.849 50.7377C276.826 50.6661 276.803 50.5944 276.779 50.5227C276.234 48.8247 275.824 47.0471 274.854 45.55C274.075 44.3489 272.963 43.3862 271.719 42.6758C271.495 42.548 271.26 42.4218 271.095 42.2224C270.93 42.023 270.85 41.727 270.979 41.5027C271.056 41.3687 271.193 41.2815 271.328 41.2083C272.891 40.3561 275.038 40.7986 276.137 42.196C276.757 42.9842 277.039 43.9782 277.448 44.8942C277.856 45.8102 278.476 46.7278 279.431 47.0362C280.116 47.2575 280.876 47.1235 281.531 46.8228C281.908 46.6483 282.257 46.4224 282.592 46.1747C283.341 42.9951 284.514 39.9168 286.072 37.0457L286.074 37.0472Z" fill="#F0B297"/>
<path d="M283.445 56.2728C283.677 54.7055 283.868 53.1103 283.576 51.5587C283.318 50.18 282.606 48.8215 281.49 48.0145C283.137 50.5616 283.825 53.7147 283.38 56.7152C283.402 56.5688 283.424 56.4208 283.445 56.2743V56.2728Z" fill="#BA7C66"/>
<path d="M287.921 52.615C287.075 52.0744 286.299 51.4263 285.617 50.691C285.483 50.5461 285.715 50.3483 285.848 50.4916C286.514 51.2098 287.268 51.8376 288.094 52.3641C288.259 52.4701 288.086 52.7209 287.921 52.615Z" fill="#BA7C66"/>
<path d="M279.994 89.9008C281.836 91.0053 284.154 93.8609 284.099 96.8504C284.045 99.8384 268.982 136.112 268.982 136.112C268.982 136.112 255.595 132.85 254.9 126.551C254.9 126.551 270.368 94.7349 271.311 93.5213C272.264 92.2937 277.926 88.6607 279.994 89.9024V89.9008Z" fill="#F0B297"/>
<path d="M260.94 152.097C263.176 151.024 277.362 123.853 280.533 114.545C277.588 109.083 269.346 106.674 263.258 105.447C258.809 112.255 251.286 129.165 251.286 129.165L253.922 152.15C253.922 152.15 258.582 153.23 260.94 152.097Z" fill="#88996D"/>
<path d="M283.57 355.674L276.587 335.819H268.368L269.251 355.674C269.251 355.674 285.121 360.092 283.568 355.674H283.57Z" fill="#B3B3B3"/>
<path d="M265.189 364.973C265.189 364.973 265.896 354.064 269.431 352.851L270.668 349.645C270.668 349.645 276.676 348.258 280.918 349.645L283.039 353.053C283.039 353.053 286.927 355.481 287.281 357.503C287.634 359.525 287.988 364.973 287.988 364.973H265.187H265.189Z" fill="#393734"/>
<path d="M257.89 198.216C262.585 227.041 261.736 260.769 263.386 272.082C264.541 279.999 246.418 280.331 243.089 274.202C241.168 270.667 237.725 245.1 236.94 242.679C234.703 235.785 228.758 231.345 225.582 217.641V198.216H257.892H257.89Z" fill="#BD8F46"/>
<path d="M212.718 363.994C216.43 362.22 219.703 360.346 220.624 358.439L221.034 341.563C221.177 340.309 221.45 338.776 220.224 338.606L214.65 337.836C213.556 337.685 212.536 338.371 212.247 339.453C211.626 341.779 209.445 349.475 209.445 349.475C205.818 353.052 202.19 356.627 198.563 360.204C197.457 361.295 196.279 362.41 196.172 363.994C196.169 364.046 212.72 363.994 212.72 363.994H212.718Z" fill="#B3B3B3"/>
<path d="M220.925 346.021C220.574 345.968 221.833 355.04 217.699 355.716C217.434 355.758 217.166 355.778 216.898 355.783L216.571 351.952C216.571 351.952 210.698 349.24 206.297 349.583L205.279 351.672L192.767 358.557C191.732 359.578 190.168 361.12 190.022 363.25C190.001 363.549 190.134 363.89 190.378 364.253H222.001C222.001 364.253 221.277 346.074 220.925 346.021Z" fill="#393734"/>
<path d="M210.902 196.572C206.104 225.398 208.476 278.518 209.719 286.335C210.978 294.24 227.661 281.186 228.2 273.215C228.393 270.35 227.624 267.497 227.619 264.628C227.614 262.091 228.205 259.59 228.792 257.109C232.039 243.406 238.893 229.702 242.14 215.999V196.574H210.903L210.902 196.572Z" fill="#BD8F46"/>
<path d="M206.723 345.281C206.521 333.929 206.714 322.574 206.907 311.222C207.004 305.518 207.102 299.815 207.198 294.112C207.336 286.076 207.804 277.936 210.763 270.356C211.646 268.094 225.863 262.255 227.617 264.628C227.617 264.628 228.801 275.81 229.543 280.873C230.031 284.205 230.372 289.689 229.711 292.998C226.285 310.161 224.511 327.282 221.906 345.281H206.722H206.723Z" fill="#BD8F46"/>
<path d="M281.057 343.068C278.655 331.971 275.307 317.502 272.528 306.494C271.13 300.963 269.735 295.433 268.337 289.901C266.37 282.109 264.876 273.143 260.323 266.426C258.965 264.421 242.009 262.635 240.881 265.337C240.881 265.337 243.57 276.919 244.022 282.015C244.32 285.369 245.722 288.504 247.108 291.576C254.639 308.274 258.566 326.788 266.097 343.487L281.059 343.066L281.057 343.068Z" fill="#BD8F46"/>
<path d="M264.921 131.287L244.486 122.697L235.197 125.478H233.636L224.346 122.697L203.912 131.287C202.846 137.149 205.318 155.582 205.318 155.582C205.547 171.706 212.528 180.715 207.844 204.55C208.789 207.15 218.149 209.467 220.568 209.496C221.998 209.515 244.665 209.496 251.71 208.384C253.706 208.069 260.436 205.108 259.635 203.689C254.95 179.853 263.285 171.704 263.516 155.58C263.516 155.58 265.988 137.149 264.922 131.286L264.921 131.287Z" fill="#88996D"/>
<path d="M243.301 119.19L234.416 125.478L237.873 126.185L240.644 140.528L248.286 128.5C249.209 127.045 249.019 125.147 247.826 123.904L243.299 119.19H243.301Z" fill="#F9F1E8"/>
<path d="M224.971 119.19L234.416 125.478L230.959 126.185L228.188 140.528L220.475 128.388C219.584 126.986 219.725 125.165 220.821 123.915L224.971 119.19Z" fill="#F9F1E8"/>
<path d="M251.578 90.5832C251.927 88.7137 252.079 86.8209 251.771 84.9546C251.29 82.0461 249.459 79.1843 246.625 78.2387C248.174 77.2167 248.317 74.8737 247.357 73.2987C246.398 71.7237 244.655 70.7859 242.919 70.1144C237.065 67.854 230.107 67.9537 224.758 71.2096C219.43 74.4531 216.442 82.124 217.671 87.0453C218.902 91.9666 219.439 94.5324 222.838 94.3408C225.848 94.1709 228.512 92.4012 230.804 90.471C233.095 88.5408 236.532 85.0652 239.244 83.7675C241.383 82.744 244.031 82.3982 246.178 83.2472C248.679 88.667 248.041 94.8813 248.302 101.289C249.068 98.9567 250.208 96.1105 250.855 93.6818C251.126 92.6614 251.383 91.6254 251.578 90.5816V90.5832Z" fill="#2C120D"/>
<path d="M220.553 101.038L222.035 84.8035C222.035 84.8035 219.701 82.73 218.55 83.6912C217.398 84.6524 220.553 101.038 220.553 101.038Z" fill="#2C120D"/>
<path d="M429.475 103.616C421.268 112.978 416.135 125.208 416.775 137.642C416.985 141.725 418.099 146.306 421.662 148.313C423.678 149.449 426.1 149.523 428.414 149.569C436.541 149.727 444.765 149.877 452.685 148.051C456.074 147.269 459.819 145.708 460.876 142.395C461.517 140.387 460.978 138.178 460.074 136.274C459.171 134.37 457.917 132.649 457.013 130.743C452.875 122.013 457.744 110.62 452.839 102.297C451.501 100.025 432.14 100.577 429.476 103.616H429.475Z" fill="#F57780"/>
<path d="M474.553 187.398C475.555 186.253 477.161 182.533 477.066 180.417C476.971 178.302 467.968 155.379 467.968 155.379C467.968 155.379 457.471 158.718 457.099 163.192C457.099 163.192 466.843 185.766 467.658 186.488C469.476 188.101 473.494 188.609 474.553 187.398Z" fill="#F8A588"/>
<path d="M472.74 176.979C473.598 176.858 477.066 180.417 479.1 184.514C480.574 187.482 484.184 211.089 484.184 211.089C484.184 211.089 483.355 214.549 481.668 215.542C481.668 215.542 468.038 191.333 467.086 186.026C466.553 183.05 471.883 177.102 472.741 176.981L472.74 176.979Z" fill="#F8A588"/>
<path d="M458.811 138.953C460.822 139.854 464.397 141.848 464.927 143.258C465.457 144.667 471.727 160.701 474.765 168.894C472.277 173.815 466.831 174.575 461.451 175.811C457.337 169.869 455.584 163.717 453.273 156.87L451.782 139.609C451.782 139.609 456.687 138.001 458.809 138.952L458.811 138.953Z" fill="#2B2927"/>
<path d="M488.53 212.875C488.53 212.875 492.263 214.397 493.989 214.572C495.715 214.745 494.017 216.885 492.276 216.823C490.534 216.761 489.947 217.161 487.769 217.945C485.591 218.728 482.238 219.266 481.396 218.697C480.551 218.129 480.246 213.033 479.936 211.466C479.626 209.897 481.83 207.703 483.161 208.577C484.489 209.451 487.253 212.383 488.532 212.877L488.53 212.875Z" fill="#F8A588"/>
<path d="M481.532 179.995L484.132 177.968L510.311 200.986L505.263 200.582C505.263 200.582 494.564 199.211 481.532 179.995Z" fill="#856861"/>
<path d="M471.032 226.617L476.491 226.589L510.309 200.986L504.776 200.403L471.032 226.617Z" fill="#856861"/>
<path d="M492.177 211.237L504.692 201.514L508.156 201.88L494.424 212.277L492.177 211.237Z" fill="white"/>
<path d="M505.109 200.437C505.109 200.437 493.101 186.939 481.269 177.945L452.642 210.168L471.034 226.617L505.109 200.437Z" fill="#B28B81"/>
<path d="M488.155 214.302C488.155 214.302 488.803 215.239 490.881 217.979C492.959 220.719 490.468 221.716 489.266 220.137C488.063 218.557 486.627 215.567 485.795 214.383C484.963 213.199 487.027 212.752 488.155 214.301V214.302Z" fill="#F8A588"/>
<path d="M490.272 220.839C489.945 220.744 489.655 220.546 489.428 220.297C489.312 220.174 489.221 220.031 489.122 219.892C489.024 219.753 488.934 219.61 488.839 219.468C488.471 218.897 488.132 218.308 487.798 217.714L486.806 215.929C486.639 215.631 486.472 215.335 486.296 215.041C486.211 214.893 486.119 214.748 486.028 214.603C485.937 214.458 485.831 214.318 485.759 214.179C485.72 214.109 485.698 214.034 485.681 213.961C485.67 213.886 485.672 213.813 485.692 213.743C485.737 213.606 485.859 213.502 486.004 213.446C486.3 213.332 486.647 213.371 486.955 213.472C487.269 213.576 487.554 213.759 487.794 213.988C487.917 214.1 488.019 214.231 488.119 214.363L488.421 214.776C489.231 215.871 490.063 216.949 490.909 218.016L489.71 216.363C489.308 215.814 488.907 215.264 488.515 214.707L488.222 214.29C488.119 214.15 488.01 214.013 487.882 213.893C487.632 213.65 487.332 213.455 486.999 213.341C486.669 213.231 486.298 213.181 485.949 213.31C485.779 213.372 485.613 213.505 485.549 213.696C485.519 213.791 485.517 213.89 485.532 213.985C485.55 214.077 485.578 214.167 485.622 214.246C485.709 214.41 485.812 214.541 485.902 214.683C485.993 214.826 486.085 214.968 486.17 215.114C486.346 215.404 486.515 215.7 486.683 215.994C487.019 216.585 487.348 217.183 487.694 217.769C488.038 218.356 488.39 218.94 488.773 219.506C488.873 219.644 488.968 219.786 489.071 219.922C489.175 220.057 489.272 220.199 489.393 220.32C489.632 220.568 489.934 220.755 490.266 220.836L490.272 220.839Z" fill="#B36650"/>
<path d="M486.887 215.613C486.887 215.613 487.359 216.65 488.921 219.716C490.484 222.782 487.807 223.369 486.902 221.601C485.997 219.833 485.122 216.624 484.513 215.31C483.903 213.997 486.05 213.888 486.887 215.613Z" fill="#F8A588"/>
<path d="M488.711 222.526C488.354 222.642 487.963 222.562 487.65 222.377C487.332 222.19 487.091 221.897 486.929 221.571C486.607 220.906 486.34 220.215 486.092 219.517C485.846 218.817 485.608 218.116 485.371 217.414C485.13 216.713 484.901 216.005 484.6 215.32C484.525 215.156 484.466 214.988 484.485 214.824C484.494 214.743 484.521 214.667 484.569 214.605C484.617 214.542 484.684 214.494 484.76 214.46C484.912 214.39 485.094 214.383 485.268 214.402C485.443 214.426 485.616 214.48 485.776 214.558C486.1 214.712 486.379 214.957 486.592 215.248C486.702 215.393 486.787 215.55 486.867 215.717L487.111 216.219C487.44 216.884 487.776 217.546 488.116 218.205L488.633 219.191L488.893 219.683C488.978 219.848 489.055 220.017 489.136 220.183C489.062 220.014 488.99 219.842 488.914 219.674L488.669 219.174L488.183 218.174C487.857 217.507 487.532 216.84 487.217 216.17L486.984 215.667C486.906 215.497 486.814 215.328 486.7 215.175C486.477 214.868 486.184 214.606 485.839 214.438C485.666 214.354 485.482 214.293 485.289 214.267C485.097 214.243 484.893 214.248 484.704 214.332C484.611 214.373 484.522 214.435 484.457 214.519C484.391 214.605 484.354 214.708 484.341 214.812C484.316 215.021 484.39 215.217 484.466 215.387C484.767 216.057 484.999 216.764 485.245 217.463C485.488 218.164 485.725 218.869 485.988 219.562C486.25 220.257 486.529 220.947 486.867 221.61C487.043 221.942 487.303 222.237 487.633 222.417C487.959 222.6 488.362 222.664 488.714 222.533L488.711 222.526Z" fill="#B36650"/>
<path d="M484.583 216.144C484.583 216.144 485.003 217.169 486.407 220.208C487.811 223.246 485.234 223.675 484.421 221.922C483.608 220.169 482.866 217.029 482.322 215.729C481.779 214.43 483.835 214.438 484.583 216.144Z" fill="#F8A588"/>
<path d="M485.229 222.801C484.938 222.642 484.704 222.393 484.541 222.109C484.456 221.967 484.4 221.813 484.335 221.66C484.269 221.509 484.215 221.352 484.154 221.199C483.924 220.579 483.724 219.948 483.533 219.316L482.962 217.412C482.866 217.094 482.769 216.778 482.663 216.462C482.612 216.304 482.556 216.147 482.5 215.99C482.442 215.832 482.37 215.677 482.332 215.53C482.31 215.455 482.303 215.381 482.303 215.306C482.31 215.233 482.325 215.162 482.36 215.102C482.43 214.982 482.568 214.907 482.718 214.885C483.023 214.84 483.346 214.947 483.617 215.109C483.893 215.273 484.125 215.507 484.305 215.775C484.399 215.907 484.469 216.052 484.536 216.2L484.737 216.655C485.277 217.865 485.843 219.063 486.426 220.254L485.631 218.432C485.365 217.826 485.098 217.219 484.841 216.61L484.651 216.152C484.584 215.997 484.508 215.843 484.413 215.703C484.226 215.421 483.981 215.172 483.688 214.994C483.397 214.82 483.056 214.695 482.698 214.745C482.523 214.768 482.336 214.86 482.236 215.028C482.188 215.113 482.166 215.206 482.16 215.298C482.16 215.39 482.166 215.48 482.191 215.566C482.24 215.74 482.31 215.885 482.367 216.04C482.423 216.194 482.481 216.35 482.532 216.505C482.638 216.818 482.738 217.133 482.836 217.449C483.033 218.082 483.219 218.718 483.427 219.347C483.632 219.978 483.844 220.606 484.089 221.223C484.154 221.375 484.215 221.529 484.285 221.681C484.355 221.83 484.418 221.986 484.508 222.128C484.682 222.413 484.93 222.654 485.229 222.799V222.801Z" fill="#B36650"/>
<path d="M482.693 217.308C482.693 217.308 483.05 218.244 484.252 221.017C485.455 223.79 483.076 224.159 482.38 222.559C481.684 220.959 481.092 218.099 480.629 216.913C480.166 215.728 482.054 215.75 482.693 217.309V217.308Z" fill="#F8A588"/>
<path d="M483.914 223.469C483.595 223.551 483.257 223.46 482.992 223.28C482.724 223.1 482.528 222.83 482.405 222.534C482.157 221.934 481.962 221.313 481.783 220.687C481.606 220.06 481.434 219.432 481.266 218.803C481.092 218.175 480.931 217.543 480.704 216.924C480.646 216.776 480.604 216.627 480.63 216.483C480.643 216.413 480.671 216.348 480.716 216.295C480.761 216.242 480.824 216.205 480.892 216.178C481.029 216.125 481.19 216.128 481.341 216.156C481.493 216.186 481.641 216.244 481.779 216.32C482.054 216.473 482.285 216.703 482.456 216.969C482.543 217.103 482.61 217.245 482.671 217.395L482.858 217.847C483.11 218.448 483.369 219.046 483.631 219.643L484.03 220.535L484.231 220.981C484.294 221.131 484.355 221.282 484.418 221.433C484.361 221.28 484.308 221.126 484.249 220.973L484.062 220.521L483.69 219.618C483.441 219.017 483.193 218.414 482.952 217.808L482.774 217.353C482.715 217.2 482.643 217.046 482.553 216.906C482.374 216.624 482.131 216.379 481.838 216.212C481.691 216.13 481.532 216.066 481.364 216.032C481.197 216 481.018 215.993 480.848 216.057C480.764 216.088 480.683 216.136 480.621 216.208C480.559 216.279 480.52 216.368 480.504 216.457C480.471 216.639 480.524 216.815 480.582 216.968C480.808 217.572 480.975 218.205 481.152 218.831C481.327 219.459 481.497 220.088 481.69 220.711C481.881 221.335 482.087 221.956 482.349 222.556C482.486 222.857 482.696 223.128 482.977 223.305C483.252 223.483 483.603 223.561 483.917 223.464L483.914 223.469Z" fill="#B36650"/>
<path d="M459.947 158.769C458.207 156.947 455.228 139.27 455.228 139.27L438.768 137.986L419.115 139.03C419.115 139.03 419.329 156.948 417.589 158.771C411.366 165.287 418.447 173.022 420.821 176.741C424.099 187.465 423.216 197.384 423.278 207.298C428.682 208.23 433.695 208.668 438.768 208.817C443.84 208.668 448.853 208.23 454.258 207.298C454.32 197.384 453.437 187.465 456.714 176.741C459.088 173.024 466.169 165.289 459.947 158.771V158.769Z" fill="#2B2927"/>
<path d="M433.831 146.054H442.106C444.688 146.054 446.78 143.962 446.78 141.38V125.091H429.157V141.38C429.157 143.962 431.249 146.054 433.831 146.054Z" fill="#F8A588"/>
<path d="M446.78 125.091V131.538C442.397 135.085 436.473 137.48 429.157 137.984V125.091H446.78Z" fill="#B36650"/>
<path d="M381.547 138.741C382.485 137.543 385.842 135.274 387.938 134.973C390.033 134.672 414.231 139.249 414.231 139.249C414.231 139.249 412.905 150.184 408.579 151.382C408.579 151.382 385.391 148.626 383.41 146.163C381.032 143.205 380.555 140.006 381.547 138.74V138.741Z" fill="#F8A588"/>
<path d="M426.547 143.17C426.395 140.972 423.683 139.343 422.206 139.048C420.593 138.726 410.037 136.358 400.146 135.632C396.358 139.64 395.859 147.191 396.518 152.672C403.13 154.432 412.678 157.233 420.026 159.783C420.026 159.783 426.702 145.397 426.547 143.172V143.17Z" fill="#2B2927"/>
<path d="M446.108 126.163C446.864 126.375 447.691 126.215 448.39 125.87C449.09 125.524 449.68 125.007 450.236 124.471C451.704 123.058 453.069 121.276 452.964 119.279C452.93 118.611 452.704 117.919 452.181 117.478C451.559 116.953 450.612 116.889 449.842 117.184C449.074 117.478 448.47 118.079 448.023 118.751L446.105 126.163H446.108Z" fill="#F8A588"/>
<path d="M427.753 126.163C426.998 126.375 426.171 126.215 425.471 125.87C424.772 125.524 424.181 125.007 423.625 124.471C422.158 123.058 420.793 121.276 420.897 119.279C420.931 118.611 421.157 117.919 421.681 117.478C422.302 116.953 423.25 116.889 424.019 117.184C424.787 117.478 425.392 118.079 425.839 118.751L427.757 126.163H427.753Z" fill="#F8A588"/>
<path d="M449.109 125.864C449.69 119.879 451.318 116.389 452.326 112.931C453.045 110.34 453.773 105.914 450.629 102.012C447.523 97.9581 439.726 95.654 432.586 97.592C425.396 99.5331 419.877 104.805 420.748 109.388C421.187 112.133 423.131 114.686 423.61 117.519C424.007 119.873 423.259 122.234 424.167 124.527C425.859 128.474 432.399 135.397 437.549 135.397C441.759 135.397 448.707 128.474 449.109 125.861V125.864Z" fill="#F8A588"/>
<path d="M441.073 114.911C441.723 114.771 442.399 114.744 443.062 114.825C443.724 114.905 444.374 115.093 444.972 115.384C445.566 115.679 446.116 116.068 446.53 116.589C445.891 116.414 445.303 116.24 444.709 116.107C444.119 115.97 443.533 115.867 442.942 115.794C442.352 115.722 441.757 115.682 441.151 115.673C440.543 115.659 440.425 115.054 441.073 114.911Z" fill="#1A1A1A"/>
<path d="M432.435 114.803C431.782 114.677 431.104 114.663 430.444 114.757C429.783 114.85 429.137 115.051 428.546 115.353C427.959 115.659 427.417 116.06 427.013 116.587C427.649 116.4 428.233 116.215 428.823 116.07C429.411 115.922 429.995 115.807 430.584 115.722C431.173 115.638 431.766 115.587 432.372 115.565C432.98 115.54 433.084 114.933 432.433 114.803H432.435Z" fill="#1A1A1A"/>
<g style="mix-blend-mode:soft-light">
<path d="M438.264 122.177C438.222 122.303 438.169 122.412 438.11 122.522C438.049 122.63 437.987 122.75 437.876 122.808C437.771 122.864 437.612 122.825 437.489 122.646C437.426 122.558 437.383 122.438 437.365 122.301C437.351 122.166 437.366 122.013 437.415 121.867C437.468 121.72 437.552 121.594 437.649 121.499C437.747 121.405 437.856 121.342 437.959 121.314C438.166 121.254 438.314 121.328 438.361 121.438C438.411 121.555 438.384 121.687 438.364 121.811C438.341 121.935 438.313 122.052 438.266 122.177H438.264Z" fill="#F2F2F2"/>
</g>
<path d="M436.956 122.602C436.936 122.516 436.918 122.44 436.906 122.371C436.894 122.303 436.883 122.244 436.875 122.183C436.867 122.121 436.862 122.051 436.865 121.971C436.869 121.892 436.878 121.803 436.889 121.712C436.912 121.532 436.94 121.346 436.931 121.189C436.923 121.032 436.878 120.902 436.789 120.823C436.7 120.745 436.613 120.747 436.518 120.812C436.423 120.877 436.317 121.008 436.21 121.2C436.104 121.39 435.991 121.653 435.962 121.97C435.946 122.127 435.96 122.294 435.995 122.449C436.029 122.607 436.087 122.755 436.154 122.895C436.221 123.035 436.298 123.161 436.379 123.275C436.46 123.39 436.548 123.493 436.63 123.582C436.798 123.763 436.957 123.901 437.088 124.006C437.355 124.211 437.515 124.286 437.602 124.144C437.685 124.01 437.677 123.847 437.532 123.608C437.462 123.49 437.358 123.351 437.244 123.186C437.188 123.104 437.129 123.013 437.077 122.915C437.028 122.82 436.984 122.714 436.957 122.604L436.956 122.602Z" fill="#D1785E"/>
<path d="M440.923 119.513C440.923 118.636 442.167 117.316 443.151 117.316C443.972 117.321 444.639 117.995 444.634 118.816L444.63 119.528C444.628 119.938 443.994 118.516 443.07 118.519C442.143 118.522 440.923 119.951 440.923 119.511V119.513Z" fill="#1A1A1A"/>
<path d="M442.802 117.368C442.802 117.368 443.877 117.142 444.81 117.79C445.743 118.438 446.393 118.081 446.393 118.081C446.393 118.081 445.62 118.823 444.686 118.38C443.751 117.938 443.299 118.131 443.299 118.131L442.802 117.369V117.368Z" fill="#1A1A1A"/>
<path d="M432.642 119.513C432.642 118.636 431.399 117.316 430.414 117.316C429.593 117.321 428.927 117.995 428.931 118.816L428.936 119.528C428.937 119.935 429.871 118.729 430.787 118.737C431.721 118.745 432.642 119.955 432.642 119.513Z" fill="#1A1A1A"/>
<path d="M430.763 117.368C430.763 117.368 429.688 117.142 428.755 117.79C427.822 118.438 427.172 118.081 427.172 118.081C427.172 118.081 427.945 118.823 428.88 118.38C429.814 117.938 430.266 118.131 430.266 118.131L430.763 117.369V117.368Z" fill="#1A1A1A"/>
<path d="M433.806 126.264C436.286 127.304 439.236 126.852 441.335 125.19C441.659 124.932 441.201 124.481 440.88 124.735C438.953 126.261 436.231 126.588 433.975 125.644C433.813 125.577 433.623 125.718 433.58 125.869C433.527 126.053 433.645 126.197 433.804 126.264H433.806Z" fill="#A33939"/>
<path d="M450.492 108.95C450.469 108.583 450.436 108.352 450.391 108.298C449.978 107.791 449.668 114.163 449.668 114.163C442.941 113.496 425.582 114.467 425.582 114.467L424.832 108.223C423.669 109.588 424.329 123.21 424.329 123.21C422.609 118.52 420.36 110.271 420.039 105.444C419.858 102.714 422.044 100.862 423.801 100.529C424.859 96.045 428.623 94.4404 433.179 93.1116C438.49 91.5631 444.518 93.2284 448.596 96.8972C452.676 100.566 454.898 104.652 453.849 109.971C452.756 115.525 453.2 120.002 450.227 124.577C450.227 124.577 450.688 112.01 450.492 108.952V108.95Z" fill="#F57780"/>
<path d="M390.016 145.699C390.801 145.331 392.37 138.933 392.047 135.637C391.725 132.339 382.893 110.37 382.893 110.37C382.893 110.37 378.751 109.614 377.02 111.315C377.02 111.315 379.949 141.419 381.454 144.043C384.473 149.31 389.232 146.066 390.017 145.699H390.016Z" fill="#F8A588"/>
<path d="M376.402 92.6754C376.023 92.0585 375.624 91.454 375.204 90.8651C374.736 90.2093 374.239 89.569 373.657 89.0128C373.357 88.7277 372.906 88.4551 372.563 88.6841C372.357 88.8212 372.286 89.097 372.323 89.3415C372.36 89.5846 372.487 89.8042 372.608 90.0177C374.61 93.5197 376.166 97.2757 377.227 101.167C373.889 98.0905 374.573 102.462 374.573 102.462C374.02 102.58 373.474 105.057 373.474 105.057C370.659 103.674 367.843 102.292 365.028 100.909C364.758 100.776 364.478 100.641 364.177 100.644C363.878 100.645 363.555 100.831 363.506 101.127C363.443 101.488 363.783 101.783 364.09 101.985C366.634 103.666 369.514 104.911 371.653 107.082C372.789 108.235 373.675 109.612 374.772 110.804C375.869 111.996 377.268 113.032 378.879 113.189C380.471 113.345 382.119 112.546 382.982 111.201C383.847 109.857 384.495 105.733 384.784 103.805C384.801 103.742 384.819 103.682 384.834 103.619C385.217 102.164 385.484 100.647 386.236 99.343C386.839 98.2961 387.733 97.4346 388.749 96.7803C388.933 96.6619 389.126 96.5467 389.255 96.3706C389.385 96.1946 389.439 95.9422 389.321 95.7584C389.251 95.6493 389.131 95.5823 389.014 95.5263C387.66 94.8782 385.869 95.3456 385.004 96.5731C384.516 97.2648 384.323 98.1154 384.021 98.9053C383.719 99.6967 383.236 100.497 382.444 100.8C381.877 101.016 381.229 100.938 380.665 100.712C380.34 100.583 380.036 100.407 379.742 100.214C378.969 97.5671 377.841 95.0262 376.402 92.6754Z" fill="#F8A588"/>
<path d="M379.626 104.166C379.626 104.166 378.886 103.255 376.774 100.406C374.661 97.5562 372.955 99.7356 374.172 101.382C375.389 103.029 377.933 105.313 378.864 106.478C379.796 107.643 380.833 105.729 379.626 104.166Z" fill="#F8A588"/>
<path d="M377.3 105.699C377.3 105.699 376.556 104.789 374.432 101.948C372.309 99.1047 370.547 101.314 371.77 102.957C372.993 104.601 375.562 106.871 376.499 108.033C377.437 109.195 378.515 107.259 377.3 105.699Z" fill="#F8A588"/>
<path d="M373.765 100.183C373.765 100.535 373.878 100.879 374.058 101.174C374.147 101.323 374.262 101.456 374.371 101.593C374.479 101.73 374.597 101.861 374.71 101.995C375.169 102.524 375.654 103.031 376.146 103.531L377.626 105.028C377.872 105.279 378.118 105.529 378.356 105.788C378.478 105.916 378.595 106.048 378.712 106.179C378.829 106.311 378.938 106.458 379.053 106.568C379.112 106.626 379.179 106.671 379.248 106.709C379.318 106.741 379.392 106.76 379.466 106.76C379.614 106.755 379.752 106.665 379.849 106.537C380.047 106.277 380.109 105.922 380.097 105.587C380.084 105.247 379.986 104.912 379.829 104.609C379.752 104.454 379.654 104.314 379.551 104.177L379.229 103.76C378.378 102.641 377.551 101.507 376.739 100.362L378.029 102.026C378.458 102.582 378.886 103.136 379.322 103.686L379.651 104.096C379.76 104.238 379.865 104.386 379.947 104.546C380.115 104.864 380.221 105.218 380.238 105.581C380.252 105.939 380.195 106.321 379.967 106.628C379.857 106.779 379.678 106.905 379.469 106.913C379.366 106.913 379.268 106.888 379.179 106.847C379.093 106.802 379.012 106.748 378.947 106.682C378.81 106.548 378.712 106.41 378.596 106.279C378.481 106.148 378.366 106.017 378.246 105.889C378.009 105.632 377.766 105.38 377.521 105.127C377.034 104.623 376.537 104.127 376.057 103.615C375.576 103.104 375.099 102.587 374.649 102.046C374.54 101.907 374.428 101.773 374.323 101.63C374.22 101.488 374.108 101.351 374.021 101.195C373.845 100.888 373.747 100.535 373.762 100.183H373.765Z" fill="#B36650"/>
<path d="M371.736 100.86C371.466 101.138 371.362 101.535 371.39 101.91C371.418 102.289 371.579 102.646 371.808 102.943C372.275 103.545 372.795 104.105 373.328 104.652C373.862 105.197 374.403 105.738 374.945 106.279C375.484 106.822 376.032 107.355 376.531 107.947C376.648 108.092 376.777 108.223 376.938 108.279C377.015 108.307 377.1 108.316 377.179 108.302C377.258 108.287 377.333 108.246 377.4 108.192C377.534 108.083 377.623 107.917 377.684 107.748C377.741 107.575 377.769 107.391 377.771 107.207C377.776 106.838 377.676 106.467 377.505 106.138C377.42 105.972 377.315 105.821 377.196 105.671L376.844 105.218C376.378 104.61 375.92 103.998 375.465 103.383L374.789 102.456L374.453 101.991C374.339 101.839 374.219 101.689 374.102 101.538C374.225 101.684 374.352 101.828 374.473 101.977L374.824 102.431L375.528 103.336C375.995 103.94 376.464 104.545 376.941 105.143L377.301 105.588C377.422 105.736 377.537 105.9 377.628 106.075C377.81 106.42 377.919 106.811 377.916 107.207C377.916 107.405 377.886 107.603 377.824 107.794C377.757 107.981 377.662 108.17 377.498 108.305C377.417 108.372 377.321 108.427 377.212 108.45C377.103 108.472 376.991 108.46 376.889 108.424C376.685 108.352 376.536 108.195 376.414 108.047C375.931 107.464 375.383 106.927 374.848 106.38C374.311 105.836 373.767 105.297 373.245 104.736C372.722 104.177 372.209 103.605 371.751 102.99C371.526 102.675 371.371 102.301 371.354 101.913C371.334 101.529 371.459 101.127 371.741 100.862L371.736 100.86Z" fill="#B36650"/>
<path d="M426.905 105.665C422.949 112.616 420.953 120.532 419.927 128.464C419.326 133.108 419.093 138.068 421.254 142.223C422.67 144.945 425.446 147.098 428.372 147.671C425.803 148.564 422.916 148.556 420.374 147.579C416.993 146.28 414.309 143.3 413.368 139.802C412.405 136.222 413.209 132.432 414.013 128.813C415.26 123.209 416.507 117.604 417.754 112.001C418.515 108.575 419.026 104.593 421.45 101.811C422.636 100.451 426.901 105.665 426.901 105.665H426.905Z" fill="#F57780"/>
<path d="M415.345 318.416C415.479 329.103 415.604 339.824 415.545 342.356L421.429 342.618C422.525 335.355 423.954 326.704 425.4 318.415H415.345V318.416Z" fill="#F0B59C"/>
<path d="M423.345 342.839C423.307 339.614 421.254 338.944 421.254 338.944L414.506 341.592C414.506 341.592 403.386 364.074 405.062 364.577L417.074 364.9C420.534 364.976 419.639 359.478 420.977 356.564L420.915 364.976H422.421L423.124 353.258C423.239 352.846 423.317 352.494 423.35 352.233C423.516 350.849 423.396 347.148 423.346 342.84L423.345 342.839Z" fill="#B13117"/>
<path d="M415.607 338.305C415.018 339.957 412.493 346.338 411.845 348.364C411.341 349.936 410.204 353.459 409.461 355.76C409.112 356.842 409.896 357.958 411.033 357.998L418.152 358.148L421.904 340.338C421.968 339.812 422.007 337.103 420.873 336.428C419.738 335.752 416.199 336.654 415.609 338.305H415.607Z" fill="#F0B59C"/>
<path d="M478.652 304.806L472.592 309.938C478.241 315.936 483.83 321.955 485.647 323.842L490.323 320.225C485.709 315.71 481.925 310.32 478.652 304.805V304.806Z" fill="#F0B59C"/>
<path d="M489.513 317.871C489.513 317.871 502.883 327.31 505.006 328.93C507.13 330.55 508.806 333.977 508.75 335.306L499.974 342.737C498.206 343.522 484.899 323.021 484.899 323.021L489.513 317.869V317.871Z" fill="#B13117"/>
<path d="M482.553 320.365C483.704 321.723 487.963 327.134 489.434 328.754C491.199 330.7 496.346 336.405 496.346 336.405C496.346 336.405 501.786 332.417 501.898 331.268C502.218 328.008 498.326 325.037 498.326 325.037L489.329 317.502C488.868 317.148 486.271 315.518 484.751 315.852C483.23 316.185 481.403 319.006 482.554 320.365H482.553Z" fill="#F0B59C"/>
<path d="M422.486 199.895C422.486 199.895 412.575 227.73 412.653 232.347C412.731 236.965 412.653 270.174 412.653 270.174C412.653 270.174 425.837 281.121 430.973 273.48C433.74 269.364 433.774 234.592 433.774 234.592L441.922 230.909L440.336 201.632L422.486 199.897V199.895Z" fill="#90A3B5"/>
<path d="M412.341 334.923C412.341 334.923 424.756 338.903 425.695 334.923C426.635 330.943 428.582 293.489 429.71 285.283C430.838 277.078 432.777 266.594 432.114 262.838C431.45 259.082 413.519 259.926 413.086 265.05C412.653 270.172 411.022 279.092 411.086 284.068C411.15 289.044 412.341 334.923 412.341 334.923Z" fill="#90A3B5"/>
<path d="M454.971 199.895C454.971 199.895 461.97 227.778 461.408 232.396C460.845 237.013 457.443 270.222 457.443 270.222C457.443 270.222 443.111 281.169 438.777 273.528C436.442 269.412 440.338 229.408 440.338 229.408L434.035 229.456L434.929 201.318L454.972 199.895H454.971Z" fill="#90A3B5"/>
<path d="M490.4 314.792C490.4 314.792 482.993 325.901 480.21 323.421C477.426 320.941 455.916 295.338 450.794 289.704C445.672 284.071 438.884 277.128 438.284 270.748C437.775 265.327 450.551 257.391 453.54 261.085C456.532 264.779 462.409 270.641 464.944 274.542C467.48 278.441 490.398 314.794 490.398 314.794L490.4 314.792Z" fill="#90A3B5"/>
<path d="M455.739 203.017L455.292 198.045C455.292 198.045 445.974 198.718 437.853 198.718C429.732 198.718 422.647 197.32 422.647 197.32L421.64 202.294C421.64 202.294 430.768 203.832 437.681 203.832C444.595 203.832 455.737 203.014 455.737 203.014L455.739 203.017Z" fill="#A6B5C4"/>
</g>
<defs>
<clipPath id="clip0_36_19081">
<rect width="575" height="336" fill="white" transform="translate(0 32)"/>
</clipPath>
</defs>
</svg>
