<svg width="794" height="578" viewBox="0 0 794 578" fill="none" xmlns="http://www.w3.org/2000/svg">
<g filter="url(#filter0_f_768_2941)">
<ellipse cx="426.5" cy="288.893" rx="287.5" ry="150.057" fill="url(#paint0_radial_768_2941)" fill-opacity="0.5"/>
</g>
<g clip-path="url(#clip0_768_2941)">
<path d="M198.855 217.994L209.497 211.833H209.513L211.247 212.852L185.826 230.426L506.412 385.216L646.638 278.197L675.892 295.118L468.123 415.158L175.566 246.153C174.214 245.357 172.925 244.418 171.955 243.161C170.984 241.903 170.364 240.343 170.316 238.799C170.285 238.322 170.316 237.812 170.428 237.35C171 234.915 173.387 232.718 175.566 231.461L198.855 218.01V217.994Z" fill="#C4D5E2"/>
<g style="mix-blend-mode:multiply">
<path d="M611.879 312.31L657.756 284.644L653.35 282.097L611.879 312.31Z" fill="#9A89B0"/>
</g>
<path d="M675.892 295.134V307.423L468.139 427.463V415.174L675.892 295.134Z" fill="#AAA9C7"/>
<path d="M339.319 154.559V142.27L325.177 134.104L340.512 123.519L352.442 129.281C352.442 129.281 518.295 209.732 573.781 236.141C629.314 262.565 661.082 268.423 661.082 268.423L659.777 271.32C656.357 278.849 650.964 285.296 644.172 290.008L506.396 385.247L185.826 230.442L211.247 212.868L224.832 220.716L339.319 154.575V154.559Z" fill="#F4F2FA"/>
<path d="M357.9 126.113C364.915 122.054 376.257 122.022 383.336 126.113L573.782 236.125L352.443 129.265L357.9 126.113Z" fill="#C4D5E2"/>
<path d="M339.319 154.559L224.832 220.716V208.395L339.319 142.27V154.559Z" fill="#50AAAD"/>
<path d="M339.319 142.27L224.832 208.395L194.162 190.678L308.633 124.553L325.177 134.104L339.319 142.27Z" fill="#236698"/>
<path d="M211.247 212.868L209.513 211.849H209.497L198.855 217.994L194.162 215.288V190.678L224.832 208.395V220.716L211.247 212.868Z" fill="#3E83B7"/>
<path d="M175.566 246.153L468.123 415.174V427.463L175.566 258.442C174.898 258.044 174.246 257.599 173.609 257.121C171.796 255.72 170.316 253.348 170.316 251.104V238.783H170.332C170.364 240.327 171 241.887 171.971 243.145C172.941 244.402 174.23 245.357 175.582 246.137L175.566 246.153Z" fill="#B5C7D5"/>
<g style="mix-blend-mode:multiply">
<path d="M468.139 427.463V415.174L675.908 295.134C675.908 295.134 679.805 302.982 683.623 306.261C682.239 307.28 681.269 308.139 680.187 308.76C650.996 325.649 621.806 342.491 592.6 359.364C555.694 380.695 518.773 402.01 481.899 423.404C477.89 425.728 468.139 427.463 468.139 427.463Z" fill="#95B0C4"/>
</g>
<g style="mix-blend-mode:multiply">
<path d="M224.053 220.716V208.395C224.053 208.395 243.937 196.647 251.652 192.206C278.982 176.415 306.327 160.64 333.672 144.865C335.151 144.005 336.694 143.241 338.54 142.27C339.335 144.881 339.526 147.539 340.862 149.306C342.262 151.153 344.76 152.14 347.353 153.891C342.755 156.661 338.842 159.096 334.865 161.404C302.509 180.092 270.105 198.749 237.765 217.469C234.075 219.602 224.069 220.716 224.069 220.716H224.053Z" fill="#175483"/>
</g>
<path d="M369.957 154.352L326.816 184.183C325.209 183.403 323.618 182.639 322.012 181.859L365.153 152.028C366.76 152.808 368.351 153.572 369.957 154.352Z" fill="#CFCED4"/>
<path d="M378.977 159.096L260.831 240.789L256.027 238.465L374.173 156.772C375.78 157.552 377.37 158.316 378.977 159.096Z" fill="#CFCED4"/>
<path d="M406.067 173.311L287.921 255.004L283.117 252.68L401.263 170.987C402.87 171.767 404.46 172.531 406.067 173.311Z" fill="#CFCED4"/>
<path d="M442.178 192.27L324.033 273.963L319.229 271.639L437.374 189.946C438.981 190.726 440.572 191.49 442.178 192.27Z" fill="#CFCED4"/>
<path d="M459.803 290.502L440.714 303.698L435.926 301.374L454.999 288.178L459.803 290.502Z" fill="#CFCED4"/>
<path d="M434.733 308.076L415.66 321.256L410.855 318.948L429.945 305.751L434.733 308.076Z" fill="#CFCED4"/>
<path d="M504.98 258.808L464.607 286.713L464.082 286.458L459.803 284.405L500.176 256.484L500.447 256.612L504.726 258.681L504.98 258.808Z" fill="#CFCED4"/>
<path d="M441.241 280.855L422.167 294.051L417.363 291.743L436.452 278.547L441.241 280.855Z" fill="#CFCED4"/>
<path d="M509.928 233.355L490.839 246.551L486.035 244.227L505.124 231.031L509.928 233.355Z" fill="#CFCED4"/>
<path d="M415.327 298.429L396.238 311.625L391.434 309.301L410.523 296.105L415.327 298.429Z" fill="#CFCED4"/>
<path d="M486.847 249.162L446.474 277.083L445.949 276.828L441.686 274.759L482.059 246.854L482.329 246.981L486.593 249.05L486.847 249.162Z" fill="#CFCED4"/>
<path d="M423.184 271.639L404.111 284.835L399.307 282.511L418.396 269.314L423.184 271.639Z" fill="#CFCED4"/>
<path d="M491.872 224.122L472.783 237.319L467.979 235.01L487.068 221.814L491.872 224.122Z" fill="#CFCED4"/>
<path d="M397.27 289.212L378.181 302.409L373.377 300.085L392.466 286.888L397.27 289.212Z" fill="#CFCED4"/>
<path d="M468.791 239.945L428.417 267.866L427.892 267.611L423.629 265.542L464.002 237.621L464.273 237.764L468.536 239.818L468.791 239.945Z" fill="#CFCED4"/>
<path d="M405.623 262.279L386.55 275.475L381.746 273.151L400.835 259.954L405.623 262.279Z" fill="#CFCED4"/>
<path d="M474.311 214.762L455.222 227.959L450.418 225.635L469.507 212.438L474.311 214.762Z" fill="#CFCED4"/>
<path d="M379.71 279.852L360.62 293.049L355.816 290.725L374.906 277.528L379.71 279.852Z" fill="#CFCED4"/>
<path d="M451.23 230.585L410.857 258.49L410.332 258.235L406.068 256.182L446.442 228.261L446.712 228.388L450.976 230.458L451.23 230.585Z" fill="#CFCED4"/>
<path d="M389.317 251.454L370.228 264.65L365.424 262.326L384.513 249.13L389.317 251.454Z" fill="#CFCED4"/>
<path d="M457.991 203.938L438.901 217.134L434.113 214.81L453.186 201.614L457.991 203.938Z" fill="#CFCED4"/>
<path d="M363.387 269.012L344.298 282.208L339.494 279.9L358.583 266.704L363.387 269.012Z" fill="#CFCED4"/>
<path d="M434.924 219.761L394.55 247.666L394.025 247.411L389.746 245.357L430.12 217.437L430.39 217.564L434.669 219.633L434.924 219.761Z" fill="#CFCED4"/>
<path d="M362.227 236.714L343.154 249.894L338.35 247.586L357.439 234.39L362.227 236.714Z" fill="#CFCED4"/>
<path d="M430.915 189.198L411.826 202.394L407.021 200.07L426.111 186.873L430.915 189.198Z" fill="#CFCED4"/>
<path d="M336.313 254.272L317.224 267.468L312.42 265.144L331.509 251.948L336.313 254.272Z" fill="#CFCED4"/>
<path d="M407.834 205.004L367.46 232.925L366.935 232.67L362.672 230.601L403.045 202.696L403.316 202.824L407.579 204.893L407.834 205.004Z" fill="#CFCED4"/>
<path d="M344.188 226.669L325.099 239.866L320.295 237.541L339.384 224.345L344.188 226.669Z" fill="#CFCED4"/>
<path d="M412.86 179.153L393.771 192.349L388.967 190.025L408.056 176.829L412.86 179.153Z" fill="#CFCED4"/>
<path d="M318.258 244.227L299.169 257.423L294.365 255.115L313.454 241.919L318.258 244.227Z" fill="#CFCED4"/>
<path d="M389.795 194.976L349.405 222.881L348.88 222.626L344.617 220.573L384.991 192.652L385.261 192.779L389.524 194.849L389.795 194.976Z" fill="#CFCED4"/>
<path d="M317.383 213.043L298.294 226.239L293.506 223.931L312.579 210.735L317.383 213.043Z" fill="#CFCED4"/>
<path d="M386.055 165.543L366.982 178.723L362.178 176.415L381.267 163.219L386.055 165.543Z" fill="#CFCED4"/>
<path d="M291.453 230.617L272.364 243.813L267.576 241.489L286.649 228.293L291.453 230.617Z" fill="#CFCED4"/>
<path d="M362.99 181.35L322.617 209.271L322.092 209.016L317.812 206.946L358.186 179.042L358.456 179.169L362.736 181.238L362.99 181.35Z" fill="#CFCED4"/>
<path d="M424.346 303.427L405.257 316.624L400.453 314.3L419.542 301.103L424.346 303.427Z" fill="#CFCED4"/>
<path d="M523.657 234.931L514.669 241.155L509.881 238.831L518.853 232.623L523.657 234.931Z" fill="#CFCED4"/>
<path d="M469.523 272.068L429.15 299.989L428.625 299.734L424.346 297.665L464.719 269.76L464.99 269.888L469.269 271.957L469.523 272.068Z" fill="#CFCED4"/>
<path d="M510.39 243.686L474.328 268.614L474.073 268.487L469.794 266.417L469.523 266.29L505.586 241.362C507.193 242.142 508.783 242.906 510.39 243.686Z" fill="#CFCED4"/>
<path d="M450.799 262.422L431.726 275.618L426.922 273.294L446.011 260.098L450.799 262.422Z" fill="#CFCED4"/>
<path d="M505.124 225.698L496.136 231.906L491.332 229.582L500.32 223.374L505.124 225.698Z" fill="#CFCED4"/>
<path d="M427.097 279.47L386.724 307.375L386.199 307.12L381.92 305.067L422.293 277.146L422.564 277.274L426.843 279.343L427.097 279.47Z" fill="#CFCED4"/>
<path d="M491.841 234.453L455.779 259.381L455.524 259.254L451.245 257.185L450.975 257.057L487.037 232.129C488.644 232.909 490.235 233.673 491.841 234.453Z" fill="#CFCED4"/>
<path d="M415.055 243.224L395.982 256.421L391.178 254.097L410.267 240.9L415.055 243.224Z" fill="#CFCED4"/>
<path d="M469.38 206.501L460.392 212.709L455.588 210.401L464.576 204.177L469.38 206.501Z" fill="#CFCED4"/>
<path d="M391.353 260.273L350.98 288.178L350.455 287.939L346.176 285.87L386.549 257.949L386.82 258.092L391.099 260.146L391.353 260.273Z" fill="#CFCED4"/>
<path d="M456.097 215.256L420.035 240.184L419.78 240.057L415.501 237.987L415.23 237.86L451.293 212.932C452.9 213.712 454.49 214.476 456.097 215.256Z" fill="#CFCED4"/>
<path d="M443.084 312.724L424.011 325.92L419.207 323.596L438.28 310.416L443.084 312.724Z" fill="#CFCED4"/>
<path d="M542.411 244.227L533.423 250.451L528.619 248.127L537.607 241.919L542.411 244.227Z" fill="#CFCED4"/>
<path d="M488.262 281.365L447.888 309.285L447.363 309.031L443.084 306.961L483.457 279.056L483.728 279.184L488.007 281.253L488.262 281.365Z" fill="#CFCED4"/>
<path d="M529.128 252.982L493.066 277.91L492.811 277.783L488.532 275.714L488.262 275.586L524.324 250.658C525.931 251.438 527.522 252.202 529.128 252.982Z" fill="#CFCED4"/>
<path d="M352.077 265.51L332.988 278.706L328.184 276.382L347.273 263.186L352.077 265.51Z" fill="#CFCED4"/>
<path d="M451.388 197.013L442.4 203.222L437.596 200.913L446.583 194.689L451.388 197.013Z" fill="#CFCED4"/>
<path d="M397.238 234.151L356.864 262.056L356.339 261.817L352.076 259.748L392.45 231.827L392.72 231.97L396.983 234.024L397.238 234.151Z" fill="#CFCED4"/>
<path d="M438.105 205.769L402.042 230.697L401.788 230.569L397.509 228.5L397.238 228.373L433.301 203.444C434.907 204.224 436.498 204.989 438.105 205.769Z" fill="#CFCED4"/>
<path d="M325.274 250.77L306.185 263.966L301.396 261.642L320.47 248.445L325.274 250.77Z" fill="#CFCED4"/>
<path d="M424.585 182.273L415.597 188.481L410.809 186.173L419.796 179.949L424.585 182.273Z" fill="#CFCED4"/>
<path d="M370.451 219.41L330.078 247.315L329.553 247.077L325.273 245.007L365.647 217.086L365.917 217.23L370.196 219.283L370.451 219.41Z" fill="#CFCED4"/>
<path d="M411.318 191.028L375.255 215.956L375.001 215.829L370.722 213.759L370.451 213.632L406.514 188.704C408.12 189.484 409.711 190.248 411.318 191.028Z" fill="#CFCED4"/>
<path d="M298.596 237.064L279.507 250.26L274.703 247.936L293.792 234.74L298.596 237.064Z" fill="#CFCED4"/>
<path d="M397.907 168.567L388.919 174.791L384.115 172.467L393.103 166.259L397.907 168.567Z" fill="#CFCED4"/>
<path d="M343.773 205.705L303.384 233.626L302.859 233.371L298.596 231.301L338.969 203.397L339.24 203.524L343.503 205.593L343.773 205.705Z" fill="#CFCED4"/>
<path d="M384.624 177.322L348.562 202.251L348.307 202.123L344.028 200.054L343.758 199.926L379.82 174.998C381.427 175.778 383.018 176.542 384.624 177.322Z" fill="#CFCED4"/>
<path d="M387.997 284.469L368.908 297.665L364.104 295.341L383.193 282.145L387.997 284.469Z" fill="#CFCED4"/>
<path d="M487.308 215.972L478.32 222.196L473.516 219.872L482.503 213.664L487.308 215.972Z" fill="#CFCED4"/>
<path d="M433.158 253.11L392.784 281.03L392.259 280.776L387.996 278.706L428.37 250.801L428.64 250.929L432.903 252.982L433.158 253.11Z" fill="#CFCED4"/>
<path d="M474.025 224.727L437.962 249.655L437.708 249.528L433.429 247.459L433.158 247.331L469.221 222.403C470.827 223.183 472.418 223.947 474.025 224.727Z" fill="#CFCED4"/>
<path d="M586.634 287.493C580.462 291.059 572.238 293.033 563.505 293.033C554.772 293.033 546.563 291.075 540.375 287.493C534.203 283.927 530.799 279.184 530.799 274.138C530.799 269.092 534.203 264.348 540.375 260.782C544.193 258.586 548.918 256.946 554.056 256.055C555.456 255.816 556.935 256.277 557.365 257.073C557.794 257.885 556.999 258.745 555.583 258.983C551.288 259.732 547.327 261.101 544.129 262.947C538.959 265.94 536.112 269.919 536.112 274.138C536.112 278.372 538.959 282.336 544.129 285.328C549.299 288.321 556.187 289.961 563.505 289.961C570.822 289.961 577.71 288.321 582.88 285.328C588.05 282.336 590.898 278.356 590.898 274.138C590.898 269.903 588.05 265.94 582.88 262.947C579.317 260.894 574.847 259.445 569.979 258.761C568.548 258.57 567.673 257.726 568.023 256.914C568.373 256.086 569.804 255.593 571.22 255.784C577.042 256.596 582.371 258.331 586.634 260.782C592.807 264.348 596.211 269.092 596.211 274.138C596.211 279.184 592.807 283.927 586.634 287.493Z" fill="#CFCED4"/>
<path d="M566.337 266.72L557.126 280.234C556.57 281.062 554.963 281.46 553.547 281.142C552.131 280.823 551.431 279.884 551.988 279.072L561.199 265.558C561.755 264.73 563.362 264.332 564.778 264.65C566.194 264.969 566.894 265.908 566.337 266.72Z" fill="#CFCED4"/>
<path d="M573.653 272.323L564.443 285.838C563.886 286.665 562.279 287.063 560.864 286.745C559.448 286.427 558.748 285.487 559.305 284.676L568.515 271.161C569.072 270.333 570.679 269.935 572.094 270.254C573.51 270.572 574.21 271.511 573.653 272.323Z" fill="#CFCED4"/>
<path d="M578.601 265.048L576.931 267.5C576.374 268.328 574.768 268.725 573.352 268.407C571.936 268.089 571.236 267.15 571.793 266.338L573.463 263.902C574.02 263.074 575.627 262.677 577.042 262.995C578.458 263.313 579.158 264.252 578.601 265.064V265.048Z" fill="#CFCED4"/>
<path d="M453.933 193.798C450.624 197.905 450.624 198.096 450.544 198.175C450.449 198.287 450.544 198.573 451.387 199.751C449.86 202.394 448.635 206.087 449.176 208.936H449.128C447.76 208.14 447.283 206.453 447.283 204.861C447.283 200.563 450.481 195.469 453.901 193.766V193.814L453.933 193.798Z" fill="#6DC4C9"/>
<path d="M582.529 272.18C584.056 273.994 585.583 275.825 587.11 277.64C587.508 278.101 587.11 278.802 586.506 278.706C584.135 278.292 581.749 277.863 579.379 277.449C578.822 277.337 578.472 276.828 578.409 276.112C578.266 274.472 579.634 272.307 581.065 271.83C581.733 271.607 582.258 271.798 582.529 272.196V272.18Z" fill="#003862"/>
<path d="M478.224 205.132C584.661 266.64 570.774 258.347 569.676 258.347C569.072 258.299 568.388 258.395 567.656 258.681C566.002 259.286 564.347 260.782 563.393 262.056C563.393 262.056 563.377 262.056 563.377 262.088C561.77 264.077 560.705 266.64 560.434 268.503C560.211 269.728 560.291 271.002 560.402 271.495C560.482 272.148 560.927 273.055 560.991 273.087C561.166 273.453 561.675 273.963 561.977 274.122C463.827 217.421 465.975 218.726 466.007 218.662C465.529 218.312 465.163 217.835 464.893 217.262C464.13 215.606 464.368 213.441 464.877 211.706C465.275 210.337 465.943 208.936 466.802 207.647C474.851 212.295 482.9 216.943 490.966 221.607L494.481 217.23L494.227 216.864C486.559 212.438 478.876 207.997 471.208 203.572C472.513 202.935 474.056 202.664 475.281 203.429C476.267 204.002 477.253 204.575 478.255 205.148L478.224 205.132Z" fill="#6DC4C9"/>
<path d="M572.11 259.779C572.11 259.779 572.11 259.779 572.11 259.811C572.253 260.05 572.301 260.082 572.11 259.811V259.779ZM579.364 277.433C574.003 276.494 568.642 275.539 563.297 274.599C563.297 274.599 563.409 274.599 563.281 274.599C563.027 274.567 562.868 274.536 562.55 274.408C562.502 274.392 562.47 274.376 562.422 274.361C561.961 274.17 561.563 273.851 561.261 273.485C561.118 273.326 561.102 273.262 560.975 273.087C560.975 273.087 560.975 273.087 560.975 273.071C560.816 272.785 560.657 272.45 560.545 272.084C560.529 272.036 560.37 271.448 560.37 271.336C560.1 269.362 560.529 267.42 561.293 265.59C561.293 265.59 561.293 265.574 561.293 265.558C561.627 264.746 562.136 263.791 562.868 262.74C562.963 262.597 563.377 262.056 563.377 262.056C564.474 260.671 566.161 259.174 567.815 258.633C568.626 258.347 569.517 258.299 569.867 258.379C569.899 258.379 570.122 258.426 570.138 258.426C570.36 258.474 570.663 258.585 570.774 258.633C571.362 258.92 571.474 259.079 571.871 259.461C571.951 259.572 571.06 258.506 582.418 272.052C582.084 271.718 581.607 271.639 581.066 271.83C579.634 272.307 578.266 274.488 578.41 276.112C578.473 276.828 578.823 277.337 579.38 277.449L579.364 277.433Z" fill="#CBE3F0"/>
<path d="M490.68 221.225L494.195 216.864L494.466 217.23L490.95 221.591L490.68 221.225Z" fill="#377084"/>
<path d="M462.109 193.639C476.776 202.123 476.14 201.678 476.092 201.757C474.135 200.595 471.717 201.502 469.856 202.808C465.195 200.118 460.518 197.411 455.857 194.721C456.303 194.403 456.78 194.1 457.289 193.846C458.689 193.129 460.725 192.843 462.109 193.639Z" fill="#ACDBE4"/>
<path d="M469.871 202.792C471.733 201.486 474.151 200.579 476.107 201.741C477.38 202.473 477.968 203.667 478.223 205.132C478.159 205.084 475.089 203.317 475.025 203.285C473.88 202.696 472.464 202.919 471.176 203.556C470.746 203.301 470.301 203.046 469.855 202.792H469.871Z" fill="#50AAAD"/>
<path d="M463.064 215.813C462.968 212.852 464.209 209.605 465.832 207.106C466.15 207.281 466.468 207.472 466.786 207.647C465.911 208.936 465.259 210.337 464.861 211.706C464.352 213.441 464.13 215.606 464.877 217.262C465.132 217.835 465.498 218.312 465.991 218.662C467.104 219.315 468.202 219.952 469.315 220.588C467.868 221.114 466.468 221.177 465.148 220.35C463.605 219.41 463.127 217.612 463.08 215.813H463.064Z" fill="#50AAAD"/>
<path d="M453.949 193.718C455.254 193.05 456.781 192.747 458.037 193.48V193.511C457.322 193.75 456.463 194.276 455.858 194.705C454.697 194.037 454.188 193.687 453.965 193.75V193.702L453.949 193.718Z" fill="#6DC4C9"/>
<path d="M451.308 212.375C450.258 211.77 449.59 210.56 449.287 209.35C448.508 206.055 450.051 201.773 451.848 198.987C456.509 201.678 461.186 204.384 465.847 207.074C465.847 207.137 462.92 211.197 463.079 215.797C463.127 217.596 463.604 219.395 465.147 220.334C465.115 220.397 465.545 220.557 451.308 212.359V212.375Z" fill="#ACDBE4"/>
<path d="M451.832 199.003C451.737 199.162 451.625 199.338 451.514 199.497C451.244 199.115 450.989 198.749 450.719 198.367C451.085 198.573 451.45 198.796 451.832 199.003Z" fill="#377084"/>
<path d="M450.544 198.526C450.178 198 450.576 198.048 451.117 198.366C464.304 205.991 477.491 213.6 490.679 221.225L490.949 221.591C471.653 210.448 453.375 199.879 450.735 198.366C450.989 198.749 451.26 199.115 451.53 199.497C451.482 199.576 451.435 199.656 451.387 199.735C451.101 199.337 450.814 198.924 450.528 198.526H450.544Z" fill="#3E8796"/>
<g style="mix-blend-mode:multiply">
<g style="mix-blend-mode:multiply">
<path d="M593.522 287.223C592.52 286.92 591.502 286.634 590.5 286.315C583.119 284.055 575.769 281.731 568.356 279.534C564.872 278.499 561.882 276.541 558.812 274.759C530.258 258.283 501.719 241.76 473.181 225.253C471.893 224.504 470.62 223.82 468.997 223.9C468.17 223.947 467.232 223.486 466.468 223.04C462.634 220.875 458.832 218.662 455.031 216.434C454.156 215.924 453.074 215.686 453.201 214.126C453.249 213.537 452.072 212.836 451.308 212.359C450.751 212.024 449.733 211.006 449.574 210.162C454.315 212.725 458.801 215.431 463.334 217.707C462.65 214.269 463.493 211.053 465.402 207.806C460.566 204.973 456.128 202.505 451.404 199.735C451.404 199.735 450.847 198.94 450.545 198.494C450.37 198.239 450.354 198.096 450.576 198.128C455.015 200.404 459.994 203.508 464.321 205.975C468.647 208.443 472.656 210.815 476.967 213.314C481.342 215.845 486.178 218.631 490.695 221.241C491.538 220.302 492.222 219.235 493.161 218.201C494.179 218.774 495.324 219.395 496.422 220.015C495.293 221.464 494.243 222.833 493.05 224.377C484.332 219.363 475.583 214.317 466.691 209.191C465.243 211.626 464.846 214.014 465.784 216.434C466.118 217.309 467.152 218.042 468.043 218.551C474.486 222.34 480.976 226.048 487.45 229.773C510.898 243.304 534.362 256.834 557.778 270.429C559.353 271.336 560.975 271.591 562.645 272.021C566.272 272.928 569.867 273.947 573.463 274.934C577.392 276 581.305 277.067 585.234 278.133C585.711 278.261 586.3 278.34 586.602 278.659C589.036 281.349 591.422 284.087 593.824 286.809C593.729 286.952 593.633 287.079 593.538 287.223H593.522Z" fill="#B5C7D4"/>
</g>
<path d="M470.508 202.903C474.103 200.181 476.696 200.786 477.73 204.24C477.173 204.033 476.728 203.922 476.314 203.715C475.169 203.142 474.055 202.887 472.751 203.253C472.099 203.444 471.271 203.031 470.524 202.887L470.508 202.903Z" fill="#CAC0D4"/>
</g>
<path d="M450.418 198.16C451.595 196.711 452.756 195.247 453.934 193.798V193.75C453.934 193.75 453.934 193.734 453.965 193.718V193.766C454.236 193.687 452.55 192.779 494.212 216.864L490.696 221.241C449.257 197.284 450.609 197.985 450.434 198.16H450.418Z" fill="#50AAAD"/>
<path d="M412.86 209.111C413.083 205.8 412.526 202.442 411.174 199.178C409.281 194.594 406.004 190.694 402.043 187.59C405.988 189.771 409.615 192.62 412.447 196.202C416.599 201.439 418.317 207.185 417.887 212.677C417.314 220.031 412.876 226.988 405.209 231.795L406.927 235.217L415.883 253.062L412.288 259.079L413.449 261.403L415.071 264.634L423.439 267.691L445.534 311.769L438.678 313.567L436.881 312.421L399.705 238.274L396.285 239.165L395.441 235.599C402.298 232.495 408.342 227.306 411.063 220.35C411.874 218.296 412.367 216.099 412.526 213.903C412.526 213.871 412.526 213.855 412.526 213.823C412.638 212.247 412.733 210.671 412.844 209.111H412.86Z" fill="#F5D864"/>
<path d="M445.534 311.784L445.216 316.592L438.359 318.391L438.678 313.567L445.534 311.784Z" fill="#C69C6E"/>
<path d="M438.679 313.567L438.361 318.375L411.047 300.896L410.363 298.015L410.522 295.548L424.06 304.223C425.046 305.306 426.032 306.372 427.019 307.455L426.939 308.585L433.652 312.883L433.732 311.769C434.781 311.991 435.815 312.214 436.865 312.437L438.663 313.583L438.679 313.567Z" fill="#A8A06B"/>
<path d="M399.704 238.29L436.88 312.437C435.83 312.214 434.796 311.991 433.746 311.769L397.779 240.057C398.416 239.468 399.052 238.879 399.688 238.29H399.704Z" fill="#D7BA48"/>
<path d="M397.715 241.171L433.682 312.883L426.969 308.585L427.049 307.471L399.386 252.314L396.809 241.41L397.715 241.171Z" fill="#E2C964"/>
<path d="M399.577 255.37L424.09 304.239L410.537 295.564L409.121 292.746L404.556 273.326L404.969 271.304L403.999 270.954L403.522 268.98L396.013 264.81L395.488 262.565L399.37 258.458L399.577 255.37Z" fill="#DEC046"/>
<path d="M417.601 217.15C417.601 217.15 417.601 217.214 417.601 217.262C417.123 224.568 412.908 230.84 406.943 235.233L405.225 231.811C412.892 227.004 417.33 220.047 417.903 212.693C417.808 214.189 417.712 215.67 417.601 217.166V217.15Z" fill="#C69C6E"/>
<path d="M415.882 253.078L415.548 257.885L413.448 261.419L412.287 259.095L415.882 253.078Z" fill="#C69C6E"/>
<path d="M381.746 209.064C383.066 208.522 384.259 207.854 385.261 207.09C385.866 206.628 386.407 206.135 386.884 205.625C387.854 204.559 388.602 203.365 389.063 202.075C389.318 201.327 389.493 200.563 389.556 199.783C389.556 199.751 389.556 199.72 389.556 199.704C389.62 198.828 389.556 197.937 389.334 197.029C388.3 192.636 384.323 189.452 379.964 187.972C379.503 184.772 378.962 181.652 378.342 178.803C385.166 179.344 391.863 181.302 397.606 184.613C399.149 185.505 400.66 186.507 402.06 187.622C406.021 190.726 409.298 194.642 411.191 199.21C412.543 202.489 413.1 205.848 412.877 209.143C412.654 212.454 411.652 215.702 409.886 218.758C406.482 224.648 400.676 228.866 394.472 231.397L395.474 235.647L396.317 239.213L396.842 241.441L399.403 252.346L399.721 253.683L394.663 259.031L395.506 262.613L396.031 264.857L403.555 269.028L404.017 271.002L404.573 273.374L409.155 292.81L410.395 298.095L411.079 300.976L414.42 315.175L407.182 315.939L405.703 314.57L387.425 236.984L379.328 237.844L395.092 304.749L383.862 294.37L380.171 278.69L382.509 273.867L384.418 269.935L377.164 265.908L375.431 258.538L378.198 255.609L380.776 252.887L372.233 244.991L369.672 234.103C365.966 233.514 362.307 232.495 358.839 231.031C351.903 228.102 345.508 223.247 341.913 216.736C339.766 212.868 338.827 208.936 338.923 205.132C339.193 193.607 349.04 183.34 363.818 179.917C365.791 179.456 367.843 179.121 369.958 178.914C370.595 181.573 371.12 184.454 371.533 187.033C365.329 187.622 361.082 190.837 359.427 194.276C358.887 195.374 358.584 196.552 358.521 197.746C358.473 198.526 358.521 199.306 358.696 200.102C358.982 201.534 359.634 202.951 360.652 204.288C361.273 205.116 362.005 205.848 362.816 206.517C363.563 207.122 364.359 207.663 365.218 208.124C367.731 209.493 370.642 210.273 373.506 210.433C373.538 210.433 373.553 210.433 373.585 210.433C376.655 210.592 379.439 210.066 381.794 209.111L381.746 209.064Z" fill="#F5D864"/>
<path d="M414.404 315.096L414.07 319.919L406.832 320.683L407.166 315.876L414.404 315.096Z" fill="#C69C6E"/>
<path d="M412.542 213.839C412.542 213.839 412.542 213.887 412.542 213.919C412.399 216.115 411.89 218.312 411.079 220.366C408.358 227.322 402.313 232.511 395.457 235.615L394.455 231.365C400.643 228.834 406.449 224.6 409.87 218.726C411.635 215.67 412.637 212.422 412.86 209.111C412.749 210.687 412.653 212.263 412.542 213.823V213.839Z" fill="#C69C6E"/>
<path d="M409.121 292.746L410.537 295.564L410.378 298.031L409.121 292.746Z" fill="#C69C6E"/>
<path d="M407.164 315.876L406.846 320.683L383.51 299.098L383.828 294.29L395.059 304.669C395.87 305.879 396.681 307.089 397.493 308.282L397.413 309.413L402.981 314.554L403.06 313.44C403.935 313.79 404.794 314.14 405.669 314.491L407.148 315.86L407.164 315.876Z" fill="#A8A06B"/>
<path d="M387.391 236.905L405.669 314.491C404.794 314.14 403.919 313.79 403.06 313.44L385.371 238.385C386.039 237.892 386.707 237.398 387.375 236.889L387.391 236.905Z" fill="#D7BA48"/>
<path d="M404.97 271.304L404.557 273.326L404 270.954L404.97 271.304Z" fill="#C69C6E"/>
<path d="M385.308 239.531L402.981 314.57L397.414 309.429L397.493 308.298L381.379 239.945L385.308 239.531Z" fill="#E2C964"/>
<path d="M399.387 252.314L427.05 307.471C426.064 306.388 425.077 305.322 424.091 304.239L399.594 255.37L399.705 253.635L399.387 252.298V252.314Z" fill="#BBAE5A"/>
<path d="M399.705 238.29C399.069 238.879 398.433 239.468 397.796 240.057L397.717 241.171L396.81 241.41L396.285 239.181L399.705 238.29Z" fill="#D4AB7C"/>
<path d="M399.705 253.635L399.578 255.37L399.371 258.458L395.49 262.565L394.646 258.983L399.705 253.635Z" fill="#C69C6E"/>
<path d="M397.796 240.057L433.763 311.769L433.684 312.883L397.717 241.171L397.796 240.057Z" fill="#DEC046"/>
<path d="M381.379 239.945L397.493 308.298C396.682 307.089 395.871 305.879 395.059 304.685L379.295 237.78C379.899 238.146 380.52 238.497 381.14 238.863L381.395 239.945H381.379Z" fill="#BBAE5A"/>
<path d="M389.539 199.767C389.476 200.547 389.317 201.327 389.046 202.06L388.998 201.821C388.792 200.945 388.473 200.133 388.06 199.353C386.517 196.504 383.685 194.371 380.631 193.129C380.424 191.394 380.202 189.659 379.963 187.94C384.322 189.42 388.298 192.604 389.332 196.998C389.539 197.905 389.619 198.796 389.555 199.672C389.555 199.704 389.555 199.735 389.555 199.751L389.539 199.767Z" fill="#D4AB7C"/>
<path d="M388.999 201.821L389.047 202.06C388.586 203.349 387.854 204.559 386.868 205.609C386.39 206.119 385.85 206.612 385.245 207.074C384.147 206.628 382.939 206.246 381.634 205.96C381.507 202.871 381.252 199.449 380.902 195.915C383.734 196.584 386.168 197.809 388.029 199.338C388.443 200.102 388.761 200.929 388.967 201.789L388.999 201.821Z" fill="#C69C6E"/>
<path d="M388.044 199.369C386.183 197.841 383.749 196.615 380.917 195.947C380.822 195.024 380.727 194.084 380.615 193.145C383.669 194.387 386.501 196.52 388.044 199.369Z" fill="#DDB482"/>
<path d="M387.392 236.905C386.724 237.398 386.056 237.892 385.388 238.401L385.308 239.515L381.395 239.929L381.14 238.847C380.52 238.481 379.915 238.13 379.295 237.764L387.392 236.905Z" fill="#D4AB7C"/>
<path d="M385.372 238.401L403.061 313.456L402.982 314.57L385.309 239.531L385.372 238.401Z" fill="#DEC046"/>
<path d="M384.353 269.856L382.46 273.787L376.781 270.652L377.115 265.828L384.353 269.856Z" fill="#A8A06B"/>
<path d="M380.123 278.627L383.813 294.29L383.495 299.114L379.805 283.434L380.123 278.627Z" fill="#A8A06B"/>
<path d="M378.325 178.787C378.945 181.636 379.486 184.756 379.948 187.956C380.202 189.675 380.425 191.41 380.616 193.145C380.727 194.084 380.822 195.024 380.918 195.947C381.268 199.465 381.522 202.903 381.65 205.991C381.697 207.058 381.729 208.093 381.745 209.08C379.407 210.035 376.607 210.56 373.537 210.401C373.537 208.841 373.473 207.217 373.41 205.577C373.266 202.346 372.996 198.987 372.646 195.724C372.503 194.371 372.344 193.034 372.169 191.729C372.057 190.853 371.93 189.993 371.819 189.15C371.723 188.465 371.612 187.733 371.485 186.985C371.071 184.406 370.53 181.509 369.91 178.867C367.778 179.073 365.726 179.408 363.77 179.869C363.785 176.925 363.945 172.722 364.692 169.873C365.026 168.615 365.519 167.389 366.41 166.418C368.399 164.285 371.707 164.19 373.919 166.769C375.207 168.265 376.082 170.589 376.686 172.483C377.291 174.346 377.832 176.495 378.341 178.803L378.325 178.787Z" fill="#FCBE33"/>
<path d="M380.726 252.807L378.149 255.529L371.85 249.719L372.184 244.912L380.726 252.807Z" fill="#A8A06B"/>
<path d="M375.365 258.474L377.115 265.828L376.781 270.652L375.047 263.281L375.365 258.474Z" fill="#A8A06B"/>
<path d="M372.646 195.708C372.996 198.971 373.267 202.33 373.41 205.562C369.974 205.928 367.19 206.899 365.17 208.061C364.311 207.599 363.5 207.058 362.768 206.453C362.275 205.562 361.941 204.654 361.766 203.731C363.325 199.306 367.906 196.568 372.646 195.708Z" fill="#C69C6E"/>
<path d="M372.168 191.713C372.343 193.018 372.502 194.355 372.645 195.708C367.905 196.568 363.308 199.306 361.765 203.731C361.59 202.919 361.542 202.107 361.59 201.311C361.828 197.587 364.437 194.116 368.828 192.158C369.941 191.92 371.055 191.76 372.168 191.713Z" fill="#DDB482"/>
<path d="M369.607 234.024L372.184 244.912L371.85 249.719L369.862 241.25L369.289 238.847L369.607 234.024Z" fill="#A8A06B"/>
<path d="M368.828 192.158C365.742 192.843 362.831 194.275 360.779 196.536C359.856 197.555 359.093 198.749 358.648 200.038C358.488 199.258 358.425 198.462 358.473 197.682C358.536 196.488 358.854 195.31 359.379 194.212C361.034 190.789 365.281 187.574 371.485 186.969C371.612 187.717 371.724 188.449 371.819 189.134C371.946 189.978 372.058 190.837 372.169 191.713C371.055 191.76 369.926 191.904 368.828 192.158Z" fill="#C69C6E"/>
<path d="M369.289 238.847L369.862 241.25C364.358 239.818 358.981 237.366 354.447 233.817C359.013 236.332 364.135 238.019 369.289 238.831V238.847Z" fill="#C69C6E"/>
<path d="M361.589 201.311C361.542 202.107 361.589 202.919 361.764 203.731C361.955 204.638 362.289 205.562 362.767 206.453C361.955 205.784 361.224 205.052 360.603 204.224C359.585 202.887 358.949 201.471 358.646 200.038C359.092 198.749 359.855 197.555 360.778 196.536C362.814 194.291 365.741 192.843 368.827 192.158C364.437 194.116 361.828 197.586 361.589 201.311Z" fill="#DDB482"/>
<path d="M338.858 205.052C338.763 208.841 339.717 212.773 341.849 216.657C345.444 223.167 351.855 228.022 358.774 230.951C362.242 232.416 365.901 233.435 369.607 234.024L369.289 238.831C364.135 238.003 359.013 236.332 354.447 233.817C349.087 230.856 344.505 226.765 341.594 221.575C339.288 217.484 338.317 213.171 338.604 208.968C338.683 207.663 338.778 206.357 338.858 205.052Z" fill="#E3CA63"/>
<g style="mix-blend-mode:multiply">
<path d="M438.232 297.012C442.257 305.035 445.518 311.625 445.47 311.673C445.422 311.705 443.863 312.135 442.018 312.612C440.889 312.899 439.775 313.201 438.646 313.488C438.63 313.949 438.598 314.395 438.582 314.857C438.55 315.605 438.534 316.242 438.566 316.274C438.598 316.305 439.171 316.449 439.839 316.608C440.252 316.703 440.65 316.799 441.064 316.894C442.241 316.64 443.402 316.385 444.579 316.146C445.756 315.891 446.918 315.637 448.095 315.398C448.047 315.287 447.999 315.159 447.952 315.048C447.315 313.52 434.478 283.37 434.462 283.339C434.414 283.291 431.153 282.431 431.026 282.431C430.978 282.431 434.223 288.99 438.248 297.012H438.232Z" fill="#8A8EA1"/>
<path d="M404.684 273.74C404.716 273.931 406.895 283.227 409.536 294.402C412.177 305.576 414.324 314.793 414.324 314.873C414.324 315.032 414.388 315.016 410.379 315.43C408.661 315.605 407.245 315.78 407.198 315.812C407.134 315.86 406.816 319.728 406.816 320.38C406.816 320.476 406.784 320.556 406.736 320.556C406.689 320.556 402.791 316.99 398.067 312.628C395.203 309.986 392.34 307.343 389.477 304.701C389.477 305.067 389.508 305.433 389.508 305.799C389.524 306.404 389.572 307.073 389.604 307.311C389.62 307.455 389.652 307.598 389.667 307.725L399.005 315.302C404.143 319.473 408.423 322.927 408.534 323.007C408.788 323.166 412.67 324.042 413.147 324.042C413.64 324.042 420.067 323.357 420.13 323.293C420.162 323.262 419.924 319.569 419.621 315.08C419.319 310.591 419.081 306.898 419.097 306.866C419.112 306.85 419.781 307.168 420.592 307.582C424.585 309.636 424.616 309.636 421.133 307.391C420.067 306.707 418.985 306.006 417.919 305.322C417.108 303.969 416.281 302.6 415.47 301.247C414.658 299.894 413.831 298.525 413.02 297.172C412.161 293.542 411.302 289.897 410.443 286.267C409.027 280.266 407.866 275.332 407.866 275.3C407.866 275.268 407.166 274.854 406.307 274.392C405.448 273.915 404.716 273.501 404.668 273.485C404.621 273.453 404.605 273.581 404.637 273.772L404.684 273.74Z" fill="#8A8EA1"/>
<path d="M404.191 271.686C404.461 272.848 404.477 272.864 404.668 271.973C404.731 271.702 404.779 271.432 404.843 271.161C404.7 271.113 404.572 271.065 404.429 271.018C404.286 270.97 404.159 270.922 404.016 270.874C404.079 271.145 404.143 271.416 404.207 271.67L404.191 271.686Z" fill="#9F83BB"/>
<path d="M383.209 237.207C381.157 237.43 379.486 237.637 379.486 237.685C379.486 237.733 379.868 238.067 380.345 238.449C380.632 238.688 380.918 238.91 381.204 239.149C383.909 250.642 386.629 262.135 389.333 273.644C395.903 301.565 397.462 308.235 397.43 308.696C397.43 308.887 397.414 309.062 397.398 309.254L397.812 309.397C398.05 309.476 398.257 309.508 398.273 309.492C398.289 309.476 394.678 293.988 390.224 275.077C385.77 256.182 382.143 240.693 382.159 240.677C382.175 240.661 382.906 240.566 383.781 240.486C384.306 240.439 384.847 240.375 385.372 240.327V238.672L386.231 237.764C386.708 237.271 387.042 236.857 386.995 236.841C386.947 236.841 385.229 237 383.177 237.223L383.209 237.207Z" fill="#707386"/>
<g style="mix-blend-mode:multiply">
<path d="M358.711 231.556C358.679 231.954 358.6 233.005 358.536 233.896C358.472 234.788 358.409 235.536 358.393 235.568C358.345 235.615 356.818 234.963 355.911 234.501C355.673 234.374 355.434 234.262 355.195 234.135L356.102 234.788C357.581 235.838 359.252 236.825 361.256 237.812C362.29 238.322 363.181 238.735 363.26 238.735C363.451 238.735 363.404 238.911 363.054 239.515C362.545 240.407 361.94 241.951 361.654 243.193C361.288 244.705 361.272 246.774 361.59 248.239C362.147 250.722 363.435 252.935 365.567 255.02C367.285 256.691 368.955 257.869 371.326 259.079C372.837 259.843 374.921 260.735 375 260.639C375.048 260.591 375.191 259.079 375.207 258.395C375.207 258.299 375.812 257.599 376.543 256.819C377.275 256.039 377.88 255.386 377.88 255.354C377.88 255.322 376.48 254.017 374.778 252.441C373.744 251.486 372.71 250.547 371.691 249.592C371.294 247.888 370.88 246.169 370.483 244.466C370.085 242.763 369.671 241.044 369.274 239.34C369.305 238.449 369.321 237.557 369.353 236.65C369.401 235.17 369.401 233.944 369.353 233.912C369.305 233.88 368.621 233.737 367.826 233.578C365.265 233.1 361.129 231.891 359.331 231.095C359.029 230.967 358.775 230.856 358.775 230.856C358.775 230.856 358.727 231.174 358.695 231.572L358.711 231.556Z" fill="#979EA7"/>
</g>
<path d="M373.076 202.856C373.076 202.951 373.108 202.983 373.124 202.935C373.187 202.808 373.172 202.68 373.124 202.68C373.092 202.68 373.076 202.76 373.076 202.856Z" fill="#9F83BB"/>
<g style="mix-blend-mode:multiply">
<path d="M410.777 198.112C410.889 198.319 411.175 199.019 411.414 199.672C413.927 206.358 413.132 213.537 409.171 219.602C406.244 224.091 401.36 228.118 395.808 230.601C395.092 230.919 394.504 231.238 394.504 231.317C394.504 231.381 395.665 236.348 397.065 242.333C398.481 248.318 399.626 253.301 399.626 253.396C399.626 253.492 398.497 254.749 397.129 256.214C396.301 257.089 395.458 257.981 394.631 258.856C394.743 259.302 394.838 259.748 394.949 260.193C395.124 260.926 395.427 262.231 395.633 263.059C395.761 263.568 395.872 264.077 395.999 264.587C396.524 264.873 397.049 265.176 397.574 265.462C398.449 265.94 399.165 266.322 399.197 266.29C399.228 266.274 399.197 265.988 399.133 265.685C399.101 265.494 399.053 265.319 399.022 265.128C399.276 264.857 399.531 264.587 399.769 264.316C400.183 263.87 400.994 263.011 401.551 262.406C401.901 262.04 402.235 261.674 402.585 261.323C402.903 261.483 403.221 261.658 403.539 261.833C403.858 262.008 404.176 262.167 404.494 262.342C408.248 269.84 412.018 277.321 415.772 284.819C419.527 292.316 423.297 299.798 427.051 307.296C427.051 307.471 427.019 307.662 427.003 307.837C427.003 308.012 426.971 308.203 426.955 308.378C427.114 308.426 427.258 308.489 427.417 308.537C427.671 308.617 427.878 308.68 427.878 308.649C427.878 308.617 422.835 298.556 416.679 286.267C410.523 273.979 405.48 263.902 405.48 263.87C405.48 263.839 405.671 263.616 405.894 263.377C406.037 263.234 406.164 263.09 406.307 262.947C405.973 261.499 405.623 260.066 405.289 258.617C404.319 254.526 404.223 254.16 403.333 251.804C402.696 250.085 401.901 247.65 400.819 243.957C399.372 239.07 399.26 238.592 399.388 238.385C399.531 238.178 399.515 238.162 399.244 238.21C398.99 238.242 398.958 238.21 398.894 237.892C398.863 237.685 398.863 237.494 398.91 237.446C398.958 237.398 399.578 237.112 400.278 236.793C401.869 236.077 404.176 234.788 405.257 234.039C406.228 233.355 406.069 233.244 407.055 235.202C407.437 235.95 407.771 236.555 407.819 236.555C407.914 236.555 409.028 235.552 409.553 234.995C410.125 234.374 410.602 233.721 411.048 232.909C411.271 232.527 411.461 232.209 411.493 232.209C411.636 232.209 411.795 232.686 411.843 233.323C411.97 234.963 411.111 236.841 409.537 238.385C409.346 238.576 409.139 238.767 408.948 238.974C410.093 241.266 411.239 243.575 412.4 245.867C414.293 249.655 415.852 252.823 415.852 252.887C415.852 252.95 415.057 254.335 414.086 255.975C413.498 256.962 412.909 257.949 412.32 258.936C412.782 259.843 413.243 260.75 413.72 261.658C414.484 263.154 415.12 264.396 415.136 264.412C415.136 264.412 417.013 265.112 419.288 265.94C420.672 266.449 422.04 266.943 423.424 267.452C424.06 268.71 424.712 269.967 425.349 271.225C425.985 272.482 426.637 273.74 427.274 274.997L428.483 273.788C428.88 273.39 429.294 272.976 429.692 272.578C428.705 270.254 427.719 267.93 426.717 265.59C425.078 261.753 423.742 258.57 423.742 258.506C423.742 258.442 424.013 258.267 424.362 258.092C426.208 257.169 429.008 255.37 430.662 254.065C432.682 252.473 434.464 250.61 435.752 248.764C436.42 247.809 437.279 246.281 437.566 245.548C437.645 245.357 437.82 244.991 437.979 244.737C438.377 244.068 438.982 242.572 439.236 241.696C439.57 240.502 439.65 239.881 439.65 238.258C439.65 236.762 439.65 236.714 439.236 235.329C439.013 234.565 438.632 233.53 438.393 233.053C436.245 228.739 431.06 225.03 424.235 222.928C423.344 222.658 421.34 222.133 419.765 221.782C418.19 221.432 416.886 221.114 416.87 221.098C416.854 221.082 416.918 220.668 417.029 220.191C417.284 219.108 417.506 217.277 417.57 215.909C417.586 215.558 417.602 215.224 417.618 214.874C417.57 215.081 417.506 215.288 417.459 215.495C417.268 216.227 417.077 216.338 417.188 215.638C417.315 214.874 417.252 212.2 417.077 210.974C416.615 207.679 415.359 204.352 413.45 201.391C412.75 200.309 410.793 197.73 410.666 197.73C410.634 197.73 410.698 197.889 410.809 198.096L410.777 198.112Z" fill="#707386"/>
</g>
<g style="mix-blend-mode:multiply">
<path d="M365.027 188.704C361.543 190.376 359.555 192.986 358.68 196.138C358.457 196.934 358.378 198.892 358.537 199.783C358.902 201.837 360.016 203.89 361.654 205.514C361.877 205.737 362.704 206.373 362.927 206.596C362.323 206.087 361.702 203.62 361.702 203.62C361.702 203.62 362.657 201.757 362.895 201.407C365.822 197.204 371.406 195.82 371.565 196.074C371.629 196.186 371.931 197.539 372.79 201.709C373.092 203.174 373.315 203.365 373.06 200.324C372.678 195.804 371.469 186.969 371.469 186.969C371.469 186.969 367.095 187.51 365.011 188.704H365.027Z" fill="#9A89B0"/>
</g>
<g style="mix-blend-mode:multiply">
<path d="M376.32 171.608C376.32 171.608 376.463 172.197 376.654 172.849C377.02 174.139 377.672 176.972 377.991 178.66C379.9 188.911 380.218 198.446 378.929 206.23C378.706 207.567 378.245 209.78 378.134 210.082C378.102 210.178 378.309 210.162 378.913 210.019C382.015 209.35 385.022 207.726 386.835 205.769C387.058 205.53 387.281 205.291 387.503 205.036C387.026 205.036 386.549 205.036 386.072 205.052C384.847 205.068 381.681 205.53 381.681 205.53L381.57 203.476C381.443 201.232 381.109 196.966 380.997 196.345C380.934 195.979 380.934 195.979 381.22 196.042C383.145 196.488 385.34 197.443 387.153 198.637C387.392 198.796 387.822 199.21 388.06 199.369C387.933 199.178 387.551 198.526 387.424 198.335C387.217 198.016 386.963 197.682 386.819 197.3C386.024 195.31 384.958 193.098 383.367 190.264C383.192 189.946 383.017 189.643 382.842 189.325C382.827 188.768 382.811 188.211 382.795 187.638C382.715 185.25 382.317 183.101 381.458 180.458C381.331 180.045 381.14 179.471 380.997 179.058C380.87 179.042 378.341 178.819 378.341 178.819C378.341 178.819 378.15 178.055 377.991 177.322C377.513 175.269 376.352 171.289 376.32 171.608Z" fill="#9A89B0"/>
</g>
<path d="M366.49 171.592C366.045 172.229 365.981 172.69 366.013 174.855C366.029 176.431 366.092 177.179 366.251 178.087C366.363 178.739 366.474 179.28 366.506 179.296C366.522 179.312 366.745 179.296 366.983 179.233C367.222 179.185 367.969 179.074 368.638 178.994C369.306 178.914 369.862 178.835 369.894 178.803C369.958 178.739 369.226 175.938 368.797 174.664C368.144 172.722 367.333 171.337 366.856 171.337C366.76 171.337 366.586 171.465 366.49 171.608V171.592Z" fill="#9F83BB"/>
</g>
<g style="mix-blend-mode:multiply">
<path d="M236.715 269.362C236.715 269.362 271.521 283.625 280.859 284.644C290.196 285.663 309.842 286.809 318.894 281.524C327.961 276.239 326.45 268.105 317.637 263.09C312.499 260.177 287.317 257.423 267.115 262.883C256.202 265.828 265.301 270.333 236.699 269.362H236.715Z" fill="#9A89B0"/>
</g>
<path d="M224.545 246.074C224.179 236.634 235.362 228.15 251.493 225.937C259.399 224.855 267.989 225.332 275.672 227.624C275.672 227.688 271.791 227.863 267.146 229.551C261.435 228.659 255.215 228.786 249.345 230.076C244.175 231.206 238.56 233.466 234.758 237.175C228.968 242.842 229.492 249.894 235.951 255.227C240.071 258.633 245.686 260.623 250.904 261.578C251.143 262.342 251.604 263.536 251.731 263.807C252.034 264.523 252.415 265.255 252.558 265.526C245.352 264.666 237.558 262.358 231.751 257.981C229.588 256.341 227.631 254.383 226.295 252.027C225.166 250.037 224.609 248.048 224.529 246.09L224.545 246.074Z" fill="#FDC850"/>
<path d="M251.875 246.01C251.525 247.299 251.191 248.605 250.841 249.894C250.363 249.353 250.204 248.732 250.348 248.016C250.475 247.443 250.984 246.774 251.875 246.01Z" fill="#F9B132"/>
<path d="M250.92 261.562C245.702 260.607 240.087 258.617 235.967 255.211C229.524 249.878 228.983 242.826 234.774 237.159C238.576 233.435 244.191 231.19 249.361 230.06C255.215 228.771 261.435 228.643 267.161 229.535C260.226 232.034 254.229 236.937 252.399 244.116C252.272 244.577 252.145 245.039 252.033 245.501C251.111 245.135 250.188 244.784 249.281 244.418C248.041 245.246 247.245 246.106 246.911 246.981C246.577 247.857 246.593 248.652 246.991 249.353C247.388 250.053 248.152 250.833 249.281 251.677C248.422 252.17 247.563 252.664 246.688 253.173C247.197 253.46 247.706 253.762 248.216 254.049C248.868 253.667 249.52 253.285 250.188 252.919C250.188 252.95 250.14 253.269 250.124 253.38C249.87 255.625 249.981 257.901 250.586 260.257C250.713 260.782 250.904 261.419 250.952 261.594L250.92 261.562Z" fill="#F9B132"/>
<path d="M252.001 245.501C251.953 245.676 251.905 245.835 251.858 246.01C250.967 246.774 250.458 247.443 250.331 248.016C250.172 248.732 250.331 249.353 250.824 249.894C250.394 251.502 250.378 251.486 250.14 252.903C249.488 253.285 248.819 253.667 248.167 254.033C247.658 253.746 247.149 253.444 246.64 253.157C247.499 252.664 248.358 252.17 249.233 251.661C248.104 250.817 247.34 250.037 246.942 249.337C246.545 248.621 246.529 247.841 246.863 246.965C247.197 246.09 247.992 245.23 249.233 244.402C250.156 244.768 251.062 245.135 251.985 245.485L252.001 245.501Z" fill="#FDC850"/>
<path d="M224.561 254.622C224.529 254.224 224.545 254.765 224.545 246.058C224.625 248.016 225.197 250.006 226.311 251.995C227.647 254.367 229.588 256.325 231.767 257.949C237.573 262.326 245.368 264.65 252.574 265.494C253.926 268.073 255.931 270.683 257.665 272.403C258.333 273.087 258.969 273.692 259.574 274.249C249.377 274.249 236.81 271.448 229.508 264.38C226.804 261.801 224.736 258.379 224.545 254.606L224.561 254.622Z" fill="#F9B132"/>
<path d="M310.67 245.453C317.43 254.574 315.681 264.937 306.072 270.54C296.416 276.143 280.684 275.332 269.04 267.277C262.867 263.011 259.559 257.821 258.429 253.301C257.284 248.7 258.175 244.386 260.577 240.9C263.233 237.064 268.292 233.546 275.784 232.336C288.94 230.203 303.639 235.934 310.67 245.437V245.453ZM299.821 255.322C301.221 254.176 301.857 252.855 301.714 251.343C301.602 250.165 300.887 248.891 299.582 247.522C299.996 247.284 300.409 247.045 300.823 246.806C300.33 246.376 299.837 245.93 299.359 245.501C298.946 245.739 298.532 245.978 298.119 246.217C296.289 244.848 294.571 244.02 292.965 243.702C290.562 243.24 288.447 243.543 286.617 244.609C284.708 245.708 283.706 247.427 284.422 249.512C284.868 250.817 285.504 251.995 286.331 253.014C283.595 254.606 280.843 256.182 278.107 257.774C277.216 256.835 276.898 255.8 277.121 254.654C277.28 253.842 277.964 252.95 279.157 251.979C278.155 251.327 277.152 250.674 276.15 250.037C274.909 250.897 274.098 251.836 273.732 252.887C273.366 253.921 273.382 254.924 273.732 255.848C274.098 256.787 274.83 257.853 275.912 259.047C275.053 259.541 274.194 260.05 273.319 260.543C273.812 260.973 274.305 261.419 274.782 261.849C275.657 261.339 276.516 260.846 277.391 260.337C279.22 261.833 281.288 262.724 283.579 263.011C285.87 263.297 287.922 262.915 289.703 261.881C291.135 261.053 292.217 259.795 292.265 258.172C292.281 257.439 292.09 256.628 291.644 255.736C291.422 255.275 290.849 254.383 289.91 253.078C292.392 251.645 294.873 250.212 297.355 248.78C298.707 250.515 298.437 251.916 296.798 253.269C297.8 253.953 298.787 254.638 299.773 255.322H299.821Z" fill="#F9B132"/>
<path d="M301.713 251.343C301.856 252.855 301.219 254.176 299.82 255.322C298.833 254.638 297.831 253.953 296.845 253.269C298.483 251.916 298.754 250.515 297.402 248.78C294.92 250.212 292.438 251.645 289.957 253.078C290.895 254.383 291.468 255.275 291.691 255.736C292.12 256.628 292.327 257.439 292.311 258.172C292.263 259.795 291.182 261.053 289.75 261.881C287.953 262.915 285.916 263.297 283.626 263.011C281.335 262.724 279.267 261.833 277.438 260.337C276.563 260.846 275.688 261.339 274.829 261.849C274.336 261.419 273.842 260.973 273.365 260.543C274.224 260.05 275.083 259.541 275.958 259.047C274.876 257.853 274.145 256.787 273.779 255.848C273.413 254.908 273.413 253.921 273.779 252.887C274.145 251.852 274.94 250.897 276.197 250.037C277.199 250.69 278.201 251.343 279.203 251.979C278.01 252.95 277.326 253.842 277.167 254.654C276.944 255.8 277.263 256.85 278.153 257.774C280.89 256.182 283.642 254.606 286.378 253.014C285.55 251.995 284.914 250.817 284.469 249.512C283.753 247.411 284.755 245.708 286.664 244.609C288.509 243.543 290.609 243.24 293.011 243.702C294.618 244.004 296.336 244.848 298.165 246.217C298.579 245.978 298.992 245.739 299.406 245.501C299.899 245.93 300.392 246.376 300.869 246.806C300.456 247.045 300.042 247.284 299.629 247.522C300.933 248.891 301.649 250.165 301.76 251.343H301.713ZM288.812 251.581C291.198 250.197 293.584 248.828 295.954 247.443C292.073 244.768 288.143 246.44 287.809 248.605C287.698 249.369 288.032 250.356 288.812 251.581ZM288.589 257.79C288.716 257.057 288.318 255.975 287.428 254.526C284.803 256.039 282.178 257.551 279.553 259.079C280.651 259.875 281.892 260.321 283.26 260.464C284.644 260.591 285.885 260.337 286.982 259.7C287.921 259.159 288.446 258.522 288.573 257.79H288.589Z" fill="#FDC850"/>
<path d="M255.04 238.306C258.301 233.578 264.489 229.375 273.508 227.911C289.241 225.332 307.232 232.129 315.886 243.829C324.126 254.94 321.931 267.532 310.287 274.297C298.626 281.078 279.49 280.139 265.3 270.333C257.807 265.16 253.799 258.84 252.415 253.364C251.031 247.825 252.065 242.572 255.024 238.306H255.04ZM306.071 270.524C315.695 264.937 317.429 254.558 310.668 245.437C303.621 235.934 288.939 230.203 275.783 232.336C268.291 233.546 263.232 237.064 260.575 240.9C258.173 244.386 257.267 248.7 258.428 253.301C259.557 257.806 262.866 263.011 269.038 267.277C280.683 275.316 296.415 276.128 306.071 270.54V270.524Z" fill="#FDC850"/>
<path d="M252.002 245.501C252.002 245.501 252.05 245.517 252.082 245.533C251.668 248.016 251.748 250.642 252.432 253.364C253.8 258.84 257.824 265.16 265.317 270.333C279.507 280.139 298.643 281.062 310.304 274.297C315.521 271.257 318.83 267.07 320.166 262.374C319.562 264.587 318.973 266.799 318.385 269.012C318.353 269.108 317.732 271.734 316.094 274.17C315.744 274.743 314.933 275.809 314.837 275.889C311.306 280.25 305.977 283.036 300.536 284.437C285.631 288.257 267.576 282.797 257.634 272.434C255.566 270.365 253.45 267.388 252.368 265.16C251.143 262.756 250.189 259.795 249.998 256.962C249.902 255.625 249.934 254.542 250.077 253.364C250.3 251.486 250.602 250.801 252.002 245.501Z" fill="#F9B132"/>
<path d="M295.955 247.459C293.568 248.828 291.182 250.213 288.812 251.597C288.033 250.388 287.699 249.401 287.81 248.621C288.144 246.456 292.073 244.784 295.955 247.459Z" fill="#F9B132"/>
<path d="M287.444 254.526C288.335 255.975 288.717 257.057 288.606 257.79C288.478 258.522 287.953 259.159 287.015 259.7C285.917 260.337 284.676 260.591 283.292 260.464C281.908 260.337 280.668 259.875 279.586 259.079C282.211 257.567 284.835 256.055 287.46 254.526H287.444Z" fill="#F9B132"/>
</g>
<defs>
<filter id="filter0_f_768_2941" x="0.860809" y="0.697418" width="851.278" height="576.392" filterUnits="userSpaceOnUse" color-interpolation-filters="sRGB">
<feFlood flood-opacity="0" result="BackgroundImageFix"/>
<feBlend mode="normal" in="SourceGraphic" in2="BackgroundImageFix" result="shape"/>
<feGaussianBlur stdDeviation="69.0696" result="effect1_foregroundBlur_768_2941"/>
</filter>
<radialGradient id="paint0_radial_768_2941" cx="0" cy="0" r="1" gradientUnits="userSpaceOnUse" gradientTransform="translate(426.5 288.893) rotate(125.306) scale(175.349 335.958)">
<stop stop-color="#ABC5D9"/>
<stop offset="1" stop-color="white"/>
</radialGradient>
<clipPath id="clip0_768_2941">
<rect width="513.238" height="304.463" fill="white" transform="translate(170.316 123)"/>
</clipPath>
</defs>
</svg>
