<svg width="665" height="654" viewBox="0 0 665 654" fill="none" xmlns="http://www.w3.org/2000/svg">
<g filter="url(#filter0_f_36_19082)">
<ellipse cx="332.223" cy="327" rx="173.223" ry="168" fill="url(#paint0_radial_36_19082)" fill-opacity="0.4"/>
</g>
<path d="M402.415 442.543H401.631V441.764H402.415V442.543Z" fill="#01172D"/>
<path d="M419.248 252.874C414.207 252.874 409.818 254.247 407.523 256.275C404.702 256.509 402.279 257.323 400.776 258.46C400.414 258.433 400.046 258.415 399.668 258.415C396.219 258.415 393.334 259.6 392.58 261.189H391.55C389.538 261.189 387.907 261.995 387.907 262.988C387.907 263.053 387.915 263.117 387.928 263.18C387.932 263.195 387.939 263.21 387.943 263.225C387.968 263.318 388.005 263.408 388.058 263.496C388.06 263.5 388.061 263.505 388.064 263.509C388.088 263.55 388.119 263.589 388.149 263.629C388.159 263.642 388.168 263.656 388.179 263.669C388.209 263.707 388.246 263.743 388.283 263.78C388.295 263.793 388.308 263.806 388.322 263.82C388.355 263.85 388.39 263.881 388.426 263.911C388.45 263.93 388.472 263.949 388.497 263.967C388.535 263.997 388.576 264.024 388.618 264.052C388.643 264.068 388.666 264.084 388.691 264.101C388.732 264.126 388.775 264.15 388.819 264.175C388.851 264.193 388.885 264.212 388.921 264.23C388.963 264.251 389.004 264.273 389.049 264.293C389.086 264.31 389.125 264.328 389.162 264.344C389.21 264.364 389.258 264.384 389.307 264.403C389.347 264.418 389.386 264.433 389.427 264.447C389.477 264.465 389.527 264.482 389.579 264.499C389.623 264.513 389.668 264.526 389.714 264.539C389.766 264.554 389.817 264.569 389.871 264.582C389.917 264.594 389.965 264.606 390.013 264.617C390.071 264.63 390.129 264.643 390.189 264.656C390.23 264.664 390.273 264.671 390.316 264.678C390.381 264.69 390.445 264.701 390.512 264.711C390.558 264.718 390.605 264.723 390.652 264.729C390.717 264.737 390.782 264.745 390.849 264.752C390.905 264.757 390.963 264.761 391.021 264.766C391.077 264.77 391.133 264.775 391.19 264.778C391.309 264.783 391.429 264.786 391.55 264.786H451.423C451.546 264.786 451.665 264.783 451.784 264.777C451.833 264.775 451.88 264.77 451.929 264.767C451.995 264.761 452.062 264.758 452.128 264.752C452.187 264.746 452.245 264.738 452.304 264.731C452.358 264.724 452.413 264.718 452.466 264.711C452.527 264.701 452.587 264.69 452.647 264.68C452.694 264.672 452.74 264.664 452.786 264.655C452.843 264.643 452.898 264.63 452.953 264.618C453.005 264.606 453.056 264.594 453.107 264.581C453.157 264.569 453.205 264.555 453.254 264.54C453.302 264.526 453.349 264.513 453.395 264.498C453.443 264.482 453.489 264.467 453.535 264.451C453.583 264.434 453.631 264.416 453.677 264.398C453.717 264.383 453.757 264.366 453.797 264.349C453.844 264.33 453.89 264.309 453.934 264.288C453.973 264.27 454.011 264.25 454.05 264.231C454.085 264.213 454.119 264.193 454.154 264.175C454.196 264.15 454.24 264.126 454.281 264.101C454.306 264.084 454.33 264.068 454.354 264.052C454.395 264.024 454.437 263.997 454.476 263.967C454.502 263.947 454.527 263.925 454.551 263.905C454.583 263.879 454.616 263.852 454.646 263.826C454.672 263.8 454.695 263.775 454.719 263.749C454.743 263.725 454.767 263.7 454.788 263.675C454.809 263.65 454.825 263.625 454.843 263.6C454.866 263.57 454.889 263.541 454.909 263.509C454.912 263.505 454.912 263.5 454.915 263.496C454.967 263.408 455.003 263.318 455.029 263.225C455.033 263.21 455.04 263.195 455.043 263.18C455.056 263.117 455.066 263.053 455.066 262.988C455.066 261.995 453.435 261.189 451.423 261.189H449.045C447.711 260.346 445.64 259.802 443.305 259.802C442.628 259.802 441.976 259.85 441.355 259.936C439.763 258.232 436.274 257.049 432.225 257.049C432.057 257.049 431.89 257.052 431.724 257.056C429.752 254.606 424.911 252.874 419.248 252.874Z" fill="white"/>
<path d="M146.272 255.736C139.473 255.736 133.554 257.587 130.458 260.323C126.652 260.639 123.385 261.736 121.357 263.27C120.868 263.234 120.373 263.208 119.863 263.208C115.21 263.208 111.321 264.807 110.304 266.951H108.914C106.2 266.951 104 268.037 104 269.377C104 269.464 104.011 269.551 104.03 269.635C104.03 269.636 104.03 269.636 104.03 269.636C104.034 269.657 104.044 269.677 104.05 269.697C104.084 269.822 104.134 269.944 104.204 270.062C104.207 270.068 104.209 270.074 104.212 270.08C104.246 270.135 104.286 270.188 104.327 270.241C104.341 270.26 104.353 270.278 104.367 270.295C104.41 270.346 104.458 270.396 104.508 270.445C104.525 270.463 104.542 270.481 104.561 270.498C104.605 270.541 104.653 270.581 104.702 270.622C104.733 270.648 104.763 270.673 104.796 270.698C104.848 270.737 104.904 270.775 104.959 270.813C104.992 270.834 105.024 270.856 105.058 270.878C105.113 270.912 105.171 270.945 105.23 270.977C105.275 271.003 105.32 271.027 105.367 271.052C105.424 271.081 105.481 271.11 105.54 271.137C105.59 271.161 105.642 271.183 105.694 271.206C105.758 271.233 105.822 271.261 105.888 271.286C105.941 271.306 105.995 271.326 106.05 271.345C106.118 271.37 106.186 271.393 106.255 271.414C106.314 271.434 106.376 271.452 106.437 271.469C106.506 271.49 106.576 271.509 106.648 271.528C106.711 271.545 106.776 271.559 106.841 271.573C106.919 271.591 106.997 271.61 107.078 271.626C107.134 271.637 107.192 271.646 107.249 271.657C107.337 271.672 107.423 271.687 107.513 271.7C107.575 271.71 107.639 271.718 107.702 271.725C107.79 271.736 107.877 271.747 107.966 271.756C108.043 271.764 108.121 271.769 108.199 271.774C108.275 271.78 108.35 271.787 108.427 271.79C108.587 271.798 108.748 271.802 108.912 271.802H189.669C189.833 271.802 189.995 271.797 190.156 271.79C190.221 271.786 190.285 271.78 190.351 271.776C190.44 271.77 190.53 271.765 190.618 271.756C190.699 271.748 190.777 271.737 190.856 271.728C190.929 271.719 191.003 271.711 191.075 271.7C191.158 271.688 191.239 271.674 191.32 271.66C191.382 271.649 191.445 271.637 191.506 271.625C191.583 271.61 191.658 271.593 191.733 271.575C191.802 271.559 191.871 271.544 191.939 271.526C192.007 271.509 192.072 271.49 192.137 271.471C192.201 271.452 192.267 271.434 192.329 271.414C192.393 271.393 192.455 271.373 192.517 271.35C192.582 271.328 192.646 271.303 192.709 271.279C192.764 271.257 192.817 271.236 192.871 271.214C192.933 271.186 192.995 271.16 193.055 271.131C193.108 271.106 193.159 271.079 193.21 271.054C193.258 271.028 193.305 271.003 193.351 270.977C193.41 270.945 193.468 270.912 193.523 270.878C193.557 270.856 193.589 270.834 193.622 270.813C193.678 270.775 193.734 270.737 193.785 270.698C193.822 270.671 193.853 270.642 193.888 270.614C193.931 270.578 193.976 270.544 194.014 270.506C194.051 270.473 194.082 270.438 194.114 270.404C194.146 270.371 194.179 270.338 194.208 270.303C194.235 270.271 194.258 270.236 194.282 270.203C194.312 270.162 194.344 270.122 194.37 270.08C194.373 270.074 194.374 270.068 194.378 270.062C194.448 269.944 194.498 269.822 194.532 269.697C194.537 269.676 194.547 269.657 194.551 269.635C194.57 269.551 194.581 269.464 194.581 269.377C194.581 268.037 192.382 266.951 189.669 266.951H186.46C184.662 265.814 181.868 265.081 178.719 265.081C177.806 265.081 176.926 265.146 176.088 265.261C173.941 262.963 169.237 261.367 163.774 261.367C163.547 261.367 163.323 261.37 163.099 261.376C160.439 258.073 153.91 255.736 146.27 255.736H146.272Z" fill="white"/>
<path d="M248.201 342.849C255.029 342.849 260.975 344.708 264.083 347.456C267.906 347.772 271.186 348.875 273.222 350.415C273.714 350.379 274.212 350.353 274.724 350.353C279.396 350.353 283.302 351.959 284.324 354.112H285.72C288.445 354.112 290.655 355.202 290.655 356.547C290.655 356.636 290.644 356.723 290.625 356.808C290.626 356.808 290.625 356.808 290.625 356.809C290.621 356.829 290.61 356.849 290.605 356.869C290.572 356.994 290.522 357.118 290.451 357.236C290.447 357.242 290.446 357.248 290.442 357.254C290.409 357.309 290.368 357.363 290.327 357.416C290.313 357.434 290.302 357.453 290.287 357.47C290.245 357.522 290.196 357.572 290.146 357.621C290.128 357.639 290.111 357.656 290.093 357.675C290.048 357.716 290 357.758 289.95 357.799C289.919 357.824 289.889 357.85 289.855 357.875C289.804 357.914 289.747 357.952 289.691 357.989C289.659 358.012 289.626 358.033 289.592 358.054C289.536 358.089 289.478 358.123 289.419 358.155C289.374 358.181 289.329 358.206 289.281 358.231C289.225 358.259 289.167 358.289 289.108 358.316C289.057 358.339 289.005 358.362 288.953 358.384C288.889 358.413 288.825 358.439 288.758 358.465C288.705 358.486 288.651 358.505 288.596 358.525C288.527 358.549 288.46 358.572 288.39 358.594C288.33 358.613 288.269 358.632 288.207 358.649C288.137 358.669 288.067 358.69 287.995 358.708C287.931 358.724 287.866 358.739 287.801 358.754C287.722 358.772 287.645 358.791 287.564 358.807C287.507 358.818 287.449 358.827 287.391 358.837C287.303 358.853 287.216 358.869 287.126 358.882C287.063 358.891 286.999 358.899 286.936 358.907C286.847 358.917 286.76 358.929 286.671 358.937C286.593 358.944 286.515 358.949 286.436 358.956C286.36 358.961 286.285 358.968 286.208 358.972C286.047 358.98 285.885 358.983 285.72 358.983H204.62C204.453 358.983 204.291 358.979 204.13 358.971C204.064 358.968 204 358.962 203.935 358.958C203.845 358.95 203.754 358.946 203.666 358.937C203.585 358.93 203.507 358.919 203.427 358.909C203.353 358.9 203.278 358.891 203.206 358.881C203.123 358.869 203.042 358.855 202.961 358.84C202.898 358.829 202.835 358.818 202.774 358.806C202.696 358.791 202.621 358.773 202.547 358.756C202.476 358.74 202.407 358.724 202.339 358.706C202.272 358.689 202.206 358.669 202.14 358.651C202.076 358.632 202.011 358.613 201.947 358.594C201.883 358.573 201.821 358.551 201.759 358.53C201.694 358.506 201.629 358.483 201.566 358.459C201.511 358.437 201.457 358.415 201.404 358.392C201.341 358.365 201.279 358.337 201.218 358.31C201.165 358.285 201.114 358.258 201.062 358.232C201.014 358.207 200.967 358.182 200.921 358.155C200.862 358.123 200.804 358.089 200.749 358.054C200.714 358.033 200.682 358.012 200.649 357.989C200.593 357.952 200.537 357.914 200.485 357.875C200.449 357.848 200.417 357.818 200.382 357.791C200.339 357.755 200.294 357.719 200.255 357.683C200.219 357.649 200.187 357.613 200.155 357.579C200.123 357.545 200.09 357.513 200.06 357.478C200.033 357.445 200.011 357.411 199.986 357.377C199.956 357.337 199.923 357.296 199.898 357.254C199.895 357.248 199.893 357.242 199.89 357.236C199.82 357.118 199.77 356.994 199.736 356.869C199.73 356.849 199.72 356.828 199.716 356.808C199.697 356.723 199.686 356.636 199.686 356.547C199.686 355.202 201.894 354.112 204.62 354.112H207.842C209.648 352.97 212.453 352.233 215.616 352.233C216.532 352.233 217.415 352.299 218.257 352.414C220.414 350.107 225.138 348.504 230.624 348.504C230.851 348.504 231.076 348.507 231.302 348.513C233.973 345.196 240.531 342.849 248.201 342.849Z" fill="white"/>
<path d="M210.523 332.905C217.351 332.905 223.297 335.91 226.406 340.352C230.227 340.863 233.508 342.645 235.544 345.136C236.035 345.076 236.534 345.035 237.045 345.035C241.718 345.035 245.624 347.629 246.645 351.11H248.041C250.766 351.11 252.977 352.872 252.977 355.046C252.977 355.189 252.966 355.329 252.947 355.467C252.947 355.468 252.946 355.468 252.947 355.469C252.942 355.502 252.932 355.534 252.927 355.567C252.893 355.769 252.843 355.968 252.773 356.159C252.769 356.169 252.768 356.179 252.765 356.189C252.73 356.278 252.69 356.364 252.649 356.451C252.635 356.479 252.623 356.51 252.609 356.538C252.566 356.621 252.517 356.701 252.467 356.782C252.45 356.81 252.433 356.839 252.414 356.867C252.37 356.935 252.322 357.003 252.272 357.069C252.241 357.109 252.211 357.151 252.177 357.192C252.126 357.255 252.069 357.316 252.013 357.377C251.98 357.413 251.948 357.449 251.914 357.483C251.859 357.538 251.8 357.592 251.742 357.645C251.696 357.686 251.651 357.727 251.603 357.766C251.547 357.813 251.489 357.86 251.43 357.905C251.379 357.942 251.328 357.98 251.275 358.016C251.211 358.061 251.147 358.104 251.079 358.146C251.026 358.179 250.972 358.211 250.917 358.242C250.849 358.282 250.782 358.319 250.711 358.355C250.651 358.385 250.59 358.415 250.529 358.443C250.459 358.476 250.389 358.509 250.317 358.539C250.253 358.565 250.188 358.589 250.122 358.612C250.045 358.642 249.966 358.671 249.886 358.698C249.829 358.715 249.771 358.732 249.713 358.748C249.625 358.773 249.537 358.798 249.448 358.819C249.385 358.834 249.32 358.846 249.257 358.859C249.169 358.877 249.082 358.896 248.992 358.909C248.915 358.921 248.836 358.929 248.758 358.938C248.681 358.947 248.607 358.959 248.53 358.965C248.369 358.977 248.206 358.983 248.041 358.983H166.941C166.776 358.983 166.613 358.976 166.452 358.964C166.386 358.959 166.322 358.948 166.256 358.941C166.167 358.931 166.076 358.923 165.987 358.909C165.906 358.897 165.828 358.878 165.749 358.863C165.675 358.849 165.601 358.835 165.529 358.818C165.446 358.798 165.365 358.775 165.283 358.752C165.22 358.734 165.158 358.716 165.096 358.696C165.018 358.671 164.944 358.643 164.868 358.616C164.799 358.59 164.729 358.565 164.661 358.536C164.594 358.508 164.528 358.477 164.463 358.446C164.399 358.416 164.333 358.385 164.27 358.354C164.206 358.32 164.144 358.286 164.082 358.25C164.016 358.213 163.952 358.175 163.889 358.135C163.834 358.1 163.78 358.065 163.726 358.028C163.663 357.984 163.601 357.94 163.54 357.895C163.486 357.854 163.435 357.811 163.385 357.768C163.337 357.729 163.29 357.687 163.244 357.645C163.185 357.592 163.127 357.538 163.072 357.483C163.037 357.449 163.005 357.413 162.972 357.377C162.916 357.316 162.86 357.255 162.808 357.192C162.772 357.147 162.739 357.101 162.705 357.056C162.662 356.997 162.617 356.94 162.577 356.88C162.542 356.826 162.511 356.769 162.478 356.714C162.446 356.659 162.411 356.606 162.383 356.551C162.355 356.498 162.333 356.442 162.308 356.388C162.279 356.321 162.246 356.256 162.221 356.189C162.217 356.179 162.216 356.169 162.213 356.159C162.142 355.968 162.092 355.769 162.059 355.567C162.054 355.533 162.043 355.501 162.039 355.467C162.021 355.329 162.01 355.189 162.01 355.046C162.01 352.872 164.218 351.11 166.943 351.11H170.166C171.971 349.264 174.777 348.073 177.939 348.073C178.856 348.073 179.739 348.179 180.581 348.366C182.737 344.636 187.462 342.045 192.948 342.045C193.175 342.045 193.4 342.051 193.625 342.061C196.296 336.698 202.854 332.905 210.525 332.905H210.523Z" fill="white"/>
<path d="M474.521 304.264C467.693 304.264 461.748 305.193 458.639 306.567C454.816 306.725 451.537 307.276 449.5 308.046C449.009 308.028 448.511 308.016 448 308.016C443.327 308.016 439.421 308.818 438.4 309.895H437.002C434.277 309.895 432.068 310.44 432.068 311.112C432.068 311.156 432.079 311.2 432.097 311.243C432.102 311.253 432.112 311.263 432.118 311.273C432.151 311.336 432.2 311.398 432.272 311.457C432.275 311.46 432.276 311.463 432.28 311.466C432.313 311.493 432.354 311.52 432.396 311.547C432.409 311.555 432.422 311.566 432.436 311.574C432.479 311.599 432.527 311.625 432.576 311.649C432.595 311.658 432.611 311.667 432.629 311.676C432.674 311.697 432.723 311.717 432.772 311.738C432.804 311.751 432.834 311.764 432.867 311.776C432.919 311.796 432.975 311.815 433.031 311.833C433.064 311.845 433.096 311.856 433.131 311.866C433.186 311.883 433.244 311.9 433.303 311.917C433.348 311.929 433.394 311.941 433.441 311.953C433.498 311.969 433.555 311.983 433.615 311.996C433.665 312.008 433.717 312.02 433.769 312.031C433.833 312.045 433.898 312.058 433.964 312.072C434.018 312.082 434.072 312.091 434.127 312.101C434.195 312.113 434.263 312.125 434.333 312.136C434.392 312.146 434.454 312.154 434.516 312.163C434.585 312.173 434.655 312.184 434.728 312.193C434.791 312.201 434.856 312.208 434.921 312.216C435 312.224 435.078 312.233 435.159 312.242C435.215 312.248 435.274 312.253 435.331 312.258C435.419 312.265 435.506 312.273 435.596 312.279C435.659 312.284 435.723 312.287 435.788 312.292C435.875 312.298 435.963 312.303 436.053 312.308C436.129 312.311 436.209 312.314 436.286 312.316C436.362 312.319 436.438 312.323 436.515 312.325C436.676 312.328 436.838 312.33 437.002 312.33H518.104C518.269 312.33 518.431 312.328 518.593 312.324C518.659 312.323 518.722 312.319 518.788 312.317C518.878 312.314 518.969 312.312 519.056 312.308C519.138 312.304 519.216 312.298 519.296 312.294C519.369 312.288 519.444 312.284 519.516 312.279C519.6 312.273 519.68 312.266 519.762 312.259C519.825 312.253 519.887 312.248 519.949 312.242C520.026 312.233 520.101 312.225 520.176 312.216C520.246 312.209 520.316 312.201 520.383 312.192C520.452 312.184 520.517 312.173 520.582 312.164C520.647 312.155 520.712 312.146 520.775 312.136C520.839 312.126 520.902 312.114 520.964 312.103C521.029 312.092 521.094 312.08 521.156 312.068C521.212 312.057 521.266 312.046 521.319 312.035C521.382 312.022 521.444 312.007 521.504 311.993C521.558 311.981 521.609 311.968 521.66 311.955C521.708 311.942 521.755 311.929 521.801 311.917C521.86 311.9 521.918 311.883 521.974 311.866C522.008 311.856 522.04 311.845 522.073 311.833C522.129 311.815 522.186 311.796 522.237 311.776C522.274 311.762 522.306 311.748 522.34 311.734C522.384 311.716 522.429 311.698 522.468 311.68C522.504 311.663 522.535 311.646 522.567 311.629C522.599 311.611 522.634 311.595 522.662 311.578C522.69 311.561 522.712 311.544 522.736 311.527C522.767 311.506 522.799 311.487 522.824 311.466C522.828 311.463 522.829 311.46 522.833 311.457C522.904 311.398 522.953 311.336 522.987 311.273C522.992 311.263 523.002 311.253 523.006 311.243C523.026 311.2 523.037 311.156 523.037 311.112C523.037 310.44 520.829 309.895 518.104 309.895H514.881C513.075 309.323 510.269 308.956 507.106 308.956C506.191 308.956 505.307 308.988 504.465 309.045C502.309 307.892 497.584 307.09 492.099 307.09C491.871 307.09 491.646 307.092 491.42 307.095C488.749 305.437 482.192 304.264 474.521 304.264Z" fill="white"/>
<path d="M512.199 299.291C505.371 299.291 499.426 300.794 496.317 303.014C492.495 303.271 489.214 304.161 487.178 305.406C486.688 305.377 486.189 305.356 485.678 305.356C481.005 305.356 477.099 306.653 476.077 308.394H474.681C471.956 308.394 469.746 309.274 469.746 310.362C469.746 310.433 469.757 310.504 469.776 310.573C469.78 310.59 469.79 310.605 469.795 310.622C469.829 310.723 469.879 310.822 469.95 310.919C469.953 310.923 469.954 310.928 469.958 310.933C469.992 310.978 470.032 311.021 470.074 311.064C470.087 311.079 470.1 311.093 470.114 311.107C470.157 311.149 470.206 311.19 470.255 311.23C470.273 311.244 470.289 311.258 470.308 311.272C470.352 311.307 470.401 311.341 470.45 311.373C470.482 311.393 470.512 311.415 470.545 311.434C470.597 311.467 470.653 311.496 470.709 311.527C470.742 311.545 470.774 311.562 470.809 311.58C470.864 311.608 470.922 311.635 470.981 311.661C471.026 311.682 471.072 311.702 471.119 311.721C471.176 311.746 471.233 311.768 471.293 311.792C471.343 311.81 471.395 311.828 471.447 311.847C471.511 311.869 471.576 311.89 471.643 311.912C471.696 311.928 471.751 311.944 471.806 311.96C471.873 311.979 471.941 311.998 472.011 312.016C472.071 312.032 472.132 312.046 472.193 312.06C472.263 312.077 472.334 312.093 472.406 312.108C472.469 312.122 472.534 312.133 472.6 312.145C472.678 312.16 472.757 312.174 472.837 312.188C472.893 312.197 472.952 312.204 473.009 312.212C473.097 312.225 473.185 312.238 473.274 312.249C473.337 312.256 473.402 312.262 473.466 312.268C473.553 312.277 473.641 312.286 473.731 312.294C473.807 312.3 473.887 312.304 473.964 312.308C474.041 312.312 474.116 312.318 474.193 312.321C474.354 312.327 474.517 312.33 474.681 312.33H555.782C555.947 312.33 556.109 312.327 556.271 312.32C556.337 312.318 556.4 312.313 556.467 312.309C556.556 312.304 556.647 312.301 556.735 312.294C556.816 312.287 556.895 312.278 556.974 312.27C557.048 312.263 557.122 312.256 557.194 312.248C557.278 312.238 557.358 312.226 557.44 312.214C557.503 312.206 557.565 312.197 557.627 312.187C557.704 312.174 557.779 312.16 557.855 312.146C557.924 312.134 557.994 312.121 558.062 312.107C558.13 312.093 558.195 312.077 558.26 312.061C558.326 312.047 558.39 312.032 558.453 312.016C558.517 311.999 558.58 311.982 558.642 311.964C558.708 311.945 558.772 311.926 558.834 311.907C558.89 311.889 558.944 311.871 558.997 311.853C559.06 311.831 559.122 311.809 559.183 311.785C559.237 311.765 559.288 311.745 559.338 311.723C559.386 311.703 559.433 311.683 559.479 311.661C559.538 311.635 559.596 311.608 559.652 311.58C559.686 311.562 559.719 311.545 559.751 311.527C559.807 311.496 559.864 311.467 559.915 311.434C559.952 311.413 559.985 311.389 560.018 311.366C560.062 311.337 560.107 311.309 560.147 311.279C560.182 311.252 560.213 311.223 560.245 311.196C560.277 311.168 560.312 311.142 560.34 311.114C560.368 311.088 560.39 311.059 560.415 311.032C560.445 310.999 560.477 310.967 560.502 310.933C560.506 310.928 560.507 310.923 560.511 310.919C560.582 310.822 560.632 310.723 560.665 310.622C560.67 310.605 560.681 310.589 560.685 310.573C560.704 310.504 560.715 310.433 560.715 310.362C560.715 309.274 558.507 308.394 555.782 308.394H552.559C550.754 307.471 547.947 306.875 544.785 306.875C543.87 306.875 542.985 306.928 542.143 307.021C539.987 305.157 535.262 303.861 529.777 303.861C529.549 303.861 529.324 303.864 529.099 303.868C526.428 301.187 519.871 299.291 512.199 299.291Z" fill="white"/>
<path d="M144.556 171.5C143.74 171.907 135.893 171.042 132.895 180.116H245.788C246.086 180.116 246.377 180.108 246.668 180.101C246.787 180.098 246.903 180.094 247.02 180.09C247.181 180.084 247.343 180.08 247.501 180.071C247.647 180.063 247.791 180.05 247.933 180.041C248.066 180.032 248.198 180.022 248.328 180.011C248.478 179.999 248.622 179.987 248.768 179.973C248.881 179.962 248.995 179.949 249.106 179.935C249.245 179.92 249.381 179.904 249.516 179.888C249.64 179.871 249.763 179.856 249.884 179.839C250.005 179.82 250.126 179.801 250.245 179.782C250.361 179.763 250.477 179.746 250.59 179.726C250.706 179.705 250.816 179.684 250.929 179.661C251.046 179.639 251.161 179.615 251.274 179.59C251.374 179.569 251.472 179.545 251.567 179.523C251.681 179.496 251.794 179.472 251.902 179.444C251.999 179.419 252.088 179.392 252.18 179.365C252.267 179.341 252.349 179.312 252.432 179.287C252.538 179.253 252.645 179.224 252.744 179.189C252.805 179.168 252.865 179.147 252.924 179.125C253.025 179.087 253.124 179.047 253.217 179.009C253.282 178.981 253.34 178.951 253.401 178.922C253.478 178.887 253.56 178.85 253.63 178.813C253.694 178.78 253.751 178.746 253.811 178.711C253.868 178.679 253.928 178.645 253.98 178.611C254.03 178.577 254.066 178.543 254.111 178.509C254.165 178.468 254.223 178.427 254.269 178.386C254.275 178.379 254.278 178.376 254.284 178.37C254.411 178.251 254.501 178.128 254.563 178.003C254.572 177.981 254.592 177.963 254.6 177.943C254.633 177.856 254.652 177.771 254.652 177.683C254.652 176.339 250.684 175.246 245.788 175.246H240.001C236.757 174.105 231.715 173.369 226.034 173.369C224.388 173.369 222.799 173.434 221.288 173.549C217.414 171.242 208.923 169.645 199.068 169.645C198.659 169.645 198.255 169.647 197.851 169.652C193.052 166.336 181.271 163.99 167.488 163.99C164.187 163.99 161.019 164.134 158.015 164.384C155.229 163.147 153.361 159.453 148.143 161.722C142.925 163.99 144.556 171.5 144.556 171.5Z" fill="white"/>
<path d="M421.676 440.707C421.543 439.371 421.905 438.243 422.485 438.188C423.066 438.132 423.645 439.169 423.778 440.504C423.912 441.84 423.55 442.969 422.969 443.025C422.389 443.081 421.811 442.043 421.676 440.707Z" fill="#55A1E7"/>
<path d="M425.934 400.867C425.786 399.392 425.789 398.183 425.941 398.169C426.093 398.154 426.335 399.339 426.483 400.814C426.631 402.291 426.628 403.5 426.476 403.514C426.324 403.528 426.08 402.344 425.934 400.867Z" fill="#55A1E7"/>
<path d="M421.711 402.624C421.637 401.886 421.981 401.248 422.479 401.2C422.976 401.153 423.44 401.712 423.513 402.45C423.587 403.188 423.244 403.825 422.746 403.873C422.248 403.921 421.785 403.361 421.711 402.624Z" fill="#55A1E7"/>
<path d="M233.695 404.055C233.77 403.317 233.425 402.68 232.928 402.632C232.43 402.584 231.967 403.143 231.893 403.881C231.819 404.62 232.162 405.256 232.661 405.305C233.158 405.353 233.622 404.793 233.695 404.055Z" fill="#55A1E7"/>
<path d="M240.804 202.007C240.804 181.625 224.268 165.101 203.868 165.101C183.469 165.101 172.295 181.625 172.295 202.007" fill="#E4EBF2"/>
<g filter="url(#filter1_d_36_19082)">
<path d="M385.412 165.1C405.812 165.1 422.346 181.623 422.346 202.005H422.328L422.303 258.824C423.484 299.85 425.877 388.11 426.462 449.695C426.833 488.75 441.929 493 441.929 493H263.981C263.376 493 262.779 492.985 262.182 492.955C261.587 492.984 260.987 493 260.385 493C239.985 493 223.449 476.481 223.449 456.099H223.468L223.494 399.273C222.312 358.245 219.919 269.99 219.335 208.405C218.964 169.351 203.868 165.1 203.868 165.1H381.816C382.42 165.1 383.016 165.116 383.614 165.145C384.21 165.117 384.81 165.1 385.412 165.1Z" fill="white"/>
</g>
<path d="M404.993 456.095H272.438L259.848 493H441.929L404.993 456.095Z" fill="#E4EBF2"/>
<path d="M404.994 456.095C404.994 476.478 421.53 493 441.929 493C462.328 493 473.502 476.478 473.502 456.095" fill="#E4EBF2"/>
<path d="M291.423 456.094C291.422 476.382 280.347 492.843 260.127 492.995C239.846 492.857 223.451 476.395 223.451 456.098H223.469V456.094H291.423Z" fill="white"/>
<path d="M219.113 201.688C218.706 200.665 172.275 201.688 172.275 201.688V322.305L221.701 321.704C221.701 321.704 219.52 202.711 219.113 201.688Z" fill="#E4EBF2"/>
<path d="M252.347 307.338L308.987 307.32C309.834 307.32 310.52 306.703 310.52 305.942C310.52 305.18 309.833 304.563 308.986 304.564L252.346 304.58C251.5 304.58 250.813 305.198 250.813 305.96C250.814 306.721 251.5 307.338 252.347 307.338Z" fill="#739CD3"/>
<path d="M315.187 307.319L356.932 307.306C357.778 307.306 358.465 306.689 358.464 305.927C358.464 305.166 357.777 304.549 356.931 304.549L315.186 304.562C314.339 304.562 313.653 305.179 313.653 305.941C313.653 306.702 314.34 307.319 315.187 307.319Z" fill="#739CD3"/>
<path d="M353.06 335.056L394.804 335.044C395.651 335.043 396.338 335.66 396.338 336.421C396.338 337.183 395.652 337.8 394.805 337.8L353.061 337.813C352.214 337.813 351.527 337.196 351.527 336.435C351.527 335.673 352.213 335.056 353.06 335.056Z" fill="#739CD3"/>
<path d="M353.053 314.697L394.798 314.683C395.645 314.683 396.331 315.3 396.331 316.062C396.331 316.824 395.646 317.441 394.799 317.441L353.054 317.453C352.207 317.454 351.521 316.837 351.521 316.075C351.521 315.314 352.206 314.697 353.053 314.697Z" fill="#739CD3"/>
<path d="M353.06 335.056L394.804 335.044C395.651 335.043 396.338 335.66 396.338 336.421C396.338 337.183 395.652 337.8 394.805 337.8L353.061 337.813C352.214 337.813 351.527 337.196 351.527 336.435C351.527 335.673 352.213 335.056 353.06 335.056Z" fill="#739CD3"/>
<path d="M353.053 314.697L394.798 314.683C395.645 314.683 396.331 315.3 396.331 316.062C396.331 316.824 395.646 317.441 394.799 317.441L353.054 317.453C352.207 317.454 351.521 316.837 351.521 316.075C351.521 315.314 352.206 314.697 353.053 314.697Z" fill="#739CD3"/>
<path d="M296.946 295.909L338.691 295.896C339.538 295.896 340.225 295.278 340.224 294.518C340.224 293.756 339.537 293.139 338.691 293.139L296.945 293.151C296.099 293.152 295.413 293.769 295.413 294.531C295.414 295.293 296.099 295.91 296.946 295.909Z" fill="#739CD3"/>
<path d="M329.891 347.856L288.147 347.87C287.3 347.87 286.613 348.487 286.614 349.248C286.614 350.01 287.301 350.627 288.147 350.626L329.892 350.614C330.738 350.614 331.425 349.997 331.425 349.235C331.424 348.474 330.738 347.856 329.891 347.856Z" fill="#739CD3"/>
<path d="M319.682 326.122L277.938 326.134C277.091 326.134 276.404 326.752 276.405 327.514C276.405 328.275 277.092 328.892 277.938 328.891L319.683 328.879C320.529 328.879 321.216 328.261 321.216 327.5C321.215 326.739 320.529 326.122 319.682 326.122Z" fill="#739CD3"/>
<path d="M329.891 347.856L288.147 347.87C287.3 347.87 286.613 348.487 286.614 349.248C286.614 350.01 287.301 350.627 288.147 350.626L329.892 350.614C330.738 350.614 331.425 349.997 331.425 349.235C331.424 348.474 330.738 347.856 329.891 347.856Z" fill="#739CD3"/>
<path d="M319.682 326.122L277.938 326.134C277.091 326.134 276.404 326.752 276.405 327.514C276.405 328.275 277.092 328.892 277.938 328.891L319.683 328.879C320.529 328.879 321.216 328.261 321.216 327.5C321.215 326.739 320.529 326.122 319.682 326.122Z" fill="#739CD3"/>
<path d="M314.893 364.834L356.637 364.821C357.484 364.821 358.171 364.204 358.17 363.442C358.17 362.68 357.483 362.063 356.636 362.064L314.892 362.077C314.045 362.077 313.359 362.695 313.359 363.455C313.359 364.216 314.046 364.834 314.893 364.834Z" fill="#739CD3"/>
<path d="M320.073 335.639L278.329 335.653C277.482 335.653 276.796 336.27 276.796 337.031C276.796 337.793 277.483 338.41 278.33 338.409L320.074 338.397C320.921 338.397 321.608 337.78 321.607 337.018C321.607 336.256 320.92 335.639 320.073 335.639Z" fill="#739CD3"/>
<path d="M369.458 395.584L327.713 395.596C326.867 395.596 326.181 396.214 326.181 396.975C326.181 397.735 326.868 398.353 327.714 398.353L369.459 398.341C370.306 398.34 370.992 397.723 370.992 396.961C370.992 396.2 370.305 395.584 369.458 395.584Z" fill="#739CD3"/>
<path d="M320.068 315.28L278.323 315.292C277.476 315.293 276.791 315.91 276.791 316.672C276.791 317.434 277.477 318.05 278.324 318.05L320.069 318.038C320.916 318.038 321.603 317.42 321.601 316.659C321.601 315.897 320.915 315.28 320.068 315.28Z" fill="#739CD3"/>
<path d="M320.073 335.639L278.329 335.653C277.482 335.653 276.796 336.27 276.796 337.031C276.796 337.793 277.483 338.41 278.33 338.409L320.074 338.397C320.921 338.397 321.608 337.78 321.607 337.018C321.607 336.256 320.92 335.639 320.073 335.639Z" fill="#739CD3"/>
<path d="M369.458 395.584L327.713 395.596C326.867 395.596 326.181 396.214 326.181 396.975C326.181 397.735 326.868 398.353 327.714 398.353L369.459 398.341C370.306 398.34 370.992 397.723 370.992 396.961C370.992 396.2 370.305 395.584 369.458 395.584Z" fill="#739CD3"/>
<path d="M320.068 315.28L278.323 315.292C277.476 315.293 276.791 315.91 276.791 316.672C276.791 317.434 277.477 318.05 278.324 318.05L320.069 318.038C320.916 318.038 321.603 317.42 321.601 316.659C321.601 315.897 320.915 315.28 320.068 315.28Z" fill="#739CD3"/>
<path d="M364.553 307.304L382.516 307.299C383.363 307.299 384.049 306.681 384.049 305.919C384.049 305.158 383.362 304.542 382.515 304.542L364.552 304.547C363.705 304.547 363.02 305.165 363.02 305.926C363.02 306.688 363.706 307.304 364.553 307.304Z" fill="#739CD3"/>
<path d="M327.475 335.637L345.438 335.632C346.285 335.632 346.972 336.249 346.972 337.01C346.973 337.772 346.286 338.389 345.439 338.39L327.476 338.395C326.629 338.395 325.943 337.778 325.942 337.017C325.942 336.255 326.628 335.637 327.475 335.637Z" fill="#739CD3"/>
<path d="M376.86 395.582L394.823 395.575C395.67 395.575 396.357 396.193 396.357 396.954C396.357 397.716 395.671 398.333 394.824 398.333L376.861 398.338C376.015 398.339 375.328 397.722 375.328 396.96C375.328 396.199 376.013 395.582 376.86 395.582Z" fill="#739CD3"/>
<path d="M327.469 315.278L345.432 315.273C346.279 315.273 346.966 315.889 346.966 316.651C346.967 317.412 346.28 318.029 345.433 318.029L327.47 318.036C326.623 318.036 325.938 317.419 325.937 316.657C325.937 315.896 326.622 315.278 327.469 315.278Z" fill="#739CD3"/>
<path d="M327.475 335.637L345.438 335.632C346.285 335.632 346.972 336.249 346.972 337.01C346.973 337.772 346.286 338.389 345.439 338.39L327.476 338.395C326.629 338.395 325.943 337.778 325.942 337.017C325.942 336.255 326.628 335.637 327.475 335.637Z" fill="#739CD3"/>
<path d="M376.86 395.582L394.823 395.575C395.67 395.575 396.357 396.193 396.357 396.954C396.357 397.716 395.671 398.333 394.824 398.333L376.861 398.338C376.015 398.339 375.328 397.722 375.328 396.96C375.328 396.199 376.013 395.582 376.86 395.582Z" fill="#739CD3"/>
<path d="M327.469 315.278L345.432 315.273C346.279 315.273 346.966 315.889 346.966 316.651C346.967 317.412 346.28 318.029 345.433 318.029L327.47 318.036C326.623 318.036 325.938 317.419 325.937 316.657C325.937 315.896 326.622 315.278 327.469 315.278Z" fill="#739CD3"/>
<path d="M337.293 347.854L355.255 347.849C356.102 347.849 356.788 348.466 356.789 349.227C356.789 349.989 356.102 350.606 355.255 350.607L337.293 350.612C336.447 350.612 335.76 349.995 335.76 349.234C335.759 348.473 336.446 347.854 337.293 347.854Z" fill="#739CD3"/>
<path d="M327.084 326.12L345.046 326.115C345.893 326.115 346.579 326.731 346.58 327.492C346.58 328.254 345.893 328.871 345.046 328.872L327.084 328.877C326.238 328.877 325.551 328.26 325.551 327.498C325.55 326.738 326.237 326.12 327.084 326.12Z" fill="#739CD3"/>
<path d="M337.293 347.854L355.255 347.849C356.102 347.849 356.788 348.466 356.789 349.227C356.789 349.989 356.102 350.606 355.255 350.607L337.293 350.612C336.447 350.612 335.76 349.995 335.76 349.234C335.759 348.473 336.446 347.854 337.293 347.854Z" fill="#739CD3"/>
<path d="M327.084 326.12L345.046 326.115C345.893 326.115 346.579 326.731 346.58 327.492C346.58 328.254 345.893 328.871 345.046 328.872L327.084 328.877C326.238 328.877 325.551 328.26 325.551 327.498C325.55 326.738 326.237 326.12 327.084 326.12Z" fill="#739CD3"/>
<path d="M307.491 364.836L289.528 364.841C288.681 364.841 287.994 364.224 287.994 363.463C287.994 362.703 288.68 362.085 289.527 362.084L307.49 362.079C308.336 362.079 309.023 362.696 309.023 363.457C309.023 364.219 308.337 364.836 307.491 364.836Z" fill="#739CD3"/>
<path d="M364.253 347.846L382.216 347.841C383.063 347.841 383.75 348.458 383.75 349.219C383.75 349.98 383.064 350.599 382.217 350.599L364.254 350.604C363.408 350.604 362.721 349.987 362.721 349.226C362.721 348.465 363.407 347.846 364.253 347.846Z" fill="#739CD3"/>
<path d="M354.044 326.111L372.007 326.106C372.854 326.106 373.541 326.722 373.541 327.484C373.541 328.246 372.855 328.863 372.008 328.864L354.045 328.869C353.199 328.869 352.512 328.252 352.512 327.49C352.512 326.728 353.198 326.111 354.044 326.111Z" fill="#739CD3"/>
<path d="M364.253 347.846L382.216 347.841C383.063 347.841 383.75 348.458 383.75 349.219C383.75 349.98 383.064 350.599 382.217 350.599L364.254 350.604C363.408 350.604 362.721 349.987 362.721 349.226C362.721 348.465 363.407 347.846 364.253 347.846Z" fill="#739CD3"/>
<path d="M354.044 326.111L372.007 326.106C372.854 326.106 373.541 326.722 373.541 327.484C373.541 328.246 372.855 328.863 372.008 328.864L354.045 328.869C353.199 328.869 352.512 328.252 352.512 327.49C352.512 326.728 353.198 326.111 354.044 326.111Z" fill="#739CD3"/>
<path d="M280.53 364.844L262.567 364.849C261.721 364.849 261.034 364.232 261.034 363.472C261.034 362.711 261.72 362.093 262.566 362.092L280.529 362.087C281.376 362.087 282.063 362.704 282.063 363.465C282.063 364.225 281.377 364.844 280.53 364.844Z" fill="#739CD3"/>
<path d="M280.525 347.872L262.563 347.877C261.716 347.877 261.029 348.495 261.03 349.257C261.03 350.017 261.717 350.634 262.564 350.634L280.526 350.629C281.372 350.628 282.059 350.011 282.059 349.249C282.059 348.489 281.372 347.872 280.525 347.872Z" fill="#739CD3"/>
<path d="M270.316 326.137L252.353 326.142C251.506 326.142 250.819 326.76 250.82 327.521C250.82 328.282 251.507 328.899 252.354 328.899L270.317 328.894C271.163 328.893 271.85 328.276 271.85 327.515C271.85 326.753 271.163 326.136 270.316 326.137Z" fill="#739CD3"/>
<path d="M280.525 347.872L262.563 347.877C261.716 347.877 261.029 348.495 261.03 349.257C261.03 350.017 261.717 350.634 262.564 350.634L280.526 350.629C281.372 350.628 282.059 350.011 282.059 349.249C282.059 348.489 281.372 347.872 280.525 347.872Z" fill="#739CD3"/>
<path d="M270.316 326.137L252.353 326.142C251.506 326.142 250.819 326.76 250.82 327.521C250.82 328.282 251.507 328.899 252.354 328.899L270.317 328.894C271.163 328.893 271.85 328.276 271.85 327.515C271.85 326.753 271.163 326.136 270.316 326.137Z" fill="#739CD3"/>
<path d="M364.258 364.819L382.221 364.814C383.068 364.814 383.754 364.196 383.754 363.435C383.754 362.674 383.067 362.056 382.22 362.056L364.257 362.061C363.41 362.061 362.725 362.679 362.725 363.441C362.725 364.203 363.411 364.819 364.258 364.819Z" fill="#739CD3"/>
<path d="M270.707 335.655L252.745 335.66C251.899 335.66 251.212 336.278 251.212 337.038C251.213 337.8 251.899 338.417 252.746 338.417L270.708 338.412C271.555 338.412 272.242 337.794 272.241 337.032C272.241 336.272 271.554 335.655 270.707 335.655Z" fill="#739CD3"/>
<path d="M270.701 315.295L252.739 315.301C251.892 315.301 251.206 315.919 251.206 316.679C251.207 317.441 251.892 318.058 252.739 318.058L270.702 318.052C271.549 318.052 272.236 317.435 272.235 316.673C272.235 315.911 271.548 315.294 270.701 315.295Z" fill="#739CD3"/>
<path d="M270.707 335.655L252.745 335.66C251.899 335.66 251.212 336.278 251.212 337.038C251.213 337.8 251.899 338.417 252.746 338.417L270.708 338.412C271.555 338.412 272.242 337.794 272.241 337.032C272.241 336.272 271.554 335.655 270.707 335.655Z" fill="#739CD3"/>
<path d="M270.701 315.295L252.739 315.301C251.892 315.301 251.206 315.919 251.206 316.679C251.207 317.441 251.892 318.058 252.739 318.058L270.702 318.052C271.549 318.052 272.236 317.435 272.235 316.673C272.235 315.911 271.548 315.294 270.701 315.295Z" fill="#739CD3"/>
<path d="M313.899 229.473L355.643 229.461C356.49 229.46 357.176 228.843 357.176 228.081C357.176 227.319 356.489 226.702 355.642 226.703L313.898 226.715C313.051 226.715 312.365 227.334 312.365 228.094C312.365 228.855 313.052 229.473 313.899 229.473Z" fill="#739CD3"/>
<path d="M326.479 254.664L368.223 254.652C369.07 254.651 369.757 255.268 369.757 256.029C369.757 256.791 369.071 257.408 368.224 257.409L326.48 257.421C325.633 257.421 324.946 256.804 324.946 256.043C324.945 255.282 325.632 254.664 326.479 254.664Z" fill="#739CD3"/>
<path d="M326.479 254.664L368.223 254.652C369.07 254.651 369.757 255.268 369.757 256.029C369.757 256.791 369.071 257.408 368.224 257.409L326.48 257.421C325.633 257.421 324.946 256.804 324.946 256.043C324.945 255.282 325.632 254.664 326.479 254.664Z" fill="#739CD3"/>
<path d="M318.303 271.638L276.559 271.652C275.712 271.652 275.025 271.035 275.025 270.273C275.025 269.511 275.711 268.894 276.558 268.894L318.302 268.882C319.149 268.881 319.836 269.498 319.836 270.26C319.836 271.021 319.15 271.638 318.303 271.638Z" fill="#739CD3"/>
<path d="M318.308 286.616L276.563 286.628C275.716 286.629 275.03 286.012 275.029 285.25C275.029 284.489 275.716 283.872 276.562 283.872L318.308 283.858C319.153 283.858 319.84 284.476 319.84 285.237C319.84 285.999 319.154 286.616 318.308 286.616Z" fill="#739CD3"/>
<path d="M342.848 220.807L301.104 220.819C300.257 220.819 299.57 220.202 299.57 219.441C299.57 218.68 300.256 218.061 301.103 218.061L342.847 218.049C343.694 218.049 344.381 218.666 344.381 219.427C344.381 220.187 343.695 220.807 342.848 220.807Z" fill="#739CD3"/>
<path d="M325.709 286.614L343.672 286.609C344.519 286.608 345.205 285.991 345.204 285.229C345.204 284.468 344.518 283.851 343.671 283.851L325.708 283.856C324.862 283.856 324.175 284.475 324.175 285.236C324.175 285.997 324.862 286.614 325.709 286.614Z" fill="#739CD3"/>
<path d="M288.314 228.907L306.277 228.901C307.124 228.901 307.809 228.284 307.809 227.522C307.809 226.76 307.123 226.143 306.276 226.144L288.313 226.149C287.466 226.149 286.78 226.766 286.78 227.528C286.78 228.29 287.467 228.907 288.314 228.907Z" fill="#739CD3"/>
<path d="M319.076 254.666L301.114 254.671C300.267 254.672 299.58 255.289 299.581 256.051C299.581 256.812 300.268 257.429 301.115 257.428L319.078 257.423C319.924 257.423 320.61 256.805 320.61 256.045C320.609 255.283 319.923 254.666 319.076 254.666Z" fill="#739CD3"/>
<path d="M319.076 254.666L301.114 254.671C300.267 254.672 299.58 255.289 299.581 256.051C299.581 256.812 300.268 257.429 301.115 257.428L319.078 257.423C319.924 257.423 320.61 256.805 320.61 256.045C320.609 255.283 319.923 254.666 319.076 254.666Z" fill="#739CD3"/>
<path d="M325.705 271.636L343.668 271.631C344.515 271.631 345.201 271.013 345.201 270.252C345.201 269.492 344.514 268.874 343.667 268.874L325.704 268.879C324.857 268.88 324.171 269.497 324.171 270.259C324.171 271.02 324.858 271.636 325.705 271.636Z" fill="#739CD3"/>
<path d="M292.115 254.674L274.152 254.679C273.305 254.679 272.62 255.297 272.62 256.059C272.62 256.821 273.306 257.437 274.153 257.437L292.116 257.432C292.963 257.432 293.65 256.813 293.649 256.053C293.649 255.291 292.962 254.674 292.115 254.674Z" fill="#739CD3"/>
<path d="M292.115 254.674L274.152 254.679C273.305 254.679 272.62 255.297 272.62 256.059C272.62 256.821 273.306 257.437 274.153 257.437L292.116 257.432C292.963 257.432 293.65 256.813 293.649 256.053C293.649 255.291 292.962 254.674 292.115 254.674Z" fill="#739CD3"/>
<path d="M352.665 271.628L370.628 271.623C371.475 271.623 372.162 271.005 372.161 270.244C372.161 269.483 371.474 268.866 370.627 268.866L352.664 268.871C351.818 268.871 351.131 269.489 351.131 270.25C351.131 271.012 351.818 271.629 352.665 271.628Z" fill="#739CD3"/>
<path d="M375.845 254.649L393.808 254.643C394.655 254.643 395.341 255.261 395.342 256.022C395.342 256.783 394.655 257.401 393.809 257.401L375.846 257.406C374.999 257.407 374.313 256.79 374.313 256.028C374.311 255.267 374.998 254.65 375.845 254.649Z" fill="#739CD3"/>
<path d="M375.845 254.649L393.808 254.643C394.655 254.643 395.341 255.261 395.342 256.022C395.342 256.783 394.655 257.401 393.809 257.401L375.846 257.406C374.999 257.407 374.313 256.79 374.313 256.028C374.311 255.267 374.998 254.65 375.845 254.649Z" fill="#739CD3"/>
<path d="M268.936 271.654L250.974 271.659C250.127 271.659 249.44 271.043 249.44 270.281C249.44 269.519 250.126 268.902 250.973 268.901L268.935 268.896C269.782 268.896 270.469 269.513 270.469 270.275C270.469 271.037 269.783 271.654 268.936 271.654Z" fill="#739CD3"/>
<path d="M268.941 286.631L250.978 286.636C250.131 286.636 249.445 286.019 249.444 285.258C249.444 284.497 250.131 283.879 250.978 283.879L268.941 283.874C269.788 283.874 270.474 284.491 270.475 285.252C270.475 286.013 269.788 286.63 268.941 286.631Z" fill="#739CD3"/>
<path d="M347.988 385.441C347.817 385.468 347.648 385.525 347.481 385.616C346.983 385.886 346.77 386.403 346.725 387.079C346.694 387.535 346.739 388.08 346.848 388.718C346.903 389.045 346.977 389.385 347.062 389.758C347.128 390.045 347.364 390.984 347.376 391.06C347.816 393.782 348.11 395.471 349.121 401.14C349.975 405.929 350.543 409.267 351 412.23C349.648 415.032 348.431 418.18 347.559 421.345C346.412 425.502 345.927 429.346 346.246 432.452C346.616 436.053 348.055 438.62 350.648 439.812C351.653 440.273 352.551 440.056 353.154 439.273C353.574 438.729 353.831 437.951 353.985 436.974C354.053 436.54 354.097 436.083 354.126 435.599C354.136 435.416 354.144 435.236 354.15 435.043C354.152 434.972 354.159 434.678 354.16 434.643C354.31 429.447 353.974 423.96 353.2 417.761C352.98 416 352.734 414.279 352.457 412.462C354.28 408.765 356.308 405.797 357.993 404.628C358.321 404.401 358.538 404.333 358.65 404.354C358.721 404.367 358.806 404.445 358.918 404.642C359.185 405.116 359.344 405.789 359.616 407.41C359.624 407.463 359.624 407.466 359.633 407.519C359.843 408.771 359.964 409.36 360.164 409.97C360.465 410.891 360.879 411.502 361.544 411.753C362.422 412.084 363.298 411.877 364.173 411.26C364.773 410.836 365.278 410.326 366.157 409.329C367.493 407.815 367.96 407.375 368.455 407.248C369.266 407.04 372.373 408.026 377.359 410.001C377.672 410.126 382.201 411.951 382.971 412.259C384.563 412.892 385.595 413.279 386.279 413.483C386.652 413.593 387.045 413.38 387.156 413.007C387.267 412.636 387.053 412.242 386.681 412.132C386.05 411.944 385.044 411.571 383.492 410.954C382.727 410.649 379.563 409.368 378.861 409.087C378.518 408.949 378.195 408.818 377.88 408.693C372.362 406.508 369.376 405.559 368.107 405.883C367.572 406.021 367.062 406.36 366.496 406.897C366.115 407.255 365.953 407.435 365.101 408.402C363.55 410.16 362.765 410.711 362.04 410.437C361.876 410.376 361.683 410.088 361.502 409.534C361.332 409.016 361.221 408.466 361.023 407.287C361.014 407.234 361.014 407.235 361.006 407.181C360.702 405.365 360.529 404.632 360.147 403.953C359.511 402.824 358.423 402.617 357.19 403.471C356.813 403.734 356.423 404.078 356.025 404.477C356.029 404.452 356.043 404.429 356.044 404.403C356.077 403.643 354.721 398.1 353.439 394.121C352.597 391.508 351.753 389.368 350.937 387.888C350.455 387.013 349.982 386.364 349.498 385.954C349.019 385.548 348.5 385.357 347.988 385.441ZM348.316 386.847C348.383 386.871 348.469 386.926 348.586 387.026C348.916 387.305 349.298 387.828 349.706 388.566C350.469 389.952 351.285 392.015 352.102 394.551C352.771 396.629 353.412 398.943 353.939 401.095C354.343 402.748 354.645 404.208 354.639 404.344C354.622 404.732 354.923 405.058 355.311 405.075C355.376 405.078 355.434 405.061 355.494 405.046C354.367 406.317 353.201 408.066 352.087 410.1C351.677 407.563 351.189 404.711 350.508 400.894C349.498 395.232 349.201 393.547 348.762 390.834C348.739 390.69 348.484 389.675 348.432 389.446C348.351 389.097 348.288 388.78 348.238 388.482C348.147 387.944 348.107 387.497 348.129 387.17C348.138 387.027 348.159 386.923 348.185 386.854C348.223 386.841 348.262 386.828 348.316 386.847ZM351.384 414.787C351.533 415.838 351.674 416.874 351.806 417.938C352.573 424.069 352.904 429.483 352.756 434.601C352.755 434.637 352.745 434.929 352.743 434.998C352.737 435.179 352.732 435.348 352.721 435.518C352.696 435.96 352.655 436.372 352.595 436.756C352.474 437.52 352.282 438.1 352.039 438.416C351.838 438.677 351.646 438.725 351.236 438.535C347.212 436.686 346.554 430.274 348.914 421.717C349.567 419.348 350.43 416.993 351.384 414.787Z" fill="#4C78B5"/>
<path d="M373.732 366.943L372.608 368.772L381.096 374.85L382.766 373.143L373.732 366.943Z" fill="white"/>
<path d="M332.547 339.629L328.663 341.18L331.15 350.113L334.958 349.083L332.547 339.629Z" fill="white"/>
<path d="M426.759 424.416L437.653 426.44L421.656 452.09L415.866 422.392L426.759 424.416Z" fill="#6B8CB5"/>
<path d="M423.018 444.528L425.991 445.08L421.624 452.084L420.043 443.976L423.018 444.528Z" fill="#49617F"/>
<path d="M467.402 214.771L464.343 214.202C462.22 213.808 460.179 215.208 459.785 217.329L457.783 228.084C457.388 230.205 458.789 232.245 460.912 232.639L463.971 233.207C466.094 233.602 468.135 232.202 468.53 230.081L470.532 219.326C470.925 217.204 469.525 215.165 467.402 214.771Z" fill="#5A7CA7"/>
<path d="M469.853 228.255L457.116 225.889C454.617 225.425 452.214 227.073 451.75 229.57L446.507 257.741C446.042 260.239 447.692 262.639 450.191 263.103L462.927 265.469C465.426 265.934 467.829 264.286 468.294 261.79L473.537 233.618C473.999 231.12 472.352 228.72 469.853 228.255Z" fill="#708DAF"/>
<path d="M468.966 258.174L447.269 254.143L415.956 422.409L437.653 426.44L468.966 258.174Z" fill="#87ADDB"/>
<path d="M461.066 300.627L439.369 296.596L437.807 304.989L459.504 309.02L461.066 300.627Z" fill="#708DAF"/>
<path d="M480.343 239.087C480.343 239.087 478.695 237.431 476.973 236.174C475.25 234.918 473.453 234.061 473.453 234.061L471.216 246.082C471.216 246.082 472.773 246.289 474.266 246.851C475.759 247.415 478.574 248.59 478.574 248.59L480.343 239.087Z" fill="#87ADDB"/>
<path d="M482.821 235.802C481.824 235.617 480.866 236.273 480.681 237.27L469.269 298.594C469.084 299.591 469.741 300.547 470.738 300.732C471.734 300.917 472.692 300.26 472.877 299.265L484.289 237.94C484.475 236.944 483.817 235.987 482.821 235.802Z" fill="#5A7CA7"/>
<path d="M470.652 291.167C469.073 290.874 467.554 291.916 467.261 293.493C466.968 295.071 468.009 296.588 469.589 296.882" fill="#5A7CA7"/>
<defs>
<filter id="filter0_f_36_19082" x="0.199997" y="0.199997" width="664.046" height="653.6" filterUnits="userSpaceOnUse" color-interpolation-filters="sRGB">
<feFlood flood-opacity="0" result="BackgroundImageFix"/>
<feBlend mode="normal" in="SourceGraphic" in2="BackgroundImageFix" result="shape"/>
<feGaussianBlur stdDeviation="79.4" result="effect1_foregroundBlur_36_19082"/>
</filter>
<filter id="filter1_d_36_19082" x="187.868" y="153.1" width="270.061" height="359.9" filterUnits="userSpaceOnUse" color-interpolation-filters="sRGB">
<feFlood flood-opacity="0" result="BackgroundImageFix"/>
<feColorMatrix in="SourceAlpha" type="matrix" values="0 0 0 0 0 0 0 0 0 0 0 0 0 0 0 0 0 0 127 0" result="hardAlpha"/>
<feOffset dy="4"/>
<feGaussianBlur stdDeviation="8"/>
<feComposite in2="hardAlpha" operator="out"/>
<feColorMatrix type="matrix" values="0 0 0 0 0 0 0 0 0 0 0 0 0 0 0 0 0 0 0.05 0"/>
<feBlend mode="normal" in2="BackgroundImageFix" result="effect1_dropShadow_36_19082"/>
<feBlend mode="normal" in="SourceGraphic" in2="effect1_dropShadow_36_19082" result="shape"/>
</filter>
<radialGradient id="paint0_radial_36_19082" cx="0" cy="0" r="1" gradientUnits="userSpaceOnUse" gradientTransform="translate(332.223 327) rotate(110.863) scale(171.45 231.778)">
<stop stop-color="#C4D8E8"/>
<stop offset="1" stop-color="#ECF2F8"/>
</radialGradient>
</defs>
</svg>
