<svg width="32" height="33" viewBox="0 0 32 33" fill="none" xmlns="http://www.w3.org/2000/svg">
<g clip-path="url(#clip0_1531_270)">
<path d="M6.375 3.00006H3.5C3.15481 3.00006 2.875 3.27994 2.875 3.62506V6.62506C2.875 6.97019 3.15481 7.25006 3.5 7.25006H6.375C6.72019 7.25006 7 6.97019 7 6.62506V3.62506C7 3.27994 6.72019 3.00006 6.375 3.00006ZM5.75 6.00006H4.125V4.25006H5.75V6.00006Z" fill="#1E293B"/>
<path d="M6.375 8.50006H3.5C3.15481 8.50006 2.875 8.77994 2.875 9.12506V12.1251C2.875 12.4702 3.15481 12.7501 3.5 12.7501H6.375C6.72019 12.7501 7 12.4702 7 12.1251V9.12506C7 8.77994 6.72019 8.50006 6.375 8.50006ZM5.75 11.5001H4.125V9.75006H5.75V11.5001Z" fill="#1E293B"/>
<path d="M6.375 14.0001H3.5C3.15481 14.0001 2.875 14.2799 2.875 14.6251V17.6251C2.875 17.9702 3.15481 18.2501 3.5 18.2501H6.375C6.72019 18.2501 7 17.9702 7 17.6251V14.6251C7 14.2799 6.72019 14.0001 6.375 14.0001ZM5.75 17.0001H4.125V15.2501H5.75V17.0001Z" fill="#1E293B"/>
<path d="M6.375 19.5001H3.5C3.15481 19.5001 2.875 19.7799 2.875 20.1251V23.1251C2.875 23.4702 3.15481 23.7501 3.5 23.7501H6.375C6.72019 23.7501 7 23.4702 7 23.1251V20.1251C7 19.7799 6.72019 19.5001 6.375 19.5001ZM5.75 22.5001H4.125V20.7501H5.75V22.5001Z" fill="#1E293B"/>
<path d="M17.375 3.00006H14.625C14.2798 3.00006 14 3.27994 14 3.62506V6.62506C14 6.97019 14.2798 7.25006 14.625 7.25006H17.375C17.7202 7.25006 18 6.97019 18 6.62506V3.62506C18 3.27994 17.7202 3.00006 17.375 3.00006ZM16.75 6.00006H15.25V4.25006H16.75V6.00006Z" fill="#1E293B"/>
<path d="M17.375 8.50006H14.625C14.2798 8.50006 14 8.77994 14 9.12506V12.1251C14 12.4702 14.2798 12.7501 14.625 12.7501H17.375C17.7202 12.7501 18 12.4702 18 12.1251V9.12506C18 8.77994 17.7202 8.50006 17.375 8.50006ZM16.75 11.5001H15.25V9.75006H16.75V11.5001Z" fill="#1E293B"/>
<path d="M17.375 14.0001H14.625C14.2798 14.0001 14 14.2799 14 14.6251V17.6251C14 17.9702 14.2798 18.2501 14.625 18.2501H17.375C17.7202 18.2501 18 17.9702 18 17.6251V14.6251C18 14.2799 17.7202 14.0001 17.375 14.0001ZM16.75 17.0001H15.25V15.2501H16.75V17.0001Z" fill="#1E293B"/>
<path d="M17.375 19.5001H14.625C14.2798 19.5001 14 19.7799 14 20.1251V23.1251C14 23.4702 14.2798 23.7501 14.625 23.7501H17.375C17.7202 23.7501 18 23.4702 18 23.1251V20.1251C18 19.7799 17.7202 19.5001 17.375 19.5001ZM16.75 22.5001H15.25V20.7501H16.75V22.5001Z" fill="#1E293B"/>
<path d="M31.375 0.5H22.75C22.4048 0.5 22.125 0.779875 22.125 1.125V10.5626C22.125 10.9077 22.4048 11.1876 22.75 11.1876C23.0952 11.1876 23.375 10.9077 23.375 10.5626V1.75H30.75V25.0001H23.375V16.1876C23.375 15.8424 23.0952 15.5626 22.75 15.5626C22.4048 15.5626 22.125 15.8424 22.125 16.1876V25.0001H20.875V1.125C20.875 0.779875 20.5952 0.5 20.25 0.5H11.75C11.4048 0.5 11.125 0.779875 11.125 1.125V25.0001H9.875V1.125C9.875 0.779875 9.59519 0.5 9.25 0.5H0.625C0.279813 0.5 0 0.779875 0 1.125V31.875C0 32.2201 0.279813 32.5 0.625 32.5H31.375C31.7202 32.5 32 32.2201 32 31.875V1.125C32 0.779875 31.7202 0.5 31.375 0.5ZM12.375 1.75H19.625V25.0001H12.375V1.75ZM1.25 1.75H8.625V25.0001H1.25V1.75ZM13.2782 31.25H7.72175V28.7501H13.2782V31.25ZM24.2782 31.25H18.7218V28.7501H24.2782V31.25ZM30.75 31.25H25.5282V28.1251C25.5282 27.7799 25.2484 27.5001 24.9032 27.5001H18.0968C17.7516 27.5001 17.4718 27.7799 17.4718 28.1251V31.25H14.5282V28.1251C14.5282 27.7799 14.2484 27.5001 13.9032 27.5001H7.09675C6.75156 27.5001 6.47175 27.7799 6.47175 28.1251V31.25H1.25V26.2501H30.75V31.25Z" fill="#1E293B"/>
<path d="M25.625 7.25006H28.5C28.8452 7.25006 29.125 6.97019 29.125 6.62506V3.62506C29.125 3.27994 28.8452 3.00006 28.5 3.00006H25.625C25.2798 3.00006 25 3.27994 25 3.62506V6.62506C25 6.97019 25.2798 7.25006 25.625 7.25006ZM26.25 4.25006H27.875V6.00006H26.25V4.25006Z" fill="#1E293B"/>
<path d="M25 12.1251C25 12.4702 25.2798 12.7501 25.625 12.7501H28.5C28.8452 12.7501 29.125 12.4702 29.125 12.1251V9.12506C29.125 8.77994 28.8452 8.50006 28.5 8.50006H25.625C25.2798 8.50006 25 8.77994 25 9.12506V12.1251ZM26.25 9.75006H27.875V11.5001H26.25V9.75006Z" fill="#1E293B"/>
<path d="M25 17.6251C25 17.9702 25.2798 18.2501 25.625 18.2501H28.5C28.8452 18.2501 29.125 17.9702 29.125 17.6251V14.6251C29.125 14.2799 28.8452 14.0001 28.5 14.0001H25.625C25.2798 14.0001 25 14.2799 25 14.6251V17.6251ZM26.25 15.2501H27.875V17.0001H26.25V15.2501Z" fill="#1E293B"/>
<path d="M25 23.1251C25 23.4702 25.2798 23.7501 25.625 23.7501H28.5C28.8452 23.7501 29.125 23.4702 29.125 23.1251V20.1251C29.125 19.7799 28.8452 19.5001 28.5 19.5001H25.625C25.2798 19.5001 25 19.7799 25 20.1251V23.1251ZM26.25 20.7501H27.875V22.5001H26.25V20.7501Z" fill="#1E293B"/>
<path d="M22.75 14.0001C23.0952 14.0001 23.375 13.7203 23.375 13.3751C23.375 13.0299 23.0952 12.7501 22.75 12.7501C22.4048 12.7501 22.125 13.0299 22.125 13.3751C22.125 13.7203 22.4048 14.0001 22.75 14.0001Z" fill="#1E293B"/>
</g>
<defs>
<clipPath id="clip0_1531_270">
<rect width="32" height="32" fill="white" transform="translate(0 0.5)"/>
</clipPath>
</defs>
</svg>
