<svg width="32" height="32" viewBox="0 0 32 32" fill="none" xmlns="http://www.w3.org/2000/svg">
<g clip-path="url(#clip0_14_24081)">
<g clip-path="url(#clip1_14_24081)">
<path d="M31.3012 13.2721L31.1862 13.1341C30.7978 12.6693 30.4624 12.2681 30.3672 11.7371C30.3307 11.5284 30.2303 11.3362 30.0797 11.1871C29.9292 11.038 29.736 10.9394 29.5269 10.9051C29.4248 10.6401 29.3287 10.3731 29.2322 10.1062L29.0811 9.69006C29.075 9.67346 29.0701 9.65563 29.0648 9.6378C29.0253 9.46819 28.9361 9.31424 28.8084 9.19576C28.7074 9.11004 28.6073 9.00771 28.5016 8.89928C28.1946 8.52671 27.7857 8.25173 27.3249 8.108C27.2946 7.92898 27.2622 7.74582 27.2214 7.56314C27.1887 7.41685 26.9832 6.63461 26.9832 6.63461C26.9211 6.37568 26.8855 6.11115 26.8767 5.84504C26.9054 5.42492 26.8028 5.00627 26.5833 4.64695C26.3637 4.28763 26.0379 4.0054 25.651 3.83926C25.5458 3.21908 25.3572 2.61599 25.0902 2.04643C24.9694 1.75654 24.8554 1.48276 24.7631 1.20288C24.6669 0.91154 24.3415 0.479505 23.9248 0.500755C23.7603 0.522827 23.6024 0.579488 23.4615 0.667006C23.3205 0.754523 23.1997 0.870912 23.107 1.0085C22.9742 1.19576 22.8682 1.40059 22.7921 1.61711C22.7921 1.61711 22.1512 3.61654 22.0096 4.86231C21.9433 5.32977 21.8416 5.79153 21.7055 6.24363L21.6984 6.26951C21.6706 6.25657 21.6422 6.24363 21.6142 6.23093C21.3771 6.13251 21.1499 6.01173 20.9357 5.87021C20.4436 5.51438 19.2298 4.5607 19.1046 4.46276C19.1864 4.32488 19.2437 4.17382 19.2738 4.01633C19.2835 3.95991 19.2848 3.95258 19.3822 3.88958C19.6116 3.75128 19.7979 3.5518 19.9203 3.31351C20.0427 3.07521 20.0962 2.80754 20.075 2.5405C20.0511 2.24304 19.8436 1.77658 19.4571 1.67034C19.3641 1.64494 19.2716 1.61197 19.1783 1.57949C18.7887 1.44273 18.2643 1.25957 17.6933 1.52919C17.6804 1.52552 16.21 1.13648 15.6283 0.96601C15.3798 0.899566 15.12 0.887048 14.8663 0.929297C14.6125 0.971546 14.3708 1.06758 14.1572 1.21096C14.0596 1.26883 13.9846 1.35814 13.9445 1.46424C13.9043 1.57034 13.9015 1.68694 13.9363 1.7949C13.7331 1.86228 13.5507 1.98097 13.4068 2.13949C13.0501 2.57113 12.7206 3.02446 12.42 3.49688C12.3651 3.57942 12.3099 3.66246 12.2535 3.74623C12.194 3.67614 12.0119 3.49834 12.0119 3.49834C11.4135 2.88926 10.9812 2.84798 10.2974 3.33618C10.106 3.47294 9.05652 4.23565 8.71841 4.4679C8.51725 4.60589 8.04488 4.93046 8.03243 5.48215C7.52051 5.85825 6.78155 6.57993 6.53816 7.07228C6.42398 7.27489 6.38729 7.51209 6.4349 7.73973C6.20225 8.1383 5.96423 8.42819 5.58193 8.5503C5.39568 8.61447 5.21507 8.69395 5.04193 8.78793C4.94795 8.8358 3.52496 9.41753 3.27668 9.52084C3.27668 9.52084 2.58704 9.80707 2.3041 9.9724C1.78265 10.2704 1.27697 10.5951 0.789082 10.9454C0.634621 11.0572 0.506143 11.2011 0.412442 11.3671C0.318741 11.5332 0.26203 11.7176 0.246189 11.9076C0.245457 12.0751 0.240087 12.2437 0.234717 12.4117C0.213717 13.0811 0.191994 13.7691 0.433432 14.4221C0.308056 14.5019 0.201252 14.6077 0.120224 14.7323C-0.193228 15.2346 0.188822 15.6615 0.332854 15.8222C0.332854 15.8222 1.21438 16.7727 1.29933 17.1327C1.34098 17.283 1.4177 17.4212 1.52319 17.5359C1.53589 17.5513 1.54882 17.5665 1.56005 17.5816C1.8077 17.8673 1.98169 18.2092 2.06685 18.5776C2.12806 18.8674 2.25141 19.1405 2.4284 19.3781C2.70145 19.7361 2.82722 20.1849 2.77993 20.6327L2.77651 20.659C2.77017 20.7079 2.76162 20.775 2.76187 20.779C2.65915 20.8497 2.57143 20.94 2.50378 21.0447C2.43612 21.1495 2.38986 21.2666 2.36767 21.3893C2.34548 21.512 2.34779 21.6378 2.37446 21.7597C2.40114 21.8815 2.45167 21.9968 2.52312 22.099C2.64944 22.3166 2.8245 22.502 3.03455 22.6406C3.2446 22.7793 3.48392 22.8673 3.73372 22.8978C3.87677 22.9164 4.0208 22.9313 4.16459 22.9464C4.4608 22.9708 4.7552 23.0136 5.04612 23.0744C5.9938 23.294 6.43956 22.7852 6.6207 22.4616C6.73477 22.2638 6.90837 22.1071 7.11675 22.0137C7.35615 21.8984 7.62022 21.8436 7.88575 21.8543C9.0385 21.9688 10.0047 21.537 10.8394 20.5325C10.9922 20.4278 11.163 20.3521 11.3432 20.3093L11.4831 20.2636C11.8195 20.1501 13.878 19.7061 14.5847 19.5854C14.6145 19.593 15.0502 19.7376 15.0502 19.7376C15.3266 19.8194 15.5878 19.8966 15.8444 19.9882C15.9487 20.0193 16.0481 20.0652 16.1395 20.1244C16.5142 20.4856 16.8103 20.9202 17.0096 21.401C17.0567 21.5593 17.144 21.7027 17.2629 21.8173C17.3818 21.9319 17.5283 22.0139 17.6882 22.0553C17.858 22.0856 18.0328 22.0716 18.1956 22.0146C18.3584 21.9576 18.5038 21.8596 18.6176 21.73C18.7069 21.6452 18.8846 21.4664 19.098 21.2488C19.1188 21.9305 19.1651 22.0531 19.1964 22.1363L19.2081 22.1674C19.2955 22.4811 19.4871 22.7557 19.7513 22.9462L19.7476 22.9581C19.6361 23.208 19.611 23.4879 19.6765 23.7536C19.742 24.0193 19.8943 24.2555 20.1092 24.4249L20.1438 24.4613C20.228 24.5456 20.3214 24.6201 20.4224 24.6833C20.4578 24.707 20.5112 24.7427 20.5188 24.7488C20.654 24.9551 20.8368 25.1261 21.0517 25.2473C21.2666 25.3685 21.5075 25.4364 21.754 25.4453C22.0189 25.4607 22.2833 25.4807 22.5477 25.5007C22.9063 25.5281 23.2769 25.5562 23.6453 25.5723C23.7065 25.568 23.7678 25.5795 23.8233 25.6056C23.8789 25.6318 23.9268 25.6716 23.9626 25.7215C24.2731 26.1081 24.5788 26.2998 24.9113 26.2998C25.2352 26.276 25.5422 26.1455 25.784 25.9286L25.8111 25.9081C25.8944 25.8475 25.9719 25.7794 26.0428 25.7047C26.3399 25.3796 26.5506 25.3347 26.7778 25.3654C26.9727 25.3866 27.1695 25.3839 27.3637 25.3576C27.4326 25.3505 27.5014 25.3435 27.5695 25.3405C27.8283 25.3501 28.0805 25.2571 28.271 25.0817C28.4615 24.9063 28.575 24.6627 28.5868 24.4039C28.6156 24.1859 28.6402 23.9668 28.6598 23.748C28.6625 23.6526 28.6855 23.5589 28.7272 23.4731C28.7689 23.3873 28.8284 23.3113 28.9017 23.2502C29.1689 23.0418 29.3799 22.77 29.5157 22.4595C29.8115 21.8642 30.1519 21.2922 30.5339 20.7482C31.0436 19.9923 31.415 19.1519 31.631 18.2662C31.7938 17.5203 31.894 16.7621 31.9308 15.9996C31.9488 15.7602 31.9669 15.5209 31.9891 15.283C32.0164 14.9187 31.9694 14.5527 31.8512 14.207C31.733 13.8614 31.5458 13.5433 31.3012 13.2721ZM30.9936 15.1897C30.9706 15.4337 30.9521 15.6789 30.9335 15.9241C30.9007 16.6312 30.8094 17.3343 30.6604 18.0263C30.4711 18.7953 30.1491 19.5253 29.7088 20.1835L29.5647 20.3926C29.1704 20.92 28.8408 21.4929 28.5831 22.099C28.5035 22.2542 28.3891 22.3889 28.2489 22.4926C28.0778 22.6376 27.9377 22.8156 27.8371 23.0161C27.7366 23.2165 27.6776 23.4352 27.6637 23.6591C27.6457 23.8642 27.6225 24.0691 27.5956 24.2728C27.593 24.2941 27.5891 24.3153 27.5842 24.3363C27.5703 24.3382 27.0095 24.3871 26.9158 24.3749C26.6137 24.339 26.3076 24.3803 26.0258 24.4948C25.744 24.6094 25.4959 24.7935 25.3046 25.0299C25.2858 25.0506 24.9652 25.28 24.9311 25.2946C24.8603 25.2356 24.7968 25.1685 24.7419 25.0946C24.6168 24.9343 24.4573 24.8042 24.2752 24.7139C24.0931 24.6236 23.893 24.5754 23.6897 24.5729C23.3364 24.5575 22.9739 24.5299 22.6234 24.5033C22.3531 24.4828 22.0829 24.4623 21.8119 24.4464C21.7171 24.4472 21.6238 24.423 21.5413 24.3763C21.4587 24.3297 21.3899 24.2621 21.3417 24.1805C21.2429 24.0482 21.1193 23.9365 20.9778 23.8515C20.9395 23.8277 20.9031 23.8012 20.8686 23.7721C20.7902 23.6927 20.7168 23.6085 20.6487 23.5201C20.6544 23.424 20.6742 23.3293 20.7075 23.239C20.7852 23.0154 20.82 22.7792 20.81 22.5427C20.7999 22.4176 20.7431 22.3008 20.6508 22.2157C20.5585 22.1305 20.4376 22.0832 20.312 22.0831C20.3032 22.0831 20.2669 22.0829 20.2639 22.0836C20.2146 21.9989 20.1745 21.9092 20.1443 21.8159L20.1392 21.8052C20.1289 21.7634 20.0786 21.4823 20.0887 20.0309C20.0894 19.931 20.0602 19.8332 20.0049 19.7501C19.9495 19.6669 19.8705 19.6023 19.778 19.5645C19.6856 19.5267 19.5839 19.5175 19.4861 19.538C19.3884 19.5586 19.299 19.6079 19.2296 19.6797C18.5463 20.3858 18.0722 20.8686 17.9284 21.0054C17.6807 20.4113 17.3152 19.8737 16.854 19.4248C16.6613 19.2492 16.4311 19.1198 16.181 19.0462C15.8978 18.9451 15.1581 18.7263 15.1581 18.7263C15.1242 18.716 15.0898 18.7028 15.0549 18.6896C14.8654 18.6039 14.6564 18.5708 14.4497 18.5937C13.7564 18.7094 11.5903 19.172 11.1636 19.3156L11.0364 19.3573C10.6702 19.441 10.3352 19.6268 10.0704 19.8931C9.44763 20.6427 8.8051 20.9411 7.98485 20.8588C7.54028 20.8299 7.09573 20.9155 6.69369 21.1074C6.29518 21.2889 5.96425 21.5918 5.7482 21.9727C5.6984 22.0616 5.62956 22.1837 5.2729 22.0999C4.94157 22.0295 4.60613 21.9799 4.26858 21.9515C4.13261 21.9373 3.99663 21.9231 3.86139 21.9058C3.75878 21.8942 3.66057 21.8577 3.57536 21.7993C3.49016 21.741 3.42056 21.6627 3.37265 21.5712C3.49133 21.4765 3.58813 21.3574 3.65644 21.2218C3.72474 21.0862 3.76293 20.9375 3.76838 20.7858L3.77155 20.7609C3.84957 20.0742 3.66735 19.3832 3.26085 18.8242C3.16961 18.7027 3.09984 18.5665 3.05456 18.4215C2.9485 17.8911 2.70991 17.3961 2.36101 16.9828C2.34026 16.9549 2.27215 16.8731 2.2619 16.8599C2.09554 16.3379 1.79502 15.8688 1.39039 15.4994C1.30397 15.4075 1.21755 15.3157 1.13577 15.2207C1.13577 15.2207 1.12014 15.176 1.12771 15.1721C1.20412 15.1294 1.28273 15.0847 1.35792 15.0344C1.46438 14.9629 1.53934 14.8532 1.56732 14.7281C1.5953 14.6029 1.57418 14.4718 1.5083 14.3618C1.19045 13.8313 1.21169 13.157 1.23415 12.4432C1.23976 12.2661 1.24538 12.0886 1.24391 11.9357C1.27336 11.8637 1.32056 11.8003 1.38111 11.7515C1.84089 11.422 2.3174 11.1165 2.80874 10.8362C3.03308 10.7048 4.89329 9.95163 5.14254 9.84783C5.26265 9.79777 5.37958 9.73866 5.49604 9.67908C5.62154 9.61056 5.75212 9.55177 5.88662 9.50325C6.63339 9.26416 7.03424 8.7066 7.32767 8.19325C7.44071 7.99536 7.47406 7.76183 7.42092 7.54021C7.54225 7.21515 8.45209 6.36843 8.76067 6.18942C8.86837 6.14332 8.95792 6.06308 9.01554 5.96107C9.05646 5.8941 9.07961 5.81779 9.08282 5.73937C9.08602 5.66095 9.06917 5.58301 9.03385 5.51292C9.03897 5.49803 9.07217 5.43819 9.28432 5.29264C9.63341 5.05281 11.0593 4.02977 11.0947 4.01243C11.1287 4.03685 11.4687 4.36387 11.5058 4.41124C11.6196 4.5687 11.7733 4.69303 11.951 4.77149C12.1288 4.84994 12.3242 4.87969 12.5172 4.85768C12.5836 4.84702 12.6472 4.82305 12.7042 4.78721C12.7611 4.75137 12.8102 4.70439 12.8485 4.6491C12.9889 4.44664 13.8404 3.16888 14.1636 2.79302C14.2791 2.73039 14.4029 2.68427 14.5312 2.65602C14.6564 2.62233 14.7799 2.5824 14.9011 2.53636C15.0223 2.48831 15.1199 2.39484 15.1731 2.27586C15.2264 2.15689 15.2311 2.02181 15.1862 1.89943C15.2399 1.90114 17.4102 2.48849 17.4102 2.48849C17.5173 2.52873 17.6315 2.54673 17.7459 2.5414C17.8602 2.53607 17.9722 2.50751 18.0752 2.45747C18.2753 2.34122 18.4555 2.38616 18.8483 2.52366C18.9225 2.54955 19.2344 2.78206 18.838 3.0502C18.6933 3.13415 18.569 3.24911 18.474 3.38681C18.379 3.52452 18.3156 3.68155 18.2885 3.84664C18.2233 4.02164 18.1327 4.18603 18.0194 4.3345C17.742 4.8585 18.5354 5.2867 18.8622 5.54369C19.3436 5.92224 19.8416 6.31348 20.3506 6.68128C20.6173 6.86238 20.9015 7.01635 21.1989 7.1409C21.5116 7.28503 21.8275 7.41118 22.1647 7.25471C22.3001 7.17641 22.416 7.06837 22.5036 6.93874C22.5911 6.80911 22.6481 6.66128 22.6702 6.50641C22.8201 6.00529 22.9314 5.49346 23.0032 4.97538C23.0964 3.98056 23.3265 3.00338 23.6873 2.07159L23.7209 1.98759C23.7609 1.87779 23.8093 1.77124 23.8657 1.66888C23.9587 1.93069 24.0644 2.18468 24.1674 2.43159C24.4441 2.9921 24.6178 3.59779 24.6801 4.21975C24.6839 4.32594 24.7214 4.42816 24.7872 4.5116C24.853 4.59503 24.9437 4.65534 25.046 4.68377C25.6195 4.84325 25.8834 5.20885 25.8768 5.8343C25.8834 6.17021 25.9256 6.50446 26.0028 6.83146C26.0028 6.83146 26.3211 8.16857 26.3543 8.36639C26.3699 8.4592 26.3858 8.55297 26.4026 8.64724C26.4232 8.76281 26.4838 8.86744 26.5738 8.94281C26.6638 9.01819 26.7774 9.05949 26.8948 9.05949C26.8987 9.05925 26.9023 9.05949 26.9062 9.05949C27.2439 9.05949 27.4509 9.25463 27.7861 9.59799C27.8859 9.70033 27.9884 9.80534 28.1015 9.9062C28.1034 9.9128 28.5319 11.1105 28.6615 11.4385C28.7197 11.5612 28.8091 11.6666 28.9206 11.7442C29.0322 11.8217 29.1621 11.8688 29.2974 11.8807C29.3511 11.8864 29.377 11.901 29.3829 11.9137C29.5252 12.7062 30.0002 13.2743 30.4192 13.7757L30.5312 13.9102C30.6924 14.08 30.8167 14.2814 30.8963 14.5016C30.9759 14.7218 31.009 14.9561 30.9936 15.1897Z" fill="#1E293B"/>
<path d="M26.5747 27.4714C26.4404 27.383 26.2852 27.3315 26.1247 27.3222C25.9642 27.3129 25.8041 27.3461 25.6604 27.4184C25.5267 27.4769 25.3792 27.497 25.2347 27.4764C25.0901 27.4558 24.9541 27.3952 24.8421 27.3016C24.3748 26.9922 23.7021 26.9131 23.2817 27.3363C22.9329 27.6874 22.9833 28.1277 23.1099 28.5635C23.2241 28.9345 23.3178 29.3115 23.3904 29.6928C23.4874 30.2498 23.7582 30.7619 24.164 31.1557C24.2803 31.2694 24.4183 31.3584 24.5698 31.4175C24.7213 31.4766 24.8831 31.5046 25.0457 31.4997C25.2082 31.4948 25.3681 31.4571 25.5158 31.389C25.6634 31.3209 25.7958 31.2237 25.9051 31.1032C26.5115 30.3983 27.062 29.6239 26.9951 28.7357C27.0095 28.3208 26.9755 27.7544 26.5747 27.4714ZM25.9966 28.7936C26.0462 29.3247 25.6177 29.9038 25.1473 30.4506C25.1294 30.4697 25.1078 30.4848 25.0837 30.4951C25.0597 30.5053 25.0337 30.5104 25.0076 30.5101C24.9814 30.5097 24.9557 30.5039 24.9319 30.4931C24.9081 30.4822 24.8869 30.4665 24.8695 30.4469C24.6104 30.1994 24.4373 29.8754 24.3756 29.5223C24.2971 29.1044 24.1951 28.6911 24.0702 28.2846C24.0702 28.2846 24.0109 28.0861 24.0033 28.0392C24.0297 28.0421 24.2775 28.1278 24.2919 28.1369C24.532 28.314 24.8129 28.4279 25.1086 28.4679C25.4043 28.5078 25.7053 28.4727 25.9839 28.3657C25.9944 28.4402 25.9966 28.7936 25.9966 28.7936Z" fill="#1E293B"/>
</g>
</g>
<defs>
<clipPath id="clip0_14_24081">
<rect width="32" height="32" fill="white"/>
</clipPath>
<clipPath id="clip1_14_24081">
<rect width="32" height="32" fill="white"/>
</clipPath>
</defs>
</svg>
