<svg width="22" height="32" viewBox="0 0 22 32" fill="none" xmlns="http://www.w3.org/2000/svg">
<path d="M6.34961 25.75H3.84961C3.50442 25.75 3.22461 26.0299 3.22461 26.375V28.875C3.22461 29.2201 3.50442 29.5 3.84961 29.5H6.34961C6.6948 29.5 6.97461 29.2201 6.97461 28.875V26.375C6.97461 26.0299 6.6948 25.75 6.34961 25.75ZM5.72461 28.25H4.47461V27H5.72461V28.25Z" fill="#475569" stroke="white" stroke-width="0.2"/>
<path d="M18.1516 25.75H9.09961C8.75442 25.75 8.47461 26.0299 8.47461 26.375V28.875C8.47461 29.2201 8.75442 29.5 9.09961 29.5H18.1516C18.4967 29.5 18.7766 29.2201 18.7766 28.875V26.375C18.7766 26.0299 18.4967 25.75 18.1516 25.75ZM17.5266 28.25H9.72461V27H17.5266V28.25Z" fill="#475569" stroke="white" stroke-width="0.2"/>
<path d="M6.34961 20.75H3.84961C3.50442 20.75 3.22461 21.0299 3.22461 21.375V23.875C3.22461 24.2201 3.50442 24.5 3.84961 24.5H6.34961C6.6948 24.5 6.97461 24.2201 6.97461 23.875V21.375C6.97461 21.0299 6.6948 20.75 6.34961 20.75ZM5.72461 23.25H4.47461V22H5.72461V23.25Z" fill="#475569" stroke="white" stroke-width="0.2"/>
<path d="M18.1516 20.75H9.09961C8.75442 20.75 8.47461 21.0299 8.47461 21.375V23.875C8.47461 24.2201 8.75442 24.5 9.09961 24.5H18.1516C18.4967 24.5 18.7766 24.2201 18.7766 23.875V21.375C18.7766 21.0299 18.4967 20.75 18.1516 20.75ZM17.5266 23.25H9.72461V22H17.5266V23.25Z" fill="#475569" stroke="white" stroke-width="0.2"/>
<path d="M6.34961 15.75H3.84961C3.50442 15.75 3.22461 16.0299 3.22461 16.375V18.875C3.22461 19.2201 3.50442 19.5 3.84961 19.5H6.34961C6.6948 19.5 6.97461 19.2201 6.97461 18.875V16.375C6.97461 16.0299 6.6948 15.75 6.34961 15.75ZM5.72461 18.25H4.47461V17H5.72461V18.25Z" fill="#475569" stroke="white" stroke-width="0.2"/>
<path d="M18.1516 15.75H9.09961C8.75442 15.75 8.47461 16.0299 8.47461 16.375V18.875C8.47461 19.2201 8.75442 19.5 9.09961 19.5H18.1516C18.4967 19.5 18.7766 19.2201 18.7766 18.875V16.375C18.7766 16.0299 18.4967 15.75 18.1516 15.75ZM17.5266 18.25H9.72461V17H17.5266V18.25Z" fill="#475569" stroke="white" stroke-width="0.2"/>
<path d="M6.34961 10.75H3.84961C3.50442 10.75 3.22461 11.0299 3.22461 11.375V13.875C3.22461 14.2201 3.50442 14.5 3.84961 14.5H6.34961C6.6948 14.5 6.97461 14.2201 6.97461 13.875V11.375C6.97461 11.0299 6.6948 10.75 6.34961 10.75ZM5.72461 13.25H4.47461V12H5.72461V13.25Z" fill="#475569" stroke="white" stroke-width="0.2"/>
<path d="M18.1516 10.75H9.09961C8.75442 10.75 8.47461 11.0299 8.47461 11.375V13.875C8.47461 14.2201 8.75442 14.5 9.09961 14.5H18.1516C18.4967 14.5 18.7766 14.2201 18.7766 13.875V11.375C18.7766 11.0299 18.4967 10.75 18.1516 10.75ZM17.5266 13.25H9.72461V12H17.5266V13.25Z" fill="#475569" stroke="white" stroke-width="0.2"/>
<path d="M20.6516 0H18.1516C17.8065 0 17.5266 0.279875 17.5266 0.625V5.41313H15.8261V3.82638H16.0006C16.3457 3.82638 16.6256 3.5465 16.6256 3.20138C16.6256 2.85625 16.3457 2.57638 16.0006 2.57638H15.8261V1.59681C15.8261 1.25169 15.5462 0.971812 15.2011 0.971812C14.856 0.971812 14.5761 1.25169 14.5761 1.59681V2.57638H12.8756V0.625C12.8756 0.279875 12.5957 0 12.2506 0H9.75061C9.40542 0 9.12561 0.279875 9.12561 0.625V2.57638H7.42511V0.625C7.42511 0.279875 7.1453 0 6.80011 0C6.45492 0 6.17511 0.279875 6.17511 0.625V2.57638H4.47461V0.625C4.47461 0.279875 4.1948 0 3.84961 0H1.34961C1.00442 0 0.724609 0.279875 0.724609 0.625V31.375C0.724609 31.7201 1.00442 32 1.34961 32H20.6516C20.9967 32 21.2766 31.7201 21.2766 31.375V0.625C21.2766 0.279875 20.9967 0 20.6516 0ZM20.0266 1.25V8.25H18.7766V1.25H20.0266ZM17.5266 6.66313V8.25H15.8261V6.66313H17.5266ZM12.8756 8.25V6.66313H14.5761V8.25H12.8756ZM14.5761 3.82638V5.41313H12.8756V3.82638H14.5761ZM10.3756 1.25H11.6256V8.25H10.3756V1.25ZM9.12561 3.82638V8.25H7.42511V3.82638H9.12561ZM6.17511 3.82638V5.54306H4.47461V3.82638H6.17511ZM3.22461 1.25V5.543H1.97461V1.25H3.22461ZM20.0266 30.75H1.97461V6.793H6.17511V8.875C6.17511 9.22013 6.45492 9.5 6.80011 9.5H20.0266V30.75Z" fill="#475569" stroke="white" stroke-width="0.2"/>
</svg>
