<svg width="32" height="32" viewBox="0 0 32 32" fill="none" xmlns="http://www.w3.org/2000/svg">
<g clip-path="url(#clip0_20_4657)">
<g clip-path="url(#clip1_20_4657)">
<path d="M18.6869 17.0908L16.1965 16.1229L14.7671 14.6826C14.6741 14.5889 14.5525 14.5408 14.4299 14.5387V13.3616C15.1064 12.6374 15.587 11.718 15.7772 10.6815C15.7776 10.681 15.7781 10.6805 15.7785 10.6801C15.9031 10.6875 16.0287 10.6783 16.153 10.6527C16.8248 10.5141 17.3125 9.88557 17.3125 9.1582V8.78094C17.3125 8.35455 17.1386 7.96377 16.8565 7.68702C17.3149 5.1993 16.9448 3.17305 15.7813 1.81926C14.6597 0.514083 12.8513 -0.109307 10.5515 0.0156991C8.40961 0.132363 7.03396 1.13196 6.61186 1.48438C6.01784 1.56216 4.32374 1.99354 4.32374 4.38055C4.32374 5.70228 4.53685 6.80153 4.68652 7.41086C4.1824 7.64833 3.84335 8.17851 3.84335 8.78653V9.15813C3.84335 9.88551 4.33097 10.514 5.00296 10.6526C5.12708 10.6782 5.25296 10.6874 5.37735 10.68C5.3778 10.6805 5.37826 10.681 5.37865 10.6815C5.56887 11.718 6.04952 12.6374 6.726 13.3616V14.5386C6.60338 14.5408 6.48174 14.5889 6.38877 14.6825L4.95941 16.1228L2.15824 17.2116C0.811148 17.7351 -0.055037 19.0635 0.0027217 20.5172L0.400579 30.5269C0.41114 30.7921 0.627767 30.9999 0.88879 30.9999C0.895439 30.9999 0.902088 30.9997 0.908738 30.9995C1.17856 30.9886 1.38847 30.7594 1.37772 30.4875L0.979861 20.478C0.9693 20.2119 1.00261 19.9519 1.07387 19.7059L2.66203 21.3062C3.11413 21.7617 3.36309 22.3674 3.36309 23.0117V30.5073C3.36309 30.7794 3.582 31 3.85202 31C4.12204 31 4.34095 30.7794 4.34095 30.5073V23.0117C4.34095 22.1042 3.99029 21.2511 3.35344 20.6094L1.56142 18.8037C1.81254 18.511 2.1349 18.2769 2.51021 18.131L5.12375 17.1152L7.11897 20.1309C7.36083 20.4965 7.74845 20.731 8.18242 20.7743C8.23073 20.7791 8.2789 20.7814 8.32688 20.7814C8.59358 20.7814 8.85173 20.7062 9.0769 20.5682L8.6484 30.4858C8.63667 30.7577 8.8458 30.9876 9.11562 30.9995C9.12286 30.9998 9.1301 30.9999 9.13727 30.9999C9.39751 30.9999 9.61394 30.7933 9.62535 30.5287L10.0227 21.3329H11.1337L11.5311 30.5287C11.5425 30.7932 11.7589 30.9999 12.0191 30.9999C12.0263 30.9999 12.0335 30.9998 12.0408 30.9995C12.3105 30.9876 12.5197 30.7577 12.508 30.4858L12.0795 20.5682C12.3047 20.7062 12.5628 20.7814 12.8295 20.7814C12.8774 20.7814 12.9256 20.7791 12.9739 20.7743C13.4074 20.7311 13.7951 20.4966 14.037 20.1309L16.0322 17.1153L18.3349 18.0103C18.3928 18.0327 18.4523 18.0434 18.5108 18.0434C18.707 18.0434 18.8922 17.9234 18.9671 17.7279C19.0643 17.474 18.9388 17.1888 18.6869 17.0908ZM6.33916 10.4969C6.25077 10.0124 5.80512 9.66085 5.32526 9.69606C5.28406 9.69901 5.24155 9.69613 5.19898 9.68739C4.98359 9.64298 4.82121 9.41543 4.82121 9.1582V8.78659C4.82121 8.53487 4.98933 8.30798 5.20394 8.27001C5.38458 8.23809 5.55753 8.30496 5.66718 8.44901C5.75825 8.56863 5.87964 8.65416 6.01856 8.69647C6.2215 8.75815 6.44549 8.72195 6.61766 8.59944C7.01506 8.31678 7.3519 7.95825 7.61872 7.5339C7.76325 7.30405 7.69552 6.99965 7.46748 6.85401C7.23925 6.70825 6.93729 6.77663 6.79276 7.00641C6.6406 7.24835 6.45859 7.46092 6.24979 7.64071C6.08342 7.49304 5.88681 7.38735 5.67559 7.32908C5.54462 6.83214 5.30159 5.72849 5.30159 4.38049C5.30159 3.57809 5.5484 3.01382 6.03525 2.70357C6.4142 2.46197 6.81434 2.4527 6.81447 2.45264C6.9395 2.45264 7.06115 2.40304 7.15196 2.31646C7.16447 2.30444 8.43243 1.11783 10.6042 0.999593C12.5911 0.89114 14.1256 1.39787 15.042 2.4642C15.9703 3.54446 16.2763 5.20423 15.9346 7.28073C15.7877 7.27383 15.6248 7.28461 15.4628 7.31325L14.9728 6.12749C14.879 5.90047 14.6333 5.77796 14.3973 5.84036C14.3496 5.85298 9.59751 7.07473 7.59382 4.56126C7.42478 4.34915 7.11702 4.31526 6.90645 4.48572C6.69595 4.65612 6.66231 4.96617 6.83148 5.17835C8.86392 7.72808 12.9113 7.15645 14.228 6.88857L14.6088 7.81019C14.7646 8.18698 15.1629 8.39279 15.5558 8.29951C15.7098 8.26292 15.8774 8.25628 15.9506 8.27093C16.1695 8.31481 16.3345 8.53402 16.3345 8.78088V9.15813C16.3345 9.41543 16.1721 9.64292 15.9568 9.68732C15.9141 9.69612 15.8718 9.69901 15.8305 9.69599C15.3508 9.66065 14.9049 10.0123 14.8167 10.4969C14.4409 12.5581 12.6583 14.0541 10.5779 14.0541C8.49749 14.0541 6.71486 12.5581 6.33916 10.4969ZM8.65883 19.6568C8.55838 19.758 8.41971 19.808 8.27851 19.7938C8.13725 19.7798 8.0111 19.7034 7.93235 19.5844L5.92227 16.5461L6.75671 15.7053L9.86264 18.4438L8.65883 19.6568ZM10.0649 20.3476L10.0972 19.6009L10.5778 19.1165L11.0586 19.6009L11.0908 20.3476H10.0649ZM10.5778 17.7651L7.70373 15.231V14.1835C8.53634 14.7271 9.52587 15.0395 10.5778 15.0395C11.6298 15.0395 12.6193 14.7271 13.4519 14.1835V15.231L10.5778 17.7651ZM13.2235 19.5843C13.1447 19.7034 13.0185 19.7798 12.8772 19.7938C12.7942 19.8023 12.6345 19.7953 12.497 19.6568L11.2932 18.4438L14.3991 15.7053L15.2335 16.5461L13.2235 19.5843Z" fill="#1E293B"/>
<path d="M30.4969 22.0121C30.4969 20.9248 29.6124 20.0403 28.5252 20.0403H25.4869V19.0061C25.4869 18.1951 24.8271 17.5353 24.0161 17.5353H21.01C20.199 17.5353 19.5392 18.1951 19.5392 19.0061V20.0403H16.5009C15.4137 20.0403 14.5292 20.9248 14.5292 22.0121V23.4037C14.5292 23.9168 14.7019 24.4095 15.0302 24.8651V30.0791C15.0302 31.1382 15.8919 31.9999 16.951 31.9999H28.0752C29.1343 31.9999 29.996 31.1382 29.996 30.0791V24.8651C30.3242 24.4094 30.497 23.9167 30.497 23.4037L30.4969 22.0121ZM20.4767 19.006C20.4767 18.7119 20.716 18.4727 21.01 18.4727H24.016C24.3101 18.4727 24.5493 18.712 24.5493 19.006V20.0402H20.4767V19.006ZM29.5594 23.4038C29.5594 24.2084 28.798 25.0064 27.4908 25.6024V25.5192C27.4908 25.2603 27.2809 25.0504 27.022 25.0504H25.0181C24.7592 25.0504 24.5493 25.2603 24.5493 25.5192V27.0222C24.5493 27.8332 25.2091 28.4929 26.0201 28.4929C26.831 28.4929 27.4908 27.8331 27.4908 27.0222V26.6213C28.0994 26.3778 28.6249 26.0944 29.0584 25.7796V30.0792C29.0584 30.6214 28.6174 31.0624 28.0751 31.0624H16.951C16.4088 31.0624 15.9677 30.6213 15.9677 30.0791V25.7796C16.4012 26.0944 16.9265 26.3777 17.5352 26.6213V27.0222C17.5352 27.8332 18.1951 28.4929 19.006 28.4929C19.7026 28.4929 20.2872 28.006 20.4384 27.3547C21.1114 27.4447 21.8068 27.4909 22.5131 27.4909C22.6843 27.4909 22.8579 27.4882 23.0289 27.4827C23.2876 27.4746 23.4907 27.2581 23.4825 26.9994C23.4743 26.7406 23.2597 26.5368 22.9991 26.5457C22.8379 26.5509 22.6744 26.5534 22.513 26.5534C21.8181 26.5534 21.1351 26.5061 20.4767 26.4139V25.5192C20.4767 25.2603 20.2668 25.0504 20.0079 25.0504H18.0039C17.745 25.0504 17.5352 25.2603 17.5352 25.5192V25.6024C16.228 25.0064 15.4666 24.2084 15.4666 23.4038V22.0121C15.4666 21.4418 15.9306 20.9779 16.5009 20.9779H28.5251C29.0954 20.9779 29.5594 21.4418 29.5594 22.0121V23.4038ZM26.5534 25.9879V27.0221C26.5534 27.3162 26.3142 27.5554 26.0202 27.5554C25.7262 27.5554 25.4869 27.3161 25.4869 27.0221V25.9879H26.5534ZM18.4727 27.0221V25.9879H19.5392V27.0221C19.5392 27.3162 19.2999 27.5554 19.0059 27.5554C18.7119 27.5554 18.4727 27.3162 18.4727 27.0221Z" fill="#1E293B"/>
</g>
</g>
<defs>
<clipPath id="clip0_20_4657">
<rect width="32" height="32" fill="white"/>
</clipPath>
<clipPath id="clip1_20_4657">
<rect width="32" height="32" fill="white"/>
</clipPath>
</defs>
</svg>
