<svg width="32" height="32" viewBox="0 0 32 32" fill="none" xmlns="http://www.w3.org/2000/svg">
<path d="M13 28H8.00002C7.7348 28 7.48045 27.8946 7.29291 27.7071C7.10537 27.5196 7.00002 27.2652 7.00002 27V12C7.00002 11.977 6.98902 11.958 6.98702 11.936L16 4.30999L28.354 14.764C28.4543 14.8488 28.5704 14.9131 28.6956 14.953C28.8207 14.993 28.9525 15.008 29.0835 14.997C29.2144 14.9861 29.3419 14.9494 29.4586 14.8892C29.5754 14.829 29.6792 14.7463 29.764 14.646C29.8489 14.5457 29.9131 14.4296 29.9531 14.3044C29.9931 14.1793 30.008 14.0475 29.997 13.9166C29.9861 13.7856 29.9494 13.6581 29.8892 13.5414C29.829 13.4246 29.7463 13.3208 29.646 13.236L16.646 2.23599C16.4655 2.08318 16.2366 1.99933 16 1.99933C15.7635 1.99933 15.5346 2.08318 15.354 2.23599L2.35402 13.236C2.25369 13.3208 2.17105 13.4246 2.11082 13.5414C2.05059 13.6581 2.01395 13.7856 2.003 13.9166C1.99204 14.0475 2.00698 14.1793 2.04696 14.3044C2.08694 14.4296 2.15118 14.5457 2.23602 14.646C2.32085 14.7463 2.42462 14.829 2.54139 14.8892C2.65816 14.9494 2.78565 14.9861 2.91658 14.997C3.04751 15.008 3.17932 14.993 3.30447 14.953C3.42963 14.9131 3.54569 14.8488 3.64602 14.764L5.00002 13.618V27C5.00002 27.7956 5.31609 28.5587 5.8787 29.1213C6.44131 29.6839 7.20437 30 8.00002 30H13C13.2652 30 13.5196 29.8946 13.7071 29.7071C13.8947 29.5196 14 29.2652 14 29C14 28.7348 13.8947 28.4804 13.7071 28.2929C13.5196 28.1053 13.2652 28 13 28Z" fill="#1E293B"/>
<path d="M22 14C20.4178 14 18.871 14.4692 17.5554 15.3482C16.2398 16.2273 15.2145 17.4767 14.609 18.9385C14.0035 20.4003 13.845 22.0089 14.1537 23.5607C14.4624 25.1126 15.2243 26.538 16.3431 27.6569C17.462 28.7757 18.8874 29.5376 20.4393 29.8463C21.9911 30.155 23.5997 29.9965 25.0615 29.391C26.5233 28.7855 27.7727 27.7602 28.6518 26.4446C29.5308 25.129 30 23.5823 30 22C29.9976 19.879 29.154 17.8456 27.6542 16.3458C26.1545 14.846 24.121 14.0024 22 14ZM22 28C20.8133 28 19.6533 27.6481 18.6666 26.9888C17.6799 26.3295 16.9109 25.3925 16.4567 24.2961C16.0026 23.1997 15.8838 21.9933 16.1153 20.8295C16.3468 19.6656 16.9182 18.5965 17.7574 17.7574C18.5965 16.9182 19.6656 16.3468 20.8295 16.1153C21.9933 15.8838 23.1997 16.0026 24.2961 16.4567C25.3925 16.9108 26.3295 17.6799 26.9888 18.6666C27.6481 19.6533 28 20.8133 28 22C27.9984 23.5908 27.3658 25.116 26.2409 26.2409C25.116 27.3658 23.5908 27.9984 22 28Z" fill="#1E293B"/>
<path d="M22.5 21H21.5C21.3674 21 21.2402 20.9473 21.1464 20.8536C21.0527 20.7598 21 20.6326 21 20.5C21 20.3674 21.0527 20.2402 21.1464 20.1464C21.2402 20.0527 21.3674 20 21.5 20H23C23.2652 20 23.5196 19.8946 23.7071 19.7071C23.8946 19.5196 24 19.2652 24 19C24 18.7348 23.8946 18.4804 23.7071 18.2929C23.5196 18.1054 23.2652 18 23 18C23 17.7348 22.8946 17.4804 22.7071 17.2929C22.5196 17.1054 22.2652 17 22 17C21.7348 17 21.4804 17.1054 21.2929 17.2929C21.1054 17.4804 21 17.7348 21 18V18.051C20.3935 18.1754 19.8548 18.5205 19.4881 19.0193C19.1214 19.5181 18.9528 20.1353 19.015 20.7513C19.0773 21.3673 19.3659 21.9383 19.8249 22.3537C20.284 22.7691 20.8809 22.9994 21.5 23H22.5C22.6326 23 22.7598 23.0527 22.8536 23.1464C22.9473 23.2402 23 23.3674 23 23.5C23 23.6326 22.9473 23.7598 22.8536 23.8536C22.7598 23.9473 22.6326 24 22.5 24H21C20.7348 24 20.4804 24.1054 20.2929 24.2929C20.1054 24.4804 20 24.7348 20 25C20 25.2652 20.1054 25.5196 20.2929 25.7071C20.4804 25.8946 20.7348 26 21 26C21 26.2652 21.1054 26.5196 21.2929 26.7071C21.4804 26.8946 21.7348 27 22 27C22.2652 27 22.5196 26.8946 22.7071 26.7071C22.8946 26.5196 23 26.2652 23 26V25.949C23.6065 25.8246 24.1452 25.4795 24.5119 24.9807C24.8786 24.4819 25.0472 23.8647 24.985 23.2487C24.9227 22.6327 24.6341 22.0617 24.1751 21.6463C23.716 21.2309 23.1191 21.0006 22.5 21Z" fill="#1E293B"/>
</svg>
