<svg width="32" height="32" viewBox="0 0 32 32" fill="none" xmlns="http://www.w3.org/2000/svg">
<path d="M13.6228 20.1689H8.55664C8.12573 20.1689 7.77539 20.5195 7.77539 20.9502V25.2812C7.77539 25.7122 8.12573 26.0625 8.55664 26.0625H10.8438C11.1025 26.0625 11.3125 25.8525 11.3125 25.5938C11.3125 25.335 11.1025 25.125 10.8438 25.125H8.71289V24.4624H13.4666V25.125H13.0625C12.8037 25.125 12.5938 25.335 12.5938 25.5938C12.5938 25.8525 12.8037 26.0625 13.0625 26.0625H13.6228C14.0535 26.0625 14.4041 25.7122 14.4041 25.2812V20.9502C14.4041 20.5195 14.0535 20.1689 13.6228 20.1689ZM9.70972 23.5249H8.71289V21.1064H9.70972V23.5249ZM11.532 23.5249H10.6475V21.1064H11.532V23.5249ZM13.4666 23.5249H12.4695V21.1064H13.4666V23.5249Z" fill="#1E293B"/>
<path d="M13.6228 6.29468H8.55664C8.12573 6.29468 7.77539 6.64526 7.77539 7.07593V11.407C7.77539 11.8379 8.12573 12.1882 8.55664 12.1882H13.6228C14.0535 12.1882 14.4041 11.8379 14.4041 11.407V7.07593C14.4041 6.64526 14.0535 6.29468 13.6228 6.29468ZM10.6472 7.23218H11.532V9.65039H10.6472V7.23218ZM8.71289 7.23218H9.70972V9.65039H8.71289V7.23218ZM13.4666 11.2507H8.71289V10.5879H13.4666V11.2507ZM13.4666 9.65039H12.4695V7.23218H13.4666V9.65039Z" fill="#1E293B"/>
<path d="M13.6228 13.2319H8.55664C8.12573 13.2319 7.77539 13.5823 7.77539 14.0132V18.3442C7.77539 18.7749 8.12573 19.1255 8.55664 19.1255H13.6228C14.0535 19.1255 14.4041 18.7749 14.4041 18.3442V14.0132C14.4041 13.5823 14.0535 13.2319 13.6228 13.2319ZM10.6472 14.1694H11.532V16.5876H10.6472V14.1694ZM8.71289 14.1694H9.70972V16.5876H8.71289V14.1694ZM13.4666 18.188H8.71289V17.5251H13.4666V18.188ZM13.4666 16.5876H12.4695V14.1694H13.4666V16.5876Z" fill="#1E293B"/>
<path d="M20.4204 10.3152H19.0454C18.6145 10.3152 18.2642 10.6655 18.2642 11.0964V13.2812C18.2642 13.7122 18.6145 14.0625 19.0454 14.0625H20.4204C20.8511 14.0625 21.2017 13.7122 21.2017 13.2812V11.0964C21.2017 10.6655 20.8511 10.3152 20.4204 10.3152ZM20.2642 13.125H19.2017V11.2527H20.2642V13.125Z" fill="#1E293B"/>
<path d="M24.2329 10.3152H22.8579C22.427 10.3152 22.0767 10.6655 22.0767 11.0964V13.2812C22.0767 13.7122 22.427 14.0625 22.8579 14.0625H24.2329C24.6636 14.0625 25.0142 13.7122 25.0142 13.2812V11.0964C25.0142 10.6655 24.6636 10.3152 24.2329 10.3152ZM24.0767 13.125H23.0142V11.2527H24.0767V13.125Z" fill="#1E293B"/>
<path d="M20.4204 14.6875H19.0454C18.6145 14.6875 18.2642 15.0378 18.2642 15.4688V17.6536C18.2642 18.0845 18.6145 18.4348 19.0454 18.4348H20.4204C20.8511 18.4348 21.2017 18.0845 21.2017 17.6536V15.4688C21.2017 15.0378 20.8511 14.6875 20.4204 14.6875ZM20.2642 17.4973H19.2017V15.625H20.2642V17.4973Z" fill="#1E293B"/>
<path d="M24.2329 14.6875H22.8579C22.427 14.6875 22.0767 15.0378 22.0767 15.4688V17.6536C22.0767 18.0845 22.427 18.4348 22.8579 18.4348H24.2329C24.6636 18.4348 25.0142 18.0845 25.0142 17.6536V15.4688C25.0142 15.0378 24.6636 14.6875 24.2329 14.6875ZM24.0767 17.4973H23.0142V15.625H24.0767V17.4973Z" fill="#1E293B"/>
<path d="M20.4204 19.0598H19.0454C18.6145 19.0598 18.2642 19.4104 18.2642 19.8411V22.0259C18.2642 22.4568 18.6145 22.8071 19.0454 22.8071H20.4204C20.8511 22.8071 21.2017 22.4568 21.2017 22.0259V19.8411C21.2017 19.4104 20.8511 19.0598 20.4204 19.0598ZM20.2642 21.8696H19.2017V19.9973H20.2642V21.8696Z" fill="#1E293B"/>
<path d="M24.2329 19.0598H22.8579C22.427 19.0598 22.0767 19.4104 22.0767 19.8411V22.0259C22.0767 22.4568 22.427 22.8071 22.8579 22.8071H24.2329C24.6636 22.8071 25.0142 22.4568 25.0142 22.0259V19.8411C25.0142 19.4104 24.6636 19.0598 24.2329 19.0598ZM24.0767 21.8696H23.0142V19.9973H24.0767V21.8696Z" fill="#1E293B"/>
<path d="M20.4204 23.4321H19.0454C18.6145 23.4321 18.2642 23.7827 18.2642 24.2134V26.3984C18.2642 26.8291 18.6145 27.1797 19.0454 27.1797H20.4204C20.8511 27.1797 21.2017 26.8291 21.2017 26.3984V24.2134C21.2017 23.7827 20.8511 23.4321 20.4204 23.4321ZM20.2642 26.2422H19.2017V24.3696H20.2642V26.2422Z" fill="#1E293B"/>
<path d="M24.2329 23.4321H22.8579C22.427 23.4321 22.0767 23.7827 22.0767 24.2134V26.3984C22.0767 26.8291 22.427 27.1797 22.8579 27.1797H24.2329C24.6636 27.1797 25.0142 26.8291 25.0142 26.3984V24.2134C25.0142 23.7827 24.6636 23.4321 24.2329 23.4321ZM24.0767 26.2422H23.0142V24.3696H24.0767V26.2422Z" fill="#1E293B"/>
<path d="M31.4837 29.9703H29.6V28.0714C30.9615 27.8266 32 26.6013 32 25.1304C32 23.4839 30.699 22.1442 29.1 22.1442C28.7039 22.1442 28.326 22.2265 27.9818 22.3753V20.6682C27.9818 20.3839 27.7578 20.1533 27.4818 20.1533C27.2057 20.1533 26.9818 20.3839 26.9818 20.6682V23.094C26.4974 23.6279 26.2 24.3439 26.2 25.1304C26.2 25.917 26.4974 26.633 26.9818 27.1669V29.9627H17.2549V13.7346C17.2549 13.4503 17.031 13.2197 16.7549 13.2197C16.4786 13.2197 16.255 13.4503 16.255 13.7346V29.9627H5.20312V27.0296C5.61745 26.5131 5.86667 25.8513 5.86667 25.1304C5.86667 24.4096 5.61745 23.7478 5.20312 23.2313V4.22628H16.255V11.2975C16.255 11.5817 16.4786 11.8124 16.7549 11.8124C17.031 11.8124 17.2549 11.5817 17.2549 11.2975V8.89447H26.9818V18.1968C26.9818 18.4811 27.2055 18.7117 27.4818 18.7117C27.7578 18.7117 27.9818 18.4811 27.9818 18.1968V8.89447H28.1484C28.6078 8.89447 28.9818 8.50965 28.9818 8.03635V6.52632C28.9818 6.05301 28.6078 5.66819 28.1484 5.66819H17.2549V4.22628H17.6729C18.1326 4.22628 18.5063 3.84146 18.5063 3.36815V1.85812C18.5063 1.38481 18.1326 1 17.6729 1H3.7849C3.32552 1 2.95156 1.38481 2.95156 1.85812V3.36815C2.95156 3.84146 3.32552 4.22628 3.7849 4.22628H4.20312V22.4298C3.8276 22.2469 3.40859 22.1442 2.96667 22.1442C1.36771 22.1442 0.0666667 23.4839 0.0666667 25.1304C0.0666667 26.6016 1.10521 27.8266 2.46667 28.0714V29.9703H0.5C0.223958 29.9703 0 30.2009 0 30.4851C0 30.7694 0.223958 31 0.5 31H31.4837C31.7597 31 31.9837 30.7694 31.9837 30.4851C31.9837 30.2009 31.7597 29.9703 31.4837 29.9703ZM27.9818 6.69794V7.86472H17.2549V6.69794H27.9818ZM3.95156 3.19653V2.02975H17.5063V3.19653H3.95156ZM4.20312 29.9703H3.46667V28.0714C3.72552 28.0247 3.97266 27.9432 4.20312 27.8311V29.9703ZM3.46667 27.0178V26.3661C3.46667 26.0819 3.24271 25.8513 2.96667 25.8513C2.69062 25.8513 2.46667 26.0819 2.46667 26.3661V27.0178C1.66094 26.7912 1.06667 26.0309 1.06667 25.1304C1.06667 24.0516 1.91901 23.1739 2.96667 23.1739C4.01432 23.1739 4.86667 24.0516 4.86667 25.1304C4.86667 26.0309 4.2724 26.7912 3.46667 27.0178ZM28.6 29.9703H27.9818V27.8855C28.1779 27.9703 28.3849 28.0328 28.6 28.0714V29.9703ZM29.1 25.8513C28.824 25.8513 28.6 26.0819 28.6 26.3661V27.0178C27.7943 26.7912 27.2 26.0309 27.2 25.1304C27.2 24.0516 28.0523 23.1739 29.1 23.1739C30.1477 23.1739 31 24.0516 31 25.1304C31 26.0309 30.4057 26.7912 29.6 27.0178V26.3661C29.6 26.0819 29.376 25.8513 29.1 25.8513Z" fill="#1E293B"/>
</svg>
