<svg width="32" height="32" viewBox="0 0 32 32" fill="none" xmlns="http://www.w3.org/2000/svg">
<g clip-path="url(#clip0_20_4681)">
<path d="M16.0038 1C11.7821 1 8.36644 4.3524 8.36537 8.49946L8.361 20.8587C5.90839 21.1266 4 23.1687 4 25.6494V30.4756C4.00316 30.6157 4.06203 30.749 4.16399 30.847C4.26595 30.9449 4.4029 30.9998 4.54552 30.9998C4.68815 30.9998 4.8251 30.9449 4.92706 30.847C5.02902 30.749 5.08788 30.6157 5.09105 30.4756V25.6494C5.09105 23.5619 6.78369 21.8991 8.90865 21.8991H9.84627L9.46803 23.3781C9.4481 23.4572 9.44681 23.5398 9.46426 23.6195C9.4817 23.6992 9.51742 23.7739 9.5687 23.838C9.61997 23.9021 9.68546 23.9538 9.76016 23.9893C9.83487 24.0248 9.91683 24.043 9.9998 24.0427H11.2965L10.6039 25.4118C10.5501 25.5171 10.5331 25.637 10.5557 25.7528C10.5782 25.8686 10.639 25.9739 10.7286 26.0523L15.6372 30.3364C15.6922 30.384 15.7563 30.4204 15.8258 30.4431C15.8269 30.4435 15.828 30.4439 15.8291 30.4442C15.8312 30.4446 15.8334 30.445 15.8355 30.4453C15.8681 30.4557 15.9016 30.4631 15.9357 30.4674C15.9537 30.4696 15.9718 30.471 15.99 30.4714C16.025 30.472 16.06 30.4693 16.0944 30.4633C16.1305 30.4571 16.1658 30.4472 16.1999 30.434C16.201 30.4336 16.2021 30.4332 16.2032 30.4329C16.2617 30.4101 16.3158 30.3776 16.363 30.3367L21.2715 26.0526C21.3611 25.9741 21.4219 25.8689 21.4444 25.7531C21.467 25.6373 21.45 25.5174 21.3962 25.412L20.6993 24.0429H22.0003C22.0829 24.0426 22.1644 24.0239 22.2385 23.9881C22.3127 23.9524 22.3776 23.9005 22.4284 23.8365C22.4792 23.7725 22.5145 23.698 22.5317 23.6187C22.5489 23.5393 22.5475 23.4571 22.5277 23.3783L22.1527 21.8994H23.0913C25.2163 21.8994 26.909 23.5621 26.909 25.6496V30.4759C26.9121 30.616 26.971 30.7492 27.073 30.8472C27.1749 30.9452 27.3119 31 27.4545 31C27.5971 31 27.734 30.9452 27.836 30.8472C27.938 30.7492 27.9968 30.616 28 30.4759V25.6496C28 23.1675 26.0895 21.1239 23.6347 20.8579L23.6391 8.49971C23.6402 4.35233 20.2254 1 16.0038 1ZM16.0038 2.07182C19.6399 2.07182 22.5489 4.92765 22.5479 8.49946L22.5436 20.8262H21.6071L19.2737 19.452V17.6108H19.2652C20.5919 16.6342 21.4537 15.0818 21.4537 13.3268L21.4611 10.1103C21.4625 10.0386 21.4493 9.96725 21.4221 9.90061C21.3949 9.83397 21.3544 9.77337 21.3029 9.72241C21.2515 9.67145 21.1901 9.63113 21.1225 9.60391C21.0548 9.5767 20.9823 9.56315 20.9093 9.56398C20.8893 9.56493 20.8694 9.56694 20.8496 9.57004C19.37 9.53419 18.1955 8.36536 18.1955 6.8947C18.1968 6.823 18.1834 6.7518 18.1562 6.68528C18.1289 6.61876 18.0884 6.55829 18.0369 6.50744C17.9854 6.4566 17.9241 6.41641 17.8565 6.38926C17.789 6.36212 17.7166 6.34855 17.6436 6.34939C17.6247 6.34978 17.6059 6.3511 17.5871 6.35341C17.4525 6.36874 17.3285 6.43275 17.2393 6.53297C17.15 6.63319 17.102 6.76244 17.1045 6.89556C17.1045 8.38929 15.8985 9.57404 14.3779 9.57406H11.1005C10.9558 9.57352 10.8168 9.62947 10.7141 9.72958C10.6114 9.82968 10.5534 9.96574 10.5528 10.1079L10.5443 13.3243C10.5399 15.0811 11.4048 16.6351 12.7349 17.6126H12.7264V19.4537L10.393 20.828H9.45216L9.45653 8.50119C9.45762 4.92906 12.3677 2.07182 16.0038 2.07182ZM17.6478 8.81977C18.2266 9.76391 19.2175 10.4373 20.3722 10.6013L20.3615 13.3226C20.3615 13.3239 20.3615 13.3253 20.3615 13.3267C20.3615 15.711 18.4277 17.6107 16.0005 17.6107C13.5733 17.6107 11.6292 15.7094 11.6353 13.3267L11.6438 10.644H14.3778C14.3981 10.6438 14.4184 10.6424 14.4385 10.6399C15.8012 10.6185 16.9896 9.89445 17.6478 8.81977ZM13.8174 18.2336C14.4868 18.5208 15.2242 18.6827 16.0006 18.6827C16.7769 18.6827 17.5144 18.5214 18.1827 18.2347V19.6801L17.684 21.5443L16.0006 22.3733L14.3171 21.5443L13.8174 19.6801V18.2336ZM12.932 20.5813L15.014 28.3592L11.7632 25.5227L12.6699 23.7465C12.7114 23.6649 12.7311 23.5742 12.7269 23.483C12.7228 23.3918 12.695 23.3032 12.6463 23.2255C12.5975 23.1479 12.5293 23.0837 12.4483 23.0391C12.3672 22.9946 12.2759 22.9711 12.183 22.9709H10.6966L11.0184 21.7086L12.932 20.5813ZM19.0692 20.5813L20.9817 21.7086L21.3035 22.9709H19.8171C19.7242 22.9711 19.6329 22.9946 19.5518 23.0391C19.4708 23.0837 19.4026 23.1479 19.3538 23.2255C19.3051 23.3032 19.2773 23.3918 19.2732 23.483C19.269 23.5742 19.2887 23.6649 19.3302 23.7465L20.2327 25.5227L16.9861 28.3592L19.0692 20.5813ZM17.3143 22.9228L16.0006 27.8307L14.6868 22.9238L16.0006 23.5685L17.3143 22.9228Z" fill="#1E293B"/>
</g>
<defs>
<clipPath id="clip0_20_4681">
<rect width="32" height="32" fill="white"/>
</clipPath>
</defs>
</svg>
