<svg width="32" height="32" viewBox="0 0 32 32" fill="none" xmlns="http://www.w3.org/2000/svg">
<g clip-path="url(#clip0_14_24079)">
<g clip-path="url(#clip1_14_24079)">
<path d="M16.0057 0.00332659C9.60366 0.00239345 3.81767 3.81846 1.29786 9.7037L1.09844 9.76982L1.17575 10.0018C-2.14195 18.1845 1.80182 27.5074 9.98452 30.8251C11.8957 31.6 13.9386 31.9978 16.0009 31.9967C24.8356 31.998 31.9987 24.8371 32 16.0024C32.0013 7.1677 24.8404 0.00459299 16.0057 0.00332659ZM28.5532 24.0652L27.7318 23.2444V21.3322C27.7328 21.2497 27.7145 21.1681 27.6785 21.0939L25.5989 16.9406V14.9335C25.5989 14.7553 25.51 14.5888 25.3616 14.4899L23.762 13.4235C23.6366 13.3397 23.4816 13.313 23.3354 13.3499L21.3763 13.8394L18.0858 12.4274L17.6331 9.2558L18.8878 8.00166H21.5811L22.4876 9.36404C22.5694 9.48655 22.6984 9.5698 22.8438 9.59386L26.0431 10.1271C26.1288 10.1415 26.2167 10.1345 26.2991 10.1068L29.2456 9.12463C31.7171 13.8673 31.4527 19.5715 28.5532 24.0652ZM26.354 5.2577L25.487 5.83571L23.0699 5.35208L21.5017 4.83005C21.4057 4.79746 21.3024 4.79333 21.2041 4.81832L19.2216 5.31369L18.3524 5.02415L18.9966 3.73588H20.7999C20.8826 3.73595 20.9642 3.71682 21.0383 3.67989L22.8832 2.75742C24.1538 3.42061 25.3226 4.26257 26.354 5.2577ZM10.1605 2.26046L11.4403 3.11361C11.5032 3.15547 11.5743 3.18346 11.6488 3.19573L14.2328 3.62657L13.9806 4.38108L12.6342 4.83059C12.5136 4.87071 12.4113 4.95256 12.3457 5.06147L10.8143 7.61347L8.35453 9.08943L4.72861 9.60719C4.4658 9.64432 4.27038 9.86914 4.27004 10.1345V11.7342C4.27004 11.8757 4.3263 12.0112 4.42628 12.1112L5.33649 13.0214V13.9375L3.11828 12.4583L2.31365 10.0444C3.84453 6.5465 6.65041 3.76308 10.1605 2.26046ZM8.64247 19.7432L6.2323 19.2606L5.33649 17.4738V16.2207L7.32327 14.234L8.05859 15.7051C8.1489 15.8859 8.33373 16.0001 8.53582 16H11.9666L13.4111 18.4075C13.5075 18.5679 13.6809 18.666 13.868 18.6661H15.3504L14.9771 20.5361L12.9584 22.5549C12.8582 22.6548 12.8018 22.7904 12.8016 22.9319V24.2649L10.882 25.7046C10.7478 25.8053 10.6687 25.9634 10.6687 26.1312V28.0572L10.0054 27.8375L9.06904 25.4956V20.2658C9.06911 20.0124 8.89075 19.7939 8.64247 19.7432ZM7.0396 27.9402C2.01205 24.1684 -0.114111 17.6514 1.72177 11.6404L2.16488 12.9692C2.20221 13.0816 2.27592 13.1784 2.37444 13.2443L5.03255 15.0162L4.42628 15.623C4.3263 15.723 4.27004 15.8586 4.27004 16V17.5997C4.26998 17.6824 4.28911 17.764 4.32603 17.838L5.39248 19.9709C5.46633 20.1182 5.6041 20.2231 5.76573 20.2551L8.00526 20.7025V25.598C8.0052 25.6657 8.01806 25.7329 8.04312 25.7958L9.10957 28.4619C9.16796 28.6076 9.28753 28.7201 9.43643 28.7696L11.0361 29.3028C11.0896 29.3209 11.1455 29.3303 11.2019 29.3305C11.4964 29.3305 11.7352 29.0918 11.7352 28.7973V26.3978L13.6548 24.9581C13.789 24.8574 13.868 24.6994 13.868 24.5315V23.1526L15.8447 21.176C15.919 21.1015 15.9697 21.0067 15.9903 20.9035L16.5235 18.2374C16.5812 17.9486 16.3939 17.6677 16.1051 17.61C16.0708 17.6031 16.0359 17.5997 16.0009 17.5997H14.1698L12.7253 15.1922C12.629 15.0317 12.4555 14.9336 12.2684 14.9335H8.86535L7.94928 13.0955C7.87256 12.9421 7.72672 12.8349 7.55736 12.8076C7.38806 12.7783 7.21523 12.8342 7.09505 12.9569L6.40293 13.6463V12.8007C6.40293 12.6592 6.34668 12.5237 6.2467 12.4237L5.33649 11.5135V10.5969L8.61154 10.1292C8.68186 10.119 8.74951 10.0949 8.81043 10.0583L11.4765 8.45863C11.5513 8.41371 11.614 8.35105 11.6589 8.27627L13.1573 5.77919L14.5698 5.30782C14.7293 5.2555 14.8544 5.13039 14.9068 4.97082L15.44 3.37116C15.5324 3.09155 15.3806 2.78995 15.101 2.69756C15.0752 2.68903 15.0487 2.6825 15.0219 2.67797L11.9356 2.16341L11.3934 1.80189C14.7489 0.709713 18.3832 0.844885 21.6483 2.18314L20.6741 2.66944H18.667C18.464 2.6683 18.2779 2.78268 18.1871 2.96431L17.1207 5.0972C16.9893 5.36074 17.0964 5.68094 17.36 5.81232C17.3824 5.82351 17.4056 5.83311 17.4294 5.84104L19.0291 6.37427C19.1251 6.40686 19.2284 6.41099 19.3266 6.386L21.3092 5.89063L22.7617 6.37427C22.7825 6.38173 22.8038 6.38746 22.8256 6.39133L25.4918 6.92455C25.6304 6.95281 25.7746 6.92442 25.8922 6.84563L27.1058 6.0362C27.7031 6.70146 28.2398 7.41865 28.7098 8.17922L26.0863 9.05371L23.2458 8.5802L22.3074 7.1725C22.209 7.025 22.0437 6.93608 21.8664 6.93522H18.667C18.5256 6.93522 18.39 6.99147 18.2901 7.09145L16.6904 8.69112C16.5716 8.80982 16.5157 8.97759 16.5395 9.14382L17.0727 12.8764C17.0996 13.0609 17.2209 13.218 17.3926 13.2907L21.1252 14.8904C21.2321 14.9367 21.3514 14.9462 21.4643 14.9176L23.3685 14.4414L24.5325 15.2188V17.0664C24.5316 17.149 24.5498 17.2305 24.5858 17.3048L26.6654 21.4581V23.4651C26.6654 23.6065 26.7216 23.7421 26.8216 23.8421L27.9371 24.9581C22.9899 31.5523 13.6338 32.8875 7.0396 27.9402Z" fill="#1E293B"/>
</g>
</g>
<defs>
<clipPath id="clip0_14_24079">
<rect width="32" height="32" fill="white"/>
</clipPath>
<clipPath id="clip1_14_24079">
<rect width="32" height="32" fill="white"/>
</clipPath>
</defs>
</svg>
