<svg width="32" height="32" viewBox="0 0 32 32" fill="none" xmlns="http://www.w3.org/2000/svg">
<path d="M23.8656 4.6528C23.9027 4.67021 23.9431 4.67923 23.984 4.67923C24.0249 4.67923 24.0654 4.67021 24.1024 4.6528C24.1728 4.6176 24.2048 4.5504 24.24 4.448C24.3072 4.0064 24.3424 3.3952 23.968 3.0208C23.0816 2.1376 21.008 3.2576 19.92 4.0416C19.9045 4.04811 19.8904 4.05762 19.8785 4.06959C19.8666 4.08156 19.8572 4.09575 19.8508 4.11135C19.8444 4.12695 19.8412 4.14366 19.8412 4.16051C19.8413 4.17737 19.8447 4.19405 19.8512 4.2096C19.8577 4.22515 19.8672 4.23926 19.8792 4.25113C19.8912 4.263 19.9054 4.2724 19.921 4.27879C19.9366 4.28518 19.9533 4.28843 19.9701 4.28837C19.987 4.2883 20.0037 4.28491 20.0192 4.2784C21.3098 4.06122 22.6349 4.19042 23.8592 4.6528H23.8656ZM25.328 5.44C26.1637 5.99523 26.8771 6.71546 27.4242 7.55645C27.9714 8.39744 28.3409 9.34142 28.5099 10.3304C28.6789 11.3194 28.644 12.3325 28.4071 13.3075C28.1703 14.2825 27.7367 15.1987 27.1328 16C27.0202 16.1489 26.9482 16.3246 26.9241 16.5098C26.9 16.6949 26.9245 16.8832 26.9952 17.056L27.3152 17.8016C27.3258 17.8485 27.3516 17.8906 27.3887 17.9213C27.4258 17.952 27.4719 17.9695 27.52 17.9712L28.0288 18.0416C28.1296 18.0566 28.2242 18.0992 28.3021 18.1647C28.3801 18.2302 28.4384 18.3161 28.4704 18.4128C28.6752 18.8224 28.8448 19.2992 29.0176 19.7408C29.0515 19.8322 29.0599 19.9312 29.0418 20.027C29.0238 20.1228 28.98 20.2119 28.9152 20.2848C28.8128 20.4192 28.6752 20.6048 28.5728 20.7264C28.5476 20.7664 28.5364 20.8137 28.5408 20.8608L28.5728 20.9312C28.5878 20.9757 28.6149 21.0151 28.6511 21.0451C28.6873 21.0751 28.7311 21.0943 28.7776 21.1008L29.2896 21.168C29.3905 21.1839 29.485 21.2273 29.5629 21.2933C29.6408 21.3593 29.699 21.4455 29.7312 21.5424C29.936 21.9488 30.1056 22.4256 30.2752 22.8672C30.3098 22.9585 30.3185 23.0576 30.3005 23.1536C30.2824 23.2496 30.2382 23.3387 30.1728 23.4112C30.0751 23.5434 29.9681 23.6685 29.8528 23.7856C29.8064 23.8856 29.7951 23.9984 29.8208 24.1056L30.2976 25.1936C30.4059 25.5017 30.4291 25.8334 30.3648 26.1536L29.7856 29.0784C29.7338 29.3523 29.6127 29.6083 29.4341 29.8223C29.2554 30.0362 29.025 30.2009 28.7648 30.3008C28.5132 30.4028 28.2389 30.4361 27.9702 30.3973C27.7014 30.3585 27.4478 30.249 27.2352 30.08L24.784 28.3808C24.5114 28.2118 24.2979 27.9625 24.1728 27.6672L20.9056 19.5424C20.8338 19.3673 20.7175 19.2141 20.5682 19.0979C20.4189 18.9817 20.2417 18.9066 20.0544 18.88C19.3919 18.7717 18.7463 18.577 18.1344 18.3008C18.1089 18.2835 18.0788 18.2742 18.048 18.2742C18.0172 18.2742 17.9871 18.2835 17.9616 18.3008C16.8426 18.5327 15.686 18.5119 14.576 18.24C14.3915 18.1897 14.1971 18.1884 14.012 18.2361C13.8268 18.2837 13.6573 18.3788 13.52 18.512L12.976 19.0912C12.9426 19.1195 12.9183 19.1572 12.9064 19.1994C12.8944 19.2415 12.8952 19.2863 12.9088 19.328L13.0464 19.84C13.0617 19.9379 13.054 20.0379 13.024 20.1323C12.994 20.2267 12.9425 20.3129 12.8736 20.384L11.84 21.4112C11.7669 21.4759 11.6794 21.5222 11.5847 21.5461C11.4901 21.5701 11.3911 21.571 11.296 21.5488C11.1264 21.4816 10.9216 21.4464 10.752 21.3792C10.7049 21.3745 10.6576 21.3858 10.6176 21.4112L10.5824 21.4816C10.5467 21.516 10.5214 21.5597 10.5095 21.6079C10.4976 21.656 10.4996 21.7065 10.5152 21.7536L10.6176 22.2272C10.6481 22.3216 10.6514 22.4228 10.6271 22.519C10.6027 22.6152 10.5518 22.7026 10.48 22.7712L9.47202 23.792C9.40344 23.8637 9.31603 23.9147 9.21981 23.939C9.12359 23.9634 9.02246 23.9601 8.92802 23.9296C8.77419 23.8676 8.61443 23.8215 8.45122 23.792C8.40416 23.7764 8.35364 23.7744 8.3055 23.7863C8.25736 23.7981 8.21357 23.8234 8.17922 23.8592L7.32802 24.7104C7.1056 24.935 6.82166 25.0886 6.51202 25.152L3.58722 25.7632C3.32072 25.8255 3.04261 25.8176 2.78009 25.7402C2.51758 25.6628 2.27966 25.5185 2.08962 25.3216C1.89023 25.1339 1.74405 24.8968 1.66593 24.6343C1.58781 24.3718 1.58053 24.0934 1.64482 23.8272L2.24002 20.9024C2.31151 20.5854 2.46361 20.2922 2.68162 20.0512L8.89282 13.8656C9.02796 13.7365 9.12249 13.5708 9.16482 13.3888C9.23528 13.2143 9.23528 13.0193 9.16482 12.8448C8.86725 11.6091 8.88912 10.318 9.22838 9.09306C9.56764 7.86814 10.2131 6.74974 11.104 5.8432C12.3994 4.54238 14.1371 3.77695 15.9712 3.6992C16.0436 3.69115 16.1168 3.69835 16.1863 3.72033C16.2557 3.7423 16.3198 3.77857 16.3743 3.8268C16.4289 3.87503 16.4727 3.93415 16.5031 4.00036C16.5334 4.06656 16.5495 4.13838 16.5504 4.2112C16.558 4.28332 16.5504 4.35623 16.5282 4.42528C16.506 4.49432 16.4697 4.55797 16.4215 4.61217C16.3733 4.66638 16.3144 4.70994 16.2484 4.74007C16.1825 4.77021 16.1109 4.78626 16.0384 4.7872C15.1111 4.82964 14.2048 5.07784 13.3852 5.5138C12.5656 5.94976 11.8532 6.56257 11.2997 7.30784C10.7462 8.0531 10.3654 8.91216 10.1849 9.82277C10.0044 10.7334 10.0287 11.6727 10.256 12.5728C10.3291 12.9451 10.3171 13.329 10.2208 13.696C10.1224 14.0564 9.93536 14.3864 9.67682 14.656L3.44962 20.8352C3.39121 20.919 3.34489 21.0105 3.31202 21.1072L2.70082 24.064C2.68463 24.1504 2.69026 24.2395 2.7172 24.3231C2.74415 24.4068 2.79155 24.4824 2.85512 24.5431C2.91869 24.6038 2.9964 24.6477 3.08122 24.6707C3.16603 24.6938 3.25526 24.6953 3.34082 24.6752L6.26882 24.0992C6.32334 24.091 6.37561 24.0718 6.4224 24.0426C6.46918 24.0134 6.50948 23.975 6.54082 23.9296L7.69602 22.7712C7.76944 22.695 7.8615 22.6392 7.96309 22.6095C8.06467 22.5797 8.17226 22.577 8.27522 22.6016L8.75202 22.7392C8.79937 22.7545 8.85008 22.7559 8.89823 22.7435C8.94639 22.731 8.99002 22.7051 9.02402 22.6688L9.36322 22.3296C9.39897 22.2952 9.42426 22.2515 9.43616 22.2033C9.44805 22.1552 9.44606 22.1047 9.43042 22.0576L9.29602 21.5488C9.27372 21.4566 9.2778 21.36 9.30779 21.2701C9.33778 21.1801 9.39247 21.1004 9.46562 21.04L10.1056 20.4C10.1663 20.3173 10.2518 20.2563 10.3497 20.2257C10.4476 20.1952 10.5527 20.1969 10.6496 20.2304L11.1616 20.3648C11.2036 20.3698 11.2461 20.3664 11.2867 20.3549C11.3274 20.3433 11.3653 20.3239 11.3984 20.2976L11.7408 19.9584C11.7785 19.9234 11.8072 19.8798 11.8245 19.8313C11.8418 19.7829 11.8471 19.731 11.84 19.68L11.7184 19.2C11.6795 19.1069 11.6716 19.0038 11.6958 18.9058C11.72 18.8078 11.775 18.7203 11.8528 18.656L12.7392 17.7376C13.0144 17.4727 13.3516 17.2809 13.7199 17.1797C14.0883 17.0786 14.4761 17.0712 14.848 17.1584C15.9001 17.4199 17.0014 17.4089 18.048 17.1264C19.3041 16.7722 20.4193 16.0367 21.2394 15.0215C22.0595 14.0063 22.5442 12.7614 22.6264 11.4589C22.7086 10.1564 22.3843 8.86049 21.6983 7.75022C21.0123 6.63994 19.9984 5.77008 18.7968 5.2608C18.7424 5.24219 18.6839 5.23861 18.6276 5.25044C18.5713 5.26227 18.5192 5.28906 18.4768 5.328C17.8253 6.03546 17.2858 6.83833 16.8768 7.7088C16.8614 7.74664 16.8546 7.78745 16.8569 7.82825C16.8593 7.86904 16.8706 7.90881 16.8903 7.94466C16.9099 7.98051 16.9372 8.01155 16.9703 8.03551C17.0034 8.05947 17.0414 8.07576 17.0816 8.0832C17.6425 8.18849 18.1582 8.46193 18.56 8.8672C19.068 9.38422 19.3526 10.08 19.3526 10.8048C19.3526 11.5296 19.068 12.2254 18.56 12.7424C18.3073 13.0005 18.0056 13.2056 17.6726 13.3457C17.3397 13.4857 16.9821 13.5578 16.6208 13.5578C16.2596 13.5578 15.902 13.4857 15.569 13.3457C15.236 13.2056 14.9343 13.0005 14.6816 12.7424C14.3611 12.4293 14.1221 12.0425 13.9854 11.6158C13.8488 11.1891 13.8186 10.7354 13.8976 10.2944C13.9341 10.159 14.0203 10.0424 14.139 9.96777C14.2577 9.89317 14.4002 9.86609 14.538 9.89195C14.6758 9.91782 14.7987 9.99471 14.8823 10.1073C14.9659 10.2199 15.0039 10.3598 14.9888 10.4992C14.9356 10.7634 14.9516 11.0368 15.0351 11.293C15.1187 11.5492 15.2669 11.7795 15.4656 11.9616C15.7598 12.2566 16.1558 12.428 16.5723 12.4405C16.9887 12.4529 17.3942 12.3057 17.7056 12.0288C17.7491 11.9943 17.7807 11.947 17.7959 11.8937C17.8111 11.8403 17.8093 11.7835 17.7906 11.7312C17.7718 11.679 17.7372 11.6339 17.6916 11.6023C17.6459 11.5707 17.5915 11.5543 17.536 11.5552C16.9865 11.5287 16.4659 11.3009 16.0736 10.9152C15.5296 10.3712 15.36 9.5552 15.4944 8.6368C15.7344 7.0048 16.9248 5.3376 18.0544 4.2176C19.0408 3.16372 20.2623 2.35782 21.6192 1.8656C22.8992 1.424 24.0352 1.5264 24.7488 2.24C25.4624 2.9536 25.4976 4.144 25.2256 5.12C25.2083 5.17498 25.2088 5.23406 25.2272 5.2887C25.2456 5.34334 25.2809 5.39072 25.328 5.424V5.44ZM16.8576 10.1248C17.0015 10.2763 17.194 10.3726 17.4016 10.3968C18.1824 10.5664 18.32 10.1952 17.776 9.6512C17.5712 9.4464 16.8896 9.0112 16.6528 9.2416C16.416 9.472 16.6848 9.9552 16.8576 10.1248ZM5.79842 22.3648C5.69445 22.4688 5.55345 22.5272 5.40642 22.5272C5.25939 22.5272 5.11838 22.4688 5.01442 22.3648C4.91045 22.2608 4.85205 22.1198 4.85205 21.9728C4.85205 21.8258 4.91045 21.6848 5.01442 21.5808L9.74402 16.8896C9.84798 16.7856 9.98899 16.7272 10.136 16.7272C10.283 16.7272 10.4241 16.7856 10.528 16.8896C10.632 16.9936 10.6904 17.1346 10.6904 17.2816C10.6904 17.4286 10.632 17.5696 10.528 17.6736L5.79842 22.3648ZM20.3936 17.808C20.7387 17.8859 21.0593 18.0479 21.3267 18.2796C21.5941 18.5113 21.8001 18.8055 21.9264 19.136L25.1936 27.2608C25.242 27.354 25.3109 27.435 25.3952 27.4976L27.84 29.1968C27.915 29.2467 28.0011 29.2777 28.0907 29.287C28.1803 29.2964 28.2709 29.2839 28.3546 29.2505C28.4383 29.2171 28.5127 29.164 28.5713 29.0955C28.6299 29.0271 28.6711 28.9454 28.6912 28.8576L29.2768 25.92C29.2927 25.867 29.2977 25.8114 29.2917 25.7564C29.2857 25.7015 29.2686 25.6483 29.2416 25.6L28.6304 24.064C28.5967 23.9747 28.5851 23.8785 28.5969 23.7837C28.6086 23.6889 28.6431 23.5984 28.6976 23.52L29.0176 23.1136C29.0848 23.0112 29.12 22.9088 29.0848 22.8416L28.8672 22.4C28.8561 22.3533 28.8302 22.3115 28.7932 22.2809C28.7563 22.2503 28.7103 22.2326 28.6624 22.2304L28.16 22.1248C28.0598 22.1231 27.9627 22.0893 27.8832 22.0282C27.8036 21.9671 27.7459 21.882 27.7184 21.7856L27.376 20.9376C27.3363 20.8435 27.3216 20.7406 27.3334 20.6392C27.3451 20.5377 27.383 20.4409 27.4432 20.3584L27.7632 19.984C27.7918 19.9454 27.81 19.9002 27.8162 19.8526C27.8223 19.805 27.8162 19.7566 27.7984 19.712L27.6288 19.2352C27.5848 19.1545 27.5115 19.0938 27.424 19.0656L26.88 18.9984C26.7798 18.9967 26.6827 18.9629 26.6032 18.9018C26.5236 18.8407 26.4659 18.7556 26.4384 18.6592L25.9616 17.4688C25.8119 17.1252 25.7587 16.7473 25.8077 16.3757C25.8568 16.0041 26.0062 15.653 26.24 15.36C26.9223 14.4612 27.3498 13.3952 27.4777 12.274C27.6056 11.1528 27.4292 10.0179 26.9668 8.98854C26.5045 7.95916 25.7735 7.07331 24.8505 6.42411C23.9275 5.77491 22.8467 5.38633 21.7216 5.2992C21.6669 5.30026 21.6136 5.31708 21.5681 5.34764C21.5227 5.37821 21.487 5.42123 21.4654 5.47154C21.4438 5.52186 21.4372 5.57734 21.4463 5.63134C21.4554 5.68534 21.4799 5.73556 21.5168 5.776L21.7216 5.9776C23.0242 7.35485 23.7432 9.18279 23.728 11.0784C23.7251 12.3168 23.4124 13.5348 22.8182 14.6213C22.2241 15.7079 21.3674 16.6285 20.3264 17.2992C20.2762 17.3247 20.2351 17.3651 20.2088 17.415C20.1826 17.4648 20.1724 17.5216 20.1798 17.5774C20.1872 17.6333 20.2117 17.6854 20.25 17.7267C20.2883 17.768 20.3385 17.7964 20.3936 17.808ZM27.5392 25.696C27.8112 26.3744 26.7584 26.784 26.4864 26.1024L23.968 19.84C23.696 19.2 24.7488 18.752 25.024 19.4304L27.5392 25.696Z" fill="#1E293B"/>
</svg>
