<svg width="32" height="32" viewBox="0 0 32 32" fill="none" xmlns="http://www.w3.org/2000/svg">
<path d="M13 28C13 28.552 12.552 29 12 29H7.99998C5.97865 29 4.33331 27.356 4.33331 25.3333V14.4533C4.33331 12.5973 5.14131 10.8427 6.55065 9.63999L13.0026 4.10799C14.668 2.67999 17.332 2.67999 18.9973 4.10799L25.4506 9.64132C26.5 10.5347 27.2373 11.7733 27.5253 13.1267C27.64 13.6667 27.2946 14.1973 26.7533 14.312C26.2173 14.4187 25.6826 14.0813 25.568 13.54C25.3733 12.6173 24.8693 11.772 24.152 11.1613L17.696 5.62532C16.7546 4.81865 15.2466 4.81865 14.3053 5.62532L7.85198 11.1587C6.88665 11.9827 6.33465 13.1827 6.33465 14.4533V25.3333C6.33465 26.252 7.08265 27 8.00131 27H12.0013C12.5533 27 13.0013 27.448 13.0013 28H13ZM27.3733 27.3733C27.1786 27.568 26.9226 27.6667 26.6666 27.6667C26.4106 27.6667 26.1546 27.5693 25.96 27.3733L23.0986 24.512C21.9546 25.6347 20.392 26.332 18.6666 26.332C15.1746 26.332 12.3333 23.4907 12.3333 19.9987C12.3333 16.5067 15.1746 13.6653 18.6666 13.6653C22.1586 13.6653 25 16.5067 25 19.9987C25 21.036 24.7253 22.0013 24.2813 22.8667L27.3733 25.9587C27.764 26.3493 27.764 26.9827 27.3733 27.3733ZM23 20C23 17.6107 21.056 15.6667 18.6666 15.6667C16.2773 15.6667 14.3333 17.6107 14.3333 20C14.3333 22.3893 16.2773 24.3333 18.6666 24.3333C21.056 24.3333 23 22.3893 23 20Z" fill="#1E293B"/>
</svg>
