<svg width="21" height="29" viewBox="0 0 21 29" fill="none" xmlns="http://www.w3.org/2000/svg">
<path d="M18.0247 16.0319L14.2861 14.3691C14.022 14.2516 13.8515 13.9888 13.8515 13.6997V12.6723C15.1073 11.671 15.9145 10.1289 15.9145 8.4009V6.95469C16.3283 6.72591 16.6022 6.28381 16.6022 5.78866V5.64831C16.6022 2.63724 14.1542 0.1875 11.1453 0.1875H9.77006C6.76118 0.1875 4.31322 2.63724 4.31322 5.64831V6.92181C4.31322 7.35704 4.5004 7.75132 4.82663 8.00362C4.88196 8.04637 4.9402 8.08397 5.00085 8.1165V8.40082C5.00085 10.1289 5.80797 11.6709 7.06373 12.6722V13.6996C7.06373 13.9888 6.89311 14.2515 6.62908 14.369L2.89053 16.0318C1.66617 16.5763 0.875 17.7946 0.875 19.1354V27.6686C0.875 28.0242 1.16306 28.3125 1.51836 28.3125C1.87367 28.3125 2.16173 28.0242 2.16173 27.6686V19.1355C2.16173 19.0609 2.16705 18.9871 2.17477 18.914L3.89744 20.6379C4.16551 20.9063 4.31322 21.2629 4.31322 21.6425V27.6687C4.31322 28.0243 4.60128 28.3126 4.95659 28.3126C5.31189 28.3126 5.59995 28.0243 5.59995 27.6687V21.6425C5.59995 20.9191 5.3185 20.239 4.80733 19.7274L2.75362 17.6722C2.93865 17.48 3.16066 17.3208 3.4132 17.2084L7.08869 15.5737L9.81441 18.3014V27.6686C9.81441 28.0242 10.1025 28.3125 10.4578 28.3125C10.8131 28.3125 11.1011 28.0242 11.1011 27.6686V18.3015L13.8269 15.5738L17.5023 17.2084C17.7548 17.3208 17.9768 17.48 18.1618 17.6723L16.1081 19.7274C15.597 20.239 15.3155 20.9191 15.3155 21.6425V27.6687C15.3155 28.0243 15.6036 28.3126 15.9589 28.3126C16.3142 28.3126 16.6022 28.0243 16.6022 27.6687V21.6425C16.6022 21.263 16.7499 20.9063 17.018 20.6379L18.7406 18.9141C18.7483 18.9872 18.7537 19.0608 18.7537 19.1354V27.6686C18.7537 28.0242 19.0417 28.3125 19.397 28.3125C19.7523 28.3125 20.0404 28.0242 20.0404 27.6686V19.1355C20.0401 17.7947 19.249 16.5764 18.0247 16.0319ZM10.4575 17.1243L8.06584 14.7308C8.24769 14.4246 8.35037 14.0703 8.35037 13.6997V13.4377C8.99914 13.7105 9.71105 13.8617 10.4576 13.8617C11.2042 13.8617 11.916 13.7106 12.5647 13.4378V13.6997C12.5647 14.0704 12.6673 14.4246 12.8493 14.7309L10.4575 17.1243ZM10.4576 12.574C8.15822 12.574 6.28749 10.702 6.28749 8.4009V8.11135C6.68895 7.95211 7.0808 7.6987 7.45593 7.35232C7.71696 7.11118 7.73335 6.70385 7.4923 6.44254C7.25134 6.18131 6.84439 6.16492 6.58318 6.40605C6.26142 6.70333 5.9399 6.89537 5.62783 6.97692C5.62028 6.97889 5.6147 6.97975 5.61076 6.9801C5.60613 6.97108 5.59986 6.9522 5.59986 6.92189V5.64839C5.59986 3.34734 7.4706 1.47525 9.76998 1.47525H11.1452C13.4447 1.47525 15.3153 3.34734 15.3153 5.64839V5.78875C15.3153 5.80961 15.3028 5.82772 15.2864 5.83099C11.4338 6.59242 9.50148 5.15736 8.84954 4.50495C8.59828 4.25351 8.19091 4.25351 7.93974 4.50495C7.68848 4.75639 7.68848 5.16406 7.93974 5.41541C9.9376 7.41472 12.8529 7.45078 14.6277 7.23737V8.40082C14.6277 10.7019 12.757 12.574 10.4576 12.574Z" fill="#1E293B"/>
</svg>
