<svg width="32" height="32" viewBox="0 0 32 32" fill="none" xmlns="http://www.w3.org/2000/svg">
<path d="M27.9416 28.5961C28.7051 28.5961 28.7064 27.4067 27.9416 27.4067H11.0982V21.3971L28.4153 24.1741L29.5511 27.4067H27.9416C27.1778 27.4067 27.1769 28.5961 27.9416 28.5961L30.3904 28.5959C30.7929 28.5959 31.0853 28.1849 30.9516 27.8042L26.7781 15.9261C26.6946 15.6879 26.4696 15.5286 26.2171 15.5286H21.8386C22.516 14.661 23.0836 13.7116 23.4399 12.6639C24.3975 9.84883 23.4546 6.3603 21.2465 4.54901C20.1182 3.62323 18.6819 3.11328 17.2024 3.11328C15.7231 3.11328 14.287 3.62323 13.1583 4.54901C11.0023 6.31763 10.0371 9.58021 10.8633 12.3067C11.2169 13.4734 11.8418 14.542 12.614 15.5286H5.83172C5.58068 15.5286 5.35656 15.6862 5.27196 15.9226L1.01842 27.8007C0.88182 28.1817 1.17406 28.5961 1.57817 28.5961H27.9416ZM13.9127 5.46875C14.8294 4.71692 15.9976 4.30274 17.2026 4.30274C18.4074 4.30274 19.5758 4.71692 20.4923 5.46875C21.3862 6.20191 22.062 7.30915 22.3953 8.58705C22.7241 9.84773 22.6954 11.1595 22.314 12.2807C21.4635 14.7806 19.2325 16.6831 17.2028 18.3581C15.0538 16.576 12.7628 14.4733 12.0015 11.9617C11.3201 9.71296 12.1415 6.92152 13.9127 5.46875ZM16.6687 19.4601C17.0497 19.7733 17.3507 19.7776 17.7369 19.4595C18.7193 18.6498 19.8142 17.7473 20.8025 16.7179H25.7956L27.967 22.8973L11.0982 20.1923V16.7179H13.6456C14.5922 17.7151 15.6522 18.6225 16.6687 19.4601C16.8303 19.5928 15.6522 18.6225 16.6687 19.4601ZM6.25067 16.7179H9.90857V20.0015L5.33715 19.2685L6.25067 16.7179ZM9.90857 21.2062V27.4067H2.42284L4.92937 20.4078L9.90857 21.2062Z" fill="#475569"/>
<path d="M20.8698 9.72492C20.8698 7.70325 19.2249 6.05859 17.2033 6.05859C15.1818 6.05859 13.5371 7.70325 13.5371 9.72492C13.5371 11.7468 15.1818 13.3914 17.2033 13.3914C19.2249 13.3914 20.8698 11.7468 20.8698 9.72492ZM14.7264 9.72492C14.7264 8.35932 15.8375 7.24805 17.2033 7.24805C18.5692 7.24805 19.6801 8.35932 19.6801 9.72492C19.6801 11.0907 18.5692 12.202 17.2033 12.202C15.8375 12.2022 14.7264 11.0909 14.7264 9.72492Z" fill="#475569"/>
</svg>
