<svg width="32" height="32" viewBox="0 0 32 32" fill="none" xmlns="http://www.w3.org/2000/svg">
<g clip-path="url(#clip0_1349_5338)">
<path d="M31.375 5.375H26.875V3.125C26.875 2.29224 26.3371 1.60767 25.625 1.35645V0.625C25.625 0.279785 25.3452 0 25 0C24.6547 0 24.375 0.279785 24.375 0.625V1.35791C24.2651 1.39697 24.1589 1.4458 24.0578 1.50513L11.1584 5.375H5.62519C5.48871 5.37525 5.35297 5.42261 5.25019 5.5L0.250184 9.25001C-0.228576 9.60889 0.0255747 10.375 0.625184 10.375H1.25018V17.9824C0.522645 18.2405 0.000184087 18.9351 0.000184087 19.7498C0.000184087 20.5647 0.522645 21.2593 1.25018 21.5173V21.7319C0.522645 21.99 0.000184087 22.6851 0.000184087 23.5C0.000184087 24.5337 0.841249 25.375 1.87519 25.375C2.54315 25.375 3.16523 25.0156 3.49897 24.4373C3.67157 24.1382 3.56879 23.7561 3.26996 23.5835C2.97089 23.4111 2.58881 23.5137 2.4162 23.8125C2.30512 24.0054 2.09784 24.125 1.87519 24.125C1.53046 24.125 1.25018 23.8445 1.25018 23.5C1.25018 23.1553 1.53046 22.875 1.87519 22.875C2.22016 22.875 2.50019 22.5952 2.50019 22.25V21.5176C3.22748 21.2595 3.75019 20.5647 3.75019 19.75C3.75019 18.9353 3.22748 18.2405 2.50019 17.9824V10.375H22.5V30.75H20V15.375H20.625C20.9702 15.375 21.25 15.0952 21.25 14.75V12.25C21.25 11.9048 20.9702 11.625 20.625 11.625H5.62519C5.27997 11.625 5.00019 11.9048 5.00019 12.25V14.75C5.00019 15.0952 5.27997 15.375 5.62519 15.375H6.25019V30.75H5.62519C5.27997 30.75 5.00019 31.0298 5.00019 31.375C5.00019 31.72 5.27997 32 5.62519 32H28.125C28.4702 32 28.75 31.72 28.75 31.375C28.75 31.0298 28.4702 30.75 28.125 30.75H27.5C27.5 29.7879 27.5 11.1731 27.5 10.375H31.375C31.7202 10.375 32 10.0952 32 9.75001V6C32 5.65479 31.7202 5.375 31.375 5.375ZM1.87519 20.3748C1.53046 20.3748 1.25018 20.0945 1.25018 19.7498C1.25018 19.4053 1.53046 19.125 1.87519 19.125C2.21967 19.125 2.50019 19.4053 2.50019 19.7498C2.50019 20.0945 2.21967 20.3748 1.87519 20.3748ZM23.75 17.2876L26.1005 20.4998L23.75 23.7124V17.2876ZM26.25 22.4126V29.2725L23.8845 25.6453L26.25 22.4126ZM23.8872 15.3582L26.25 11.8142V18.5874L23.8872 15.3582ZM26.25 9.12501H23.3142L26.25 7.16773V9.12501ZM14.3749 6.625L11.2287 8.98462L7.68915 6.625H14.3749ZM25.625 5.375H24.375V3.125C24.375 2.94019 24.456 2.76758 24.5961 2.64868L25.0752 2.50488C25.3862 2.54224 25.625 2.8064 25.625 3.125V5.375ZM24.8107 6.625L21.2712 8.98462L18.125 6.625H24.8107ZM16.25 6.78125L19.375 9.12501H13.1249L16.25 6.78125ZM23.1259 3.08985C23.1257 3.10156 23.125 3.11328 23.125 3.125V5.375C21.9182 5.375 16.3137 5.375 15.5085 5.375L23.1259 3.08985ZM5.64643 6.76538L9.18598 9.12501H2.50019L5.64643 6.76538ZM25.7072 10.375L23.75 13.3108V10.375H25.7072ZM23.75 27.7273L25.7211 30.7498H23.75V27.7273ZM7.50019 15.375H8.12494V14.75V14.125H6.25019V12.875H20V14.125H8.12494V14.75V15.375H18.75V30.7498H16.25V27.8748H16.875C17.2202 27.8748 17.5 27.595 17.5 27.2498C17.5 26.9046 17.2202 26.6248 16.875 26.6248H9.37495C9.02997 26.6248 8.74994 26.9046 8.74994 27.2498C8.74994 27.595 9.02997 27.8748 9.37495 27.8748H9.99995V30.7498H7.50019V15.375ZM14.9999 27.8748V30.7498H11.2499V27.8748H14.9999ZM30.75 9.12501H27.5V6.625H30.75V9.12501Z" fill="#475569"/>
<path d="M9.375 25.375H11.875C12.2202 25.375 12.5 25.0952 12.5 24.75V22.25C12.5 21.905 12.2202 21.625 11.875 21.625H9.375C9.03003 21.625 8.75 21.905 8.75 22.25V24.75C8.75 25.0952 9.03003 25.375 9.375 25.375ZM10 22.875H11.25V24.125H10V22.875Z" fill="#475569" stroke="white" stroke-width="0.5"/>
<path d="M14.375 25.375H16.875C17.2202 25.375 17.5 25.0952 17.5 24.75V22.25C17.5 21.905 17.2202 21.625 16.875 21.625H14.375C14.03 21.625 13.75 21.905 13.75 22.25V24.75C13.75 25.0952 14.0298 25.375 14.375 25.375ZM15 22.875H16.25V24.125H15V22.875Z" fill="#475569" stroke="white" stroke-width="0.5"/>
<path d="M9.375 20.3748H11.875C12.2202 20.3748 12.5 20.095 12.5 19.7498V17.25C12.5 16.9048 12.2202 16.625 11.875 16.625H9.375C9.03003 16.625 8.75 16.9048 8.75 17.25V19.7498C8.75 20.095 9.03003 20.3748 9.375 20.3748ZM10 17.875H11.25V19.125H10V17.875Z" fill="#475569" stroke="white" stroke-width="0.5"/>
<path d="M14.375 20.3748H16.875C17.2202 20.3748 17.5 20.095 17.5 19.7498V17.25C17.5 16.9048 17.2202 16.625 16.875 16.625H14.375C14.03 16.625 13.75 16.9048 13.75 17.25V19.7498C13.75 20.095 14.0298 20.3748 14.375 20.3748ZM15 17.875H16.25V19.125H15V17.875Z" fill="#475569" stroke="white" stroke-width="0.5"/>
</g>
<defs>
<clipPath id="clip0_1349_5338">
<rect width="32" height="32" fill="white"/>
</clipPath>
</defs>
</svg>
