<svg width="32" height="32" viewBox="0 0 32 32" fill="none" xmlns="http://www.w3.org/2000/svg">
<g clip-path="url(#clip0_14_1979)">
<g clip-path="url(#clip1_14_1979)">
<path d="M31.8403 16.585L29.2344 14.3257C29.6658 13.7239 29.9983 13.0723 29.9983 12.4929C29.9983 10.8525 28.6636 9.51782 27.0232 9.51782C26.1499 9.51782 25.3633 9.89624 24.8186 10.4976L18.6321 5.13403C18.8403 4.7395 18.9751 4.34277 18.9751 3.9751C18.9751 2.33472 17.6404 1 16 1C14.3596 1 13.0249 2.33472 13.0249 3.9751C13.0249 4.34473 13.1614 4.7439 13.3713 5.14062L7.19824 10.5171C6.65307 9.90454 5.85937 9.51782 4.9768 9.51782C3.33642 9.51782 2.00171 10.8525 2.00171 12.4929C2.00171 13.0825 2.34619 13.7471 2.78882 14.3577L0.158935 16.6482C-0.0529785 16.8325 -0.0529785 17.1724 0.158935 17.3567L15.6914 30.8852C15.8664 31.0376 16.1348 31.0373 16.3093 30.8845L24.8728 23.3914C25.0681 23.2207 25.0879 22.9238 24.917 22.7285C24.7461 22.5334 24.4492 22.5137 24.2541 22.6843L22.8196 23.9397L17.4719 17.8281V14.7737L24.0813 11.1016L24.302 11.293C24.1394 11.6602 24.0483 12.0662 24.0483 12.4929C24.0483 14.0493 26.446 16.1269 26.7195 16.3586C26.8926 16.5054 27.154 16.5054 27.3269 16.3586C27.4551 16.25 28.0503 15.7356 28.6465 15.0593L30.8176 16.9414L25.991 21.1645C25.811 21.322 25.7793 21.5984 25.9189 21.7925C26.0784 22.0142 26.4038 22.0518 26.6096 21.8716L31.842 17.2932C32.0535 17.1084 32.0525 16.7688 31.8403 16.585ZM16 1.93945C17.1223 1.93945 18.0354 2.85254 18.0354 3.9751C18.0354 4.73266 16.8892 6.03833 16 6.85522C15.4473 6.34741 14.7954 5.65088 14.3809 5.01416C14.3718 4.99805 14.3618 4.98242 14.3508 4.96704C14.116 4.59717 13.9644 4.25 13.9644 3.97485C13.9644 2.85254 14.8774 1.93945 16 1.93945ZM15.6963 7.84057C15.8694 7.98755 16.1309 7.98755 16.3037 7.84057C16.4683 7.70117 17.4016 6.89331 18.1191 5.93286L23.3257 10.4465L17.074 13.9199L11.1372 8.33227L13.8852 5.93896C14.6023 6.89673 15.532 7.70166 15.6963 7.84057ZM4.9768 10.4575C6.09912 10.4575 7.0122 11.3706 7.0122 12.4929C7.0122 13.2507 5.86596 14.5564 4.9768 15.3733C4.08765 14.5561 2.94116 13.2505 2.94116 12.4929C2.94116 11.3706 3.85425 10.4575 4.9768 10.4575ZM3.37988 15.0886C3.96704 15.7502 4.54663 16.2515 4.67309 16.3586C4.84595 16.5054 5.10742 16.5054 5.28052 16.3586C5.55395 16.1269 7.95166 14.0493 7.95166 12.4929C7.95166 12.0757 7.86499 11.6785 7.70923 11.3179L10.425 8.95239L16.5322 14.7002V17.5349H11.9915C11.8896 17.5349 11.7908 17.5679 11.7095 17.6287L6.43945 21.5813L1.18237 17.0024L3.37988 15.0886ZM15.9993 29.9075L7.16406 22.2122L12.1482 18.4741H16.7891L22.1125 24.5583L15.9993 29.9075ZM27.0232 15.3733C26.134 14.5561 24.9875 13.2505 24.9875 12.4929C24.9875 11.3706 25.9009 10.4575 27.0232 10.4575C28.1455 10.4575 29.0588 11.3706 29.0588 12.4929C29.0588 13.2505 27.9123 14.5564 27.0232 15.3733Z" fill="#1E293B"/>
<path d="M16 5.44678C16.8115 5.44678 17.4719 4.78662 17.4719 3.9751C17.4719 3.16333 16.8115 2.50317 16 2.50317C15.1885 2.50317 14.5281 3.16333 14.5281 3.9751C14.5281 4.78662 15.1885 5.44678 16 5.44678ZM16 3.44263C16.2935 3.44263 16.5325 3.6814 16.5325 3.9751C16.5325 4.26855 16.2935 4.50732 16 4.50732C15.7065 4.50732 15.4675 4.26855 15.4675 3.9751C15.4675 3.6814 15.7065 3.44263 16 3.44263Z" fill="#1E293B"/>
<path d="M27.0232 11.021C26.2117 11.021 25.5513 11.6814 25.5513 12.4929C25.5513 13.3044 26.2117 13.9648 27.0232 13.9648C27.8347 13.9648 28.4951 13.3044 28.4951 12.4929C28.4951 11.6814 27.8347 11.021 27.0232 11.021ZM27.0232 13.0254C26.7297 13.0254 26.4907 12.7866 26.4907 12.4929C26.4907 12.1995 26.7297 11.9607 27.0232 11.9607C27.3166 11.9607 27.5557 12.1995 27.5557 12.4929C27.5557 12.7866 27.3166 13.0254 27.0232 13.0254Z" fill="#1E293B"/>
<path d="M13.0249 24.0173C13.0249 25.5735 15.4229 27.6511 15.6963 27.8828C15.7837 27.9573 15.8918 27.9944 16 27.9944C16.1082 27.9944 16.2161 27.9573 16.3037 27.8828C16.5771 27.6511 18.9751 25.5735 18.9751 24.0173C18.9751 22.3767 17.6404 21.0422 16 21.0422C14.3596 21.0422 13.0249 22.3767 13.0249 24.0173ZM18.0354 24.0173C18.0354 24.7749 16.8892 26.0806 16 26.8975C15.1108 26.0806 13.9644 24.7747 13.9644 24.0173C13.9644 22.8948 14.8774 21.9817 16 21.9817C17.1223 21.9817 18.0354 22.8948 18.0354 24.0173Z" fill="#1E293B"/>
<path d="M14.5281 24.0173C14.5281 24.8289 15.1885 25.489 16 25.489C16.8115 25.489 17.4719 24.8289 17.4719 24.0173C17.4719 23.2056 16.8115 22.5454 16 22.5454C15.1885 22.5454 14.5281 23.2056 14.5281 24.0173ZM16.5325 24.0173C16.5325 24.3108 16.2935 24.5496 16 24.5496C15.7065 24.5496 15.4675 24.3108 15.4675 24.0173C15.4675 23.7236 15.7065 23.4849 16 23.4849C16.2935 23.4849 16.5325 23.7236 16.5325 24.0173Z" fill="#1E293B"/>
<path d="M6.44873 12.4929C6.44873 11.6814 5.78833 11.021 4.97681 11.021C4.16528 11.021 3.50488 11.6814 3.50488 12.4929C3.50488 13.3044 4.16528 13.9648 4.97681 13.9648C5.78833 13.9648 6.44873 13.3044 6.44873 12.4929ZM4.44434 12.4929C4.44434 12.1995 4.68311 11.9607 4.97681 11.9607C5.27026 11.9607 5.50903 12.1995 5.50903 12.4929C5.50903 12.7866 5.27026 13.0254 4.97681 13.0254C4.68311 13.0254 4.44434 12.7864 4.44434 12.4929Z" fill="#1E293B"/>
</g>
</g>
<defs>
<clipPath id="clip0_14_1979">
<rect width="32" height="32" fill="white"/>
</clipPath>
<clipPath id="clip1_14_1979">
<rect width="32" height="32" fill="white"/>
</clipPath>
</defs>
</svg>
