<svg width="32" height="32" viewBox="0 0 32 32" fill="none" xmlns="http://www.w3.org/2000/svg">
<g clip-path="url(#clip0_14_24077)">
<path d="M31.0449 6.85577C31.0303 6.82668 31.0206 6.79274 31.0061 6.76365C30.9673 6.69092 30.914 6.62304 30.8655 6.55517C30.8315 6.50668 30.8024 6.45335 30.7637 6.40486C30.7588 6.40001 30.754 6.39517 30.7491 6.39032C30.4776 6.07032 30.1188 5.83274 29.7067 5.71153L20.8097 3.0982C20.4121 1.88607 19.1952 1.09092 17.8861 1.26547L3.06426 3.26789C2.35153 3.36486 1.72123 3.73335 1.28001 4.30547C0.843651 4.87759 0.65456 5.59032 0.75153 6.30304L3.74305 28.4121C3.92729 29.7697 5.08608 30.754 6.41941 30.754C6.54062 30.754 6.66183 30.7443 6.78305 30.7297L21.6 28.7273C22.6812 28.5818 23.554 27.7915 23.8352 26.754C23.937 26.7685 24.0437 26.7782 24.1455 26.7782C25.0958 26.7782 25.9733 26.1576 26.2497 25.2024L28.8437 16.3733C28.8437 16.3685 28.8485 16.3685 28.8485 16.3637L31.1806 8.42668C31.3406 7.90304 31.2824 7.35032 31.0449 6.85577ZM23.3261 21.3527L23.0158 19.0546L23.9612 15.84C24.0146 15.6558 23.9079 15.4618 23.7237 15.4037C23.5394 15.3503 23.3455 15.457 23.2873 15.6412L22.783 17.3527L22.2691 13.5564L24.1018 14.0946C24.1358 14.1043 24.1697 14.1091 24.1988 14.1091C24.3491 14.1091 24.4897 14.0121 24.5333 13.857L26.5164 7.12729C26.5406 7.04001 26.5309 6.94304 26.4873 6.86062C26.4437 6.7782 26.3661 6.72001 26.2788 6.69092L21.1346 5.1782L20.9552 3.86911L27.8643 5.90062L25.1103 15.2679L23.3261 21.3527ZM21.2412 5.94426L25.7503 7.26789L23.9661 13.3285L22.1673 12.8L21.2412 5.94426ZM28.5382 6.09941L29.503 6.38547C29.8182 6.47759 30.0849 6.67153 30.2788 6.9382C30.3176 6.99153 30.3612 7.04486 30.3903 7.10304C30.5794 7.45214 30.623 7.85456 30.5115 8.23759L28.2764 15.84L25.8812 15.137L28.5382 6.09941ZM21.503 28.0388L6.68608 30.0412C5.59517 30.1915 4.58668 29.4206 4.43638 28.3249L1.44486 6.21577C1.37214 5.68729 1.51274 5.16365 1.83759 4.73698C2.16244 4.31032 2.63274 4.0388 3.15638 3.96607L17.9733 1.96365C18.0703 1.94426 18.1576 1.93941 18.2449 1.93941C19.2291 1.93941 20.0873 2.66668 20.223 3.67032L22.3079 19.0643L22.8461 23.0594L23.2146 25.7794C23.2388 25.954 23.2388 26.1285 23.2146 26.303C23.1079 27.2049 22.4 27.9176 21.503 28.0388ZM25.5758 25.0085C25.3673 25.7309 24.6546 26.1624 23.9321 26.0606C23.9321 25.9394 23.9273 25.8133 23.9079 25.6921L23.5491 23.0546L25.6824 15.8061L28.0776 16.5091L25.5758 25.0085Z" fill="#1E293B"/>
<path d="M18.2303 22.8752C18.4194 22.8509 18.5551 22.6715 18.5309 22.4824C18.5066 22.2933 18.3272 22.1576 18.1382 22.1818L8.383 23.5006C8.19391 23.5249 8.05815 23.7042 8.08239 23.8933C8.10664 24.0679 8.25694 24.1939 8.42663 24.1939C8.44118 24.1939 8.45573 24.1939 8.47512 24.1891L18.2303 22.8752Z" fill="#1E293B"/>
<path d="M18.5116 24.9552L8.75641 26.2739C8.56732 26.2982 8.43156 26.4776 8.45581 26.6667C8.48005 26.8412 8.63035 26.9673 8.80005 26.9673C8.81459 26.9673 8.82914 26.9673 8.84853 26.9624L18.6037 25.6436C18.7928 25.6194 18.9285 25.44 18.9043 25.2509C18.88 25.0618 18.7007 24.9309 18.5116 24.9552Z" fill="#1E293B"/>
<path d="M11.9272 19.5685C12.2036 19.5685 12.4848 19.5491 12.766 19.5152C12.7806 19.5152 12.7951 19.5152 12.8145 19.5103C12.8242 19.5103 12.8388 19.5055 12.8485 19.5006C14.9042 19.2146 16.7369 17.954 17.7551 16.1309C18.4582 14.8655 18.7248 13.44 18.5309 12.0049C18.5309 12.0049 18.5309 12.0049 18.5309 12C18.5309 12 18.5309 12 18.5309 11.9952C18.3369 10.56 17.6969 9.25578 16.6885 8.22305C15.2 6.70548 13.1394 5.9976 11.0303 6.27881C8.92603 6.56487 7.1224 7.79639 6.08967 9.65336C5.38664 10.9188 5.11997 12.3443 5.31391 13.7843C5.50785 15.2097 6.13816 16.5043 7.13694 17.5321C7.14179 17.537 7.15149 17.5467 7.15634 17.5564C8.40725 18.8509 10.1479 19.5685 11.9272 19.5685ZM6.05573 14.0461L8.68846 13.6921C8.81452 14.4776 8.99876 15.2194 9.23149 15.8837C8.54785 16.1552 7.94179 16.4849 7.4424 16.8534C6.72967 16.0534 6.25937 15.0934 6.05573 14.0461ZM9.23634 10.7928C9.42058 10.8024 9.60967 10.8073 9.79876 10.8073C10.2739 10.8073 10.7685 10.7734 11.2679 10.72L11.5248 12.6012L9.28967 12.9018C9.20725 12.1649 9.1927 11.4521 9.23634 10.7928ZM17.7697 11.7528L15.1369 12.1067C15.0109 11.3212 14.8266 10.5794 14.5939 9.91033C15.2776 9.63881 15.8836 9.30912 16.383 8.94063C17.0909 9.74548 17.566 10.7055 17.7697 11.7528ZM14.5939 15.0109C13.9442 14.9818 13.2606 15.0061 12.5624 15.0788L12.3103 13.1976L14.5406 12.897C14.6182 13.6291 14.6376 14.3418 14.5939 15.0109ZM11.8691 15.1709C11.1757 15.2824 10.5115 15.4424 9.89088 15.6412C9.6727 15.0158 9.49816 14.3224 9.37694 13.5952L11.6121 13.2946L11.8691 15.1709ZM11.9612 15.8643L12.3588 18.8024C11.5539 18.6618 10.7442 17.7018 10.143 16.3006C10.7151 16.1164 11.3309 15.9709 11.9612 15.8643ZM10.9479 18.7782C9.83755 18.594 8.79513 18.1043 7.94179 17.3479C8.37331 17.0424 8.89694 16.7709 9.48361 16.5382C9.89088 17.4885 10.3951 18.2594 10.9479 18.7782ZM13.0521 18.7055L12.6545 15.7721C13.2897 15.7043 13.92 15.68 14.5163 15.7091C14.4533 16.1503 14.3709 16.5673 14.2497 16.9455C13.9733 17.8473 13.5418 18.4631 13.0521 18.7055ZM13.6824 9.49821C13.1103 9.68245 12.4994 9.8279 11.8642 9.93457L11.4666 7.00124C12.223 7.14669 13.0569 8.04366 13.6824 9.49821ZM11.9612 10.6231C12.6545 10.5115 13.3236 10.3515 13.9394 10.1528C14.1527 10.7637 14.3224 11.4521 14.4436 12.2037L12.2133 12.5043L11.9612 10.6231ZM14.3418 9.26063C13.9297 8.30063 13.4157 7.52487 12.8533 7.00609C13.9733 7.18063 15.0206 7.67518 15.8836 8.44609C15.4521 8.75154 14.9285 9.0279 14.3418 9.26063ZM10.7782 7.09336L11.1757 10.0267C10.5357 10.0946 9.91028 10.1188 9.30907 10.0897C9.5127 8.58184 10.0412 7.44245 10.7782 7.09336ZM14.4 18.3224C14.6036 17.9928 14.7782 17.6049 14.9236 17.154C15.0594 16.7273 15.1563 16.257 15.2194 15.7624C15.8448 15.8303 16.4218 15.9564 16.9212 16.1358C16.2909 17.1055 15.423 17.857 14.4 18.3224ZM17.2751 15.52C16.6933 15.297 16.0242 15.1418 15.2921 15.0594C15.3406 14.3418 15.3212 13.5806 15.2339 12.8L17.8666 12.4461C17.9491 13.5128 17.7454 14.5649 17.2751 15.52ZM9.43513 7.47639C9.0327 8.12609 8.74664 9.00366 8.60603 10.0364C7.98058 9.96851 7.40361 9.84245 6.90422 9.66306C7.53452 8.69336 8.40725 7.94184 9.43513 7.47639ZM6.55028 10.2837C7.1321 10.5067 7.80604 10.657 8.53816 10.7394C8.48967 11.4473 8.50906 12.2085 8.59634 12.9988L5.96361 13.3528C5.87634 12.2861 6.07997 11.2388 6.55028 10.2837Z" fill="#1E293B"/>
</g>
<defs>
<clipPath id="clip0_14_24077">
<rect width="32" height="32" fill="white"/>
</clipPath>
</defs>
</svg>
