<svg width="32" height="32" viewBox="0 0 32 32" fill="none" xmlns="http://www.w3.org/2000/svg">
<g clip-path="url(#clip0_14_24071)">
<g clip-path="url(#clip1_14_24071)">
<path d="M31.375 30.0555H29.4444V14.4529C29.4444 14.1078 29.1645 13.8279 28.8194 13.8279C28.4742 13.8279 28.1944 14.1078 28.1944 14.4529V30.0555H23.7064V24.8587C23.7064 24.5136 23.4265 24.2337 23.0814 24.2337H19.0059C18.6607 24.2337 18.3809 24.5136 18.3809 24.8587V30.0555H13.998V14.0884V4.32724H28.1944V14.4529C28.1944 14.798 28.4742 15.0779 28.8194 15.0779C29.1645 15.0779 29.4444 14.798 29.4444 14.4529V3.70224C29.4444 3.35711 29.1645 3.07724 28.8194 3.07724H27.2817V1.31949C27.2817 0.974363 27.0018 0.694489 26.6567 0.694489H15.6934C15.3482 0.694489 15.0684 0.974363 15.0684 1.31949V3.07724H13.3731C13.0279 3.07724 12.7481 3.35711 12.7481 3.70224V13.4634H7.84875V11.5013C7.84875 11.1562 7.56888 10.8763 7.22375 10.8763H2.917C2.57188 10.8763 2.292 11.1562 2.292 11.5013V14.0884V30.0555H0.625C0.279875 30.0555 0 30.3354 0 30.6805C0 31.0256 0.279875 31.3055 0.625 31.3055H31.375C31.7201 31.3055 32 31.0256 32 30.6805C32 30.3354 31.7201 30.0555 31.375 30.0555ZM16.3184 1.94449H26.0317V3.07724H16.3184V1.94449ZM3.542 12.1263H6.59875V13.4634H3.542V12.1263ZM8.86619 30.0552H7.34513V27.8235H8.86619V30.0552ZM12.7481 30.0555H10.1163V27.1985C10.1163 26.8534 9.83638 26.5735 9.49125 26.5735H6.72019C6.37506 26.5735 6.09519 26.8534 6.09519 27.1985V30.0555H3.542V14.7134H7.22375H12.7481V30.0555ZM22.4564 30.0552H19.6309V25.4837H22.4564V30.0552Z" fill="#1E293B"/>
<path d="M20.0283 7.19107C20.0283 6.84595 19.7485 6.56607 19.4033 6.56607H16.754C16.4089 6.56607 16.129 6.84595 16.129 7.19107V9.84038C16.129 10.1855 16.4089 10.4654 16.754 10.4654H19.4033C19.7485 10.4654 20.0283 10.1855 20.0283 9.84038V7.19107ZM18.7783 9.21532H17.379V7.81601H18.7783V9.21532Z" fill="#1E293B"/>
<path d="M25.8858 7.19107C25.8858 6.84595 25.6059 6.56607 25.2608 6.56607H22.6115C22.2663 6.56607 21.9865 6.84595 21.9865 7.19107V9.84038C21.9865 10.1855 22.2663 10.4654 22.6115 10.4654H25.2608C25.6059 10.4654 25.8858 10.1855 25.8858 9.84038V7.19107ZM24.6358 9.21532H23.2365V7.81601H24.6358V9.21532Z" fill="#1E293B"/>
<path d="M20.0283 12.6562C20.0283 12.3111 19.7485 12.0312 19.4033 12.0312H16.754C16.4089 12.0312 16.129 12.3111 16.129 12.6562V15.3056C16.129 15.6507 16.4089 15.9306 16.754 15.9306H19.4033C19.7485 15.9306 20.0283 15.6507 20.0283 15.3056V12.6562ZM18.7783 14.6806H17.379V13.2812H18.7783V14.6806Z" fill="#1E293B"/>
<path d="M25.8858 12.6562C25.8858 12.3111 25.6059 12.0312 25.2608 12.0312H22.6115C22.2663 12.0312 21.9865 12.3111 21.9865 12.6562V15.3056C21.9865 15.6507 22.2663 15.9306 22.6115 15.9306H25.2608C25.6059 15.9306 25.8858 15.6507 25.8858 15.3056V12.6562ZM24.6358 14.6806H23.2365V13.2812H24.6358V14.6806Z" fill="#1E293B"/>
<path d="M19.4033 17.4961H16.754C16.4089 17.4961 16.129 17.776 16.129 18.1211V20.7704C16.129 21.1155 16.4089 21.3954 16.754 21.3954H19.4033C19.7485 21.3954 20.0283 21.1155 20.0283 20.7704V18.1211C20.0283 17.776 19.7485 17.4961 19.4033 17.4961ZM18.7783 20.1454H17.379V18.7461H18.7783V20.1454Z" fill="#1E293B"/>
<path d="M25.2608 17.4961H22.6115C22.2663 17.4961 21.9865 17.776 21.9865 18.1211V20.7704C21.9865 21.1155 22.2663 21.3954 22.6115 21.3954H25.2608C25.6059 21.3954 25.8858 21.1155 25.8858 20.7704V18.1211C25.8858 17.776 25.6059 17.4961 25.2608 17.4961ZM24.6358 20.1454H23.2365V18.7461H24.6358V20.1454Z" fill="#1E293B"/>
<path d="M5.53979 16.1535C5.19467 16.1535 4.91479 16.4333 4.91479 16.7785V24.6087C4.91479 24.9538 5.19467 25.2337 5.53979 25.2337C5.88492 25.2337 6.16479 24.9538 6.16479 24.6087V16.7785C6.16479 16.4333 5.88492 16.1535 5.53979 16.1535Z" fill="#1E293B"/>
<path d="M8.09936 25.2337C8.44449 25.2337 8.72436 24.9538 8.72436 24.6087V16.7785C8.72436 16.4333 8.44449 16.1535 8.09936 16.1535C7.75424 16.1535 7.47437 16.4333 7.47437 16.7785V24.6087C7.47437 24.9538 7.75418 25.2337 8.09936 25.2337Z" fill="#1E293B"/>
<path d="M10.6592 25.2337C11.0043 25.2337 11.2842 24.9538 11.2842 24.6087V16.7785C11.2842 16.4333 11.0043 16.1535 10.6592 16.1535C10.3141 16.1535 10.0342 16.4333 10.0342 16.7785V24.6087C10.0342 24.9538 10.314 25.2337 10.6592 25.2337Z" fill="#1E293B"/>
</g>
</g>
<defs>
<clipPath id="clip0_14_24071">
<rect width="32" height="32" fill="white"/>
</clipPath>
<clipPath id="clip1_14_24071">
<rect width="32" height="32" fill="white"/>
</clipPath>
</defs>
</svg>
