<svg width="32" height="32" viewBox="0 0 32 32" fill="none" xmlns="http://www.w3.org/2000/svg">
<g clip-path="url(#clip0_14_2005)">
<path d="M30.7584 19.322L30.7514 19.3105C30.4313 18.823 29.9426 18.4708 29.3789 18.3213C28.8152 18.1717 28.2161 18.2354 27.6964 18.5L24.4924 20.139C24.1089 19.6 23.5444 19.2169 22.9018 19.0596C22.2593 18.9022 21.5816 18.9812 20.9924 19.282L16.9579 21.35C16.7473 21.4582 16.5137 21.5139 16.2769 21.5124C16.0401 21.5109 15.8072 21.4523 15.5979 21.3415L12.8479 19.8815C11.8072 19.3259 10.6329 19.0696 9.45536 19.1409C8.27779 19.2122 7.14301 19.6084 6.17695 20.2855L5.86595 18.8045C5.8524 18.74 5.82626 18.6789 5.78901 18.6246C5.75177 18.5702 5.70415 18.5238 5.64891 18.4879C5.59367 18.4521 5.53189 18.4275 5.46711 18.4156C5.40233 18.4036 5.33584 18.4046 5.27145 18.4185L1.39445 19.255C1.26537 19.2828 1.15255 19.3606 1.08061 19.4713C1.00867 19.582 0.983444 19.7167 1.01045 19.846L3.26795 30.6025C3.29096 30.7153 3.35218 30.8166 3.44127 30.8895C3.53035 30.9624 3.64185 31.0023 3.75695 31.0025C3.79223 31.0023 3.8274 30.9987 3.86195 30.9915L7.74095 30.1565C7.87022 30.1288 7.98325 30.051 8.0553 29.9401C8.12736 29.8293 8.15258 29.6944 8.12544 29.565L7.92545 28.602L9.25095 28.317C9.63713 28.2347 10.0346 28.2194 10.4259 28.272L16.6604 28.9555C17.9548 29.1269 19.2671 28.8189 20.3499 28.0895L30.3364 21.3895C30.663 21.1684 30.89 20.8282 30.9689 20.4418C31.0478 20.0553 30.9722 19.6534 30.7584 19.322ZM4.14345 29.9055L2.09095 20.128L4.99095 19.503L7.04495 29.281L4.14345 29.9055ZM29.7799 20.5605L19.7939 27.2605C18.9081 27.8541 17.8357 28.103 16.7789 27.9605L10.5449 27.277C10.0432 27.2098 9.53371 27.2301 9.03894 27.337L7.71795 27.621L6.39995 21.35L6.74145 21.112C7.55699 20.5384 8.51567 20.2023 9.51085 20.141C10.506 20.0797 11.4987 20.2957 12.3784 20.765L15.1284 22.225C15.4798 22.4119 15.8711 22.5109 16.269 22.5136C16.667 22.5163 17.0596 22.4226 17.4134 22.2405L21.4499 20.17C21.8533 19.9638 22.3204 19.9204 22.7549 20.0486C23.1894 20.1768 23.5581 20.4669 23.7849 20.859C23.8518 20.9737 23.8707 21.1102 23.8376 21.2389C23.8045 21.3675 23.7219 21.4778 23.6079 21.546L18.0449 24.846C17.0722 25.4267 15.913 25.6103 14.8084 25.3585L9.79044 24.1585L9.55794 25.1315L14.5809 26.3315C15.9367 26.6421 17.3601 26.4181 18.5549 25.706L24.1184 22.406C24.3462 22.2692 24.5335 22.0743 24.6613 21.8413C24.789 21.6083 24.8526 21.3456 24.8454 21.08L28.1499 19.389C28.4492 19.237 28.7939 19.2004 29.1184 19.286C29.4429 19.3717 29.7246 19.5736 29.9099 19.8535L29.9154 19.8625C29.9874 19.9738 30.0135 20.1086 29.9882 20.2388C29.963 20.3689 29.8883 20.4842 29.7799 20.5605Z" fill="#1E293B"/>
<path d="M4.23675 20.6906L3.25806 20.8959L3.46317 21.8737L4.44186 21.6683L4.23675 20.6906Z" fill="#1E293B"/>
<path d="M10.5 14C10.3674 14 10.2402 14.0527 10.1464 14.1464C10.0527 14.2402 10 14.3674 10 14.5V17.5C10 17.6326 10.0527 17.7598 10.1464 17.8536C10.2402 17.9473 10.3674 18 10.5 18H12.5C12.6326 18 12.7598 17.9473 12.8536 17.8536C12.9473 17.7598 13 17.6326 13 17.5V14.5C13 14.3674 12.9473 14.2402 12.8536 14.1464C12.7598 14.0527 12.6326 14 12.5 14H10.5ZM12 17H11V15H12V17Z" fill="#1E293B"/>
<path d="M15 10.5C14.8674 10.5 14.7402 10.5527 14.6464 10.6464C14.5527 10.7402 14.5 10.8674 14.5 11V17.5C14.5 17.6326 14.5527 17.7598 14.6464 17.8536C14.7402 17.9473 14.8674 18 15 18H17C17.1326 18 17.2598 17.9473 17.3536 17.8536C17.4473 17.7598 17.5 17.6326 17.5 17.5V11C17.5 10.8674 17.4473 10.7402 17.3536 10.6464C17.2598 10.5527 17.1326 10.5 17 10.5H15ZM16.5 17H15.5V11.5H16.5V17Z" fill="#1E293B"/>
<path d="M19.5 12C19.3674 12 19.2402 12.0527 19.1464 12.1464C19.0527 12.2402 19 12.3674 19 12.5V17.5C19 17.6326 19.0527 17.7598 19.1464 17.8536C19.2402 17.9473 19.3674 18 19.5 18H21.5C21.6326 18 21.7598 17.9473 21.8536 17.8536C21.9473 17.7598 22 17.6326 22 17.5V12.5C22 12.3674 21.9473 12.2402 21.8536 12.1464C21.7598 12.0527 21.6326 12 21.5 12H19.5ZM21 17H20V13H21V17Z" fill="#1E293B"/>
<path d="M24 9.5C23.8674 9.5 23.7402 9.55268 23.6464 9.64645C23.5527 9.74021 23.5 9.86739 23.5 10V17.5C23.5 17.6326 23.5527 17.7598 23.6464 17.8536C23.7402 17.9473 23.8674 18 24 18H26C26.1326 18 26.2598 17.9473 26.3536 17.8536C26.4473 17.7598 26.5 17.6326 26.5 17.5V10C26.5 9.86739 26.4473 9.74021 26.3536 9.64645C26.2598 9.55268 26.1326 9.5 26 9.5H24ZM25.5 17H24.5V10.5H25.5V17Z" fill="#1E293B"/>
<path d="M10.5 6.207L13.6465 9.3535C13.7402 9.44724 13.8674 9.49989 14 9.49989C14.1326 9.49989 14.2597 9.44724 14.3535 9.3535L20 3.707L24.1465 7.8535C24.2402 7.94724 24.3674 7.99989 24.5 7.99989C24.6326 7.99989 24.7597 7.94724 24.8535 7.8535L30 2.707V4H31V1.5C31 1.36739 30.9473 1.24021 30.8535 1.14645C30.7598 1.05268 30.6326 1 30.5 1H28V2H29.293L24.5 6.793L20.3535 2.6465C20.2597 2.55276 20.1326 2.50011 20 2.50011C19.8674 2.50011 19.7402 2.55276 19.6465 2.6465L14 8.293L10.8535 5.1465C10.7597 5.05276 10.6326 5.00011 10.5 5.00011C10.3674 5.00011 10.2402 5.05276 10.1465 5.1465L3.14648 12.1465L3.85348 12.8535L10.5 6.207Z" fill="#1E293B" stroke="#1E293B" stroke-width="0.15"/>
</g>
<defs>
<clipPath id="clip0_14_2005">
<rect width="32" height="32" fill="white"/>
</clipPath>
</defs>
</svg>
