<svg width="32" height="32" viewBox="0 0 32 32" fill="none" xmlns="http://www.w3.org/2000/svg">
<g clip-path="url(#clip0_14_2031)">
<g clip-path="url(#clip1_14_2031)">
<path d="M18.1411 20.2549C18.1411 23.1985 20.5273 25.5847 23.4709 25.5847C26.4142 25.5847 28.8004 23.1985 28.8004 20.2549C28.8004 17.3116 26.4142 14.9254 23.4709 14.9254C20.5286 14.9286 18.1443 17.3129 18.1411 20.2549ZM23.4709 15.9912C25.8257 15.9912 27.7346 17.9001 27.7346 20.2549C27.7346 22.6098 25.8257 24.5187 23.4709 24.5187C21.116 24.5187 19.2072 22.6098 19.2072 20.2549C19.2097 17.9014 21.1171 15.9938 23.4709 15.9912Z" fill="#1E293B"/>
<path d="M20.4254 30.9145H26.5168V31.9803H20.4254V30.9145Z" fill="#1E293B"/>
<path d="M18.1411 28.7824H28.8006V29.8484H18.1411V28.7824Z" fill="#1E293B"/>
<path d="M6.41577 28.7824H7.48181V29.8484H6.41577V28.7824Z" fill="#1E293B"/>
<path d="M3.21802 29.8484H4.28384V30.9145H3.21802V29.8484Z" fill="#1E293B"/>
<path d="M6.4691 25.7834C9.25202 20.9365 10.9981 15.5644 11.5967 10.0076L16.5535 14.9349C16.6526 15.0336 16.7865 15.0892 16.9265 15.0899C16.9553 15.0901 16.9843 15.0877 17.0127 15.083C17.1817 15.0555 17.3271 14.9484 17.4034 14.7953C18.4082 12.7899 18.0147 10.3663 16.427 8.78181L15.9912 8.34577H19.74C20.0343 8.34598 20.2732 8.10753 20.2732 7.81318C20.2734 7.75555 20.264 7.69836 20.2459 7.64396C19.5381 5.51533 17.5462 4.07989 15.3029 4.08204H14.6102L17.2718 1.40491C17.4795 1.19634 17.4787 0.858988 17.2701 0.651285C17.2297 0.611077 17.1832 0.577535 17.1323 0.552164C15.126 -0.453671 12.7011 -0.0604105 11.1155 1.52811L10.6066 2.03705C10.4406 2.20411 10.2865 2.38215 10.1445 2.57007C10.0044 2.38215 9.85126 2.20411 9.68656 2.03705L9.17763 1.52811C7.5934 -0.0593355 5.16977 -0.452596 3.16477 0.552164C2.90137 0.683752 2.79451 1.00391 2.9261 1.26708C2.95147 1.31804 2.98501 1.36449 3.02522 1.40491L5.68989 4.08204H4.99023C2.74699 4.07989 0.754892 5.51533 0.0472821 7.64396C-0.0460339 7.92305 0.104691 8.22493 0.383994 8.31824C0.438392 8.33652 0.495586 8.34577 0.553209 8.34577H4.29832L3.86249 8.78181C2.27482 10.3663 1.88135 12.7899 2.88589 14.7953C2.96244 14.9484 3.10779 15.0555 3.27657 15.083C3.30517 15.0877 3.33398 15.0901 3.36301 15.0899C3.50384 15.0899 3.63887 15.0342 3.73864 14.9349L8.35434 10.3465C7.78283 15.4537 5.85932 20.316 2.78204 24.4318C2.06562 24.2437 1.3393 24.0955 0.606533 23.9884L0.273476 23.9549L0.16683 25.016L0.477525 25.0463C1.01054 25.1226 1.54012 25.2304 2.06691 25.3523C1.96026 25.486 1.85361 25.6219 1.74331 25.7537L2.56079 26.4375C6.65659 21.5678 9.09829 15.5223 9.53326 9.174L10.1467 8.56444L10.606 9.02112C10.0456 15.8102 7.71532 22.3339 3.84743 27.9415L4.72039 28.5523C5.13945 27.9542 5.53916 27.3334 5.92662 26.7008C8.4197 27.8933 10.621 29.6179 12.3755 31.7532L13.1999 31.0779C12.1624 29.8166 10.9739 28.6876 9.66055 27.7166H31.9983V26.6505H8.08149C7.559 26.3351 7.01975 26.0494 6.4691 25.7834ZM16.7308 13.6072L11.0996 8.00841C12.54 7.57838 14.1002 7.96863 15.1683 9.02629L15.6773 9.53544C16.7435 10.5998 17.1469 12.1593 16.7308 13.6072ZM18.9268 7.27994H14.5138C13.4861 6.79079 12.3265 6.65232 11.2125 6.88604C11.9881 5.79549 13.2433 5.14787 14.5816 5.14808H15.301C16.8076 5.14572 18.1964 5.96234 18.9268 7.27994ZM11.3585 2.79067L11.8677 2.28173C12.9328 1.21527 14.493 0.811685 15.9415 1.22795L12.7821 4.40607C11.7567 4.78342 10.8764 5.47447 10.266 6.38076C10.0181 5.07691 10.4271 3.73437 11.3602 2.79067H11.3585ZM8.4225 2.28173L8.93143 2.79067C9.16881 3.03299 9.37479 3.30434 9.54444 3.59805C9.30298 4.15945 9.16515 4.75955 9.1372 5.36976C8.6588 4.95178 8.10772 4.62538 7.5117 4.40607L4.35164 1.22795C5.79976 0.8119 7.35947 1.21548 8.424 2.28173H8.4225ZM4.98851 5.14808H5.70816C7.04727 5.14679 8.30424 5.7942 9.08065 6.88539C7.96731 6.65253 6.80817 6.791 5.78105 7.27994H1.36639C2.09658 5.96298 3.48428 5.14658 4.99023 5.14808H4.98851ZM3.56233 13.6072C3.14628 12.1593 3.54986 10.5998 4.61611 9.53544L5.12505 9.02629C5.89179 8.26148 6.93159 7.83339 8.01483 7.83683C8.41454 7.83704 8.8121 7.89402 9.1959 8.00626L3.56233 13.6072Z" fill="#1E293B"/>
</g>
</g>
<defs>
<clipPath id="clip0_14_2031">
<rect width="32" height="32" fill="white"/>
</clipPath>
<clipPath id="clip1_14_2031">
<rect width="32" height="32" fill="white"/>
</clipPath>
</defs>
</svg>
