<svg width="32" height="32" viewBox="0 0 32 32" fill="none" xmlns="http://www.w3.org/2000/svg">
<g clip-path="url(#clip0_14_24075)">
<path d="M19.6904 22.6056H17.9362C17.6773 22.6056 17.4674 22.8155 17.4674 23.0743C17.4674 23.3333 17.6773 23.5431 17.9362 23.5431H19.6904C19.9492 23.5431 20.1591 23.3333 20.1591 23.0743C20.1591 22.8155 19.9492 22.6056 19.6904 22.6056Z" fill="#1E293B"/>
<path d="M30.0155 17.5872L27.4629 16.6027L26.1615 15.3012C26.0779 15.2176 25.9702 15.1724 25.8602 15.1653V14.1298C26.4736 13.4758 26.9102 12.6476 27.0864 11.7146C27.1958 11.7195 27.3063 11.7107 27.4152 11.6884C28.0389 11.5608 28.4916 10.9821 28.4916 10.3126V9.97075C28.4916 9.58344 28.3345 9.22794 28.0788 8.97375C28.4927 6.72249 28.1518 4.88786 27.0884 3.65991C26.0598 2.47222 24.4027 1.90453 22.2964 2.01847C20.3503 2.12366 19.0941 3.01904 18.6961 3.3466C18.4782 3.37248 18.1071 3.44898 17.7315 3.67435C17.2108 3.98673 16.5903 4.64292 16.5903 5.99499C16.5903 7.17449 16.7788 8.15924 16.9153 8.71793C16.4578 8.94081 16.1517 9.42381 16.1517 9.976V10.3125C16.1517 10.982 16.6044 11.5607 17.2281 11.6884C17.337 11.7107 17.4475 11.7194 17.5568 11.7145C17.733 12.6475 18.1697 13.4757 18.783 14.1297V15.1653C18.673 15.1723 18.5653 15.2176 18.4818 15.3011L17.1803 16.6026L14.6278 17.5872C14.4069 17.6723 14.196 17.7827 14.0009 17.9153C13.7868 18.0608 13.7311 18.3523 13.8766 18.5664C13.9673 18.6999 14.1147 18.7718 14.2647 18.7718C14.3554 18.7718 14.447 18.7455 14.5277 18.6907C14.6638 18.5983 14.811 18.5213 14.9651 18.4618L17.3341 17.548L19.1453 20.265C19.3698 20.6018 19.7297 20.8179 20.1325 20.8577C20.1773 20.8622 20.2222 20.8644 20.2667 20.8644C20.4998 20.8644 20.7261 20.803 20.9263 20.6897L20.5377 29.5065C20.5262 29.7651 20.7267 29.9841 20.9853 29.9955C20.9923 29.9958 20.9993 29.9959 21.0063 29.9959C21.2557 29.9959 21.4632 29.7993 21.4743 29.5478L21.835 21.3639H22.8082L23.1689 29.5478C23.18 29.7994 23.3875 29.9959 23.6369 29.9959C23.6439 29.9959 23.6509 29.9958 23.6579 29.9955C23.9165 29.9841 24.1169 29.7651 24.1056 29.5065L23.7169 20.6897C23.9171 20.803 24.1433 20.8644 24.3766 20.8644C24.4211 20.8644 24.4659 20.8622 24.5107 20.8577C24.9135 20.8179 25.2733 20.6018 25.4979 20.265L27.3091 17.548L29.6781 18.4618C30.0103 18.5899 30.2963 18.7943 30.5212 19.0494L28.9005 20.6701C28.3149 21.2557 27.9925 22.0342 27.9925 22.8622V29.5272C27.9925 29.7861 28.2024 29.996 28.4613 29.996C28.7201 29.996 28.93 29.7861 28.93 29.5272V22.8622C28.93 22.2846 29.1549 21.7415 29.5634 21.333L30.9858 19.9107C31.0429 20.1202 31.0696 20.3405 31.0606 20.5658L30.6975 29.5082C30.687 29.7669 30.8882 29.9851 31.1468 29.9956C31.1533 29.9959 31.1598 29.996 31.1662 29.996C31.4163 29.996 31.624 29.7985 31.6342 29.5463L31.9974 20.6037C32.0506 19.2772 31.2541 18.065 30.0155 17.5872ZM18.4745 11.5213C18.3918 11.0712 17.975 10.7441 17.5252 10.7774C17.4896 10.7799 17.453 10.7774 17.4161 10.7699C17.2298 10.7318 17.0892 10.5351 17.0892 10.3126V9.97594C17.0892 9.7585 17.2345 9.56263 17.42 9.53006C17.5765 9.50256 17.7263 9.56 17.8212 9.68369C17.9072 9.79588 18.022 9.87613 18.1531 9.91563C18.3451 9.97363 18.5568 9.93956 18.7195 9.82469C19.0127 9.61775 19.2713 9.36494 19.4882 9.07319C19.6427 8.86544 19.5995 8.57181 19.3918 8.41737C19.184 8.26287 18.8904 8.30606 18.7359 8.51381C18.6277 8.65931 18.5055 8.79137 18.3709 8.90825C18.2223 8.78112 18.0487 8.68925 17.8626 8.63681C17.7422 8.17543 17.5278 7.18699 17.5278 5.99486C17.5278 5.27692 17.7491 4.77248 18.1855 4.49561C18.5261 4.27954 18.8865 4.27092 18.8863 4.27085C19.0061 4.27085 19.1227 4.22367 19.2097 4.14135C19.2212 4.1306 20.3735 3.06122 22.3469 2.95454C24.1532 2.85704 25.5477 3.31304 26.3796 4.27354C27.2179 5.24167 27.4971 6.72799 27.1943 8.58831C27.0687 8.58387 26.9312 8.59337 26.7944 8.61618L26.3541 7.55856C26.2642 7.3428 26.0288 7.2263 25.8027 7.28524C25.7591 7.29662 21.4303 8.394 19.6152 6.13424C19.4532 5.93242 19.1582 5.90017 18.9562 6.0623C18.7544 6.22443 18.7222 6.51943 18.8843 6.7213C20.7378 9.02894 24.4156 8.52693 25.6399 8.28212L25.9804 9.09994C26.1269 9.4515 26.5015 9.6435 26.8707 9.55644C27.0223 9.52075 27.1671 9.51994 27.2215 9.53069C27.4111 9.56844 27.554 9.7575 27.554 9.97063V10.3125C27.554 10.5351 27.4134 10.7318 27.2271 10.7699C27.1903 10.7774 27.1534 10.7799 27.118 10.7773C26.6682 10.7446 26.2515 11.0711 26.1687 11.5213C25.8277 13.3778 24.2098 14.7253 22.3216 14.7253C20.4334 14.7253 18.8155 13.3778 18.4745 11.5213ZM20.5539 19.8073C20.435 19.9262 20.2968 19.932 20.225 19.9249C20.1532 19.9178 20.0187 19.8849 19.9255 19.745L18.1008 17.008L18.8346 16.2742L21.6359 18.7253L20.5539 19.8073ZM21.8764 20.4265L21.9047 19.7822L22.3215 19.3654L22.7384 19.7822L22.7667 20.4265H21.8764ZM22.3216 18.0796L19.7205 15.8036V14.9065C20.4768 15.3875 21.3715 15.6628 22.3216 15.6628C23.2717 15.6628 24.1665 15.3875 24.9227 14.9065V15.8036L22.3216 18.0796ZM24.7179 19.745C24.6246 19.885 24.4901 19.9178 24.4184 19.9249C24.3464 19.932 24.2082 19.9262 24.0894 19.8072L23.0074 18.7253L25.8087 16.2742L26.5425 17.008L24.7179 19.745Z" fill="#1E293B"/>
<path d="M14.8653 20.0438L12.5765 19.0447L11.3253 17.7935C11.2415 17.7096 11.1337 17.6646 11.024 17.6576V16.9202C12.0933 16.2175 12.8758 15.0999 13.1273 13.7682C13.2504 13.7737 13.3747 13.7619 13.4972 13.733C14.097 13.591 14.5323 13.0162 14.5323 12.3662V12.0245C14.5323 11.5496 14.2967 11.1224 13.9317 10.8718C14.039 10.4464 14.0938 10.0112 14.0938 9.57315C14.0938 7.63115 13.044 5.92064 11.4617 4.93851C11.4448 3.31769 10.0614 2.00394 8.36245 2.00394C6.66351 2.00394 5.28006 3.31769 5.26319 4.93851C3.68093 5.92064 2.63118 7.63121 2.63118 9.57315C2.63118 10.0099 2.68555 10.4438 2.7923 10.868C2.42743 11.1174 2.19261 11.5466 2.19261 12.0296V12.3662C2.19261 13.0162 2.62793 13.591 3.22774 13.733C3.35024 13.762 3.47449 13.7737 3.59768 13.7682C3.84912 15.0999 4.63169 16.2175 5.701 16.9202V17.6576C5.59131 17.6646 5.48356 17.7096 5.39975 17.7935L4.14856 19.0447L1.85974 20.0438C0.69517 20.5521 -0.0510834 21.7466 0.00272929 23.0162L0.279543 29.547C0.29023 29.7989 0.497794 29.996 0.747545 29.996C0.754232 29.996 0.760982 29.9959 0.767732 29.9955C1.02642 29.9846 1.22717 29.766 1.21623 29.5074L0.939358 22.9765C0.921545 22.5556 1.03092 22.1473 1.23655 21.7959L2.46686 23.2723C2.85568 23.7388 3.06974 24.3302 3.06974 24.9375V29.5272C3.06974 29.7861 3.27962 29.996 3.53849 29.996C3.79737 29.996 4.00725 29.7861 4.00725 29.5272V24.9375C4.00725 24.1113 3.71593 23.3068 3.18705 22.6721L1.87911 21.1026C1.9903 21.026 2.10849 20.9581 2.2348 20.903L4.22956 20.0322L5.63919 22.3203C5.77838 22.5462 6.0085 22.6994 6.27063 22.7406C6.31775 22.7481 6.365 22.7517 6.41207 22.7517C6.62638 22.7517 6.83513 22.6758 7.00063 22.5345L7.89389 21.7723V29.5272C7.89389 29.786 8.10376 29.9959 8.36264 29.9959C8.62151 29.9959 8.83139 29.786 8.83139 29.5272V21.7725L9.72458 22.5346C9.89008 22.6759 10.0988 22.7518 10.3131 22.7518C10.3601 22.7518 10.4075 22.7481 10.4546 22.7408C10.7167 22.6995 10.9468 22.5463 11.086 22.3204L12.4957 20.0323L14.4904 20.903C14.6167 20.9581 14.7349 21.026 14.8461 21.1026L13.5382 22.6722C13.0093 23.3068 12.718 24.1114 12.718 24.9375V29.5273C12.718 29.7862 12.9278 29.996 13.1867 29.996C13.4456 29.996 13.6555 29.7862 13.6555 29.5273V24.9375C13.6555 24.3303 13.8696 23.7389 14.2583 23.2723L15.4887 21.796C15.6943 22.1474 15.8037 22.5557 15.7859 22.9765L15.509 29.5074C15.4981 29.766 15.6989 29.9846 15.9575 29.9956C15.9643 29.9959 15.971 29.996 15.9777 29.996C16.2275 29.996 16.435 29.799 16.4457 29.5471L16.7225 23.0163C16.7763 21.7467 16.03 20.5521 14.8653 20.0438ZM8.36257 2.94144C9.35983 2.94144 10.2012 3.57763 10.45 4.43963C9.80289 4.19538 9.09876 4.06107 8.36257 4.06107C7.62638 4.06107 6.92226 4.19538 6.27513 4.43963C6.52394 3.57763 7.36526 2.94144 8.36257 2.94144ZM4.51537 13.575C4.43275 13.1249 4.01531 12.7979 3.56618 12.8311C3.52637 12.8339 3.48524 12.8305 3.44374 12.8207C3.26499 12.7784 3.13018 12.583 3.13018 12.3662V12.0296C3.13018 11.8122 3.27549 11.6163 3.46093 11.5837C3.61743 11.5562 3.76724 11.6137 3.86199 11.7373C3.94806 11.8495 4.06287 11.9298 4.19406 11.9694C4.386 12.0274 4.59781 11.9934 4.76044 11.8784C5.04912 11.6747 5.30438 11.4263 5.51913 11.1403C5.67456 10.9333 5.63275 10.6394 5.42575 10.484C5.21869 10.3286 4.92487 10.3704 4.76944 10.5774C4.66312 10.719 4.54343 10.8477 4.41181 10.962C4.21125 10.7905 3.96531 10.6831 3.70443 10.6505C3.61462 10.2975 3.56868 9.93641 3.56868 9.57322C3.56868 7.05083 5.71919 4.99864 8.36257 4.99864C11.0059 4.99864 13.1564 7.05077 13.1564 9.57322C13.1564 9.93572 13.1107 10.296 13.0212 10.6485C12.8978 10.6583 12.7725 10.6785 12.6564 10.7086L12.304 10.4188C12.127 10.2732 11.9041 10.2003 11.6785 10.2138C10.9895 10.2545 7.46088 10.3477 5.6505 8.18102C5.4845 7.9824 5.18894 7.9559 4.99025 8.1219C4.79156 8.2879 4.76512 8.58353 4.93112 8.78215C5.824 9.85072 7.13357 10.5733 8.82339 10.9298C10.1172 11.2027 11.2673 11.1762 11.718 11.1505L12.2677 11.6026C12.419 11.727 12.6312 11.7446 12.8007 11.646C12.8802 11.6027 13.1464 11.5613 13.2626 11.5845C13.4522 11.6222 13.595 11.8113 13.595 12.0245V12.3662C13.595 12.583 13.4602 12.7784 13.2815 12.8207C13.24 12.8305 13.1988 12.834 13.159 12.831C12.7102 12.7984 12.2925 13.1249 12.2098 13.575C11.8688 15.4316 10.2508 16.7791 8.36264 16.7791C6.47438 16.7791 4.85637 15.4316 4.51537 13.575ZM6.41888 21.7986L5.009 19.5101L5.73125 18.7878L7.67238 20.7289L6.41888 21.7986ZM8.36257 20.0933L6.63857 18.3693V17.3995C7.17676 17.6044 7.75832 17.7166 8.36257 17.7166C8.96683 17.7166 9.54839 17.6044 10.0866 17.3996V18.3693L8.36257 20.0933ZM10.3063 21.7986L9.05276 20.7289L10.9939 18.7878L11.7161 19.5101L10.3063 21.7986Z" fill="#1E293B"/>
<path d="M6.60848 24.673H5.29285C5.03397 24.673 4.8241 24.8828 4.8241 25.1417C4.8241 25.4006 5.03397 25.6105 5.29285 25.6105H6.60848C6.86735 25.6105 7.07723 25.4006 7.07723 25.1417C7.07723 24.8828 6.86735 24.673 6.60848 24.673Z" fill="#1E293B"/>
</g>
<defs>
<clipPath id="clip0_14_24075">
<rect width="32" height="32" fill="white"/>
</clipPath>
</defs>
</svg>
