<svg width="28" height="25" viewBox="0 0 28 25" fill="none" xmlns="http://www.w3.org/2000/svg">
<path d="M18.93 21.62C17.1744 22.5961 15.1656 23.0209 13.1652 22.839C11.1648 22.6572 9.26557 21.8771 7.71482 20.6005C6.16407 19.3238 5.03371 17.6098 4.471 15.6815C3.90828 13.7533 3.93929 11.7003 4.55998 9.79L4.64998 10.25C4.69673 10.4793 4.8224 10.6849 5.00512 10.8311C5.18784 10.9772 5.41603 11.0547 5.64998 11.05H5.84998C5.97869 11.0238 6.10096 10.9724 6.20983 10.8989C6.31869 10.8254 6.412 10.7312 6.48443 10.6216C6.55687 10.512 6.607 10.3892 6.63198 10.2603C6.65695 10.1313 6.65627 9.9987 6.62998 9.87L5.99998 6.62C5.97374 6.49129 5.9224 6.36901 5.84889 6.26015C5.77538 6.15129 5.68115 6.05798 5.57157 5.98554C5.46199 5.91311 5.33921 5.86298 5.21025 5.838C5.08129 5.81303 4.94868 5.81371 4.81998 5.84L1.57998 6.49C1.31476 6.51652 1.07094 6.64731 0.902161 6.8536C0.733378 7.05989 0.653457 7.32478 0.679978 7.59C0.7065 7.85522 0.837292 8.09903 1.04358 8.26782C1.24987 8.4366 1.51476 8.51652 1.77998 8.49H1.97998L2.99998 8.23C2.23298 10.0547 1.92925 12.0408 2.11586 14.0113C2.30247 15.9819 2.97362 17.8756 4.06951 19.5239C5.1654 21.1722 6.65199 22.5238 8.39685 23.4583C10.1417 24.3929 12.0906 24.8812 14.07 24.88C16.1115 24.8814 18.119 24.358 19.9 23.36C20.0142 23.2943 20.1144 23.2068 20.1949 23.1024C20.2753 22.998 20.3344 22.8788 20.3687 22.7516C20.4031 22.6244 20.412 22.4917 20.3951 22.361C20.3782 22.2303 20.3356 22.1042 20.27 21.99C20.2043 21.8757 20.1168 21.7756 20.0124 21.6951C19.908 21.6147 19.7888 21.5556 19.6616 21.5213C19.5344 21.4869 19.4017 21.4779 19.271 21.4949C19.1403 21.5118 19.0142 21.5543 18.9 21.62H18.93Z" fill="#1E293B"/>
<path d="M14 6.08002C13.7348 6.08002 13.4804 6.18537 13.2929 6.37291C13.1053 6.56045 13 6.8148 13 7.08002V7.61002H12.88C12.0859 7.64125 11.3367 7.98626 10.7967 8.56933C10.2568 9.15241 9.97024 9.92589 9.99999 10.72C9.98391 11.1141 10.0457 11.5074 10.1818 11.8775C10.3179 12.2477 10.5256 12.5874 10.7931 12.8772C11.0606 13.1669 11.3826 13.4011 11.7407 13.5664C12.0988 13.7316 12.4859 13.8246 12.88 13.84H13V16.07H11.75C11.4848 16.07 11.2304 16.1754 11.0429 16.3629C10.8553 16.5504 10.75 16.8048 10.75 17.07C10.75 17.3352 10.8553 17.5896 11.0429 17.7771C11.2304 17.9647 11.4848 18.07 11.75 18.07H13C12.9989 18.2074 13.0261 18.3436 13.08 18.47V18.92C13.08 19.1852 13.1853 19.4396 13.3729 19.6271C13.5604 19.8147 13.8148 19.92 14.08 19.92C14.3452 19.92 14.5996 19.8147 14.7871 19.6271C14.9746 19.4396 15.08 19.1852 15.08 18.92V18.06C15.4766 18.0497 15.8672 17.9608 16.2293 17.7985C16.5913 17.6362 16.9176 17.4037 17.1891 17.1145C17.4607 16.8252 17.6722 16.485 17.8114 16.1135C17.9506 15.7419 18.0147 15.3465 18 14.95C18.0325 14.1559 17.7485 13.3813 17.2104 12.7963C16.6723 12.2113 15.9241 11.8638 15.13 11.83H15V9.60002H16.25C16.5152 9.60002 16.7696 9.49466 16.9571 9.30712C17.1446 9.11959 17.25 8.86523 17.25 8.60002C17.25 8.3348 17.1446 8.08045 16.9571 7.89291C16.7696 7.70537 16.5152 7.60002 16.25 7.60002H15V7.07002C14.9974 6.80654 14.8908 6.55474 14.7036 6.36937C14.5163 6.18399 14.2635 6.08 14 6.08002ZM15.13 13.84C15.3922 13.8725 15.631 14.0075 15.794 14.2155C15.957 14.4235 16.0311 14.6876 16 14.95C16.0168 15.0807 16.0076 15.2135 15.9729 15.3406C15.9382 15.4678 15.8787 15.5868 15.7979 15.6909C15.717 15.795 15.6164 15.8821 15.5018 15.9471C15.3872 16.0122 15.2608 16.054 15.13 16.07H15V13.83L15.13 13.84ZM13.01 11.84H12.89C12.7574 11.8264 12.6289 11.7864 12.512 11.7224C12.3951 11.6584 12.2921 11.5717 12.2092 11.4674C12.1263 11.363 12.0651 11.2432 12.0291 11.1148C11.9932 10.9865 11.9833 10.8522 12 10.72C11.9833 10.5885 11.9928 10.4551 12.0281 10.3273C12.0634 10.1996 12.1238 10.0801 12.2057 9.9759C12.2875 9.87169 12.3893 9.78479 12.5051 9.72026C12.6209 9.65573 12.7483 9.61486 12.88 9.60002H13L13.01 11.84Z" fill="#1E293B"/>
<path d="M26.24 17.38L25.08 17.61C26.0596 15.3093 26.2959 12.7599 25.7561 10.3183C25.2162 7.87667 23.927 5.66469 22.0687 3.99144C20.2104 2.31819 17.8758 1.26728 15.3911 0.985538C12.9064 0.703799 10.3958 1.20531 8.20999 2.42001C8.09574 2.48567 7.99554 2.57319 7.91511 2.67757C7.83469 2.78196 7.77561 2.90116 7.74125 3.02838C7.70689 3.15559 7.69793 3.28833 7.71487 3.41901C7.73181 3.54969 7.77433 3.67576 7.83999 3.79C7.90565 3.90425 7.99317 4.00445 8.09755 4.08488C8.20194 4.16531 8.32114 4.22438 8.44836 4.25874C8.57557 4.2931 8.70831 4.30206 8.83899 4.28512C8.96967 4.26818 9.09574 4.22567 9.20999 4.16C10.9577 3.1889 12.9563 2.76397 14.9479 2.94008C16.9395 3.11619 18.8326 3.88525 20.3827 5.14798C21.9329 6.41071 23.0689 8.10911 23.6442 10.0239C24.2195 11.9387 24.2076 13.982 23.61 15.89L23.55 15.58C23.5244 15.4487 23.4732 15.3237 23.3992 15.2122C23.3253 15.1006 23.2302 15.0048 23.1192 14.93C23.0082 14.8553 22.8836 14.8031 22.7525 14.7765C22.6214 14.7499 22.4863 14.7494 22.355 14.775C22.2237 14.8006 22.0987 14.8518 21.9871 14.9257C21.8756 14.9997 21.7797 15.0948 21.705 15.2058C21.6302 15.3167 21.5781 15.4414 21.5515 15.5725C21.5249 15.7036 21.5244 15.8387 21.55 15.97L22.2 19.21C22.2467 19.4393 22.3724 19.6449 22.5551 19.7911C22.7378 19.9373 22.966 20.0147 23.2 20.01H23.4L26.64 19.36C26.7713 19.3344 26.8963 19.2832 27.0078 19.2093C27.1194 19.1353 27.2152 19.0402 27.29 18.9292C27.3647 18.8183 27.4169 18.6937 27.4435 18.5625C27.4701 18.4314 27.4706 18.2963 27.445 18.165C27.4194 18.0337 27.3682 17.9087 27.2942 17.7972C27.2203 17.6856 27.1252 17.5898 27.0142 17.515C26.9032 17.4403 26.7786 17.3881 26.6475 17.3615C26.5164 17.3349 26.3813 17.3344 26.25 17.36L26.24 17.38Z" fill="#1E293B"/>
</svg>
