<svg width="32" height="32" viewBox="0 0 32 32" fill="none" xmlns="http://www.w3.org/2000/svg">
<g clip-path="url(#clip0_14_24097)">
<path d="M31.2386 14.8995C30.7546 14.4925 30.1197 14.3212 29.4967 14.4296C28.4707 14.6081 27.726 15.4935 27.726 16.535V20.503C27.726 20.6532 27.7156 20.8018 27.6973 20.9484C27.6321 20.8616 27.5606 20.7781 27.4817 20.6993C27.0637 20.2813 26.5244 20.0571 25.976 20.0261V11.9212H27.3751C27.6352 11.9212 27.8681 11.7601 27.9599 11.5167C28.0516 11.2732 27.9831 10.9985 27.7878 10.8267L16.4127 0.826631C16.1767 0.619191 15.8233 0.619191 15.5873 0.826631L4.21223 10.8267C4.01685 10.9985 3.94829 11.2732 4.0401 11.5167C4.13185 11.7601 4.36479 11.9212 4.62492 11.9212H6.024V20.0259C5.47568 20.0571 4.9363 20.2812 4.51829 20.6992C4.43942 20.7781 4.36786 20.8615 4.30273 20.9483C4.28435 20.8016 4.27398 20.6531 4.27398 20.5029V16.5348C4.27398 15.4935 3.52928 14.608 2.50327 14.4295C1.88039 14.321 1.24545 14.4923 0.761507 14.8994C0.277503 15.3065 0 15.9026 0 16.5349V20.0886C0 22.8542 1.07701 25.4544 3.03265 27.4101L6.76688 31.1443C6.88894 31.2664 7.04888 31.3274 7.20882 31.3274C7.36876 31.3274 7.52876 31.2663 7.65076 31.1443C7.89483 30.9002 7.89483 30.5045 7.65076 30.2604L3.91654 26.5261C2.19702 24.8066 1.25001 22.5204 1.25001 20.0886V16.5349C1.25001 16.2725 1.3652 16.0251 1.56608 15.8562C1.76689 15.6872 2.03033 15.616 2.28896 15.6611C2.71484 15.7352 3.0239 16.1027 3.0239 16.5349V20.5029C3.0239 21.7785 3.52066 22.9778 4.42261 23.8797L8.06445 27.5216C8.30852 27.7656 8.70427 27.7656 8.9484 27.5216C9.19247 27.2775 9.19247 26.8818 8.9484 26.6376L5.40218 23.0914C4.9863 22.6756 4.9863 21.9989 5.40218 21.5831C5.81799 21.1672 6.49469 21.1672 6.91051 21.5831L9.75235 24.4249C9.86953 24.5421 10.0285 24.608 10.1943 24.608C11.4052 24.608 12.5436 25.0796 13.3999 25.9358C14.6735 27.2095 15.375 28.9029 15.375 30.7041C15.375 31.0493 15.6548 31.3291 16 31.3291C16.3452 31.3291 16.625 31.0493 16.625 30.7041C16.625 28.903 17.3264 27.2095 18.6001 25.9359C19.4563 25.0796 20.5948 24.6081 21.8057 24.6081C21.9714 24.6081 22.1304 24.5422 22.2476 24.425L25.0894 21.5831C25.5052 21.1673 26.1819 21.1673 26.5978 21.5831C27.0136 21.999 27.0136 22.6757 26.5978 23.0915L23.0515 26.6378C22.8075 26.8818 22.8075 27.2776 23.0515 27.5217C23.2956 27.7657 23.6914 27.7657 23.9355 27.5217L27.5773 23.8799C28.4793 22.9778 28.976 21.7787 28.976 20.5031V16.535C28.976 16.1028 29.2851 15.7353 29.711 15.6612C29.9696 15.6162 30.233 15.6873 30.4339 15.8563C30.6347 16.0252 30.75 16.2727 30.75 16.535V20.0887C30.75 22.5205 29.803 24.8067 28.0835 26.5263L24.3492 30.2605C24.1051 30.5045 24.1051 30.9003 24.3492 31.1444C24.4712 31.2665 24.6312 31.3275 24.7911 31.3275C24.9511 31.3275 25.1111 31.2664 25.2331 31.1444L28.9673 27.4102C30.9229 25.4546 31.9999 22.8543 31.9999 20.0887V16.535C32 15.9026 31.7225 15.3065 31.2386 14.8995ZM21.5409 23.3639C20.0956 23.4287 18.7459 24.0222 17.7162 25.0519C16.974 25.7941 16.3962 26.6568 16 27.5956C15.6038 26.6568 15.026 25.7941 14.2838 25.0519C13.2541 24.0222 11.9045 23.4287 10.4591 23.3639L7.79439 20.6992C7.63632 20.5411 7.46064 20.4114 7.27395 20.3086V11.9212H21.375C21.7202 11.9212 22 11.6414 22 11.2962C22 10.951 21.7202 10.6712 21.375 10.6712H6.28244L16 2.12827L25.7176 10.6712H21.375C21.0298 10.6712 20.75 10.951 20.75 11.2962C20.75 11.6414 21.0298 11.9212 21.375 11.9212H24.7261V20.3086C24.5394 20.4114 24.3637 20.5411 24.2055 20.6992L21.5409 23.3639Z" fill="#1E293B"/>
<path d="M15.9999 15.4322C14.8841 14.4375 13.1665 14.4752 12.0963 15.5454C11.5589 16.0828 11.2629 16.7972 11.2629 17.5571C11.2629 18.3171 11.5589 19.0315 12.0963 19.5689L14.8438 22.3165C15.1626 22.6352 15.5812 22.7946 15.9999 22.7946C16.4186 22.7946 16.8372 22.6352 17.156 22.3165L19.9036 19.5689C20.441 19.0315 20.7369 18.3171 20.7369 17.5571C20.7369 16.7972 20.441 16.0828 19.9036 15.5454C18.8334 14.4752 17.1157 14.4375 15.9999 15.4322ZM19.0196 18.685L16.2721 21.4326C16.122 21.5826 15.8778 21.5826 15.7278 21.4326L12.9801 18.685C12.6789 18.3837 12.513 17.9831 12.513 17.5571C12.513 17.1311 12.6789 16.7306 12.9801 16.4293C13.2911 16.1184 13.6995 15.9629 14.108 15.9629C14.5164 15.9629 14.9249 16.1184 15.2358 16.4293L15.5579 16.7514C15.802 16.9955 16.1977 16.9955 16.4419 16.7514L16.764 16.4293C17.386 15.8074 18.3979 15.8074 19.0196 16.4293C19.3209 16.7306 19.4868 17.1311 19.4868 17.5571C19.4868 17.9831 19.3209 18.3837 19.0196 18.685Z" fill="#1E293B"/>
</g>
<defs>
<clipPath id="clip0_14_24097">
<rect width="32" height="32" fill="white"/>
</clipPath>
</defs>
</svg>
