<svg width="32" height="32" viewBox="0 0 32 32" fill="none" xmlns="http://www.w3.org/2000/svg">
<g clip-path="url(#clip0_20_4693)">
<g clip-path="url(#clip1_20_4693)">
<path d="M29.3615 21.3065C28.5736 20.7804 27.6474 20.4997 26.7 20.5H25C24.3841 20.498 23.7908 20.2682 23.3341 19.8549C22.8775 19.4417 22.5898 18.8741 22.5265 18.2615C23.8625 17.8722 25.0153 17.018 25.7765 15.853C26.0333 16.2029 26.3678 16.4886 26.7536 16.6876C27.1393 16.8866 27.566 16.9935 28 17C29.6545 17 31 15.4295 31 13.5C31.0314 12.7795 30.8356 12.0674 30.4403 11.4642C30.045 10.861 29.4701 10.3973 28.797 10.1385C28.7291 9.9997 28.6452 9.86931 28.547 9.75L28.9915 7.082C28.9966 7.05495 28.9994 7.02752 29 7C29 6.14641 28.8319 5.30117 28.5052 4.51256C28.1786 3.72394 27.6998 3.00739 27.0962 2.40381C26.4926 1.80023 25.7761 1.32144 24.9874 0.994783C24.1988 0.668127 23.3536 0.5 22.5 0.5H17.5C15.7761 0.5 14.1228 1.18482 12.9038 2.40381C11.6848 3.62279 11 5.27609 11 7C11.0001 7.02748 11.0024 7.05491 11.007 7.082L11.45 9.75C11.1604 10.1024 11.0015 10.5439 11 11C11 11.5304 11.2107 12.0391 11.5858 12.4142C11.9609 12.7893 12.4696 13 13 13H13.123L13.476 14.2365C13.7486 15.1906 14.2584 16.0601 14.9578 16.764C15.6573 17.4678 16.5236 17.983 17.476 18.2615C17.4126 18.8745 17.1246 19.4424 16.6675 19.8558C16.2103 20.2691 15.6163 20.4986 15 20.5H13.3025C12.3207 20.4998 11.3625 20.8012 10.5577 21.3634C9.75281 21.9256 9.14011 22.7216 8.8025 23.6435C8.54486 23.5513 8.27363 23.5028 8 23.5H7V6C7 5.60218 6.84196 5.22064 6.56066 4.93934C6.27936 4.65804 5.89782 4.5 5.5 4.5C5.10218 4.5 4.72064 4.65804 4.43934 4.93934C4.15804 5.22064 4 5.60218 4 6V23.5H3C2.3372 23.5008 1.70178 23.7644 1.23311 24.2331C0.764441 24.7018 0.500794 25.3372 0.5 26C0.500555 26.0635 0.513285 26.1263 0.5375 26.185C1.13511 27.6701 1.13511 29.3289 0.5375 30.814C0.507144 30.8897 0.495788 30.9718 0.504422 31.0529C0.513057 31.1341 0.541421 31.2119 0.587037 31.2795C0.632653 31.3472 0.694136 31.4026 0.76612 31.4411C0.838103 31.4795 0.918399 31.4997 1 31.5H31C31.1326 31.5 31.2598 31.4473 31.3536 31.3536C31.4473 31.2598 31.5 31.1326 31.5 31V25.3C31.5004 24.5096 31.3054 23.7314 30.9323 23.0347C30.5592 22.3379 30.0196 21.7443 29.3615 21.3065ZM17 21.5C17.7302 22.0438 18.5942 22.3796 19.5 22.4715V22.5C19.5 22.7652 19.3946 23.0196 19.2071 23.2071C19.0196 23.3946 18.7652 23.5 18.5 23.5C18.2838 23.499 18.0735 23.429 17.9 23.3L15.4555 21.4665C15.8274 21.4177 16.189 21.3088 16.526 21.144L17 21.5ZM23.474 21.145C23.8111 21.3094 24.1726 21.4181 24.5445 21.467L22.1 23.3C21.9265 23.429 21.7162 23.4991 21.5 23.5C21.2348 23.5 20.9804 23.3946 20.7929 23.2071C20.6054 23.0196 20.5 22.7652 20.5 22.5V22.4715C21.4058 22.3794 22.2697 22.0437 23 21.5L23.474 21.145ZM14.3385 26.5H25.6615L27.2615 30.5H12.7385L14.3385 26.5ZM25.5 25.5H14.5V22L17.3 24.1C17.6467 24.3587 18.0674 24.499 18.5 24.5C18.785 24.4991 19.0664 24.4369 19.3252 24.3177C19.584 24.1985 19.8141 24.025 20 23.809C20.1859 24.025 20.416 24.1985 20.6748 24.3177C20.9336 24.4369 21.215 24.4991 21.5 24.5C21.9326 24.499 22.3533 24.3587 22.7 24.1L25.5 22V25.5ZM30 13.5C30 14.8785 29.103 16 28 16C27.6381 15.9818 27.2885 15.8628 26.9907 15.6564C26.6928 15.45 26.4586 15.1645 26.3145 14.832C26.395 14.6374 26.465 14.4386 26.524 14.2365L26.877 13H27C27.4741 12.999 27.9324 12.8293 28.2929 12.5213C28.6533 12.2133 28.8925 11.7871 28.9675 11.319C29.2984 11.5763 29.5642 11.9077 29.7435 12.2865C29.9229 12.6653 30.0107 13.081 30 13.5ZM14.2 2.6C15.1531 1.88804 16.3103 1.50229 17.5 1.5H22.5C23.9517 1.49996 25.3445 2.07386 26.3748 3.09657C27.4051 4.11927 27.9893 5.50784 28 6.9595L27.6405 9.1145C27.4348 9.04112 27.2184 9.00243 27 9V7C27.0003 6.93033 26.986 6.86137 26.9581 6.79753C26.9302 6.7337 26.8892 6.67641 26.8379 6.62933C26.7865 6.58226 26.7259 6.54643 26.6598 6.52416C26.5938 6.50189 26.5239 6.49366 26.4545 6.5L25.1795 6.6155C23.9302 6.73142 22.6706 6.57024 21.4907 6.14347C20.3108 5.71669 19.2396 5.03482 18.3535 4.1465C18.2767 4.06976 18.177 4.0201 18.0695 4.00504C17.9619 3.98997 17.8524 4.01032 17.7575 4.063L15.443 5.35C14.777 5.72001 14.2098 6.24478 13.7892 6.88004C13.3687 7.5153 13.107 8.2424 13.0265 9H13C12.7816 9.00243 12.5652 9.04112 12.3595 9.1145L12 6.9595C12.0081 6.11285 12.2108 5.2794 12.5922 4.52351C12.9737 3.76762 13.5238 3.10951 14.2 2.6ZM14.438 13.962L13.981 12.362C13.951 12.2576 13.8879 12.1658 13.8011 12.1005C13.7143 12.0352 13.6086 11.9999 13.5 12H13C12.7348 12 12.4804 11.8946 12.2929 11.7071C12.1054 11.5196 12 11.2652 12 11C12 10.7348 12.1054 10.4804 12.2929 10.2929C12.4804 10.1054 12.7348 10 13 10H13.5C13.6326 10 13.7598 9.94732 13.8536 9.85355C13.9473 9.75979 14 9.63261 14 9.5C14.0001 8.83151 14.1789 8.17521 14.5179 7.59904C14.8569 7.02287 15.3437 6.5478 15.928 6.223L17.92 5.1165C18.9015 6.02494 20.0631 6.71677 21.3294 7.14704C22.5956 7.57731 23.9382 7.73641 25.27 7.614L26 7.55V9.5C26 9.63261 26.0527 9.75979 26.1464 9.85355C26.2402 9.94732 26.3674 10 26.5 10H27C27.2652 10 27.5196 10.1054 27.7071 10.2929C27.8946 10.4804 28 10.7348 28 11C28 11.2652 27.8946 11.5196 27.7071 11.7071C27.5196 11.8946 27.2652 12 27 12H26.5C26.3913 12 26.2855 12.0354 26.1987 12.1009C26.1119 12.1664 26.0488 12.2584 26.019 12.363L25.562 13.963C25.2705 14.982 24.655 15.8784 23.8087 16.5166C22.9625 17.1547 21.9314 17.4999 20.8715 17.5H19.1285C18.0685 17.4999 17.0373 17.1545 16.191 16.5162C15.3447 15.8778 14.7294 14.9812 14.438 13.962ZM19.1285 18.5H20.8715C21.0928 18.4987 21.3138 18.485 21.5335 18.459C21.6394 19.2576 22.0183 19.995 22.606 20.546L22.4 20.7C21.7076 21.2193 20.8655 21.5 20 21.5C19.1345 21.5 18.2924 21.2193 17.6 20.7L17.3945 20.546C17.9817 19.9947 18.3604 19.2574 18.4665 18.459C18.6862 18.485 18.9072 18.4987 19.1285 18.5ZM11.1935 22.1385C11.8178 21.7215 12.5518 21.4993 13.3025 21.5H13.5V25.904L11.6615 30.5H10.3555C9.8735 29.0953 9.91218 27.5641 10.4645 26.1855C10.4881 26.1265 10.5001 26.0635 10.5 26C10.4991 25.6529 10.4255 25.3098 10.2839 24.9929C10.1424 24.676 9.93594 24.3923 9.678 24.16C9.93662 23.3324 10.4716 22.6188 11.1935 22.1385ZM5 6C5 5.86739 5.05268 5.74021 5.14645 5.64645C5.24021 5.55268 5.36739 5.5 5.5 5.5C5.63261 5.5 5.75979 5.55268 5.85355 5.64645C5.94732 5.74021 6 5.86739 6 6V23.5H5V6ZM3 24.5H8C8.31014 24.5004 8.61256 24.5967 8.86581 24.7757C9.11905 24.9548 9.31071 25.2077 9.4145 25.5H1.5855C1.68929 25.2077 1.88095 24.9548 2.13419 24.7757C2.38744 24.5967 2.68986 24.5004 3 24.5ZM8 30.5V28H7V30.5H6V28H5V30.5H4V28H3V30.5H1.7C2.07787 29.1933 2.07665 27.8061 1.6965 26.5H9.304C8.92385 27.8061 8.92263 29.1933 9.3005 30.5H8ZM30.5 30.5H28.3385L26.5 25.904V21.5H26.7C27.7076 21.5007 28.6738 21.9012 29.3863 22.6137C30.0988 23.3262 30.4993 24.2924 30.5 25.3V30.5Z" fill="#1E293B"/>
<path d="M22.914 14.793L23.3535 14.3535L22.6465 13.6465L22.207 14.086C21.6216 14.6712 20.8277 15 20 15C19.1722 15 18.3784 14.6712 17.793 14.086L17.3535 13.6465L16.6465 14.3535L17.086 14.793C17.4687 15.1757 17.923 15.4792 18.4229 15.6863C18.9229 15.8934 19.4588 16 20 16C20.5412 16 21.077 15.8934 21.577 15.6863C22.077 15.4792 22.5313 15.1757 22.914 14.793Z" fill="#1E293B"/>
<path d="M17.5 10.707L18.1465 11.3535L18.8535 10.6465L18.207 10C17.8816 9.69004 17.4494 9.51715 17 9.51715C16.5506 9.51715 16.1184 9.69004 15.793 10L15.1465 10.6465L15.8535 11.3535L16.5 10.707C16.6349 10.5787 16.8139 10.5072 17 10.5072C17.1861 10.5072 17.3651 10.5787 17.5 10.707Z" fill="#1E293B"/>
<path d="M22.5 10.707C22.6349 10.5787 22.8139 10.5072 23 10.5072C23.1861 10.5072 23.3651 10.5787 23.5 10.707L24.1465 11.3535L24.8535 10.6465L24.207 10C23.8816 9.69004 23.4494 9.51715 23 9.51715C22.5506 9.51715 22.1184 9.69004 21.793 10L21.1465 10.6465L21.8535 11.3535L22.5 10.707Z" fill="#1E293B"/>
</g>
</g>
<defs>
<clipPath id="clip0_20_4693">
<rect width="32" height="32" fill="white"/>
</clipPath>
<clipPath id="clip1_20_4693">
<rect width="32" height="32" fill="white"/>
</clipPath>
</defs>
</svg>
